<svg width="20" height="24" viewBox="0 0 20 24" fill="none" xmlns="http://www.w3.org/2000/svg">
<circle cx="9" cy="14.9639" r="8.5" stroke="black"/>
<g clip-path="url(#clip0_1087_170)">
<path d="M19.8336 0.785231C19.8336 0.785231 19.6641 0.596217 19.6641 0.639836L19.8675 0.872468L19.8336 0.785231Z" fill="#F57600"/>
<path d="M19.224 0.537888C19.3088 0.668744 19.4953 0.857757 19.7497 1.00315C19.5292 0.799599 19.631 0.872297 19.3766 0.625125C19.3766 0.581506 19.4953 0.654204 19.5801 0.726902C19.5292 0.668744 19.6649 0.741441 19.5462 0.596046C19.3427 0.46519 19.2749 0.508809 19.3766 0.668744C19.3088 0.639665 19.2579 0.581506 19.207 0.537888H19.224Z" fill="#F57600"/>
<path d="M14.3399 4.97271C14.3399 4.97271 14.323 4.92909 14.2891 4.91455C14.2891 4.94363 14.306 4.95817 14.3399 4.97271Z" fill="#F57600"/>
<path d="M13.7808 5.14709H13.8147C13.8147 5.14709 13.7638 5.13255 13.7808 5.14709Z" fill="#F57600"/>
<path d="M15.9853 3.11133H15.8496C15.9344 3.16949 15.9344 3.11133 15.9853 3.11133Z" fill="#F57600"/>
<path d="M19.545 1.35199C19.545 1.35199 19.5281 1.30838 19.4941 1.2793V1.32292L19.545 1.35199Z" fill="#F57600"/>
<path d="M16.5438 2.12277L16.459 2.021L16.5268 2.12277H16.5438Z" fill="#F57600"/>
<path d="M17.1367 1.5121C17.1367 1.5121 17.3232 1.68657 17.408 1.75927C17.3232 1.68657 17.2893 1.64295 17.2893 1.61387L17.1367 1.49756V1.5121Z" fill="#F57600"/>
<path d="M16.0516 2.5446L15.9668 2.50098C15.9668 2.50098 16.0177 2.53006 16.0516 2.5446Z" fill="#F57600"/>
<path d="M5.26758 11.1809H5.28454L5.38628 11.0791L5.26758 11.1809Z" fill="#F57600"/>
<path d="M13.0004 5.59842C12.9819 5.58242 13.0004 5.59842 13.0004 5.59842V5.59842Z" fill="#F57600"/>
<path d="M9.82812 11.8499C10.0994 11.8499 10.0825 12.0534 10.4047 12.0243C10.3029 12.0098 10.0316 11.8062 9.82812 11.8499Z" fill="#F57600"/>
<path d="M19.4955 1.3374C19.4955 1.3374 19.4955 1.35194 19.4785 1.36648C19.4955 1.36648 19.4955 1.35194 19.4955 1.3374Z" fill="#F57600"/>
<path d="M12.1016 7.12451C12.1016 7.12451 12.1863 7.15359 12.2203 7.15359C12.1863 7.15359 12.1524 7.12451 12.1016 7.12451Z" fill="#F57600"/>
<path d="M12.118 7.88037C12.118 7.88037 12.0502 7.88037 12.0672 7.90945H12.1011C12.1011 7.90945 12.0672 7.88037 12.1011 7.88037H12.118Z" fill="#F57600"/>
<path d="M11.7793 8.50575H11.8302V8.49121L11.7793 8.50575Z" fill="#F57600"/>
<path d="M5.99682 14.2631C5.99682 14.2631 6.13247 14.1613 6.2003 14.1177C6.03073 14.2195 5.91203 14.1613 5.99682 14.2631Z" fill="#F57600"/>
<path d="M19.4102 1.26514C19.4102 1.26514 19.4949 1.32329 19.4949 1.33783V1.30876C19.4949 1.30876 19.4271 1.26514 19.4102 1.26514Z" fill="#F57600"/>
<path d="M14.1199 8.75293L14.0352 8.82563C14.0352 8.82563 14.103 8.78201 14.1199 8.75293Z" fill="#F57600"/>
<path d="M13.9164 9.11626C13.8146 9.10173 13.7468 9.08719 13.7129 9.10173L13.7807 9.14534H13.9333L13.9164 9.11626Z" fill="#F57600"/>
<path d="M5.19896 13.827C5.24983 13.9143 5.5381 13.6962 5.74158 13.6235C5.91115 13.6816 5.5381 13.798 5.40244 13.9143C5.5381 13.9288 5.86028 13.827 5.87724 13.8852C5.82637 13.9143 5.80941 13.9434 5.74158 13.9579C6.04681 13.8852 5.89419 14.1469 6.26725 14.0597L6.19942 14.1178C6.35203 14.0161 6.50464 13.9288 6.62334 13.8707C6.65726 13.8997 6.8777 13.8416 6.67421 13.9579C6.67421 13.9288 6.57247 13.9724 6.50464 14.0015H6.62334C6.35203 14.1905 6.48769 14.0015 6.25029 14.1178C6.4029 14.1469 6.72508 14.1178 6.67421 14.2051C6.38595 14.3795 6.47073 14.1178 6.26725 14.3359L6.31812 14.176C5.91115 14.4959 6.31812 14.1033 5.86028 14.4377C5.86028 14.6122 6.11463 14.4959 6.09768 14.6413C6.2842 14.5831 6.33507 14.5104 6.5216 14.4522C6.94552 14.4959 5.92811 15.0774 6.43682 15.0774C6.65726 15.0193 6.99639 14.7576 6.89465 15.0484L6.57247 15.2519C6.65726 15.5136 7.04727 14.9757 6.96248 15.3973C6.84378 15.4845 6.79291 15.3246 6.77595 15.3973C6.6403 15.7899 6.97944 15.3391 7.03031 15.4409L6.80987 15.7463C6.96248 15.9643 7.25075 15.9643 7.40336 16.1243C7.33553 16.2261 7.2677 16.2988 7.23379 16.4732C7.48814 16.6041 7.55597 17.1857 7.69163 17.68L7.84424 17.3601C7.84424 17.3601 7.84424 17.5782 7.79337 17.6364C7.82728 17.8545 7.84424 17.3892 7.91207 17.2584C7.94598 17.2584 7.91207 17.5492 7.8612 17.6364C8.06468 17.4183 8.28512 17.2293 8.33599 17.7236L8.30208 17.8254C8.38686 18.029 8.43773 17.142 8.4886 17.5492V17.5928C8.64122 17.869 8.79383 17.7527 9.03122 18.2761C9.03122 17.9126 9.35341 18.5524 9.26862 17.9126C9.40428 18.1598 9.42123 18.2907 9.55689 18.4797C9.55689 18.4942 9.5908 18.5088 9.60776 18.5233C9.64167 18.5233 9.57385 17.9999 9.57385 17.869L9.65863 18.2616L9.60776 17.7818L9.74342 18.218V18.0726C9.74342 18.0726 9.67559 17.9272 9.65863 17.8109C9.65863 17.5492 9.8282 17.9126 9.89603 18.1162V17.5928C9.96386 17.7673 9.96386 17.8545 9.96386 17.9853C9.89603 17.4619 10.1165 18.4215 10.0486 17.9417C10.0147 17.8545 9.98081 17.68 9.9469 17.5928C10.0486 17.8109 10.1334 17.7091 10.1504 17.5201L10.2521 17.8399C10.4047 17.7963 10.4726 17.3311 10.5573 16.9967C10.4556 16.9967 10.2182 16.4587 10.2182 16.3424L10.4556 16.7204C10.3369 16.4151 10.3369 16.6477 10.2182 16.2261C10.286 16.1824 10.5065 16.6186 10.5573 16.8222L10.5234 16.5459C10.5913 16.6622 10.6252 16.7495 10.71 16.9094C10.5913 16.6186 11.0321 17.0257 10.8117 16.5314L10.8795 16.6332C10.9982 16.2988 10.9643 16.037 11.0321 15.7608C10.8117 15.5136 10.8965 15.47 10.7269 15.2228C10.8626 15.1356 11.1169 15.0774 11.1678 14.8448C11.1 14.6122 10.9813 14.6703 10.8456 14.5104C11.083 14.6413 11.1339 14.4086 11.2526 14.6122C11.3035 14.3359 11.3204 14.2341 11.2526 13.8707C11.1339 13.8707 11.083 13.8997 11.0152 13.8561C10.9982 13.7834 11.1508 13.798 11.2695 13.827H11.2865C10.9982 13.5217 12.2022 13.5508 11.7613 13.2309H11.7782L11.5748 12.9983C11.5748 12.9983 11.7443 13.1001 11.9139 13.0855C11.5748 12.7657 12.1004 12.7947 11.88 12.5621C12.66 12.6639 11.9987 12.1114 12.5413 12.0968L12.3717 12.0532C12.2191 11.966 12.4904 12.0387 12.5413 12.0096C12.4057 11.966 12.3717 12.0096 12.287 11.9514C12.2361 11.5298 12.8465 11.2972 13.1687 10.9918C13.2705 10.8755 12.3378 10.6283 12.8126 10.5993L13.1009 10.7592C12.8465 10.3666 13.3722 10.2212 13.1857 9.85775C13.2535 9.90137 13.3383 9.93044 13.3213 9.95952C13.5757 9.9886 13.44 9.77051 13.2535 9.69781C13.2874 9.66873 13.4231 9.75597 13.5248 9.75597C13.6774 9.75597 13.3044 9.5088 13.5418 9.56696C13.5757 9.56696 13.6096 9.61057 13.6096 9.62511C13.5248 9.55242 13.7283 9.47972 13.457 9.40702C13.6266 9.3634 13.44 9.17439 13.6265 9.15985C13.3722 8.99992 13.847 9.05807 13.457 8.86906C13.8639 9.04353 13.8809 8.83998 13.7283 8.70912C13.847 8.78182 13.8809 8.70912 14.0505 8.8109C14.0844 8.7382 14.0505 8.65097 13.83 8.56373C14.3896 8.65097 13.5757 8.14208 14.254 8.34564C14.1522 8.05485 14.1183 7.80767 14.1522 7.58958C14.5422 7.77859 14.0674 7.80767 14.4914 7.99669C14.4235 7.74952 14.1692 7.50234 14.3727 7.38603C14.4574 7.37149 14.5253 7.4878 14.5931 7.54596C14.5592 7.29879 14.8644 7.25517 14.7627 6.99346C14.7966 7.008 14.8305 7.05162 14.8474 7.0807C14.8474 7.05162 14.9492 7.03708 14.7796 6.94984L14.8135 7.008C14.5253 6.92076 14.3557 6.61543 14.22 6.54274C14.6948 6.84807 14.4574 6.47004 15.0509 6.8626C15.034 6.83353 14.9661 6.76083 14.8474 6.70267C14.8983 6.70267 14.9831 6.71721 15.1018 6.81899C15.0848 6.67359 14.8644 6.60089 14.9322 6.51366C15.017 6.55727 15.034 6.60089 15.1357 6.65905C15.0001 6.5282 14.8644 6.39734 15.0001 6.35372C15.0509 6.3828 15.1188 6.41188 15.1018 6.42642C15.1696 6.28102 14.8305 5.96115 15.1018 5.903C15.4409 6.13563 15.2544 5.903 15.5936 6.07747L15.5596 5.94661L15.3731 5.88846C15.3731 5.88846 15.2375 5.64128 15.3901 5.62674L15.4918 5.74306L15.5257 5.58313H15.3562C15.2375 5.43773 14.9492 5.37957 15.1018 5.33595C15.1188 5.37957 15.1527 5.26326 15.3731 5.33595C15.3053 5.24872 15.2205 5.14694 15.3392 5.14694C15.4579 5.19056 15.6783 5.35049 15.7631 5.37957C15.5257 5.2051 15.814 5.17602 15.5596 4.97247C15.6105 5.03062 15.7801 5.11786 15.814 5.1324L15.6275 4.98701C15.7292 4.98701 15.7631 5.00155 15.8818 5.08878C16.0005 5.01609 15.4579 4.89977 15.7123 4.87069C15.7123 4.88523 15.7631 4.89977 15.7801 4.94339C15.9496 4.88523 15.814 4.63806 16.0005 4.59444C16.3397 4.73983 16.0005 4.73983 16.3057 4.84161C16.3736 4.6526 16.1701 4.30365 16.3566 4.20187H16.3057C15.8649 3.94016 16.611 4.23095 16.4584 4.0274C16.4753 4.07102 16.6958 4.18733 16.6449 4.15825C16.7975 4.1001 16.6958 3.89654 16.6788 3.66391L16.7805 3.75115C16.9331 3.75115 16.9671 3.63483 17.0688 3.60575C16.9671 3.51851 17.0179 3.48944 16.8314 3.41674C17.6114 3.63483 16.8145 2.83516 17.4758 3.03871C17.4758 3.05325 17.5266 3.15503 17.5436 3.14049L17.5775 2.93693C17.391 2.82062 17.4588 2.87878 17.2892 2.79154C17.2045 2.68976 17.1536 2.60252 17.1875 2.55891C17.2384 2.7043 17.4758 2.777 17.5945 2.82062L17.4249 2.68976C17.798 2.86424 17.0858 2.39897 17.391 2.47167L17.4758 2.54437C17.4758 2.54437 17.391 2.34081 17.4588 2.32627C17.6793 2.47167 17.5097 2.44259 17.6623 2.57345C17.7132 2.51529 17.4079 2.16634 17.6623 2.28265C17.6962 2.35535 17.6623 2.38443 17.6793 2.44259C17.9675 2.57345 17.9167 2.51529 18.0014 2.51529H18.2049L18.1201 2.48621C17.6623 2.0064 18.188 2.26812 17.9336 1.91917C18.171 2.25358 18.1032 2.0791 18.3406 2.25358C18.4254 2.28265 18.5441 2.29719 18.5949 2.35535C18.4593 2.16634 18.8323 2.38443 18.6119 2.12272C18.6967 2.18088 18.6797 2.0791 18.8493 2.2245C18.8493 2.12272 18.6967 2.13726 18.6119 2.06456C18.4423 1.78831 19.1545 2.06456 18.9341 1.70107C18.9002 1.48298 18.6797 1.30851 18.6288 1.10495C18.7815 1.14857 18.9002 1.32305 18.9002 1.32305C19.0697 1.32305 19.0867 1.26489 19.0528 1.16311C19.1206 1.22127 19.1884 1.23581 19.2902 1.27943C19.2902 1.22127 19.0189 1.07587 19.1884 1.09041C19.2732 1.14857 19.4089 1.25035 19.4767 1.32305C19.4428 1.22127 19.341 1.09041 19.3071 0.988637C19.4597 1.06133 19.4936 1.14857 19.5784 1.22127C19.5615 1.11949 19.5784 1.00318 19.3749 0.843242H19.2732C19.2732 0.843242 19.4597 0.945018 19.4936 0.974097C19.6293 1.13403 19.358 0.988637 19.2732 0.945018V0.872321C18.7475 0.625149 19.2054 1.07587 19.1036 1.13403L18.7815 0.9014L19.0019 1.14857C18.9002 1.11949 18.6967 1.00318 18.6797 0.945018C18.4593 0.9014 18.7645 1.07587 18.5271 1.00318C18.4932 1.00318 18.4762 0.974097 18.4762 0.959558L18.5271 1.07587C18.5271 1.07587 18.2727 0.930479 18.3575 0.930479C18.0862 0.88686 18.4593 1.23581 18.171 1.10495C18.154 1.27943 18.4084 1.26489 18.578 1.54114L17.9167 1.19219L18.1371 1.36666C18.1371 1.36666 18.0693 1.3812 17.9845 1.30851C18.1032 1.46844 18.1032 1.36666 18.2219 1.51206C17.9336 1.42482 18.1371 1.75923 17.7471 1.49752C17.8997 1.64292 17.9506 1.54114 18.0014 1.70107C17.5775 1.42482 18.0014 1.83193 17.7471 1.74469C17.5606 1.57022 17.7301 1.5993 17.4758 1.5266C17.781 1.81739 17.2892 1.57022 17.3062 1.67199C17.5775 1.89009 17.3062 1.86101 17.3062 2.0064C17.2214 1.93371 17.001 2.03548 16.8145 2.03548L16.7636 1.99186C17.0179 2.2245 16.8823 2.26812 16.8823 2.36989C16.7127 2.23904 16.6618 2.18088 16.6279 2.09364L16.5771 2.1518C16.6449 2.23904 16.6788 2.28265 16.6788 2.34081L16.4753 2.16634C16.4075 2.25358 16.5771 2.50075 16.3397 2.50075C16.5431 2.64614 16.984 2.80608 17.0179 3.00963C16.8992 2.93693 16.7127 2.82062 16.6958 2.76246C16.6958 2.777 16.7636 2.8497 16.6958 2.83516L16.5431 2.66068C16.4244 2.66068 16.6788 2.79154 16.6279 2.82062C16.4753 2.71884 16.4923 2.777 16.3736 2.68976C16.3736 2.67522 16.4753 2.68976 16.4244 2.64614C16.3566 2.67522 16.221 2.64614 16.0853 2.60252C16.187 2.66068 16.3057 2.74792 16.2888 2.79154C16.2379 2.87878 16.0683 2.68976 15.9496 2.68976C16.0514 2.777 15.8818 2.76246 16.1192 2.90785C16.1023 2.93693 15.9836 2.86424 15.9157 2.83516C15.9836 2.93693 15.7801 3.05325 16.0853 3.15503H16.1192C16.2549 3.44582 15.7462 3.37312 15.7462 3.56213L15.6614 3.51851C15.6953 3.64937 15.5766 3.73661 15.7123 3.89654C15.6953 3.92562 15.5088 3.86746 15.424 3.79476C15.424 3.89654 15.5257 3.9547 15.3222 3.96924C15.2205 3.82384 15.1696 3.92562 15.2544 3.85292C15.1188 3.89654 14.9661 3.83838 15.1357 4.05648C14.9492 3.91108 14.8135 3.96924 14.8474 4.04194L15.0509 4.07102C15.0509 4.07102 15.0001 4.15825 14.9492 4.18733L14.6779 4.01286C14.22 3.98378 15.034 4.63806 14.3727 4.4345C14.5422 4.59444 14.5761 4.4345 14.7796 4.59444C14.6779 4.6526 14.22 4.5072 14.2031 4.53628C13.9657 4.55082 14.5422 4.85615 14.3557 4.91431C14.4744 4.95793 14.7457 5.08878 14.7796 5.21964C14.6779 5.2778 14.2879 5.08878 14.237 4.98701C14.237 4.95793 14.2879 4.98701 14.3218 4.98701C14.3048 4.94339 14.2879 4.88523 14.1522 4.85615L14.254 4.91431C14.1183 4.89977 14.0505 5.00155 13.8979 4.89977C13.9487 5.01609 14.0505 5.01609 14.1353 5.00155C13.9148 5.01609 14.0166 5.14694 13.847 5.2051C13.9148 5.2051 14.0505 5.26326 14.0335 5.2778C13.7961 5.36503 14.1861 5.45227 14.1522 5.56859C13.9487 5.53951 13.7961 5.35049 13.847 5.52497C13.6944 5.52497 13.5587 5.39411 13.4909 5.32142C13.6266 5.51043 13.2365 5.42319 13.1518 5.46681L13.1009 5.37957C13.1009 5.37957 13.1009 5.45227 13.1009 5.48135L13.3213 5.55405C13.3213 5.55405 13.2365 5.58313 13.1518 5.55405C13.2705 5.65582 13.5079 5.71398 13.6605 5.85938C13.5248 5.84484 13.6944 6.03385 13.4061 5.903C13.5926 5.8303 13.1178 5.77214 13.1518 5.65582C13.1687 5.69944 13.1518 5.71398 13.0839 5.72852C13.05 5.72852 13.0331 5.69944 13.0161 5.6849C12.677 5.6849 13.2874 5.88846 13.1857 6.00477C13.05 5.91754 12.8635 5.88846 12.8804 5.91754C12.9144 5.87392 13.1518 6.01931 13.2365 6.12109C13.05 6.13563 13.2705 6.25195 13.2365 6.28102H13.3213C13.4739 6.35372 13.4231 6.3828 13.4231 6.4555C13.3044 6.39734 13.3722 6.36826 13.3044 6.35372C13.5418 6.54274 12.9144 6.35372 13.05 6.51366C12.9144 6.51366 12.7448 6.36826 12.66 6.36826C12.7957 6.55727 12.3717 6.36826 12.4735 6.54274C12.7109 6.61543 12.66 6.58635 12.8126 6.76083L12.7787 6.5282L13.0161 6.77537C13.0161 6.77537 12.9652 6.61543 13.0161 6.60089C13.1518 6.73175 13.1009 6.70267 13.2874 6.76083C12.9144 6.67359 13.3722 6.97892 13.1009 6.94984L12.5752 6.70267C12.253 6.70267 12.6939 7.03708 12.4565 7.13886H12.5752C12.7787 7.25517 12.5413 7.24063 12.5922 7.32787C12.4226 7.24063 12.3378 7.24063 12.2022 7.21155C12.3378 7.26971 12.1174 7.32787 12.4735 7.50234L12.2022 7.47326C12.0326 7.5605 12.6261 7.83675 12.4904 7.93853C12.3209 7.82221 12.1513 7.82221 12.0665 7.67682C12.0326 7.72044 11.9817 7.73498 12.1174 7.79313C11.9987 7.76406 12.287 8.01123 12.1174 7.98215C12.1852 8.02577 12.3717 8.113 12.3378 8.15662C12.3039 8.15662 12.253 8.113 12.253 8.113C12.3378 8.15662 12.3378 8.22932 12.5583 8.27294C11.9139 8.17116 12.4057 8.63643 11.863 8.56373C11.863 8.68005 11.863 8.8109 11.863 8.89814C11.8122 8.86906 11.7782 8.86906 11.7952 8.85452C11.5578 8.89814 12.287 9.13077 12.0326 9.18893C11.7104 9.14531 11.9139 9.05807 11.7782 9.05807C11.1678 8.85452 11.7782 9.24709 11.3882 9.20347V9.17439C11.1169 9.17439 11.5069 9.42156 11.4052 9.52334C11.4052 9.52334 11.3543 9.49426 11.3204 9.49426C11.5917 9.68327 11.6256 9.85775 11.6595 9.9886C11.4391 9.87229 11.5578 9.90137 11.3035 9.82867C11.3035 9.88683 11.6935 9.94498 11.7274 10.0758C11.5748 10.0613 11.4391 10.0758 11.1678 10.0031L11.2017 9.90137C10.8456 9.82867 11.1508 10.0177 11.083 10.0468L10.9474 9.9886C10.9304 10.1485 11.3035 10.2649 11.2017 10.4102L11.3204 10.4393C11.6595 10.6429 11.083 10.4393 11.3204 10.6138L10.9304 10.512C10.9982 10.5993 11.2017 10.8174 11.2356 10.9337C10.9813 10.7883 10.8965 10.6283 10.7608 10.512C10.7269 10.5702 10.71 10.701 10.8795 10.7883C10.8456 10.7592 10.7778 10.701 10.8456 10.701C11.1169 10.861 11.2187 10.9918 11.1678 11.0936C10.4556 10.8464 10.8626 11.3117 10.2691 11.2099C10.4556 11.4862 9.99777 11.5443 9.9469 11.7915C10.5573 11.8787 9.9469 11.8642 10.5234 12.0241C10.5234 12.0823 10.5234 12.0968 10.4895 12.0968L10.0826 12.155C9.89603 12.155 9.98081 12.0678 9.84516 12.0387C9.76037 12.1405 9.57385 12.0096 9.38732 12.0387C9.60776 12.0823 9.67559 12.1695 9.57385 12.2131H9.87907C10.1334 12.4458 9.33645 12.1986 9.57385 12.4458L9.40428 12.344C9.47211 12.4603 9.28558 12.6493 9.72646 12.8674C9.65863 12.8674 9.48906 12.8384 9.45515 12.7802C9.31949 12.9401 9.77733 13.3909 9.45515 13.3909L9.31949 13.3472C9.31949 13.3472 9.57385 13.4635 9.42123 13.4345C9.37036 13.4054 9.28558 13.3763 9.26862 13.3763C9.31949 13.3909 9.48906 13.5072 9.40428 13.5072L9.25166 13.4199C9.04818 13.3909 9.57385 13.7253 9.60776 13.8997C9.25166 13.6235 9.11601 13.5799 9.04818 13.5508L8.99731 13.5072C8.99731 13.5072 9.23471 13.9143 9.30254 14.2196C8.98035 13.7543 9.09905 14.2051 8.94644 13.8707C8.99731 13.9724 9.13297 14.3505 9.14992 14.4377C9.09905 14.3214 9.30254 14.9466 9.0821 14.3359C8.87861 13.7543 8.91253 13.9143 8.91253 13.9143L9.18384 14.7866C8.98035 14.2051 9.01427 14.3214 9.04818 14.5249C9.0821 14.7139 9.09905 14.9611 8.94644 14.2632L9.03122 14.8593L8.92948 14.2487C8.89557 14.1178 8.87861 14.0451 8.87861 14.2196L8.82774 13.7398C8.82774 13.8125 8.86166 14.2051 8.89557 14.6849L8.92948 15.3537C8.92948 15.5282 8.92948 15.659 8.92948 15.659L8.86166 14.6849C8.86166 14.6849 8.79383 13.8416 8.75991 14.5831V14.1905C8.75991 14.1905 8.77687 13.5944 8.70904 14.6849C8.75991 13.9724 8.70904 14.5831 8.64122 14.8157L8.70904 14.3359C8.62426 14.9175 8.59035 15.0774 8.53947 15.1792C8.53947 15.1065 8.59035 14.8012 8.57339 14.932C8.59035 14.6558 8.4886 15.3246 8.4886 15.0193L8.55643 14.7576C8.55643 14.6849 8.52252 14.8303 8.43773 15.1211C8.38686 15.2519 8.40382 14.9175 8.50556 14.5686C8.43773 14.7721 8.35295 15.0193 8.3699 14.8884C8.40382 14.7576 8.43773 14.6994 8.45469 14.6558C8.50556 14.3505 8.25121 14.932 8.35295 14.554L8.43773 14.3505C8.43773 14.3505 8.47165 14.4668 8.45469 14.4959C8.57339 14.176 8.57339 14.1033 8.74296 13.6816C8.65817 13.9288 8.42078 14.3505 8.47165 14.176L8.52252 14.0742V14.0451C8.52252 14.0451 8.52252 14.0451 8.52252 14.0742C8.53947 14.0161 8.55643 13.987 8.55643 13.9724C8.67513 13.7543 8.6073 13.8416 8.6073 13.8125C8.43773 14.0742 8.45469 14.0015 8.31903 14.2341C8.31903 14.2196 8.33599 14.2051 8.35295 14.2051C8.35295 14.2051 8.35295 14.2051 8.3699 14.1905C8.3699 14.1905 8.38686 14.2341 8.40382 14.2487C8.31903 14.3795 8.23425 14.4668 8.31903 14.2923C8.20034 14.4522 8.08164 14.5976 8.03077 14.6558C8.25121 14.2487 8.35295 14.0451 8.52252 13.8561C8.38686 13.9288 8.40382 13.8561 7.94598 14.0742C7.87815 14.0742 8.04772 13.9724 8.11555 13.9143C8.16642 13.8997 8.16642 13.9143 8.23425 13.8852C8.11555 13.9288 8.11555 13.798 7.75946 13.9288C7.84424 13.7543 8.09859 13.827 7.94598 13.7253L8.06468 13.6962C8.38686 13.1728 6.96248 13.7398 7.43727 13.1146C7.40336 13.1582 7.40336 13.1728 7.35249 13.2018C7.42032 12.7511 6.62334 12.722 6.8777 12.1986C6.92857 12.0968 6.72508 12.1986 6.53856 12.2131L6.80987 12.0823L6.43682 12.1259C6.13159 12.0968 6.99639 11.6316 6.43682 11.617L6.26725 11.7188C6.26725 11.6316 6.02985 11.5589 6.25029 11.4716C6.21638 11.4716 6.04681 11.5443 6.13159 11.4716L6.26725 11.3989C6.14855 11.3844 6.02985 11.3699 5.91115 11.3553C5.87724 11.1663 6.45377 11.05 6.21638 10.7883C6.06376 10.7447 5.63984 10.9046 5.62288 11.0064C5.6568 11.0354 5.63984 11.1227 5.5381 11.2245H5.4194C5.09722 11.5443 4.82591 11.8787 4.65634 12.1259L4.87678 11.966L4.70721 12.0968C4.70721 12.0968 4.70721 12.0968 4.69025 12.0968C4.5546 12.2422 4.6733 12.0968 4.79199 12.0532L4.60547 12.1986C4.72417 12.1259 4.85982 12.0678 4.99548 12.0096C4.84287 12.0968 4.6733 12.1695 4.60547 12.2422C4.79199 12.1695 4.94461 12.0241 5.08026 12.0096C4.91069 12.1405 4.75808 12.1986 4.94461 12.155C4.84287 12.2131 4.77504 12.2422 4.70721 12.2422C4.85982 12.2132 4.80895 12.3004 5.04635 12.2131C4.82591 12.344 5.182 12.3295 4.77504 12.4894C4.87678 12.4603 5.13113 12.4458 5.182 12.4894C4.63938 12.5912 5.24983 12.6784 4.72417 12.8674C5.182 12.7366 5.11418 13.1291 5.4194 13.0855C5.38549 13.0855 5.31766 13.1146 5.31766 13.1001C5.31766 13.1728 5.21592 13.26 5.16505 13.3327C5.50419 13.1582 5.63984 13.2018 5.89419 13.1437C5.62288 13.3909 5.47027 13.3182 5.16505 13.5072C5.43636 13.3618 5.52114 13.4781 5.74158 13.3327C5.57201 13.4926 5.67375 13.4345 5.4194 13.6089C5.84332 13.3909 5.52114 13.6089 5.80941 13.5217C5.6568 13.7107 5.43636 13.7543 5.62288 13.7689C5.52114 13.8852 5.31766 13.8852 5.31766 13.8852L5.19896 13.827ZM7.48814 16.008L7.45423 15.9643L7.5051 16.008H7.48814ZM7.6238 16.2697C7.6238 16.2697 7.58989 16.1824 7.57293 16.1388C7.6238 16.008 7.67467 15.9062 7.69163 15.9353C7.65771 15.9934 7.65771 16.1243 7.64076 16.2697H7.6238ZM8.4886 13.8125C8.4886 13.8125 8.4886 13.8416 8.45469 13.8997C8.45469 13.8997 8.45469 13.8997 8.42078 13.9143V13.9434L8.4886 13.8125Z" fill="#F57600"/>
<path d="M8.25266 14.1323L8.21875 14.205L8.26962 14.1323H8.25266Z" fill="#F57600"/>
<path d="M9.74352 18.3197L9.72656 18.2324V18.3197H9.74352Z" fill="#F57600"/>
<path d="M17.5957 2.77686C17.5957 2.77686 17.6466 2.80593 17.6635 2.80593C17.6635 2.80593 17.6296 2.79139 17.5957 2.77686Z" fill="#F57600"/>
<path d="M18.4266 2.28266L18.3418 2.20996L18.4266 2.28266Z" fill="#F57600"/>
<path d="M14.8984 7.00781C14.8984 7.00781 14.8984 7.00781 14.8984 7.02235C14.9324 7.06597 14.9154 7.05143 14.8984 7.00781Z" fill="#F57600"/>
<path d="M15.3906 5.29248C15.3906 5.29248 15.4585 5.36518 15.4754 5.39426C15.5093 5.37972 15.5263 5.36518 15.3906 5.29248Z" fill="#F57600"/>
<path d="M15.4244 5.46685C15.4244 5.46685 15.4923 5.43777 15.4753 5.40869C15.4414 5.40869 15.4075 5.43777 15.4244 5.46685Z" fill="#F57600"/>
<path d="M19.7494 1.11941H19.7663L19.7324 1.09033L19.7494 1.11941Z" fill="#F57600"/>
<path d="M19.7321 1.0906V1.06152C19.7321 1.06152 19.7153 1.06152 19.7321 1.0906Z" fill="#F57600"/>
<path d="M19.6816 1.00342L19.7156 1.06158C19.7156 1.06158 19.7325 1.06158 19.6816 1.00342Z" fill="#F57600"/>
<path d="M19.3418 1.43945L19.4266 1.49761L19.3418 1.43945Z" fill="#F57600"/>
<path d="M19.2395 1.5848C19.2395 1.5848 19.4939 1.61387 19.4769 1.54118L19.4091 1.49756C19.5108 1.59934 19.1208 1.48302 19.2395 1.5848Z" fill="#F57600"/>
<path d="M17.7481 1.33752L17.9007 1.29391C17.799 1.25029 17.6633 1.19213 17.6803 1.13397C17.3072 1.06127 17.9007 1.25029 17.7312 1.33752H17.7481Z" fill="#F57600"/>
<path d="M17.3239 1.5122C17.3239 1.43951 17.2052 1.42497 17.1543 1.38135C17.2052 1.46858 17.2052 1.48312 17.3239 1.5122Z" fill="#F57600"/>
<path d="M15.2888 3.72216L15.0684 3.59131C15.0684 3.59131 15.1531 3.63493 15.2888 3.72216Z" fill="#F57600"/>
<path d="M16.0853 4.78353L16.2549 4.82714L16.0684 4.69629L16.0853 4.78353Z" fill="#F57600"/>
<path d="M14.3392 4.18728L14.3223 4.1582L14.3392 4.27452V4.18728Z" fill="#F57600"/>
<path d="M11.6104 8.3023L11.9157 8.40408C11.9157 8.40408 11.5596 8.21506 11.6104 8.3023Z" fill="#F57600"/>
<path d="M10.9646 10.2792C10.812 10.2501 10.6933 10.2792 10.812 10.3519C10.8459 10.3228 10.9816 10.3083 10.9646 10.2792Z" fill="#F57600"/>
<path d="M8.91415 14.0596L8.86328 13.8706L8.8972 14.0305L8.91415 14.0596Z" fill="#F57600"/>
</g>
<defs>
<clipPath id="clip0_1087_170">
<rect width="15.3799" height="18.4943" fill="white" transform="translate(4.4707)"/>
</clipPath>
</defs>
</svg>
