<?xml version="1.0" encoding="utf-8"?>
<!-- Generator: Adobe Illustrator 23.0.1, SVG Export Plug-In . SVG Version: 6.00 Build 0)  -->
<svg version="1.1" id="Layer_1" xmlns="http://www.w3.org/2000/svg" xmlns:xlink="http://www.w3.org/1999/xlink" x="0px" y="0px"
	 viewBox="0 0 95 95" style="enable-background:new 0 0 95 95;" xml:space="preserve">
<style type="text/css">
	.st0{fill:#FFEDAD;}
	.st1{fill:#FCBC5C;}
	.st2{fill-rule:evenodd;clip-rule:evenodd;fill:#FCBC5C;}
</style>
<g>
	<g>
		<circle class="st0" cx="47.5" cy="47.5" r="43.5"/>
	</g>
	<g>
		<path class="st1" d="M23.9,37.7h0.3c1.1,0,2,0.9,2,2v15.5c0,1.1-0.9,2-2,2h-0.3c-1.1,0-2-0.9-2-2V39.7
			C21.9,38.6,22.8,37.7,23.9,37.7z"/>
		<path class="st2" d="M70.7,51.8c3.2-1.9,3.2-6.6,0-8.5L44.8,27.5c-3.3-2-7.6,0.4-7.6,4.3V36l-4.4-0.6c-1.8-0.2-3.4,1.2-3.4,3v18
			c0,1.8,1.5,3.2,3.3,3l4.5-0.5v4.4c0,3.9,4.3,6.3,7.6,4.3l18.8-11.5l0.5-0.1v-0.3L70.7,51.8z"/>
	</g>
</g>
</svg>
