<svg width="87" height="87" viewBox="0 0 87 87" fill="none" xmlns="http://www.w3.org/2000/svg">
<g filter="url(#filter0_ii_814_72)">
<circle cx="43.5" cy="43.5" r="43.5" fill="#FFC700"/>
</g>
<path d="M72.1329 39.2304C75.3302 41.1789 75.3302 45.8211 72.1329 47.7696L46.2409 63.5489C42.9089 65.5794 38.6389 63.1812 38.6389 59.2793L38.6389 27.7207C38.6389 23.8188 42.909 21.4206 46.2409 23.4511L72.1329 39.2304Z" fill="url(#paint0_linear_814_72)"/>
<rect x="25.4246" y="33.7831" width="4.34286" height="19.5429" rx="2" fill="#D34C00"/>
<path d="M24.4242 43.5301C24.4242 47.1016 25.0201 49.9969 21.4847 49.9969C17.9492 49.9969 9.13885 43.5301 9.13885 43.5301C9.13885 43.5301 17.9492 37.0632 21.4847 37.0632C25.0201 37.0632 24.4242 39.9585 24.4242 43.5301Z" fill="#FF3D00"/>
<path d="M23.228 43.5301C23.228 45.1535 23.5481 46.4695 21.6491 46.4695C19.7501 46.4695 15.0178 43.5301 15.0178 43.5301C15.0178 43.5301 19.7501 40.5906 21.6491 40.5906C23.5481 40.5906 23.228 41.9066 23.228 43.5301Z" fill="white"/>
<path d="M30.8531 34.4318C30.8531 32.6265 32.4361 31.2301 34.2273 31.4553L65.596 35.3983V52.0097L34.1735 55.3839C32.4 55.5744 30.8531 54.1847 30.8531 52.4011V34.4318Z" fill="#843E17"/>
<path d="M65.1389 52L65.1389 35C71.0106 37.4955 73.9465 38.7433 74.9499 40.4228C76.0822 42.318 76.0822 44.682 74.9499 46.5772C73.9465 48.2567 71.0106 49.5045 65.1389 52Z" fill="#D34C00"/>
<path d="M58.1646 39.083C61.4058 41.1358 61.4058 45.8642 58.1646 47.917C54.6835 50.1217 50.1389 47.6206 50.1389 43.5C50.1389 39.3794 54.6835 36.8783 58.1646 39.083Z" fill="white"/>
<defs>
<filter id="filter0_ii_814_72" x="-4" y="-4" width="94" height="94" filterUnits="userSpaceOnUse" color-interpolation-filters="sRGB">
<feFlood flood-opacity="0" result="BackgroundImageFix"/>
<feBlend mode="normal" in="SourceGraphic" in2="BackgroundImageFix" result="shape"/>
<feColorMatrix in="SourceAlpha" type="matrix" values="0 0 0 0 0 0 0 0 0 0 0 0 0 0 0 0 0 0 127 0" result="hardAlpha"/>
<feOffset dx="3" dy="3"/>
<feGaussianBlur stdDeviation="2.5"/>
<feComposite in2="hardAlpha" operator="arithmetic" k2="-1" k3="1"/>
<feColorMatrix type="matrix" values="0 0 0 0 1 0 0 0 0 1 0 0 0 0 1 0 0 0 0.78 0"/>
<feBlend mode="normal" in2="shape" result="effect1_innerShadow_814_72"/>
<feColorMatrix in="SourceAlpha" type="matrix" values="0 0 0 0 0 0 0 0 0 0 0 0 0 0 0 0 0 0 127 0" result="hardAlpha"/>
<feOffset dx="-6" dy="-4"/>
<feGaussianBlur stdDeviation="2"/>
<feComposite in2="hardAlpha" operator="arithmetic" k2="-1" k3="1"/>
<feColorMatrix type="matrix" values="0 0 0 0 1 0 0 0 0 0.66 0 0 0 0 0 0 0 0 0.87 0"/>
<feBlend mode="normal" in2="effect1_innerShadow_814_72" result="effect2_innerShadow_814_72"/>
</filter>
<linearGradient id="paint0_linear_814_72" x1="50.5506" y1="23.066" x2="50.5506" y2="61.783" gradientUnits="userSpaceOnUse">
<stop offset="0.15625" stop-color="#843E17"/>
<stop offset="0.317708" stop-color="#4F240C"/>
<stop offset="0.744792" stop-color="#56270E"/>
<stop offset="0.927083" stop-color="#843E17"/>
</linearGradient>
</defs>
</svg>
