<svg id="Layer_1" data-name="Layer 1" xmlns="http://www.w3.org/2000/svg" xmlns:xlink="http://www.w3.org/1999/xlink" viewBox="0 0 53.75 29.05"><defs><style>.cls-1{fill:#ccb5d7;fill-rule:evenodd;}.cls-2{fill:#f8e8df;}.cls-3{fill:#d9d9d8;}.cls-4{fill:#bb4849;}.cls-5{fill:#f89e6d;}.cls-6{fill:#ffcc4b;}.cls-7{fill:#fff;}.cls-8{mask:url(#mask);}</style><mask id="mask" x="18.56" y="3.11" width="34.66" height="22.04" maskUnits="userSpaceOnUse"><g id="mask0_112_187" data-name="mask0 112 187"><path class="cls-1" d="M21.72,3.12a3,3,0,0,0-3.16,3v16a3,3,0,0,0,3.16,3l18.08-1h0l4.61-.38A9.61,9.61,0,0,0,44.8,4.69l-5-.62h0Z"/></g></mask></defs><title>rocket</title><rect class="cls-2" x="12.56" y="10.11" width="8" height="9"/><path class="cls-3" d="M18.92,6.09a3,3,0,0,1,3.15-3l18.09.95V24.18l-18.09.95a3,3,0,0,1-3.15-3Z"/><path class="cls-4" d="M40.16,4.05l5,.62a9.62,9.62,0,0,1,8.42,9.54h0a9.62,9.62,0,0,1-8.82,9.58l-4.6.39Z"/><path class="cls-5" d="M16.56,6.11h0a1,1,0,0,1,1,1v15a1,1,0,0,1-1,1h0a1,1,0,0,1-1-1v-15A1,1,0,0,1,16.56,6.11Z"/><path class="cls-6" d="M13.56,14.61c0,3,.51,5.5-2.5,5.5S.56,14.61.56,14.61s7.49-5.5,10.5-5.5S13.56,11.58,13.56,14.61Z"/><path class="cls-7" d="M12.54,14.61c0,1.38.28,2.5-1.34,2.5s-5.64-2.5-5.64-2.5,4-2.5,5.64-2.5S12.54,13.23,12.54,14.61Z"/><g class="cls-8"><rect class="cls-5" x="39.56" y="3.11" width="5" height="22"/></g><circle class="cls-7" cx="30.56" cy="14.11" r="5"/><path class="cls-3" d="M31.86,1.4l2.7,3.21h-8V3.33A3,3,0,0,1,31.86,1.4Z"/><path class="cls-3" d="M32,27.65l2.57-3.54h-8v1.78A3,3,0,0,0,32,27.65Z"/></svg>