<svg width="493" height="471" viewBox="0 0 493 471" fill="none" xmlns="http://www.w3.org/2000/svg">
<g filter="url(#filter0_f_360_181)">
<ellipse cx="253.5" cy="428.5" rx="94.5" ry="22.5" fill="#E8D096"/>
</g>
<g clip-path="url(#clip0_360_181)">
<path d="M24.8784 191.808C19.9759 191.778 14.9563 191.778 10.3612 193.476C5.76601 195.174 1.60987 198.951 0.907424 203.796C-0.0730736 210.514 5.61967 216.34 11.4441 219.824C26.0199 228.533 43.6835 230.07 60.6446 230.553C89.2546 231.373 118.113 229.792 145.904 222.941C173.695 216.091 200.461 203.781 221.944 184.87L208.29 165.343C184.48 179.922 155.797 184.079 127.918 185.558C95.9425 187.256 63.791 185.85 32.0931 181.371C29.0784 180.947 25.5369 180.654 23.4296 182.85C20.7662 185.631 22.5369 190.637 25.8589 192.569C29.1809 194.501 33.2785 194.281 37.1127 194.003" fill="#FFE76D"/>
<path d="M470.097 165.826C475.249 165.124 480.722 165.241 485.317 167.671C489.898 170.115 493.278 175.355 492.254 180.449C491.405 184.621 489.473 187.446 485.902 189.744C481.878 192.335 476.127 194.062 464.917 194.34C422.009 195.438 380.404 188.017 344.286 173.643L339.779 150.926C359.096 156.883 382.95 159.825 403.16 159.65C423.37 159.474 443.229 158.918 463.38 157.439C466.293 157.22 472.585 155.522 474.297 159.928C475.015 161.772 474.488 163.382 470.566 165.651C468.853 166.646 466.073 167.598 464.097 167.729" fill="#FFE76D"/>
<path d="M294.179 346.422C285.925 362.465 283.232 382.342 283.437 400.375C287.608 398.268 298.042 397.17 302.681 397.711C307.32 398.253 311.857 400.741 314.198 404.796C316.54 408.85 316.276 414.427 313.057 417.823C309.164 421.951 302.681 421.848 297.032 421.453C290.418 420.985 278.505 421.995 271.89 421.541C270.208 421.424 265.422 421.277 264.032 420.326C261.529 418.613 260.637 413.476 260.783 410.446C261.764 388.241 259.115 376.326 255.09 353.331" fill="#FFE76D"/>
<path d="M294.179 348.178C316.218 342.997 344.316 328.93 351.794 293.288C361.906 245.073 351.443 204.601 340.76 156.517C334.95 130.36 327.442 104.013 312.384 81.8667C297.325 59.7204 268.92 39.3013 245.154 37.7643L202.231 60.584C196.012 69.8494 195.09 80.1687 193.539 91.2346C189.558 119.631 179.182 189.188 171.192 217.965C161.768 239.394 155.446 267.483 160.07 290.42C165.821 318.889 185.139 336.586 206.066 347.051C215.549 365.451 217.934 376.897 220.993 398.97C214.949 396.921 211.041 395.545 204.661 395.472C200.11 395.413 195.119 396.072 191.987 399.38C187.597 404.02 189.368 411.661 193.948 416.125C197.314 419.404 201.91 421.19 206.534 421.936C211.158 422.683 213.441 422.756 218.139 422.551C223.598 422.302 229.042 422.068 234.5 421.819C237.632 421.673 241.042 421.424 243.31 419.257C246.72 416.008 245.432 412.656 244.466 408.045C241.027 391.608 242.388 370.94 246.398 354.619C253.744 354.897 256.964 355.087 265.013 354.238" fill="#FFE76D"/>
<path d="M219.266 188.47C219.266 188.47 189.514 212.373 180.573 247.02C172.129 279.749 176.021 321.026 205.934 347.037C205.934 347.037 153.894 324.92 159.104 263.765C159.104 263.765 163.494 228.313 171.792 215.784C171.792 215.784 203.505 201.966 219.266 188.456V188.47Z" fill="#EAC734"/>
<path d="M492.341 175.736C492.341 175.736 493.205 198.717 425.785 185.924C358.365 173.131 340.76 156.517 340.76 156.517L344.286 173.643C344.286 173.643 399.765 199.141 473.697 193.725C473.697 193.725 496.893 190.695 492.341 175.721V175.736Z" fill="#EAC734"/>
<path d="M4.74165 197.853C4.74165 197.853 -5.6926 226.484 77.3716 226.484C111.631 226.484 151.524 221.712 178.626 212.168C178.626 212.168 120.528 240.799 36.8347 229.089C36.8347 229.089 -11.078 220.629 4.74165 197.868V197.853Z" fill="#EAC734"/>
<path d="M256.203 354.956C256.203 354.956 262.188 384.933 261.222 398.107C260.256 411.28 258.617 420.063 268.378 420.707C278.139 421.351 280.73 420.868 280.73 420.868C280.73 420.868 264.954 420.385 265.612 410.782C266.271 401.18 268.217 382.81 263.827 354.516L256.217 354.956H256.203Z" fill="#EAC734"/>
<path d="M220.685 50.3964C220.685 50.3964 210.28 58.6372 207.236 107.204C204.192 155.771 199.436 170.086 199.436 170.086C199.436 170.086 188.373 177.024 179.709 178.327C179.709 178.327 190.334 110.556 192.602 93.3277C194.87 76.0996 196.173 65.3558 201.28 60.1449L220.685 50.3817V50.3964Z" fill="#EAC734"/>
<path d="M292.232 107.423C292.774 108.492 293.33 109.59 294.135 110.483C294.94 111.376 296.652 113.015 297.852 112.956C302.023 112.737 303.003 107.921 301.423 108.565C300.12 109.107 297.12 109.473 295.818 109.165C294.515 108.858 293.271 108.258 292.218 107.423H292.232Z" fill="#EAC734"/>
<path d="M208.246 165.929C184.436 180.508 155.753 184.665 127.874 186.143C95.8985 187.841 63.747 186.436 32.0491 181.957C29.0344 181.532 25.4929 181.24 23.3856 183.435C20.7221 186.216 22.4929 191.222 25.8149 193.154C29.1369 195.087 33.2345 194.867 37.0686 194.589" stroke="black" stroke-linecap="round" stroke-linejoin="round"/>
<path d="M24.8198 192.393C19.9173 192.364 14.8977 192.364 10.3026 194.062C5.70741 195.76 1.55128 199.536 0.84883 204.381C-0.131667 211.1 5.56107 216.925 11.3855 220.409C25.9613 229.118 43.6249 230.655 60.586 231.138C89.196 231.958 118.055 230.377 145.845 223.527C173.636 216.677 200.402 204.367 221.885 185.455" stroke="black" stroke-linecap="round" stroke-linejoin="round"/>
<path d="M205.451 347.198C184.524 336.732 165.207 317.294 159.455 288.824C154.816 265.887 161.153 237.784 170.577 216.369" stroke="black" stroke-linecap="round" stroke-linejoin="round"/>
<path d="M264.383 354.399C256.334 355.263 253.115 355.058 245.768 354.78" stroke="black" stroke-linecap="round" stroke-linejoin="round"/>
<path d="M244.539 37.9254C268.305 39.4623 296.71 58.1395 311.769 80.2858C326.828 102.432 334.35 128.794 340.145 154.936C350.828 203.02 361.291 243.492 351.179 291.708C343.701 327.364 315.823 342.602 293.783 347.769" stroke="black" stroke-linecap="round" stroke-linejoin="round"/>
<path d="M179.768 177.653C183.748 149.257 188.943 118.05 192.924 89.6537C194.475 78.5879 195.397 68.2832 201.617 59.0031" stroke="black" stroke-linecap="round" stroke-linejoin="round"/>
<path d="M339.603 150.823C358.921 156.781 382.774 159.723 402.984 159.547C423.194 159.371 443.053 158.815 463.204 157.337C466.117 157.117 472.409 155.419 474.122 159.825C474.839 161.669 474.312 163.28 470.39 165.548C468.678 166.544 465.897 167.495 463.922 167.627" stroke="black" stroke-linecap="round" stroke-linejoin="round"/>
<path d="M469.936 165.724C475.088 165.021 480.561 165.139 485.156 167.568C489.751 169.998 493.117 175.253 492.093 180.347C491.244 184.518 489.312 187.343 485.741 189.641C481.717 192.232 475.966 193.959 464.756 194.238C421.848 195.335 380.521 188.002 344.403 173.628" stroke="black" stroke-linecap="round" stroke-linejoin="round"/>
<path d="M268.115 25.4543C268.115 25.4543 223.846 50.1768 187.904 65.1362" stroke="black" stroke-linecap="round" stroke-linejoin="round"/>
<path d="M244.539 37.9254C244.539 37.9254 238.495 14.5349 223.846 0.731873C223.846 0.731873 197.68 1.30273 178.714 23.7271C178.714 23.7271 192.748 38.6133 201.66 58.7397" fill="black"/>
<path d="M244.539 37.9254C244.539 37.9254 238.495 14.5349 223.846 0.731873C223.846 0.731873 197.68 1.30273 178.714 23.7271C178.714 23.7271 192.748 38.6133 201.66 58.7397" stroke="black" stroke-linecap="round" stroke-linejoin="round"/>
<path d="M226.466 48.9766C229.144 57.9932 225.558 68.5321 217.934 74.0357C212.007 78.3098 198.836 82.0131 190.495 75.4848" stroke="black" stroke-linecap="round" stroke-linejoin="round"/>
<path d="M181.494 75.1042C198.353 91.015 219.924 85.4089 228.631 77.2998C237.339 69.1907 239.68 55.0218 234.031 44.5414" stroke="black" stroke-linecap="round" stroke-linejoin="round"/>
<path d="M254.125 39.4476C255.281 44.8195 259.305 52.2846 267.734 54.7876C278.842 58.0663 288.618 55.3584 291.501 51.1429" stroke="black" stroke-linecap="round" stroke-linejoin="round"/>
<path d="M248.183 39.6379C247.934 49.0644 256.012 58.564 266.007 62.6332C288.998 72.0304 301.496 61.3744 308.74 55.3438" stroke="black" stroke-linecap="round" stroke-linejoin="round"/>
<path d="M267.398 99.6511C269.701 99.6511 271.569 97.7834 271.569 95.4794C271.569 93.1755 269.701 91.3078 267.398 91.3078C265.094 91.3078 263.227 93.1755 263.227 95.4794C263.227 97.7834 265.094 99.6511 267.398 99.6511Z" fill="black"/>
<path d="M307.935 94.1767C310.238 94.1767 312.105 92.309 312.105 90.005C312.105 87.7011 310.238 85.8334 307.935 85.8334C305.631 85.8334 303.764 87.7011 303.764 90.005C303.764 92.309 305.631 94.1767 307.935 94.1767Z" fill="black"/>
<path d="M295.276 94.2499L299.564 101.378C300.515 102.959 301.466 104.555 301.891 106.34C302.315 108.126 302.11 110.161 300.91 111.566C299.71 112.971 297.398 113.439 295.993 112.254" stroke="black" stroke-linecap="round" stroke-linejoin="round"/>
<path d="M311.198 122.383C306.998 124.183 294.969 127.755 271.686 123.568C270.764 123.407 269.929 124.169 270.061 125.091C271.056 132 275.754 155.61 293.403 154.263C311.052 152.916 309.223 135.469 312.384 123.378C312.574 122.676 311.857 122.075 311.183 122.368L311.198 122.383Z" fill="#631500" stroke="black" stroke-miterlimit="10"/>
<path d="M205.451 347.198C214.934 365.597 217.319 377.043 220.378 399.117C214.334 397.067 210.426 395.691 204.046 395.618C199.495 395.56 194.504 396.218 191.373 399.526C186.982 404.166 188.46 412.261 193.041 416.725C196.407 420.004 201.002 421.79 205.626 422.536C210.251 423.283 212.534 423.356 217.231 423.151C222.69 422.902 228.134 422.668 233.592 422.419C236.724 422.273 240.134 422.024 242.402 419.858C245.812 416.608 244.817 411.061 243.851 406.45C240.412 390.012 241.773 371.071 245.783 354.765" stroke="black" stroke-linecap="round" stroke-linejoin="round"/>
<path d="M293.798 347.783C285.544 363.826 282.852 381.976 283.056 400.009C287.227 397.902 297.661 396.804 302.301 397.345C306.94 397.887 311.476 400.375 313.818 404.43C316.159 408.484 315.896 414.061 312.676 417.457C308.783 421.585 302.3 421.482 296.652 421.087C290.037 420.619 278.125 421.629 271.51 421.175C269.827 421.058 265.042 420.911 263.651 419.96C261.149 418.248 260.256 413.11 260.403 410.08C261.383 387.875 259.554 378.346 255.529 355.351" stroke="black" stroke-linecap="round" stroke-linejoin="round"/>
<path d="M288.603 159.342C287.388 159.269 285.31 158.932 284.696 159.986C284.271 160.703 284.666 161.304 285.266 161.86C285.939 162.489 287.33 163.104 288.135 163.324C290.783 164.055 292.452 163.953 294.896 163.528C297.193 163.133 300.31 161.816 299.301 159.664C298.598 158.171 295.422 159.781 288.603 159.342Z" fill="#EAC734"/>
<path d="M308.125 125.281C308.125 125.281 308.769 129.189 293.447 129.716C279.339 130.199 279.339 127.725 278.608 124.871C278.608 124.871 296.14 127.286 308.257 123.627L308.125 125.281Z" fill="white" stroke="black" stroke-miterlimit="10"/>
</g>
<defs>
<filter id="filter0_f_360_181" x="139" y="386" width="229" height="85" filterUnits="userSpaceOnUse" color-interpolation-filters="sRGB">
<feFlood flood-opacity="0" result="BackgroundImageFix"/>
<feBlend mode="normal" in="SourceGraphic" in2="BackgroundImageFix" result="shape"/>
<feGaussianBlur stdDeviation="10" result="effect1_foregroundBlur_360_181"/>
</filter>
<clipPath id="clip0_360_181">
<rect width="493" height="424" fill="white"/>
</clipPath>
</defs>
</svg>
