<svg width="832" height="430" viewBox="0 0 832 430" fill="none" xmlns="http://www.w3.org/2000/svg">
<mask id="mask0_1262_4" style="mask-type:alpha" maskUnits="userSpaceOnUse" x="0" y="0" width="832" height="430">
<rect width="832" height="430" fill="black"/>
</mask>
<g mask="url(#mask0_1262_4)">
<path d="M490.643 323.354C484.383 284.099 483.005 251.141 499.209 228.67C513.103 209.403 530.581 230.738 530.019 255.899C529.541 277.233 513.967 279.272 511.642 239.658C509.487 202.943 521.7 168.271 542.472 162.475C573.828 153.724 582.735 201.419 584.46 214.812C587.66 239.658 569.267 258.342 558.018 216.929C543.144 162.171 574.968 101.753 602.521 121.993" stroke="#F57600" stroke-opacity="0.31" stroke-width="15" stroke-linecap="round"/>
<path d="M364.04 335.461C345.299 338.295 329.916 336.703 320.991 318.058C313.338 302.072 324.807 286.115 336.403 288.985C346.236 291.418 345.76 307.555 327.21 306.326C310.018 305.187 295.081 289.519 294.291 267.716C293.098 234.802 315.988 230.027 322.345 229.481C334.138 228.467 341.111 249.009 320.915 256.756C294.212 266.999 269.143 228.899 281.024 202.523" stroke="#F57600" stroke-opacity="0.31" stroke-width="15" stroke-linecap="round"/>
<circle cx="645.5" cy="394.5" r="104.5" stroke="#F57600" stroke-opacity="0.25" stroke-width="30" stroke-linejoin="round" stroke-dasharray="7 21"/>
<circle cx="646.684" cy="389.684" r="159.823" transform="rotate(0.416064 646.684 389.684)" stroke="#F57600" stroke-opacity="0.1" stroke-width="49" stroke-linejoin="round" stroke-dasharray="7 40"/>
<circle cx="79.5" cy="111.5" r="64.5" stroke="#F57600" stroke-opacity="0.25" stroke-width="30" stroke-linejoin="round" stroke-dasharray="7 21"/>
<circle cx="237.5" cy="396.5" r="64.5" stroke="#F57600" stroke-opacity="0.25" stroke-width="30" stroke-linejoin="round" stroke-dasharray="7 21"/>
<path d="M244.86 378.077C226.341 433.859 148.631 456.547 129.286 418.159" stroke="#F57600" stroke-opacity="0.31" stroke-width="15" stroke-linecap="round"/>
<g clip-path="url(#clip0_1262_4)">
<path d="M192.313 60.8683C192.313 60.8683 174.785 64.3774 156.394 76.5915C138.003 88.8057 146.235 112.384 146.235 112.384C146.235 112.384 141.897 80.4515 146.1 49.9903C150.304 19.5291 154.319 14.9673 148.377 13.4692C148.377 13.4692 144.632 14.198 143.136 17.7341C143.136 17.7341 147.38 1.71395 140.859 0.47229C134.338 -0.769372 130.04 9.82524 130.04 9.82524C130.04 9.82524 110.423 54.4576 128.76 137.568C128.76 137.568 133.651 159.23 140.293 178.327C140.293 178.327 122.94 193.105 120.609 213.323C120.609 213.323 111.218 259.021 145.683 284.948C145.683 284.948 115.152 305.3 125.85 327.259C125.85 327.259 128.086 340.512 173.37 333.615C173.37 333.615 164.047 358.098 175.337 358.935C175.337 358.935 180.538 358.894 191.114 337.313C191.114 337.313 197.11 327.772 187.113 320.996C177.116 314.221 150.627 316.097 150.627 316.097C150.627 316.097 162.174 298.849 170.325 295.745C170.325 295.745 178.099 299.443 186.655 298.701C186.655 298.701 195.035 315.287 190.791 389.706L190.158 404.66L230.052 404.539C230.052 404.539 240.642 404.228 232.787 399.086C224.932 393.944 208.171 393.661 208.171 393.661C208.171 393.661 225.754 337.637 215.986 296.015C215.986 296.015 268.505 280.683 265.931 234.849C263.695 195.062 242.03 180.311 242.03 180.311C242.03 180.311 286.222 168.542 324.782 169.284C363.329 170.027 372.208 172.132 371.359 163.926C371.359 163.926 385.237 164.534 380.023 156.26C374.809 147.974 358.937 139.862 307.671 148.324C256.406 156.787 227.452 166.059 227.452 166.059C227.452 166.059 240.44 159.405 247.729 143.25C254.641 127.918 256.648 100.035 236.937 76.902C236.937 76.902 217.589 54.4846 192.287 60.8683H192.313Z" fill="#59DCC3"/>
<path d="M190.67 61.826C190.67 61.826 194.402 100.115 146.869 111.789C146.869 111.789 140.078 85.1341 157.89 75.2413C176.564 64.8762 190.67 61.8125 190.67 61.8125V61.826Z" fill="#26A38B"/>
<path d="M190.764 61.1514C190.764 61.1514 206.514 81.099 236.128 76.7397C236.128 76.7397 220.284 55.7529 190.764 61.1514Z" fill="#26A38B"/>
<path d="M156.96 159.553C156.96 159.553 147.178 127.54 146.289 111.817C146.289 111.817 151.341 112.411 162.12 106.661C162.12 106.661 148.66 116.244 156.96 159.553Z" fill="#26A38B"/>
<path d="M344.952 165.95C357.105 167.556 363.707 168.717 366.873 167.475C372.02 165.464 370.322 162.967 369.46 162.063C367.816 161.267 364.745 160.66 358.978 161.226C358.978 161.226 367.507 157.326 374.351 158.244C380.306 159.04 378.73 153.169 372.061 149.201C376.682 151.725 384.146 156.881 380.104 162.266C380.104 162.266 378.541 164.317 371.939 164.155C372.707 165.451 372.775 167.205 370.336 169.27C368.355 170.944 361.228 170.485 355.96 170.404C327.882 170.012 314.543 165.181 242.744 180.634L239.376 177.611C239.376 177.611 309.087 161.186 344.952 165.937V165.95Z" fill="#26A38B"/>
<path d="M369.312 147.825C369.137 147.744 368.962 147.663 368.773 147.582C368.773 147.582 368.976 147.663 369.312 147.825Z" fill="#26A38B"/>
<path d="M372.047 149.202C370.874 148.554 369.877 148.095 369.312 147.825C370.295 148.244 371.225 148.702 372.047 149.202Z" fill="#26A38B"/>
<path d="M140.293 178.002C101.706 67.238 131.791 6.85541 131.791 6.85541C137.841 -2.09265 141.815 1.07899 141.815 1.07899C128.436 1.18696 123.249 55.5636 126.927 97.3752C129.986 132.209 142.759 171.618 144.389 179.662C146.113 188.138 145.103 189.137 145.103 189.137C115.879 229.248 127.642 261.544 129.353 265.526C104.764 211.824 137.45 180.58 140.293 178.002V178.002Z" fill="#26A38B"/>
<path d="M129.353 265.526C129.42 265.661 129.474 265.796 129.541 265.931C129.541 265.931 129.474 265.796 129.353 265.526Z" fill="#26A38B"/>
<path d="M171.659 339.122C171.659 339.122 171.335 347.584 174.852 348.326C178.368 349.069 194.455 333.399 189.888 323.857C189.888 323.857 197.675 328.757 187.126 345.924C176.576 363.091 172.049 357.598 172.049 357.598C172.049 357.598 168.021 356.141 171.672 339.122H171.659Z" fill="#26A38B"/>
<path d="M195.466 297.796C195.466 297.796 200.829 318.256 198.74 357.112C196.652 395.968 195.803 396.495 199.481 399.045C203.159 401.596 227.681 404.633 227.681 404.633H190.171C190.171 404.633 194.752 321.023 187.409 298.795L195.466 297.796V297.796Z" fill="#26A38B"/>
<path d="M128.289 304.625C128.289 304.625 122.091 321.711 134.486 326.071C146.882 330.43 170.217 332.778 178.463 332.522C178.463 332.522 134.971 340.471 126.618 328.851C118.265 317.231 128.302 304.625 128.302 304.625H128.289Z" fill="#26A38B"/>
<path d="M215.056 132.642C213.372 132.696 211.432 133.06 210.637 134.181C210.004 135.071 210.394 136.192 211.351 136.853C212.308 137.514 213.695 137.744 215.043 137.676C216.39 137.609 217.697 137.271 218.963 136.893C219.92 136.61 220.89 136.286 221.712 135.827C222.534 135.368 223.248 134.734 223.517 134.005C223.787 133.276 223.544 132.453 222.776 131.981C221.699 131.319 220.769 131.832 219.691 132.197C218.222 132.696 216.592 132.602 215.056 132.642Z" fill="#26A38B"/>
<path d="M220 107.377C219.529 107.093 218.896 107.161 218.397 107.417C217.899 107.674 217.508 108.092 217.131 108.497C216.215 109.482 215.285 110.467 214.369 111.466C213.506 112.397 212.577 113.585 212.941 114.786C213.277 115.893 214.652 116.419 215.756 116.136C216.861 115.852 217.737 114.962 218.37 114.003C219.071 112.951 221.402 108.227 219.974 107.363L220 107.377Z" fill="#26A38B"/>
<path d="M201.151 100.345C201.731 102.626 202.095 105.487 202.297 107.322C202.539 109.455 202.175 111.344 201.421 112.937C200.666 114.529 198.74 115.825 197.056 116.311C195.25 116.824 192.812 116.567 191.37 115.38C188.352 112.869 187.463 107.511 186.856 103.354" stroke="black" stroke-linecap="round" stroke-linejoin="round"/>
<path d="M237.004 95.7832C237.435 98.0911 237.637 100.979 237.718 102.815C237.826 104.961 237.354 106.823 236.505 108.362C235.656 109.9 233.649 111.075 231.938 111.452C230.105 111.857 227.68 111.452 226.319 110.17C223.45 107.485 222.911 102.072 222.56 97.8886" stroke="black" stroke-linecap="round" stroke-linejoin="round"/>
<path d="M145.52 285.164C129.77 273.246 121.268 254.419 120.055 234.553C118.816 214.241 121.686 195.562 140.117 178.529" stroke="black" stroke-linecap="round" stroke-linejoin="round"/>
<path d="M196.112 298.16C188.042 299.2 179.527 298.984 170.244 296.608" stroke="black" stroke-linecap="round" stroke-linejoin="round"/>
<path d="M215.838 296.217C223.208 294.26 229.513 291.601 235.967 287.35C264.678 268.441 268.249 246.226 264.409 222.851C260.892 201.432 250.208 186.505 238.365 177.436" stroke="black" stroke-linecap="round" stroke-linejoin="round"/>
<path d="M193.162 60.4095C205.166 58.3851 222.722 63.5272 231.412 71.571C248.16 87.0648 251.595 101.344 252.39 119.078C253.225 137.986 241.679 162.334 222.722 167.449" stroke="black" stroke-linecap="round" stroke-linejoin="round"/>
<path d="M156.945 160.147C143.755 116.446 139.295 75.9841 149.441 27.4243C150.222 23.6858 153.038 16.1684 149.683 14.3464C146.733 12.7403 144.415 15.4126 143.216 18.5572C142.489 20.4467 142.179 22.4442 141.532 26.6145" stroke="black" stroke-linecap="round" stroke-linejoin="round"/>
<path d="M142.449 21.3642C142.839 16.1142 143.661 14.0897 144.052 8.83965C144.227 6.53177 144.537 3.5221 142.058 1.53814C139.39 -0.594282 135.672 1.6731 134.041 3.41413C132.411 5.15515 130.565 7.40904 127.453 16.9104C114.236 57.143 120.38 132.452 144.524 189.11" stroke="black" stroke-linecap="round" stroke-linejoin="round"/>
<path d="M224.325 166.977C266.995 154.506 307.172 145.653 351.62 145.666C356.295 145.666 364.555 145.801 371.547 148.932C375.818 150.849 382.609 157.381 380.588 161.605C379.362 164.183 374.592 164.196 371.682 164.115" stroke="black" stroke-linecap="round" stroke-linejoin="round"/>
<path d="M242.717 180.433C281.856 172.956 306.229 167.773 345.356 170.283C348.468 170.486 359.462 170.567 363.167 170.243C366.28 169.973 371.359 170.31 371.898 166.626C372.154 164.817 370.403 161.376 365.081 161.524C362.265 161.605 359.53 161.592 357.819 161.821" stroke="black" stroke-linecap="round" stroke-linejoin="round"/>
<path d="M220.202 51.1104C220.202 51.1104 158.427 70.1132 144.698 84.0009" stroke="black" stroke-linecap="round" stroke-linejoin="round"/>
<path d="M154.009 76.4696L145.345 59.5317L146.437 45.644L149.334 30.5551L184.795 15.0479L194.604 59.4643L154.009 76.4696Z" fill="black"/>
<path d="M251.703 70.5719C214.948 91.4102 190.763 61.6104 190.763 61.6104C190.763 61.6104 195.829 100.52 146.099 112.019" stroke="black" stroke-linecap="round" stroke-linejoin="round"/>
<path d="M154.21 77.1309C154.21 77.1309 144.846 85.3096 144.765 99.3188" stroke="black" stroke-linecap="round" stroke-linejoin="round"/>
<path d="M230.091 123.977C230.091 123.977 213.56 130.212 198.887 127.324" stroke="black" stroke-linecap="round" stroke-linejoin="round"/>
<path d="M125.742 126.811C125.742 126.811 96.5721 128.821 89.1348 142.574C82.8294 154.235 101.436 154.64 96.599 160.025C89.7816 167.623 80.6736 163.723 80.6736 163.723C80.6736 163.723 94.5511 179.5 110.301 163.17C117.456 155.747 107.122 149.336 111.527 142.642C115.933 135.948 126.806 133.356 126.806 133.356" fill="#26A38B"/>
<path d="M125.742 126.811C125.742 126.811 96.5721 128.821 89.1348 142.574C82.8294 154.235 101.436 154.64 96.599 160.025C89.7816 167.623 80.6736 163.723 80.6736 163.723C80.6736 163.723 94.5511 179.5 110.301 163.17C117.456 155.747 107.122 149.336 111.527 142.642C115.933 135.948 126.806 133.356 126.806 133.356" stroke="black" stroke-linecap="round" stroke-linejoin="round"/>
<path d="M190.763 324.235C190.049 317.069 188.796 307.675 187.233 299.011" stroke="black" stroke-linecap="round" stroke-linejoin="round"/>
<path d="M215.864 296.554C223.477 341.969 211.917 375.345 208.023 393.876C218.33 393.309 225.659 396.157 233.851 399.868C236.209 400.934 235.576 404.47 233.002 404.7C218.101 406.076 206.056 405.145 190.009 404.875C189.901 379.313 192.569 360.229 191.532 336.003" stroke="black" stroke-linecap="round" stroke-linejoin="round"/>
<path d="M177.331 291.723C177.331 291.723 158.104 300.009 149.845 319.66" stroke="black" stroke-linecap="round" stroke-linejoin="round"/>
<path d="M151.637 316.853C151.637 316.853 183.825 313.425 191.128 325.086C196.018 332.9 185.819 349.959 177.991 357.423C174.973 360.297 169.975 358.179 169.988 353.995C170.015 349.284 170.042 339.243 173.41 334.897" stroke="black" stroke-linecap="round" stroke-linejoin="round"/>
<path d="M178.583 333.454C178.583 333.454 140.629 338.38 130.928 332.482C122.103 327.124 114.612 311.387 145.52 285.15" stroke="black" stroke-linecap="round" stroke-linejoin="round"/>
<path d="M215.757 103.004C215.757 103.004 224.878 104.232 217.684 116.082" stroke="black" stroke-linecap="round" stroke-linejoin="round"/>
<path d="M148.323 14.4953C148.323 14.4953 143.217 13.5775 142.152 26.6959C142.152 26.6959 143.661 18.8951 148.323 14.4953V14.4953Z" fill="#26A38B"/>
</g>
<g clip-path="url(#clip1_1262_4)">
<path d="M443.94 183.307C443.298 182.981 442.656 182.584 441.944 182.444C441.232 182.304 440.392 182.479 439.995 183.086C439.516 183.809 439.855 184.836 440.52 185.408C441.186 185.98 442.061 186.178 442.913 186.365C445.586 186.96 448.037 188.348 450.733 187.882C452.052 187.66 453.465 186.878 454.539 186.061C455.216 185.548 457.188 183.389 456.733 182.444C452.601 184.521 448.329 185.513 443.952 183.296L443.94 183.307Z" fill="#7565EA"/>
<path d="M435.536 327.01C435.174 344.712 434.45 356.638 433.668 374.153C433.517 377.596 433.412 381.68 436.225 383.675C438.034 384.959 440.438 384.889 442.656 384.772C457.316 383.979 471.976 383.185 486.637 382.392C489.146 382.252 491.924 382.006 493.64 380.163C496.464 377.129 494.235 371.773 490.535 369.917C486.835 368.062 482.458 368.575 478.338 368.879C474.217 369.182 469.654 369.101 466.514 366.393C463.817 364.071 464.133 363.103 464.378 359.544C464.623 355.985 465.615 350.78 466.175 347.256C468.335 333.883 469.49 329.741 470.926 320.709" fill="#A593FF"/>
<path d="M470.938 320.709C476.529 318.854 481.769 316.182 487.104 312.203C498.379 303.766 502.312 290.65 504.122 276.67C505.931 262.691 504.67 254.149 503.328 240.111L509.094 228.722C512.455 218.15 510.459 204.147 501.028 198.336C500.211 179.012 499.686 161.264 500.456 143.55C500.713 137.47 501.052 131.286 499.558 125.381C498.064 119.477 494.387 113.806 488.761 111.507C484.804 109.885 480.38 110.095 476.12 110.317C466.852 110.818 465.207 110.072 454.842 110.55L388.24 113.852C378.529 114.377 372.355 114.354 362.912 117.586C345.404 123.561 350.376 145.557 350.82 153.912C353.352 201.44 358.617 212.584 351.356 259.622C349.466 271.875 346.232 303.124 359.212 318.842C366.133 327.232 377.806 329.73 388.672 329.543C392.816 329.473 397.041 329.321 401.325 329.1C402.726 337.198 403.321 339.077 404.173 346.673C404.57 350.174 405.62 355.542 405.795 359.066C405.97 362.59 404.978 366.347 402.375 368.716C399.527 371.306 393.936 371.797 390.096 372.018C386.256 372.24 382.159 372.438 378.996 374.644C375.833 376.849 374.374 381.937 377.175 384.598C379.019 386.348 381.844 386.371 384.377 386.29C398.687 385.858 413.009 385.426 427.319 384.994C431.544 384.866 433.61 379.615 433.202 375.391" fill="#A593FF"/>
<path d="M506.223 203.459C506.223 203.459 515.094 219.761 506.911 235.094C499.57 248.863 477.603 261.991 438.268 259.295C438.268 259.295 476.529 258.549 497.06 238.548C504.694 231.115 513.319 220.741 506.223 203.459V203.459Z" fill="#7565EA"/>
<path d="M434.463 228.862C434.463 228.862 483.918 241.826 501.216 210.705C501.216 210.705 503.294 224.883 472.853 235.595C472.853 235.595 449.158 241.651 434.463 228.85V228.862Z" fill="#7565EA"/>
<path d="M371.526 115.638C371.526 115.638 359.422 119.792 360.461 140.878C361.5 161.964 361.15 215.91 385.019 223.506C385.019 223.506 378.448 242.865 433.097 258.432C433.097 258.432 404.045 260.847 374.993 236.996C374.993 236.996 356.446 293.007 369.939 310.639C383.432 328.271 406.251 320.756 406.251 320.756C406.251 320.756 413.639 367.689 400.03 371.061C400.03 371.061 404.839 367.339 405.866 362.38C406.648 358.622 405.13 344.153 401.337 329.298C401.337 329.298 386.408 330.698 374.304 328.283C362.2 325.867 350.201 311.479 349.571 287.826C349.314 278.059 350.446 265.293 351.649 257.487C354.637 238.034 356.598 223.39 352.162 173.726C348.532 133.013 345.941 120.13 371.526 115.638V115.638Z" fill="#7565EA"/>
<path d="M503.328 240.8C504.658 254.838 505.931 263.379 504.122 277.359C502.312 291.338 498.379 304.466 487.104 312.891C481.781 316.87 476.54 319.542 470.938 321.398" stroke="black" stroke-linecap="round" stroke-linejoin="round"/>
<path d="M454.83 111.25C465.207 110.772 466.841 111.519 476.108 111.017C480.369 110.784 484.804 110.585 488.749 112.207C494.375 114.506 498.04 120.189 499.546 126.082C501.052 131.975 500.713 138.171 500.445 144.251C499.674 161.976 500.2 179.724 501.017 199.037" stroke="black" stroke-linecap="round" stroke-linejoin="round"/>
<path d="M401.325 329.812C397.041 330.022 392.816 330.173 388.672 330.255C377.806 330.442 366.145 327.945 359.212 319.555C346.232 303.836 349.466 272.587 351.356 260.334C358.605 213.296 353.341 202.152 350.82 154.624C350.376 146.269 345.415 124.273 362.912 118.299C372.355 115.078 378.529 115.09 388.24 114.564" stroke="black" stroke-linecap="round" stroke-linejoin="round"/>
<path d="M435.536 327.711C435.174 345.413 434.45 357.339 433.668 374.854C433.517 378.297 433.412 382.381 436.225 384.376C438.034 385.66 440.438 385.59 442.656 385.473C457.316 384.68 471.976 383.886 486.637 383.093C489.146 382.953 491.924 382.708 493.64 380.864C496.464 377.83 494.235 372.474 490.535 370.619C486.835 368.763 482.458 369.277 478.338 369.58C474.217 369.883 469.654 369.802 466.514 367.094C463.817 364.772 464.133 363.804 464.378 360.245C464.623 356.686 465.615 351.481 466.175 347.957C468.335 334.585 469.49 330.442 470.926 321.41" stroke="black" stroke-linecap="round" stroke-linejoin="round"/>
<path d="M401.325 329.812C402.726 337.91 403.683 339.637 404.535 347.233C404.932 350.734 405.982 356.102 406.157 359.626C406.332 363.15 405.34 366.907 402.737 369.276C399.889 371.867 394.298 372.357 390.458 372.579C386.618 372.8 382.521 372.999 379.358 375.204C376.195 377.41 374.736 382.497 377.537 385.158C379.381 386.908 382.206 386.931 384.739 386.85C399.049 386.418 413.371 385.986 427.681 385.555C431.906 385.426 433.972 380.175 433.563 375.951" stroke="black" stroke-linecap="round" stroke-linejoin="round"/>
<path d="M501.028 199.037C510.459 204.837 512.455 218.839 509.094 229.423C505.732 239.995 501.518 245.69 483.135 254.36C473.12 259.086 454.643 261.665 440.952 260.148C418.238 257.616 403.461 249.529 392.641 239.599C389.874 237.055 387.236 234.219 385.742 230.765C384.237 227.311 384.015 223.122 385.941 219.89C388.684 215.28 395.033 213.915 400.204 215.339C405.375 216.751 409.647 220.31 413.755 223.764C413.079 221.372 412.81 218.466 413.195 216.016C413.58 213.565 415.378 211.138 417.852 210.87C421.856 210.438 424.109 215.175 425.766 218.851C430.949 230.345 444.558 240.276 468.72 236.658C481.174 234.791 495.461 226.763 500.806 215.339" stroke="black" stroke-linecap="round" stroke-linejoin="round"/>
<path d="M431.848 227.253C444.57 226.249 458.133 220.87 467.611 212.305C471.463 208.827 477.287 201.896 481.162 205.747C483.777 208.337 481.594 212.55 478.711 214.848C482.446 212.211 484.816 209.994 488.259 206.995C490.36 205.163 494.34 203.133 498.472 205.98C501.519 208.08 501.215 213.121 500.842 215.128" stroke="black" stroke-linecap="round" stroke-linejoin="round"/>
<path d="M385.965 219.575C383.91 218.536 381.097 216.132 378.121 212.352" stroke="black" stroke-linecap="round" stroke-linejoin="round"/>
<path d="M439.82 260.066C413.546 260.393 376.23 245.223 361.885 222.644" stroke="black" stroke-linecap="round" stroke-linejoin="round"/>
<path d="M425.335 193.342C427.809 200.168 434.778 205.093 442.026 205.128C449.275 205.163 456.289 200.297 458.822 193.494" stroke="black" stroke-linecap="round" stroke-linejoin="round"/>
<path d="M460.865 159.759C460.772 162.653 461.075 166.189 461.32 168.429C461.589 171.043 462.522 173.225 463.841 174.929C465.16 176.632 467.822 177.683 469.969 177.823C472.269 177.974 475.128 177.017 476.552 175.197C479.517 171.393 479.167 164.718 478.805 159.572" stroke="black" stroke-linecap="round" stroke-linejoin="round"/>
<path d="M409.753 159.525C409.496 162.408 409.601 165.955 409.706 168.207C409.823 170.833 410.628 173.061 411.854 174.847C413.079 176.632 415.659 177.822 417.806 178.091C420.094 178.371 423.001 177.589 424.53 175.862C427.716 172.233 427.751 165.547 427.681 160.389" stroke="black" stroke-linecap="round" stroke-linejoin="round"/>
<path d="M367.032 105.965C381.517 114.46 400.298 119.384 424.634 118.031C446.566 116.805 462.207 109.01 475.198 98.3799" stroke="black" stroke-linecap="round" stroke-linejoin="round"/>
<path d="M454.83 111.25C453.885 98.4495 452.753 94.1786 455.998 68.215C456.301 65.8229 456.651 63.0456 454.912 61.3886C453.546 60.0583 451.445 60 449.555 60C433.377 60.0583 420.573 65.7178 402.994 64.901C398.956 64.7143 390.283 60.5601 385.685 64.901C381.086 69.2419 383.864 78.5421 384.331 83.3264C385.451 94.6337 387.109 103.234 388.217 114.553C388.217 114.553 407.815 119.956 425.627 117.878C443.438 115.801 454.807 111.25 454.807 111.25H454.83Z" fill="black"/>
<path d="M457.515 110.69C455.052 111.846 451.504 113.444 450.512 117.575C449.916 120.037 450.348 123.596 452.017 125.51C454.655 128.532 458.204 129.583 462.079 127.996C464.833 126.875 467.028 123.97 468.09 122.675C466.724 124.425 465.429 126.07 464.775 128.649C463.748 132.652 466.351 136.654 469.794 138.579C472.117 139.875 476.109 140.528 479.552 139.058C482.995 137.588 484.804 134.892 486.053 131.718C484.221 136.257 483.777 138.708 483.999 141.042C484.279 143.901 485.925 146.258 488.645 147.53C491.959 149.082 493.734 149.012 495.648 149.023C499.92 149.07 503.888 143.352 504.46 137.844C504.752 142.559 505.639 148.393 509.293 150.202C513.343 152.197 520.241 150.89 522.762 147.145C525.237 143.48 525.762 138.579 521.77 133.655" stroke="black" stroke-linecap="round" stroke-linejoin="round"/>
<path d="M405.434 118.299C407.394 122.173 407.126 128.241 403.543 130.493C399.959 132.757 392.793 133.037 390.458 129.396C393.995 133.294 393.82 140.237 390.073 143.912C386.338 147.6 379.72 147.343 376.253 143.387C377.992 149.058 374.222 155.861 368.678 157.087C363.134 158.312 357.076 153.679 356.481 147.763C357.274 153.096 354.018 158.779 349.15 160.541C344.283 162.303 338.389 159.922 335.891 155.196C333.393 150.47 334.595 143.959 338.587 140.552" stroke="black" stroke-linecap="round" stroke-linejoin="round"/>
<path d="M446.566 171.475C446.566 171.475 461.086 173.89 457.293 182.887C453.499 191.884 441.384 186.003 441.384 186.003" stroke="black" stroke-linecap="round" stroke-linejoin="round"/>
<path d="M447.839 207.754C448.131 207.742 448.434 207.731 448.702 207.836C449.368 208.104 449.566 209.026 449.251 209.668C448.936 210.309 448.282 210.718 447.617 210.998C445.224 212.001 442.364 211.768 440.17 210.391C439.727 210.111 438.396 209.096 438.676 208.419C438.91 207.847 440.765 208.069 441.267 208.046C443.462 207.941 445.656 207.847 447.85 207.742L447.839 207.754Z" fill="#7565EA"/>
</g>
<g clip-path="url(#clip2_1262_4)">
<path d="M306.356 381.106C302.442 381.083 298.436 381.083 294.768 382.438C291.1 383.793 287.782 386.808 287.221 390.675C286.439 396.038 290.983 400.688 295.632 403.469C307.267 410.421 321.366 411.648 334.905 412.033C357.742 412.688 380.778 411.426 402.961 405.958C425.145 400.49 446.51 390.663 463.658 375.568L452.76 359.981C433.754 371.619 410.858 374.937 388.605 376.117C363.081 377.472 337.417 376.351 312.115 372.775C309.708 372.437 306.881 372.203 305.199 373.955C303.073 376.175 304.487 380.171 307.138 381.714C309.79 383.256 313.061 383.081 316.121 382.859" fill="#FFE76D"/>
<path d="M661.741 360.367C665.853 359.806 670.222 359.9 673.89 361.839C677.546 363.79 680.245 367.973 679.427 372.039C678.75 375.369 677.208 377.624 674.357 379.458C671.145 381.526 666.554 382.905 657.606 383.127C623.356 384.003 590.146 378.08 561.316 366.606L557.718 348.473C573.137 353.228 592.178 355.576 608.31 355.436C624.442 355.296 640.294 354.852 656.38 353.672C658.704 353.497 663.727 352.141 665.094 355.658C665.666 357.13 665.246 358.416 662.115 360.227C660.748 361.021 658.529 361.781 656.952 361.886" fill="#FFE76D"/>
<path d="M521.318 505.925C538.91 501.789 561.339 490.561 567.308 462.111C575.38 423.624 567.028 391.318 558.5 352.936C553.863 332.057 547.87 311.026 535.85 293.348C523.83 275.67 501.156 259.371 482.185 258.145L447.923 276.36C442.959 283.756 442.223 291.993 440.985 300.826C437.807 323.493 429.525 379.015 423.147 401.985C415.624 419.09 410.578 441.512 414.269 459.821C418.86 482.546 434.279 496.672 450.984 505.026C458.554 519.712 460.458 528.849 462.899 546.468C458.075 544.833 454.956 543.734 449.863 543.676C446.23 543.629 442.246 544.155 439.746 546.796C436.242 550.499 437.655 556.598 441.312 560.162C443.998 562.779 447.666 564.205 451.358 564.8C455.049 565.396 456.871 565.455 460.621 565.291C464.978 565.093 469.324 564.906 473.681 564.707C476.181 564.59 478.903 564.392 480.713 562.662C483.435 560.068 482.407 557.393 481.636 553.712C478.891 540.591 479.977 524.094 483.178 511.066C489.042 511.288 491.612 511.44 498.037 510.762" fill="#FFE76D"/>
<path d="M461.52 378.442C461.52 378.442 437.772 397.522 430.635 425.178C423.894 451.303 427.002 484.252 450.879 505.014C450.879 505.014 409.339 487.36 413.498 438.544C413.498 438.544 417.002 410.246 423.626 400.245C423.626 400.245 448.939 389.215 461.52 378.431V378.442Z" fill="#EAC734"/>
<path d="M679.497 368.277C679.497 368.277 680.186 386.621 626.37 376.409C572.553 366.198 558.5 352.937 558.5 352.937L561.315 366.607C561.315 366.607 605.6 386.96 664.615 382.637C664.615 382.637 683.13 380.218 679.497 368.266V368.277Z" fill="#EAC734"/>
<path d="M290.282 385.932C290.282 385.932 281.953 408.785 348.257 408.785C375.603 408.785 407.447 404.976 429.081 397.359C429.081 397.359 382.706 420.212 315.899 410.865C315.899 410.865 277.654 404.112 290.282 385.943V385.932Z" fill="#EAC734"/>
<path d="M462.654 268.228C462.654 268.228 454.348 274.806 451.919 313.573C449.489 352.34 445.692 363.767 445.692 363.767C445.692 363.767 436.861 369.305 429.946 370.345C429.946 370.345 438.426 316.248 440.237 302.496C442.048 288.744 443.087 280.168 447.164 276.009L462.654 268.216V268.228Z" fill="#EAC734"/>
<path d="M519.764 313.748C520.197 314.601 520.64 315.477 521.283 316.19C521.925 316.903 523.292 318.211 524.25 318.165C527.579 317.989 528.362 314.145 527.1 314.659C526.061 315.092 523.666 315.384 522.626 315.138C521.587 314.893 520.594 314.414 519.753 313.748H519.764Z" fill="#EAC734"/>
<path d="M452.725 360.449C433.719 372.086 410.823 375.405 388.57 376.585C363.046 377.94 337.382 376.818 312.08 373.243C309.673 372.904 306.847 372.671 305.164 374.423C303.038 376.643 304.452 380.639 307.103 382.181C309.755 383.724 313.026 383.548 316.087 383.326" stroke="black" stroke-linecap="round" stroke-linejoin="round"/>
<path d="M306.309 381.573C302.396 381.55 298.389 381.55 294.721 382.905C291.053 384.261 287.735 387.275 287.175 391.142C286.392 396.505 290.936 401.156 295.585 403.936C307.22 410.888 321.32 412.115 334.858 412.501C357.696 413.155 380.732 411.893 402.915 406.425C425.098 400.957 446.463 391.131 463.612 376.035" stroke="black" stroke-linecap="round" stroke-linejoin="round"/>
<path d="M450.493 505.143C433.789 496.789 418.369 481.272 413.778 458.547C410.075 440.239 415.133 417.805 422.656 400.712" stroke="black" stroke-linecap="round" stroke-linejoin="round"/>
<path d="M481.695 258.273C500.665 259.5 523.339 274.409 535.359 292.087C547.379 309.764 553.384 330.807 558.01 351.675C566.537 390.056 574.889 422.362 566.817 460.849C560.848 489.311 538.595 501.474 521.003 505.598" stroke="black" stroke-linecap="round" stroke-linejoin="round"/>
<path d="M429.992 369.807C433.17 347.141 437.317 322.231 440.494 299.564C441.732 290.731 442.468 282.505 447.433 275.098" stroke="black" stroke-linecap="round" stroke-linejoin="round"/>
<path d="M557.577 348.391C572.997 353.146 592.038 355.494 608.17 355.354C624.302 355.214 640.154 354.77 656.239 353.59C658.564 353.415 663.587 352.059 664.954 355.576C665.526 357.048 665.105 358.334 661.975 360.145C660.608 360.939 658.389 361.699 656.812 361.804" stroke="black" stroke-linecap="round" stroke-linejoin="round"/>
<path d="M661.613 360.285C665.725 359.724 670.094 359.818 673.762 361.757C677.43 363.697 680.116 367.891 679.299 371.957C678.621 375.287 677.079 377.542 674.229 379.376C671.016 381.445 666.426 382.823 657.478 383.045C623.228 383.922 590.239 378.068 561.409 366.594" stroke="black" stroke-linecap="round" stroke-linejoin="round"/>
<path d="M500.513 248.318C500.513 248.318 465.177 268.052 436.487 279.993" stroke="black" stroke-linecap="round" stroke-linejoin="round"/>
<path d="M481.695 258.273C481.695 258.273 476.87 239.602 465.177 228.584C465.177 228.584 444.29 229.04 429.151 246.939C429.151 246.939 440.354 258.822 447.468 274.887" fill="black"/>
<path d="M481.695 258.273C481.695 258.273 476.87 239.602 465.177 228.584C465.177 228.584 444.29 229.04 429.151 246.939C429.151 246.939 440.354 258.822 447.468 274.887" stroke="black" stroke-linecap="round" stroke-linejoin="round"/>
<path d="M467.268 267.095C469.406 274.292 466.544 282.704 460.458 287.098C455.727 290.509 445.213 293.465 438.555 288.254" stroke="black" stroke-linecap="round" stroke-linejoin="round"/>
<path d="M431.371 287.951C444.828 300.651 462.047 296.176 468.997 289.703C475.948 283.23 477.817 271.92 473.308 263.555" stroke="black" stroke-linecap="round" stroke-linejoin="round"/>
<path d="M489.346 259.488C490.269 263.776 493.481 269.735 500.21 271.733C509.076 274.35 516.879 272.189 519.18 268.824" stroke="black" stroke-linecap="round" stroke-linejoin="round"/>
<path d="M484.603 259.64C484.405 267.164 490.853 274.747 498.831 277.995C517.183 285.496 527.159 276.99 532.941 272.176" stroke="black" stroke-linecap="round" stroke-linejoin="round"/>
<path d="M499.941 307.545C501.779 307.545 503.27 306.054 503.27 304.215C503.27 302.376 501.779 300.885 499.941 300.885C498.102 300.885 496.611 302.376 496.611 304.215C496.611 306.054 498.102 307.545 499.941 307.545Z" fill="black"/>
<path d="M532.299 303.174C534.138 303.174 535.628 301.684 535.628 299.845C535.628 298.006 534.138 296.515 532.299 296.515C530.46 296.515 528.97 298.006 528.97 299.845C528.97 301.684 530.46 303.174 532.299 303.174Z" fill="black"/>
<path d="M522.194 303.232L525.617 308.922C526.376 310.184 527.135 311.458 527.474 312.883C527.813 314.309 527.649 315.933 526.691 317.054C525.734 318.176 523.888 318.55 522.766 317.604" stroke="black" stroke-linecap="round" stroke-linejoin="round"/>
<path d="M534.903 325.689C531.551 327.127 521.949 329.977 503.363 326.636C502.627 326.507 501.962 327.115 502.067 327.851C502.861 333.366 506.611 352.212 520.699 351.137C534.786 350.062 533.326 336.135 535.849 326.484C536.001 325.923 535.429 325.444 534.892 325.678L534.903 325.689Z" fill="#631500" stroke="black" stroke-miterlimit="10"/>
<path d="M516.867 355.191C515.897 355.133 514.239 354.864 513.748 355.705C513.409 356.278 513.725 356.757 514.204 357.201C514.741 357.703 515.851 358.194 516.493 358.369C518.608 358.953 519.939 358.871 521.89 358.533C523.724 358.217 526.212 357.166 525.406 355.448C524.846 354.256 522.311 355.542 516.867 355.191Z" fill="#EAC734"/>
<path d="M532.45 328.003C532.45 328.003 532.964 331.123 520.734 331.543C509.473 331.929 509.473 329.954 508.889 327.676C508.889 327.676 522.883 329.604 532.555 326.683L532.45 328.003V328.003Z" fill="white" stroke="black" stroke-miterlimit="10"/>
</g>
<g clip-path="url(#clip3_1262_4)">
<path d="M410.37 226.544C407.59 221.001 403.075 218.312 397.404 215.774C390.839 212.834 385.626 216.33 381.231 222.003L380.62 222.123C379.955 222.232 379.944 222.21 379.05 222.428C376.509 223.027 374.088 224.355 373.063 227.426C372.496 229.125 371.285 234.831 373.543 236.77C363.64 246.418 357.457 253.289 349.365 263.689C344.992 245.438 331.556 233.437 319.68 232.839L299.145 232.479L275.393 234.537C259.111 247.812 256.483 262.916 256.483 262.916L256.363 263.144C256.472 253.507 257.366 244.632 259.351 233.938C263.899 232.904 267.563 228.363 268.501 224.279C269.351 220.566 268.555 218.148 267.486 215.883C267.236 215.35 267.29 214.936 266.679 214.272L267.148 213.052C268.642 210.613 269.689 206.366 264.673 202.195C262.47 200.366 259.471 199.211 255.719 198.536C249.907 197.48 244.727 198.024 240.637 199.048C236.395 200.104 233.221 200.714 231.684 208.032C231.182 210.417 231.324 214.13 231.684 216.537C232.131 219.586 234.225 222.08 236.46 222.82C226.547 249.979 220.833 288.811 226.296 322.852L226.22 323.005C219.404 354.661 219.066 391.424 240.539 417.973C244.705 423.124 249.721 428.547 255.37 432.25C249.089 445.992 248.064 458.635 248.031 473.739C243.091 471.866 238.532 472.171 234.225 474.077C229.917 475.982 225.991 479.26 224.399 483.692C223.777 485.424 223.668 487.667 225.129 488.789C226.122 489.551 227.485 489.518 228.728 489.442C243.571 488.636 252.066 486.97 270.191 488.712C270.704 473.391 272.47 460.53 285.001 443.422C288.185 444.01 291.446 444.882 294.739 445.143C303.42 445.818 310.52 445.949 319.898 444.076L321.349 445.045C333.879 462.153 334.283 473.402 334.795 488.723C352.92 486.992 361.416 488.647 376.258 489.453C377.501 489.518 378.864 489.551 379.857 488.8C381.318 487.678 381.209 485.435 380.588 483.703C378.995 479.271 375.08 475.982 370.762 474.088C366.454 472.182 361.895 471.877 356.955 473.75C356.923 458.646 355.69 445.513 349.409 431.781C353.956 428.101 357.871 422.558 360.881 416.961C371.819 396.564 371.274 373.979 359.856 353.648C356.454 347.583 353.236 341.474 351.001 334.787C359.267 297.077 372.005 277.595 396.324 243.728L397.764 243.401C401.024 244.632 402.769 243.325 406.652 240.657C411.766 237.14 413.435 232.686 410.37 226.566V226.544Z" fill="#E17878"/>
<path d="M254.781 431.695C254.781 431.695 208.978 406.409 226.547 325.227C226.547 325.227 217.702 269.45 236.438 222.82C236.438 222.82 237.649 223.55 239.786 223.441C239.786 223.441 224.965 266.782 236.122 325.346C236.122 325.346 219.404 393.951 254.781 431.705V431.695Z" fill="#BC4242"/>
<path d="M294.532 232.904C294.532 232.904 261.892 238.229 261.085 312.921C261.085 312.921 254.618 270.332 256.559 262.099C256.559 262.099 264.313 241.289 276.756 234.516L294.532 232.904Z" fill="#BC4242"/>
<path d="M391.711 240.319C391.711 240.319 386.346 244.947 386.302 245.002C384.274 246.973 363.237 268.959 348.82 297.033L348.013 304.862L347.686 321.643C347.686 321.643 349.147 331.466 351.001 334.787C351.001 334.787 353.662 299.221 396.597 243.281L393.282 241.811" fill="#BC4242"/>
<path d="M261.172 314.598C256.32 285.49 253.866 262.894 259.188 234.102C263.735 233.067 267.4 229.495 268.337 225.412C269.188 221.698 268.381 218.584 267.312 216.308C266.625 214.86 264.302 212.605 262.198 211.462C258.446 209.415 256.123 209.219 251.881 208.99C250.136 208.892 247.562 209.24 245.916 209.839C244.269 210.438 242.709 211.244 242.164 212.899C241.226 215.753 242.59 217.321 245.229 218.094C248.119 218.932 251.696 218.845 254.684 218.606" stroke="black" stroke-linecap="round" stroke-linejoin="round"/>
<path d="M266.963 214.174C268.457 211.734 269.504 206.518 264.487 202.347C262.284 200.518 259.285 199.364 255.534 198.688C249.721 197.632 244.541 198.177 240.452 199.2C236.362 200.224 233.036 201.836 231.498 209.153C230.997 211.538 231.138 215.252 231.498 217.658C232.185 222.254 236.024 222.863 239.623 223.593C243.222 224.323 246.951 223.844 250.594 223.364C252.404 223.125 253.669 220.457 252.873 218.823" stroke="black" stroke-linecap="round" stroke-linejoin="round"/>
<path d="M236.046 223.136C225.053 253.017 219.579 297.915 228.096 334.003" stroke="black" stroke-linecap="round" stroke-linejoin="round"/>
<path d="M258.947 238.326C289.963 230.616 321.065 230.78 350.041 238.402" stroke="black" stroke-linecap="round" stroke-linejoin="round"/>
<path d="M314.173 232.217C314.173 232.217 316.725 199.363 320.651 190.172C320.651 190.172 287.749 177.072 265.251 194.942C265.251 194.942 275.818 209.915 275.142 234.94" fill="black"/>
<path d="M314.173 232.217C314.173 232.217 316.725 199.363 320.651 190.172C320.651 190.172 287.749 177.072 265.251 194.942C265.251 194.942 275.818 209.915 275.142 234.94" stroke="black" stroke-linecap="round" stroke-linejoin="round"/>
<path d="M290.573 234.428C290.573 234.428 275.742 252.047 274.979 276.549" stroke="black" stroke-linecap="round" stroke-linejoin="round"/>
<path d="M282.645 234.428C282.645 234.428 267.814 244.13 262.699 265.06" stroke="black" stroke-linecap="round" stroke-linejoin="round"/>
<path d="M344.01 273.239C344.01 273.239 342.037 249.859 318.797 233.764" stroke="black" stroke-linecap="round" stroke-linejoin="round"/>
<path d="M354.633 256.85C354.633 256.85 348.853 240.82 330.052 235.495" stroke="black" stroke-linecap="round" stroke-linejoin="round"/>
<path d="M255.207 432.413C249.558 428.699 244.541 424.245 240.375 419.105C218.891 392.546 219.24 355.782 226.056 324.126" stroke="black" stroke-linecap="round" stroke-linejoin="round"/>
<path d="M324.315 233.916C334.545 235.19 352.953 253.321 350.14 283.703C349.256 293.275 347.555 307.171 347.751 318.343C348.002 332.729 353.531 343.814 359.682 354.769C371.1 375.111 371.634 397.685 360.707 418.082C357.708 423.679 353.782 428.253 349.235 431.933" stroke="black" stroke-linecap="round" stroke-linejoin="round"/>
<path d="M256.309 264.047C256.309 264.047 258.86 248.214 275.142 234.939" stroke="black" stroke-linecap="round" stroke-linejoin="round"/>
<path d="M349.376 263.786C357.817 252.81 363.433 246.679 373.662 236.726C371.405 234.787 372.332 230.257 372.899 228.558C373.924 225.498 376.749 223.288 379.29 222.689C384.143 221.535 385.048 222.046 387.731 222.689C390.173 223.266 392.267 225.128 394.121 226.903C397.186 229.843 397.894 232.119 396.553 234.308C394.503 237.629 388.309 234.885 385.244 233.219" stroke="black" stroke-linecap="round" stroke-linejoin="round"/>
<path d="M381.504 222.003C385.899 216.318 390.959 212.932 397.524 215.872C403.195 218.409 407.699 221.556 410.48 227.11C413.544 233.241 411.167 237.542 406.052 241.071C400.905 244.61 397.819 245.252 392.758 241.582C389.007 238.86 386.106 236.301 387.644 235.114" stroke="black" stroke-linecap="round" stroke-linejoin="round"/>
<path d="M396.161 243.88C371.842 277.747 359.17 297.795 350.914 335.505" stroke="black" stroke-linecap="round" stroke-linejoin="round"/>
<path d="M324.686 311.624C327.696 312.016 331.076 313.029 332.331 315.784C333.29 317.897 332.636 320.489 331.175 322.296C329.713 324.104 326.213 326.467 324.064 327.36C316.67 330.42 308.938 330.267 301.304 327.872C293.671 325.476 287.454 322.351 283.147 315.621C281.729 313.399 280.333 309.555 280.082 306.942C279.832 304.328 280.966 300.201 282.94 298.459C286.451 295.377 292.122 294.931 296.441 296.727C305.983 300.702 314.369 310.274 324.675 311.624H324.686Z" fill="#631500" stroke="black" stroke-linecap="round" stroke-linejoin="round"/>
<path d="M304.118 284.977C304.118 284.977 303.093 277.572 294.401 273.739" stroke="black" stroke-linecap="round" stroke-linejoin="round"/>
<path d="M329.811 288.67C329.811 288.67 333.018 282.43 339.408 281.918" stroke="black" stroke-linecap="round" stroke-linejoin="round"/>
<path d="M328.928 312.855C328.928 312.855 328.655 314.848 328.132 315.817C327.608 316.786 323.661 316.688 322.112 316.427C304.053 313.28 293.758 303.479 292.187 301.541C290.617 299.603 292.067 295.856 292.067 295.856C292.067 295.856 294.87 295.813 299.778 298.601C304.685 301.388 312.384 307.759 319.288 310.296C324.511 312.224 326.071 311.342 328.928 312.855V312.855Z" fill="white" stroke="black" stroke-linecap="round" stroke-linejoin="round"/>
<path d="M323.55 292.43C323.81 290.937 321.952 289.368 319.4 288.925C316.849 288.482 314.569 289.333 314.309 290.827C314.05 292.32 315.907 293.889 318.459 294.332C321.011 294.775 323.29 293.923 323.55 292.43Z" fill="#725858" stroke="black" stroke-linecap="round" stroke-linejoin="round"/>
<path d="M304.271 332.206C305.492 332.347 306.768 332.391 307.902 332.739C309.036 333.088 310.018 333.828 309.778 334.558C309.636 334.994 309.091 335.331 308.448 335.516C307.804 335.701 307.084 335.778 306.354 335.821C303.693 335.984 300.857 335.876 298.436 335.07C296.015 334.264 294.129 332.598 294.445 330.975C294.554 330.409 295.099 329.647 296.222 329.69C297.051 329.712 297.389 330.224 297.978 330.529C299.69 331.422 302.122 331.966 304.26 332.206H304.271Z" fill="#BC4242"/>
</g>
</g>
<defs>
<clipPath id="clip0_1262_4">
<rect width="301.626" height="406.104" fill="white" transform="translate(80)"/>
</clipPath>
<clipPath id="clip1_1262_4">
<rect width="191.271" height="327.457" fill="white" transform="translate(334 60)"/>
</clipPath>
<clipPath id="clip2_1262_4">
<rect width="393.525" height="202" fill="white" transform="translate(286.497 228)"/>
</clipPath>
<clipPath id="clip3_1262_4">
<rect width="191.01" height="245" fill="white" transform="translate(221.378 185)"/>
</clipPath>
</defs>
</svg>
