<?xml version="1.0" encoding="utf-8"?>
<!-- Generator: Adobe Illustrator 23.0.1, SVG Export Plug-In . SVG Version: 6.00 Build 0)  -->
<svg version="1.1" id="Layer_1" xmlns="http://www.w3.org/2000/svg" xmlns:xlink="http://www.w3.org/1999/xlink" x="0px" y="0px"
	 viewBox="0 0 1920 897" style="enable-background:new 0 0 1920 897;" xml:space="preserve">
<style type="text/css">
	.st0{fill:url(#SVGID_1_);}
	.st1{fill:none;stroke:#F57600;stroke-width:15;stroke-linecap:round;stroke-opacity:0.31;}
	.st2{fill:none;stroke:#F57600;stroke-width:30;stroke-linejoin:round;stroke-opacity:0.25;stroke-dasharray:7,21;}
	.st3{fill:none;stroke:#F57600;stroke-width:49;stroke-linejoin:round;stroke-opacity:0.1;stroke-dasharray:7,40;}
	.st4{fill:#F6EFE0;}
</style>
<linearGradient id="SVGID_1_" gradientUnits="userSpaceOnUse" x1="960" y1="898" x2="960" y2="422" gradientTransform="matrix(1 0 0 -1 0 898)">
	<stop  offset="0.706" style="stop-color:#F6EFE0;stop-opacity:0"/>
	<stop  offset="1" style="stop-color:#EDDAB1"/>
</linearGradient>
<rect class="st0" width="1920" height="476"/>
<path class="st1" d="M1052.6,358.4c-6.3-39.3-7.6-72.2,8.6-94.7c13.9-19.3,31.4,2.1,30.8,27.2c-0.5,21.3-16.1,23.4-18.4-16.2
	c-2.2-36.7,10.1-71.4,30.8-77.2c31.4-8.8,40.3,38.9,42,52.3c3.2,24.8-15.2,43.5-26.4,2.1c-14.9-54.8,16.9-115.2,44.5-94.9"/>
<path class="st1" d="M926,370.5c-18.7,2.8-34.1,1.2-43-17.4c-7.7-16,3.8-31.9,15.4-29.1c9.8,2.4,9.4,18.6-9.2,17.3
	c-17.2-1.1-32.1-16.8-32.9-38.6c-1.2-32.9,21.7-37.7,28.1-38.2c11.8-1,18.8,19.5-1.4,27.3c-26.7,10.2-51.8-27.9-39.9-54.2"/>
<circle class="st2" cx="1207.5" cy="429.5" r="104.5"/>
<circle class="st3" cx="1208.7" cy="424.7" r="159.8"/>
<circle class="st2" cx="641.5" cy="146.5" r="64.5"/>
<circle class="st2" cx="799.5" cy="431.5" r="64.5"/>
<path class="st1" d="M802.9,404.8c-18.5,55.8-96.2,78.5-115.6,40.1"/>
<rect y="463.5" class="st4" width="1920" height="433.2"/>
</svg>
