<svg width="346" height="290" viewBox="0 0 346 290" fill="none" xmlns="http://www.w3.org/2000/svg">
<g filter="url(#filter0_di_1033_6)">
<rect x="11" y="54" width="322" height="221" rx="15" fill="white"/>
</g>
<path d="M41.46 94.44C42.2067 94.44 42.9067 94.5667 43.56 94.82C44.2133 95.0733 44.78 95.4267 45.26 95.88C45.74 96.3333 46.12 96.88 46.4 97.52C46.68 98.1467 46.82 98.8333 46.82 99.58C46.82 100.327 46.68 101.02 46.4 101.66C46.12 102.287 45.74 102.827 45.26 103.28C44.78 103.733 44.2133 104.087 43.56 104.34C42.9067 104.593 42.2067 104.72 41.46 104.72C40.7133 104.72 40.0133 104.593 39.36 104.34C38.7067 104.087 38.14 103.733 37.66 103.28C37.18 102.827 36.8 102.287 36.52 101.66C36.24 101.02 36.1 100.327 36.1 99.58C36.1 98.8333 36.24 98.1467 36.52 97.52C36.8 96.88 37.18 96.3333 37.66 95.88C38.14 95.4267 38.7067 95.0733 39.36 94.82C40.0133 94.5667 40.7133 94.44 41.46 94.44ZM41.46 102.44C42.2867 102.44 42.94 102.18 43.42 101.66C43.9 101.127 44.14 100.433 44.14 99.58C44.14 98.7267 43.9 98.04 43.42 97.52C42.94 96.9867 42.2867 96.72 41.46 96.72C40.6333 96.72 39.98 96.9867 39.5 97.52C39.02 98.04 38.78 98.7267 38.78 99.58C38.78 100.433 39.02 101.127 39.5 101.66C39.98 102.18 40.6333 102.44 41.46 102.44ZM49.48 107.76V94.62H52.16V107.76H49.48ZM41.1 106.22V110.06H52.66V112.34H38.42V106.22H41.1ZM67.7267 107.76V94.62H70.4067V99.18H72.5267V101.5H70.4067V107.76H67.7267ZM59.6267 106.22V110.06H70.9867V112.34H56.9467V106.22H59.6267ZM55.4867 95.2H65.2067C65.2201 96.6667 64.9601 97.9867 64.4267 99.16C63.8934 100.32 63.1734 101.333 62.2667 102.2C61.3734 103.067 60.3401 103.787 59.1667 104.36C58.0067 104.933 56.8067 105.353 55.5667 105.62L54.3067 103.54C55.4267 103.313 56.4467 103 57.3667 102.6C58.2867 102.2 59.0867 101.733 59.7667 101.2C60.4467 100.667 61.0001 100.087 61.4267 99.46C61.8534 98.82 62.1401 98.1467 62.2867 97.44H55.4867V95.2ZM73.4134 106.22V104.02H91.0134V106.22H73.4134ZM78.0934 107.02V110.06H89.7934V112.34H75.4134V107.02H78.0934ZM76.1334 98.44C76.1334 97.7733 76.2868 97.1667 76.5934 96.62C76.9134 96.0733 77.3468 95.6067 77.8934 95.22C78.4401 94.82 79.0801 94.5133 79.8134 94.3C80.5601 94.0867 81.3601 93.98 82.2134 93.98C83.0668 93.98 83.8601 94.0867 84.5934 94.3C85.3401 94.5133 85.9868 94.82 86.5334 95.22C87.0801 95.6067 87.5068 96.0733 87.8134 96.62C88.1334 97.1667 88.2934 97.7733 88.2934 98.44C88.2934 99.1067 88.1334 99.72 87.8134 100.28C87.5068 100.827 87.0801 101.293 86.5334 101.68C85.9868 102.067 85.3401 102.367 84.5934 102.58C83.8601 102.793 83.0668 102.9 82.2134 102.9C81.3601 102.9 80.5601 102.793 79.8134 102.58C79.0801 102.367 78.4401 102.067 77.8934 101.68C77.3468 101.293 76.9134 100.827 76.5934 100.28C76.2868 99.72 76.1334 99.1067 76.1334 98.44ZM82.2134 96.22C81.7468 96.22 81.3068 96.2733 80.8934 96.38C80.4801 96.4867 80.1201 96.64 79.8134 96.84C79.5068 97.04 79.2601 97.28 79.0734 97.56C78.9001 97.8267 78.8134 98.12 78.8134 98.44C78.8134 98.76 78.9001 99.06 79.0734 99.34C79.2601 99.6067 79.5068 99.84 79.8134 100.04C80.1201 100.24 80.4801 100.393 80.8934 100.5C81.3068 100.607 81.7468 100.66 82.2134 100.66C82.6801 100.66 83.1201 100.607 83.5334 100.5C83.9468 100.393 84.3068 100.24 84.6134 100.04C84.9201 99.84 85.1601 99.6067 85.3334 99.34C85.5201 99.06 85.6134 98.76 85.6134 98.44C85.6134 98.12 85.5201 97.8267 85.3334 97.56C85.1601 97.28 84.9201 97.04 84.6134 96.84C84.3068 96.64 83.9468 96.4867 83.5334 96.38C83.1201 96.2733 82.6801 96.22 82.2134 96.22ZM104.683 94.44C105.429 94.44 106.129 94.5667 106.783 94.82C107.436 95.0733 108.003 95.4267 108.483 95.88C108.963 96.3333 109.343 96.88 109.623 97.52C109.903 98.1467 110.043 98.8333 110.043 99.58C110.043 100.327 109.903 101.02 109.623 101.66C109.343 102.287 108.963 102.827 108.483 103.28C108.003 103.733 107.436 104.087 106.783 104.34C106.129 104.593 105.429 104.72 104.683 104.72C103.936 104.72 103.236 104.593 102.583 104.34C101.929 104.087 101.363 103.733 100.883 103.28C100.403 102.827 100.023 102.287 99.7427 101.66C99.4627 101.02 99.3227 100.327 99.3227 99.58C99.3227 98.8333 99.4627 98.1467 99.7427 97.52C100.023 96.88 100.403 96.3333 100.883 95.88C101.363 95.4267 101.929 95.0733 102.583 94.82C103.236 94.5667 103.936 94.44 104.683 94.44ZM104.683 102.44C105.509 102.44 106.163 102.18 106.643 101.66C107.123 101.127 107.363 100.433 107.363 99.58C107.363 98.7267 107.123 98.04 106.643 97.52C106.163 96.9867 105.509 96.72 104.683 96.72C103.856 96.72 103.203 96.9867 102.723 97.52C102.243 98.04 102.003 98.7267 102.003 99.58C102.003 100.433 102.243 101.127 102.723 101.66C103.203 102.18 103.856 102.44 104.683 102.44ZM112.703 107.76V94.62H115.383V107.76H112.703ZM104.323 106.22V110.06H115.883V112.34H101.643V106.22H104.323ZM130.949 107.76V94.62H133.629V99.18H135.749V101.5H133.629V107.76H130.949ZM122.849 106.22V110.06H134.209V112.34H120.169V106.22H122.849ZM118.709 95.2H128.429C128.443 96.6667 128.183 97.9867 127.649 99.16C127.116 100.32 126.396 101.333 125.489 102.2C124.596 103.067 123.563 103.787 122.389 104.36C121.229 104.933 120.029 105.353 118.789 105.62L117.529 103.54C118.649 103.313 119.669 103 120.589 102.6C121.509 102.2 122.309 101.733 122.989 101.2C123.669 100.667 124.223 100.087 124.649 99.46C125.076 98.82 125.363 98.1467 125.509 97.44H118.709V95.2ZM148.616 101.54C148.616 102.433 148.469 103.26 148.176 104.02C147.883 104.767 147.476 105.413 146.956 105.96C146.436 106.493 145.823 106.913 145.116 107.22C144.409 107.513 143.643 107.66 142.816 107.66C141.989 107.66 141.223 107.513 140.516 107.22C139.809 106.913 139.196 106.493 138.676 105.96C138.156 105.413 137.749 104.767 137.456 104.02C137.163 103.26 137.016 102.433 137.016 101.54C137.016 100.647 137.163 99.8267 137.456 99.08C137.749 98.32 138.156 97.6733 138.676 97.14C139.196 96.5933 139.809 96.1733 140.516 95.88C141.223 95.5733 141.989 95.42 142.816 95.42C143.643 95.42 144.409 95.5733 145.116 95.88C145.823 96.1733 146.436 96.5933 146.956 97.14C147.476 97.6733 147.883 98.32 148.176 99.08C148.469 99.8267 148.616 100.647 148.616 101.54ZM145.936 101.54C145.936 100.967 145.856 100.447 145.696 99.98C145.549 99.5 145.336 99.0933 145.056 98.76C144.789 98.4133 144.463 98.1533 144.076 97.98C143.689 97.7933 143.269 97.7 142.816 97.7C142.349 97.7 141.923 97.7933 141.536 97.98C141.163 98.1533 140.836 98.4133 140.556 98.76C140.289 99.0933 140.076 99.5 139.916 99.98C139.769 100.447 139.696 100.967 139.696 101.54C139.696 102.127 139.769 102.653 139.916 103.12C140.076 103.587 140.289 103.993 140.556 104.34C140.836 104.673 141.163 104.933 141.536 105.12C141.923 105.293 142.349 105.38 142.816 105.38C143.269 105.38 143.689 105.293 144.076 105.12C144.463 104.933 144.789 104.673 145.056 104.34C145.336 103.993 145.549 103.587 145.696 103.12C145.856 102.653 145.936 102.127 145.936 101.54ZM150.616 112.54V94.62H153.296V112.54H150.616ZM156.323 109.7V101.1H163.043V97.48H156.323V95.2H165.723V103.36H159.003V107.22L167.503 106.84V109.08L156.323 109.7ZM168.303 112.54V94.62H170.983V101H173.523V103.32H170.983V112.54H168.303ZM190.29 101.5H176.33V94.7H179.01V99.24H190.29V101.5ZM174.41 105.62V103.38H192.01V105.62H174.41ZM179.09 106.62V110.06H190.79V112.34H176.41V106.62H179.09ZM211.839 101.54C211.839 102.433 211.692 103.26 211.399 104.02C211.105 104.767 210.699 105.413 210.179 105.96C209.659 106.493 209.045 106.913 208.339 107.22C207.632 107.513 206.865 107.66 206.039 107.66C205.212 107.66 204.445 107.513 203.739 107.22C203.032 106.913 202.419 106.493 201.899 105.96C201.379 105.413 200.972 104.767 200.679 104.02C200.385 103.26 200.239 102.433 200.239 101.54C200.239 100.647 200.385 99.8267 200.679 99.08C200.972 98.32 201.379 97.6733 201.899 97.14C202.419 96.5933 203.032 96.1733 203.739 95.88C204.445 95.5733 205.212 95.42 206.039 95.42C206.865 95.42 207.632 95.5733 208.339 95.88C209.045 96.1733 209.659 96.5933 210.179 97.14C210.699 97.6733 211.105 98.32 211.399 99.08C211.692 99.8267 211.839 100.647 211.839 101.54ZM209.159 101.54C209.159 100.967 209.079 100.447 208.919 99.98C208.772 99.5 208.559 99.0933 208.279 98.76C208.012 98.4133 207.685 98.1533 207.299 97.98C206.912 97.7933 206.492 97.7 206.039 97.7C205.572 97.7 205.145 97.7933 204.759 97.98C204.385 98.1533 204.059 98.4133 203.779 98.76C203.512 99.0933 203.299 99.5 203.139 99.98C202.992 100.447 202.919 100.967 202.919 101.54C202.919 102.127 202.992 102.653 203.139 103.12C203.299 103.587 203.512 103.993 203.779 104.34C204.059 104.673 204.385 104.933 204.759 105.12C205.145 105.293 205.572 105.38 206.039 105.38C206.492 105.38 206.912 105.293 207.299 105.12C207.685 104.933 208.012 104.673 208.279 104.34C208.559 103.993 208.772 103.587 208.919 103.12C209.079 102.653 209.159 102.127 209.159 101.54ZM213.839 112.54V94.62H216.519V112.54H213.839ZM227.505 94.34C228.425 94.34 229.265 94.4667 230.025 94.72C230.799 94.96 231.459 95.2933 232.005 95.72C232.552 96.1467 232.979 96.66 233.285 97.26C233.592 97.8467 233.745 98.48 233.745 99.16C233.745 99.84 233.592 100.48 233.285 101.08C232.979 101.667 232.552 102.173 232.005 102.6C231.459 103.027 230.799 103.367 230.025 103.62C229.265 103.86 228.425 103.98 227.505 103.98C226.599 103.98 225.765 103.86 225.005 103.62C224.245 103.367 223.592 103.027 223.045 102.6C222.499 102.173 222.072 101.667 221.765 101.08C221.459 100.48 221.305 99.84 221.305 99.16C221.305 98.48 221.459 97.8467 221.765 97.26C222.072 96.66 222.499 96.1467 223.045 95.72C223.592 95.2933 224.245 94.96 225.005 94.72C225.765 94.4667 226.599 94.34 227.505 94.34ZM222.805 112.34V107.18H218.745V104.9H236.345V107.18H232.285V112.54H229.605V107.18H225.485V112.34H222.805ZM227.505 101.74C228.065 101.74 228.565 101.673 229.005 101.54C229.445 101.393 229.819 101.207 230.125 100.98C230.432 100.74 230.665 100.467 230.825 100.16C230.985 99.84 231.065 99.5067 231.065 99.16C231.065 98.8133 230.985 98.4867 230.825 98.18C230.665 97.86 230.432 97.5867 230.125 97.36C229.819 97.12 229.445 96.9333 229.005 96.8C228.565 96.6533 228.065 96.58 227.505 96.58C226.959 96.58 226.465 96.6533 226.025 96.8C225.599 96.9333 225.232 97.12 224.925 97.36C224.619 97.5867 224.385 97.86 224.225 98.18C224.065 98.4867 223.985 98.8133 223.985 99.16C223.985 99.5067 224.065 99.84 224.225 100.16C224.385 100.467 224.619 100.74 224.925 100.98C225.232 101.207 225.599 101.393 226.025 101.54C226.465 101.673 226.959 101.74 227.505 101.74ZM250.832 107.76V94.62H253.512V98.78H255.632V101.1H253.512V107.76H250.832ZM238.332 104.54V95.2H248.352V104.54H238.332ZM241.012 102.3H245.672V97.44H241.012V102.3ZM242.732 106.22V110.06H254.092V112.34H240.052V106.22H242.732ZM256.519 111.02V108.74H274.119V111.02H256.519ZM265.279 94.54C266.279 94.54 267.186 94.6933 267.999 95C268.826 95.3067 269.526 95.72 270.099 96.24C270.686 96.76 271.139 97.3667 271.459 98.06C271.779 98.74 271.939 99.4533 271.939 100.2C271.939 100.947 271.779 101.667 271.459 102.36C271.139 103.04 270.686 103.64 270.099 104.16C269.526 104.68 268.826 105.093 267.999 105.4C267.186 105.707 266.279 105.86 265.279 105.86C264.292 105.86 263.392 105.707 262.579 105.4C261.766 105.093 261.066 104.68 260.479 104.16C259.906 103.64 259.459 103.04 259.139 102.36C258.819 101.667 258.659 100.947 258.659 100.2C258.659 99.4533 258.819 98.74 259.139 98.06C259.459 97.3667 259.906 96.76 260.479 96.24C261.066 95.72 261.766 95.3067 262.579 95C263.392 94.6933 264.292 94.54 265.279 94.54ZM265.299 103.58C265.912 103.58 266.466 103.493 266.959 103.32C267.452 103.133 267.866 102.887 268.199 102.58C268.546 102.26 268.806 101.9 268.979 101.5C269.166 101.087 269.259 100.653 269.259 100.2C269.259 99.7467 269.166 99.32 268.979 98.92C268.806 98.5067 268.546 98.1467 268.199 97.84C267.866 97.5333 267.452 97.2867 266.959 97.1C266.466 96.9133 265.912 96.82 265.299 96.82C264.686 96.82 264.132 96.9133 263.639 97.1C263.146 97.2867 262.726 97.5333 262.379 97.84C262.046 98.1467 261.786 98.5067 261.599 98.92C261.426 99.32 261.339 99.7467 261.339 100.2C261.339 100.653 261.426 101.087 261.599 101.5C261.786 101.9 262.046 102.26 262.379 102.58C262.726 102.887 263.146 103.133 263.639 103.32C264.132 103.493 264.686 103.58 265.299 103.58ZM275.406 111.22V108.94H282.946V106.16H277.306V99.54H288.426V97.58H277.306V95.3H291.086V101.82H279.986V103.86H291.386V106.16H285.666V108.94H293.006V111.22H275.406ZM51.46 142.4C50.7267 142.333 50 142.207 49.28 142.02C48.56 141.833 47.8667 141.6 47.2 141.32C46.5467 141.027 45.9267 140.687 45.34 140.3C45.0067 140.073 44.6933 139.827 44.4 139.56C44.0667 139.893 43.6867 140.193 43.26 140.46C42.6733 140.833 42.0467 141.16 41.38 141.44C40.7267 141.72 40.0467 141.953 39.34 142.14C38.6467 142.313 37.9733 142.447 37.32 142.54L36.16 140.48C37.2 140.307 38.1667 140.1 39.06 139.86C39.9533 139.607 40.7267 139.287 41.38 138.9C42.0467 138.5 42.5733 138.02 42.96 137.46L43.16 137.14H37.46V134.9H51.42V137.14H46.04L45.92 137.46C45.8533 137.607 45.78 137.747 45.7 137.88C46.3933 138.52 47.24 139.027 48.24 139.4C49.5333 139.88 51.02 140.213 52.7 140.4L51.46 142.4ZM35.64 145.98V143.74H43.08V141.4H45.8V143.74H53.24V145.98H35.64ZM40.32 146.82V150.06H52.02V152.34H37.64V146.82H40.32ZM65.1267 134.82H67.7267V141.12H69.1867V134.62H71.8267V152.52H69.1867V143.44H67.7267V152.08H65.1267V134.82ZM63.0867 149.58C62.0067 148.58 61.0734 147.44 60.2867 146.16C59.9934 145.693 59.7267 145.213 59.4867 144.72C59.0201 145.72 58.4934 146.64 57.9067 147.48C57.2534 148.427 56.5534 149.28 55.8067 150.04L53.8667 148.46C54.5734 147.807 55.2201 147.047 55.8067 146.18C56.4067 145.313 56.9201 144.353 57.3467 143.3C57.7734 142.247 58.1067 141.113 58.3467 139.9C58.4934 139.193 58.6001 138.46 58.6667 137.7H55.0467V135.42H64.3067V137.7H61.3267C61.2334 138.687 61.0801 139.627 60.8667 140.52C60.7734 140.947 60.6667 141.367 60.5467 141.78C60.9467 142.847 61.4334 143.82 62.0067 144.7C62.7667 145.82 63.7001 146.847 64.8067 147.78L63.0867 149.58ZM87.5134 152.54V134.62H90.1934V152.54H87.5134ZM73.7134 150.02V147.74L86.9134 147.58V149.82L73.7134 150.02ZM80.1734 135.02C81.0001 135.02 81.7534 135.167 82.4334 135.46C83.1134 135.753 83.7001 136.14 84.1934 136.62C84.6868 137.1 85.0668 137.66 85.3334 138.3C85.6001 138.927 85.7334 139.58 85.7334 140.26C85.7334 140.94 85.6001 141.6 85.3334 142.24C85.0668 142.867 84.6868 143.42 84.1934 143.9C83.7001 144.38 83.1134 144.767 82.4334 145.06C81.7534 145.353 81.0001 145.5 80.1734 145.5C79.3468 145.5 78.5934 145.353 77.9134 145.06C77.2334 144.767 76.6468 144.38 76.1534 143.9C75.6601 143.42 75.2801 142.867 75.0134 142.24C74.7468 141.6 74.6134 140.94 74.6134 140.26C74.6134 139.58 74.7468 138.927 75.0134 138.3C75.2801 137.66 75.6601 137.1 76.1534 136.62C76.6468 136.14 77.2334 135.753 77.9134 135.46C78.5934 135.167 79.3468 135.02 80.1734 135.02ZM80.1734 143.22C80.6134 143.22 81.0068 143.14 81.3534 142.98C81.7134 142.807 82.0201 142.587 82.2734 142.32C82.5268 142.04 82.7201 141.727 82.8534 141.38C82.9868 141.02 83.0534 140.647 83.0534 140.26C83.0534 139.887 82.9868 139.52 82.8534 139.16C82.7201 138.8 82.5268 138.487 82.2734 138.22C82.0201 137.94 81.7134 137.72 81.3534 137.56C81.0068 137.387 80.6134 137.3 80.1734 137.3C79.7334 137.3 79.3334 137.387 78.9734 137.56C78.6268 137.72 78.3268 137.94 78.0734 138.22C77.8201 138.487 77.6268 138.8 77.4934 139.16C77.3601 139.52 77.2934 139.887 77.2934 140.26C77.2934 140.647 77.3601 141.02 77.4934 141.38C77.6268 141.727 77.8201 142.04 78.0734 142.32C78.3268 142.587 78.6268 142.807 78.9734 142.98C79.3334 143.14 79.7334 143.22 80.1734 143.22ZM111.643 152.54V134.62H114.323V141.2H116.863V143.52H114.323V152.54H111.643ZM99.7427 135.34H109.583C109.596 137.073 109.369 138.687 108.903 140.18C108.449 141.673 107.816 143.04 107.003 144.28C106.203 145.507 105.249 146.6 104.143 147.56C103.049 148.507 101.883 149.313 100.643 149.98L98.9227 148.08C100.083 147.52 101.123 146.853 102.043 146.08C102.976 145.307 103.776 144.467 104.443 143.56C105.109 142.64 105.636 141.68 106.023 140.68C106.409 139.667 106.649 138.647 106.743 137.62H99.7427V135.34ZM117.429 148.38C118.349 147.86 119.169 147.273 119.889 146.62C120.609 145.967 121.216 145.233 121.709 144.42C122.216 143.607 122.603 142.713 122.869 141.74C122.976 141.353 123.063 140.947 123.129 140.52H118.749V138.24H129.789V140.52H125.869C125.789 141.173 125.656 141.8 125.469 142.4C125.403 142.653 125.323 142.907 125.229 143.16C125.696 144.067 126.263 144.847 126.929 145.5C127.903 146.46 129.096 147.247 130.509 147.86L128.929 149.86C128.329 149.58 127.729 149.227 127.129 148.8C126.543 148.36 125.989 147.867 125.469 147.32C124.949 146.773 124.483 146.187 124.069 145.56L124.029 145.62C123.416 146.593 122.689 147.467 121.849 148.24C121.023 149.013 120.136 149.693 119.189 150.28L117.429 148.38ZM131.929 152.54V134.62H134.609V152.54H131.929ZM121.109 136.86V134.58H127.529V136.86H121.109ZM138.436 152.42V148.02H149.716V147.34H138.436V145.42H152.396V149.78H141.116V150.48H152.816V152.42H138.436ZM138.536 141.86V137.44H149.636V136.74H138.536V134.82H152.316V139.2H141.216V139.92H152.616V141.86H138.536ZM136.636 144.56V142.64H154.236V144.56H136.636ZM161.605 148.22C162.619 147.553 163.499 146.773 164.245 145.88C165.005 144.987 165.625 144.007 166.105 142.94C166.599 141.86 166.965 140.7 167.205 139.46C167.325 138.86 167.419 138.247 167.485 137.62H162.805V135.34H174.265V137.62H170.225C170.145 138.433 170.019 139.22 169.845 139.98C169.712 140.593 169.552 141.187 169.365 141.76C170.512 144.307 172.339 146.287 174.845 147.7L173.225 149.66C172.625 149.273 172.032 148.82 171.445 148.3C170.859 147.767 170.305 147.193 169.785 146.58C169.265 145.953 168.792 145.3 168.365 144.62C168.325 144.54 168.285 144.467 168.245 144.4C167.699 145.44 167.052 146.407 166.305 147.3C165.452 148.34 164.485 149.267 163.405 150.08L161.605 148.22ZM176.265 152.54V134.62H178.945V152.54H176.265ZM194.752 152.54V134.62H197.432V152.54H194.752ZM184.952 135.14V146.8L193.952 146.42V148.66L182.272 149.28V135.14H184.952ZM201.059 149.18V135.34H210.759V137.82H213.639V134.62H216.319V152.54H213.639V146.06H210.759V149.18H201.059ZM203.739 146.9H208.079V137.62H203.739V146.9ZM210.759 143.82H213.639V140.06H210.759V143.82ZM225.308 151.02V148.74H237.128C237.301 148.073 237.461 147.367 237.608 146.62C237.795 145.607 237.955 144.587 238.088 143.56C238.221 142.52 238.321 141.513 238.388 140.54C238.455 139.553 238.495 138.667 238.508 137.88H226.928V135.6H241.268C241.255 136.867 241.208 138.133 241.128 139.4C241.061 140.667 240.961 141.893 240.828 143.08C240.695 144.253 240.535 145.38 240.348 146.46C240.201 147.273 240.041 148.033 239.868 148.74H242.908V151.02H225.308ZM256.577 134.44C257.324 134.44 258.024 134.567 258.677 134.82C259.331 135.073 259.897 135.427 260.377 135.88C260.857 136.333 261.237 136.88 261.517 137.52C261.797 138.147 261.937 138.833 261.937 139.58C261.937 140.327 261.797 141.02 261.517 141.66C261.237 142.287 260.857 142.827 260.377 143.28C259.897 143.733 259.331 144.087 258.677 144.34C258.024 144.593 257.324 144.72 256.577 144.72C255.831 144.72 255.131 144.593 254.477 144.34C253.824 144.087 253.257 143.733 252.777 143.28C252.297 142.827 251.917 142.287 251.637 141.66C251.357 141.02 251.217 140.327 251.217 139.58C251.217 138.833 251.357 138.147 251.637 137.52C251.917 136.88 252.297 136.333 252.777 135.88C253.257 135.427 253.824 135.073 254.477 134.82C255.131 134.567 255.831 134.44 256.577 134.44ZM256.577 142.44C257.404 142.44 258.057 142.18 258.537 141.66C259.017 141.127 259.257 140.433 259.257 139.58C259.257 138.727 259.017 138.04 258.537 137.52C258.057 136.987 257.404 136.72 256.577 136.72C255.751 136.72 255.097 136.987 254.617 137.52C254.137 138.04 253.897 138.727 253.897 139.58C253.897 140.433 254.137 141.127 254.617 141.66C255.097 142.18 255.751 142.44 256.577 142.44ZM264.597 147.76V134.62H267.277V147.76H264.597ZM256.217 146.22V150.06H267.777V152.34H253.537V146.22H256.217ZM270.924 135.2H280.644C280.657 136.613 280.391 137.88 279.844 139C279.311 140.12 278.591 141.1 277.684 141.94C276.791 142.78 275.757 143.473 274.584 144.02C273.424 144.567 272.231 144.967 271.004 145.22L269.744 143.14C270.851 142.913 271.857 142.613 272.764 142.24C273.671 141.867 274.464 141.433 275.144 140.94C275.824 140.447 276.384 139.907 276.824 139.32C277.264 138.733 277.564 138.107 277.724 137.44H270.924V135.2ZM283.444 152.62V148.16H271.804V145.88H286.124V152.62H283.444ZM281.004 137.08H283.484V134.62H286.164V145.08H283.484V143.12H280.424V140.88H283.484V139.32H281.004V137.08ZM288.531 146.22V144.02H306.131V146.22H288.531ZM293.211 147.02V150.06H304.911V152.34H290.531V147.02H293.211ZM291.251 138.44C291.251 137.773 291.404 137.167 291.711 136.62C292.031 136.073 292.464 135.607 293.011 135.22C293.557 134.82 294.197 134.513 294.931 134.3C295.677 134.087 296.477 133.98 297.331 133.98C298.184 133.98 298.977 134.087 299.711 134.3C300.457 134.513 301.104 134.82 301.651 135.22C302.197 135.607 302.624 136.073 302.931 136.62C303.251 137.167 303.411 137.773 303.411 138.44C303.411 139.107 303.251 139.72 302.931 140.28C302.624 140.827 302.197 141.293 301.651 141.68C301.104 142.067 300.457 142.367 299.711 142.58C298.977 142.793 298.184 142.9 297.331 142.9C296.477 142.9 295.677 142.793 294.931 142.58C294.197 142.367 293.557 142.067 293.011 141.68C292.464 141.293 292.031 140.827 291.711 140.28C291.404 139.72 291.251 139.107 291.251 138.44ZM297.331 136.22C296.864 136.22 296.424 136.273 296.011 136.38C295.597 136.487 295.237 136.64 294.931 136.84C294.624 137.04 294.377 137.28 294.191 137.56C294.017 137.827 293.931 138.12 293.931 138.44C293.931 138.76 294.017 139.06 294.191 139.34C294.377 139.607 294.624 139.84 294.931 140.04C295.237 140.24 295.597 140.393 296.011 140.5C296.424 140.607 296.864 140.66 297.331 140.66C297.797 140.66 298.237 140.607 298.651 140.5C299.064 140.393 299.424 140.24 299.731 140.04C300.037 139.84 300.277 139.607 300.451 139.34C300.637 139.06 300.731 138.76 300.731 138.44C300.731 138.12 300.637 137.827 300.451 137.56C300.277 137.28 300.037 137.04 299.731 136.84C299.424 136.64 299.064 136.487 298.651 136.38C298.237 136.273 297.797 136.22 297.331 136.22ZM51.46 182.4C50.7267 182.333 50 182.207 49.28 182.02C48.56 181.833 47.8667 181.6 47.2 181.32C46.5467 181.027 45.9267 180.687 45.34 180.3C45.0067 180.073 44.6933 179.827 44.4 179.56C44.0667 179.893 43.6867 180.193 43.26 180.46C42.6733 180.833 42.0467 181.16 41.38 181.44C40.7267 181.72 40.0467 181.953 39.34 182.14C38.6467 182.313 37.9733 182.447 37.32 182.54L36.16 180.48C37.2 180.307 38.1667 180.1 39.06 179.86C39.9533 179.607 40.7267 179.287 41.38 178.9C42.0467 178.5 42.5733 178.02 42.96 177.46L43.16 177.14H37.46V174.9H51.42V177.14H46.04L45.92 177.46C45.8533 177.607 45.78 177.747 45.7 177.88C46.3933 178.52 47.24 179.027 48.24 179.4C49.5333 179.88 51.02 180.213 52.7 180.4L51.46 182.4ZM35.64 185.98V183.74H43.08V181.4H45.8V183.74H53.24V185.98H35.64ZM40.32 186.82V190.06H52.02V192.34H37.64V186.82H40.32ZM64.6867 184.32V185.34C65.0734 185.393 65.4467 185.467 65.8067 185.56C66.5401 185.747 67.1734 186.02 67.7067 186.38C68.2401 186.74 68.6534 187.173 68.9467 187.68C69.2401 188.187 69.3867 188.747 69.3867 189.36C69.3867 189.987 69.2401 190.547 68.9467 191.04C68.6534 191.547 68.2401 191.98 67.7067 192.34C67.1734 192.7 66.5401 192.973 65.8067 193.16C65.0867 193.36 64.2867 193.46 63.4067 193.46C62.5267 193.46 61.7201 193.36 60.9867 193.16C60.2667 192.973 59.6401 192.7 59.1067 192.34C58.5734 191.98 58.1601 191.547 57.8667 191.04C57.5734 190.547 57.4267 189.987 57.4267 189.36C57.4267 188.747 57.5734 188.187 57.8667 187.68C58.1601 187.173 58.5734 186.74 59.1067 186.38C59.6401 186.02 60.2667 185.747 60.9867 185.56C61.3067 185.48 61.6334 185.413 61.9667 185.36V184.32H54.5267V182.12H72.1267V184.32H64.6867ZM70.3867 181.4C69.6801 181.4 68.9601 181.347 68.2267 181.24C67.5067 181.12 66.8134 180.947 66.1467 180.72C65.4801 180.48 64.8467 180.18 64.2467 179.82C63.9134 179.62 63.6001 179.4 63.3067 179.16C62.9334 179.467 62.5201 179.74 62.0667 179.98C61.4667 180.3 60.8334 180.573 60.1667 180.8C59.5134 181.013 58.8401 181.18 58.1467 181.3C57.4534 181.42 56.7934 181.5 56.1667 181.54L55.0467 179.48C56.0334 179.4 56.9667 179.28 57.8467 179.12C58.7401 178.947 59.5201 178.707 60.1867 178.4C60.8667 178.093 61.4134 177.7 61.8267 177.22L61.9067 177.1H56.3467V174.9H70.3067V177.1H64.8867C64.8601 177.167 64.8267 177.24 64.7867 177.32C64.7467 177.4 64.7067 177.473 64.6667 177.54C64.8934 177.727 65.1267 177.893 65.3667 178.04C65.9001 178.347 66.4934 178.6 67.1467 178.8C67.8001 178.987 68.5001 179.127 69.2467 179.22C69.9934 179.313 70.7734 179.373 71.5867 179.4L70.3867 181.4ZM63.4067 191.3C64.4867 191.3 65.3067 191.127 65.8667 190.78C66.4267 190.42 66.7067 189.947 66.7067 189.36C66.7067 188.773 66.4267 188.307 65.8667 187.96C65.3067 187.6 64.4867 187.42 63.4067 187.42C62.3267 187.42 61.5067 187.6 60.9467 187.96C60.3867 188.307 60.1067 188.773 60.1067 189.36C60.1067 189.947 60.3867 190.42 60.9467 190.78C61.5067 191.127 62.3267 191.3 63.4067 191.3ZM84.1334 175V184.24H74.1134V175H76.7934V177.52H81.4534V175H84.1334ZM81.4534 182V179.72H76.7934V182H81.4534ZM89.2534 185.68V187.96H78.4134V190.14H89.6934V192.42H75.7334V185.68H89.2534ZM89.2934 178.48H91.4134V180.8H89.2934V184.88H86.6134V174.62H89.2934V178.48ZM105.28 192.54V174.62H107.96V180.6H110.5V182.92H107.96V192.54H105.28ZM103.88 181.54C103.88 182.433 103.733 183.26 103.44 184.02C103.147 184.767 102.74 185.413 102.22 185.96C101.7 186.493 101.087 186.913 100.38 187.22C99.6735 187.513 98.9068 187.66 98.0802 187.66C97.2535 187.66 96.4868 187.513 95.7802 187.22C95.0735 186.913 94.4602 186.493 93.9402 185.96C93.4202 185.413 93.0135 184.767 92.7202 184.02C92.4268 183.26 92.2802 182.433 92.2802 181.54C92.2802 180.647 92.4268 179.827 92.7202 179.08C93.0135 178.32 93.4202 177.673 93.9402 177.14C94.4602 176.593 95.0735 176.173 95.7802 175.88C96.4868 175.573 97.2535 175.42 98.0802 175.42C98.9068 175.42 99.6735 175.573 100.38 175.88C101.087 176.173 101.7 176.593 102.22 177.14C102.74 177.673 103.147 178.32 103.44 179.08C103.733 179.827 103.88 180.647 103.88 181.54ZM101.2 181.54C101.2 180.967 101.12 180.447 100.96 179.98C100.813 179.5 100.6 179.093 100.32 178.76C100.053 178.413 99.7268 178.153 99.3402 177.98C98.9535 177.793 98.5335 177.7 98.0802 177.7C97.6135 177.7 97.1868 177.793 96.8002 177.98C96.4268 178.153 96.1002 178.413 95.8202 178.76C95.5535 179.093 95.3402 179.5 95.1802 179.98C95.0335 180.447 94.9602 180.967 94.9602 181.54C94.9602 182.127 95.0335 182.653 95.1802 183.12C95.3402 183.587 95.5535 183.993 95.8202 184.34C96.1002 184.673 96.4268 184.933 96.8002 185.12C97.1868 185.293 97.6135 185.38 98.0802 185.38C98.5335 185.38 98.9535 185.293 99.3402 185.12C99.7268 184.933 100.053 184.673 100.32 184.34C100.6 183.993 100.813 183.587 100.96 183.12C101.12 182.653 101.2 182.127 101.2 181.54ZM124.167 192.54V174.62H126.847V177.78H129.387V180.06H126.847V183.98H129.387V186.26H126.847V192.54H124.167ZM122.767 181.54C122.767 182.433 122.62 183.26 122.327 184.02C122.034 184.767 121.627 185.413 121.107 185.96C120.587 186.493 119.974 186.913 119.267 187.22C118.56 187.513 117.794 187.66 116.967 187.66C116.14 187.66 115.374 187.513 114.667 187.22C113.96 186.913 113.347 186.493 112.827 185.96C112.307 185.413 111.9 184.767 111.607 184.02C111.314 183.26 111.167 182.433 111.167 181.54C111.167 180.647 111.314 179.827 111.607 179.08C111.9 178.32 112.307 177.673 112.827 177.14C113.347 176.593 113.96 176.173 114.667 175.88C115.374 175.573 116.14 175.42 116.967 175.42C117.794 175.42 118.56 175.573 119.267 175.88C119.974 176.173 120.587 176.593 121.107 177.14C121.627 177.673 122.034 178.32 122.327 179.08C122.62 179.827 122.767 180.647 122.767 181.54ZM120.087 181.54C120.087 180.967 120.007 180.447 119.847 179.98C119.7 179.5 119.487 179.093 119.207 178.76C118.94 178.413 118.614 178.153 118.227 177.98C117.84 177.793 117.42 177.7 116.967 177.7C116.5 177.7 116.074 177.793 115.687 177.98C115.314 178.153 114.987 178.413 114.707 178.76C114.44 179.093 114.227 179.5 114.067 179.98C113.92 180.447 113.847 180.967 113.847 181.54C113.847 182.127 113.92 182.653 114.067 183.12C114.227 183.587 114.44 183.993 114.707 184.34C114.987 184.673 115.314 184.933 115.687 185.12C116.074 185.293 116.5 185.38 116.967 185.38C117.42 185.38 117.84 185.293 118.227 185.12C118.614 184.933 118.94 184.673 119.207 184.34C119.487 183.993 119.7 183.587 119.847 183.12C120.007 182.653 120.087 182.127 120.087 181.54ZM139.316 176.24V174.2H146.316V176.24H139.316ZM136.716 178.96V176.92H148.916V178.96H136.716ZM142.976 179.38C143.763 179.38 144.469 179.46 145.096 179.62C145.723 179.78 146.256 180.007 146.696 180.3C147.136 180.593 147.469 180.947 147.696 181.36C147.936 181.76 148.056 182.207 148.056 182.7C148.056 183.193 147.936 183.647 147.696 184.06C147.469 184.46 147.136 184.807 146.696 185.1C146.256 185.393 145.723 185.62 145.096 185.78C144.469 185.94 143.763 186.02 142.976 186.02C142.189 186.02 141.483 185.94 140.856 185.78C140.229 185.62 139.696 185.393 139.256 185.1C138.816 184.807 138.476 184.46 138.236 184.06C138.009 183.647 137.896 183.193 137.896 182.7C137.896 182.207 138.009 181.76 138.236 181.36C138.476 180.947 138.816 180.593 139.256 180.3C139.696 180.007 140.229 179.78 140.856 179.62C141.483 179.46 142.189 179.38 142.976 179.38ZM142.976 184.06C143.803 184.06 144.416 183.94 144.816 183.7C145.216 183.447 145.416 183.113 145.416 182.7C145.416 182.287 145.216 181.96 144.816 181.72C144.416 181.467 143.803 181.34 142.976 181.34C142.149 181.34 141.536 181.467 141.136 181.72C140.736 181.96 140.536 182.287 140.536 182.7C140.536 183.113 140.736 183.447 141.136 183.7C141.536 183.94 142.149 184.06 142.976 184.06ZM150.036 188.12V174.62H152.716V179.78H154.836V182.1H152.716V188.12H150.036ZM141.936 186.98V190.06H153.296V192.34H139.256V186.98H141.936ZM168.303 192.54V174.62H170.983V180.6H173.523V182.92H170.983V192.54H168.303ZM166.103 175.34V177.58H159.103V186.92L167.503 186.54V188.78L156.423 189.4V175.34H166.103ZM174.35 189.64H177.15V192.44H174.35V189.64Z" fill="#5C1C2C"/>
<g filter="url(#filter1_i_1033_6)">
<rect x="35" width="279" height="65" rx="15" fill="#B44927"/>
</g>
<path d="M97.305 18.02C98.6117 18.02 99.8367 18.2417 100.98 18.685C102.123 19.1283 103.115 19.7467 103.955 20.54C104.795 21.3333 105.46 22.29 105.95 23.41C106.44 24.5067 106.685 25.7083 106.685 27.015C106.685 28.3217 106.44 29.535 105.95 30.655C105.46 31.7517 104.795 32.6967 103.955 33.49C103.115 34.2833 102.123 34.9017 100.98 35.345C99.8367 35.7883 98.6117 36.01 97.305 36.01C95.9983 36.01 94.7733 35.7883 93.63 35.345C92.4867 34.9017 91.495 34.2833 90.655 33.49C89.815 32.6967 89.15 31.7517 88.66 30.655C88.17 29.535 87.925 28.3217 87.925 27.015C87.925 25.7083 88.17 24.5067 88.66 23.41C89.15 22.29 89.815 21.3333 90.655 20.54C91.495 19.7467 92.4867 19.1283 93.63 18.685C94.7733 18.2417 95.9983 18.02 97.305 18.02ZM97.305 32.02C98.7517 32.02 99.895 31.565 100.735 30.655C101.575 29.7217 101.995 28.5083 101.995 27.015C101.995 25.5217 101.575 24.32 100.735 23.41C99.895 22.4767 98.7517 22.01 97.305 22.01C95.8583 22.01 94.715 22.4767 93.875 23.41C93.035 24.32 92.615 25.5217 92.615 27.015C92.615 28.5083 93.035 29.7217 93.875 30.655C94.715 31.565 95.8583 32.02 97.305 32.02ZM111.34 41.33V18.335H116.03V41.33H111.34ZM96.675 38.635V45.355H116.905V49.345H91.985V38.635H96.675ZM143.272 41.33V18.335H147.962V26.315H151.672V30.375H147.962V41.33H143.272ZM129.097 38.635V45.355H148.977V49.345H124.407V38.635H129.097ZM121.852 19.35H138.862C138.885 21.9167 138.43 24.2267 137.497 26.28C136.563 28.31 135.303 30.0833 133.717 31.6C132.153 33.1167 130.345 34.3767 128.292 35.38C126.262 36.3833 124.162 37.1183 121.992 37.585L119.787 33.945C121.747 33.5483 123.532 33 125.142 32.3C126.752 31.6 128.152 30.7833 129.342 29.85C130.532 28.9167 131.5 27.9017 132.247 26.805C132.993 25.685 133.495 24.5067 133.752 23.27H121.852V19.35ZM192.393 31.95C191.11 31.8333 189.838 31.6117 188.578 31.285C187.318 30.9583 186.105 30.55 184.938 30.06C183.795 29.5467 182.71 28.9517 181.683 28.275C181.1 27.8783 180.551 27.4467 180.038 26.98C179.455 27.5633 178.79 28.0883 178.043 28.555C177.016 29.2083 175.92 29.78 174.753 30.27C173.61 30.76 172.42 31.1683 171.183 31.495C169.97 31.7983 168.791 32.0317 167.648 32.195L165.618 28.59C167.438 28.2867 169.13 27.925 170.693 27.505C172.256 27.0617 173.61 26.5017 174.753 25.825C175.92 25.125 176.841 24.285 177.518 23.305L177.868 22.745H167.893V18.825H192.323V22.745H182.908L182.698 23.305C182.581 23.5617 182.453 23.8067 182.313 24.04C183.526 25.16 185.008 26.0467 186.758 26.7C189.021 27.54 191.623 28.1233 194.563 28.45L192.393 31.95ZM164.708 38.215V34.295H177.728V30.2H182.488V34.295H195.508V38.215H164.708ZM172.898 39.685V45.355H193.373V49.345H168.208V39.685H172.898ZM221.98 35.59V28.625H216.975C216.858 29.1617 216.683 29.675 216.45 30.165C215.983 31.215 215.33 32.125 214.49 32.895C213.65 33.6417 212.658 34.2367 211.515 34.68C210.395 35.1 209.181 35.31 207.875 35.31C206.568 35.31 205.343 35.1 204.2 34.68C203.08 34.2367 202.1 33.6417 201.26 32.895C200.42 32.125 199.755 31.215 199.265 30.165C198.798 29.0917 198.565 27.925 198.565 26.665C198.565 25.405 198.798 24.25 199.265 23.2C199.755 22.1267 200.42 21.2167 201.26 20.47C202.1 19.7 203.08 19.105 204.2 18.685C205.343 18.2417 206.568 18.02 207.875 18.02C209.181 18.02 210.395 18.2417 211.515 18.685C212.658 19.105 213.65 19.7 214.49 20.47C215.33 21.2167 215.983 22.1267 216.45 23.2C216.66 23.6433 216.823 24.0983 216.94 24.565H221.98V18.335H226.67V35.59H221.98ZM226.6 36.99V49.485H202.59V36.99H226.6ZM207.875 31.32C209.321 31.32 210.453 30.9 211.27 30.06C212.086 29.1967 212.495 28.065 212.495 26.665C212.495 25.265 212.086 24.145 211.27 23.305C210.453 22.4417 209.321 22.01 207.875 22.01C206.428 22.01 205.296 22.4417 204.48 23.305C203.663 24.145 203.255 25.265 203.255 26.665C203.255 28.065 203.663 29.1967 204.48 30.06C205.296 30.9 206.428 31.32 207.875 31.32ZM207.28 45.495H221.91V40.91H207.28V45.495ZM249.361 35.135C250.831 35.135 252.185 35.3333 253.421 35.73C254.658 36.1033 255.72 36.6283 256.606 37.305C257.516 37.9817 258.216 38.7983 258.706 39.755C259.22 40.6883 259.476 41.7267 259.476 42.87C259.476 44.0133 259.22 45.0633 258.706 46.02C258.216 46.9533 257.516 47.7583 256.606 48.435C255.72 49.135 254.658 49.6717 253.421 50.045C252.185 50.4183 250.831 50.605 249.361 50.605C247.891 50.605 246.538 50.4183 245.301 50.045C244.065 49.6717 242.991 49.135 242.081 48.435C241.195 47.7583 240.495 46.9533 239.981 46.02C239.491 45.0633 239.246 44.0133 239.246 42.87C239.246 41.7267 239.491 40.6883 239.981 39.755C240.495 38.7983 241.195 37.9817 242.081 37.305C242.991 36.6283 244.065 36.1033 245.301 35.73C246.538 35.3333 247.891 35.135 249.361 35.135ZM250.236 33.98C249.233 33.6767 248.23 33.2683 247.226 32.755C246.223 32.2183 245.266 31.5883 244.356 30.865C243.446 30.1183 242.606 29.29 241.836 28.38L241.801 28.31C241.568 28.6367 241.335 28.94 241.101 29.22C239.958 30.62 238.663 31.8217 237.216 32.825C235.793 33.8283 234.358 34.5983 232.911 35.135L230.041 31.705C233.098 30.655 235.525 29.045 237.321 26.875C239.141 24.705 240.133 22.0217 240.296 18.825H245.056C245.01 20.855 244.625 22.745 243.901 24.495C243.878 24.565 243.855 24.6233 243.831 24.67L244.461 25.51C245.161 26.3267 245.943 27.0383 246.806 27.645C247.693 28.2517 248.638 28.7767 249.641 29.22C250.645 29.6633 251.695 30.0367 252.791 30.34L250.236 33.98ZM248.871 22.99H255.381V18.335H260.071V35.45H255.381V26.77H248.871V22.99ZM249.361 46.755C251.111 46.755 252.453 46.405 253.386 45.705C254.32 44.9817 254.786 44.0367 254.786 42.87C254.786 41.7033 254.32 40.77 253.386 40.07C252.453 39.3467 251.111 38.985 249.361 38.985C247.611 38.985 246.27 39.3467 245.336 40.07C244.403 40.77 243.936 41.7033 243.936 42.87C243.936 44.0367 244.403 44.9817 245.336 45.705C246.27 46.405 247.611 46.755 249.361 46.755Z" fill="white"/>
<defs>
<filter id="filter0_di_1033_6" x="0" y="45" width="346" height="245" filterUnits="userSpaceOnUse" color-interpolation-filters="sRGB">
<feFlood flood-opacity="0" result="BackgroundImageFix"/>
<feColorMatrix in="SourceAlpha" type="matrix" values="0 0 0 0 0 0 0 0 0 0 0 0 0 0 0 0 0 0 127 0" result="hardAlpha"/>
<feOffset dx="1" dy="3"/>
<feGaussianBlur stdDeviation="6"/>
<feComposite in2="hardAlpha" operator="out"/>
<feColorMatrix type="matrix" values="0 0 0 0 0.360784 0 0 0 0 0.109804 0 0 0 0 0.172549 0 0 0 0.51 0"/>
<feBlend mode="normal" in2="BackgroundImageFix" result="effect1_dropShadow_1033_6"/>
<feBlend mode="normal" in="SourceGraphic" in2="effect1_dropShadow_1033_6" result="shape"/>
<feColorMatrix in="SourceAlpha" type="matrix" values="0 0 0 0 0 0 0 0 0 0 0 0 0 0 0 0 0 0 127 0" result="hardAlpha"/>
<feOffset dx="-9" dy="9"/>
<feGaussianBlur stdDeviation="4"/>
<feComposite in2="hardAlpha" operator="arithmetic" k2="-1" k3="1"/>
<feColorMatrix type="matrix" values="0 0 0 0 1 0 0 0 0 1 0 0 0 0 1 0 0 0 0.25 0"/>
<feBlend mode="normal" in2="shape" result="effect2_innerShadow_1033_6"/>
</filter>
<filter id="filter1_i_1033_6" x="27" y="0" width="287" height="73" filterUnits="userSpaceOnUse" color-interpolation-filters="sRGB">
<feFlood flood-opacity="0" result="BackgroundImageFix"/>
<feBlend mode="normal" in="SourceGraphic" in2="BackgroundImageFix" result="shape"/>
<feColorMatrix in="SourceAlpha" type="matrix" values="0 0 0 0 0 0 0 0 0 0 0 0 0 0 0 0 0 0 127 0" result="hardAlpha"/>
<feOffset dx="-9" dy="9"/>
<feGaussianBlur stdDeviation="4"/>
<feComposite in2="hardAlpha" operator="arithmetic" k2="-1" k3="1"/>
<feColorMatrix type="matrix" values="0 0 0 0 1 0 0 0 0 1 0 0 0 0 1 0 0 0 0.25 0"/>
<feBlend mode="normal" in2="shape" result="effect1_innerShadow_1033_6"/>
</filter>
</defs>
</svg>
