<svg width="346" height="290" viewBox="0 0 346 290" fill="none" xmlns="http://www.w3.org/2000/svg">
<g filter="url(#filter0_di_1033_7)">
<rect x="11" y="54" width="322" height="221" rx="15" fill="white"/>
</g>
<path d="M52.42 112.54V94.62H55.1V101.2H57.64V103.52H55.1V112.54H52.42ZM40.52 95.34H50.36C50.3733 97.0733 50.1467 98.6867 49.68 100.18C49.2267 101.673 48.5933 103.04 47.78 104.28C46.98 105.507 46.0267 106.6 44.92 107.56C43.8267 108.507 42.66 109.313 41.42 109.98L39.7 108.08C40.86 107.52 41.9 106.853 42.82 106.08C43.7533 105.307 44.5533 104.467 45.22 103.56C45.8867 102.64 46.4133 101.68 46.8 100.68C47.1867 99.6667 47.4267 98.6467 47.52 97.62H40.52V95.34ZM58.5267 104.2V102H76.1267V104.2H58.5267ZM67.4067 105.06C68.2867 105.06 69.0867 105.16 69.8067 105.36C70.5401 105.56 71.1734 105.847 71.7067 106.22C72.2401 106.58 72.6534 107.02 72.9467 107.54C73.2401 108.047 73.3867 108.62 73.3867 109.26C73.3867 109.9 73.2401 110.48 72.9467 111C72.6534 111.507 72.2401 111.94 71.7067 112.3C71.1734 112.673 70.5401 112.96 69.8067 113.16C69.0867 113.36 68.2867 113.46 67.4067 113.46C66.5267 113.46 65.7201 113.36 64.9867 113.16C64.2667 112.96 63.6401 112.673 63.1067 112.3C62.5734 111.94 62.1601 111.507 61.8667 111C61.5734 110.48 61.4267 109.9 61.4267 109.26C61.4267 108.62 61.5734 108.047 61.8667 107.54C62.1601 107.02 62.5734 106.58 63.1067 106.22C63.6401 105.847 64.2667 105.56 64.9867 105.36C65.7201 105.16 66.5267 105.06 67.4067 105.06ZM67.4067 111.3C68.4867 111.3 69.3067 111.113 69.8667 110.74C70.4267 110.367 70.7067 109.873 70.7067 109.26C70.7067 108.647 70.4267 108.153 69.8667 107.78C69.3067 107.407 68.4867 107.22 67.4067 107.22C66.3267 107.22 65.5067 107.407 64.9467 107.78C64.3867 108.153 64.1067 108.647 64.1067 109.26C64.1067 109.873 64.3867 110.367 64.9467 110.74C65.5067 111.113 66.3267 111.3 67.4067 111.3ZM74.4067 100.7H60.4467V94.7H63.1267V98.48H74.4067V100.7ZM80.0934 96.24V94.2H87.0934V96.24H80.0934ZM77.4934 98.96V96.92H89.6934V98.96H77.4934ZM83.7534 99.38C84.5401 99.38 85.2468 99.46 85.8734 99.62C86.5001 99.78 87.0334 100.007 87.4734 100.3C87.9134 100.593 88.2468 100.947 88.4734 101.36C88.7134 101.76 88.8334 102.207 88.8334 102.7C88.8334 103.193 88.7134 103.647 88.4734 104.06C88.2468 104.46 87.9134 104.807 87.4734 105.1C87.0334 105.393 86.5001 105.62 85.8734 105.78C85.2468 105.94 84.5401 106.02 83.7534 106.02C82.9668 106.02 82.2601 105.94 81.6334 105.78C81.0068 105.62 80.4734 105.393 80.0334 105.1C79.5934 104.807 79.2534 104.46 79.0134 104.06C78.7868 103.647 78.6734 103.193 78.6734 102.7C78.6734 102.207 78.7868 101.76 79.0134 101.36C79.2534 100.947 79.5934 100.593 80.0334 100.3C80.4734 100.007 81.0068 99.78 81.6334 99.62C82.2601 99.46 82.9668 99.38 83.7534 99.38ZM83.7534 104.06C84.5801 104.06 85.1934 103.94 85.5934 103.7C85.9934 103.447 86.1934 103.113 86.1934 102.7C86.1934 102.287 85.9934 101.96 85.5934 101.72C85.1934 101.467 84.5801 101.34 83.7534 101.34C82.9268 101.34 82.3134 101.467 81.9134 101.72C81.5134 101.96 81.3134 102.287 81.3134 102.7C81.3134 103.113 81.5134 103.447 81.9134 103.7C82.3134 103.94 82.9268 104.06 83.7534 104.06ZM90.8134 108.12V94.62H93.4934V99.78H95.6134V102.1H93.4934V108.12H90.8134ZM82.7134 106.98V110.06H94.0734V112.34H80.0334V106.98H82.7134ZM103.563 103.18V95.2H113.583V103.18H103.563ZM106.243 100.98H110.903V97.4H106.243V100.98ZM107.703 104.72V110.18L111.143 109.98V112.18L105.023 112.54V104.72H107.703ZM118.023 106.3H112.583V104.26H118.023V106.3ZM115.303 110.9C115.649 110.9 115.936 110.807 116.163 110.62C116.389 110.42 116.503 110.167 116.503 109.86C116.503 109.553 116.389 109.307 116.163 109.12C115.936 108.92 115.649 108.82 115.303 108.82C114.956 108.82 114.669 108.92 114.443 109.12C114.216 109.307 114.103 109.553 114.103 109.86C114.103 110.167 114.216 110.42 114.443 110.62C114.669 110.807 114.956 110.9 115.303 110.9ZM116.063 103.64V94.62H118.743V97.88H120.863V100.16H118.743V103.64H116.063ZM115.303 112.9C114.196 112.9 113.303 112.64 112.623 112.12C111.956 111.613 111.623 110.927 111.623 110.06C111.623 109.807 111.683 109.567 111.803 109.34C111.923 109.1 112.056 108.927 112.203 108.82H110.723V106.82H119.883V108.82H118.403C118.549 108.927 118.683 109.1 118.803 109.34C118.923 109.567 118.983 109.807 118.983 110.06C118.983 110.927 118.643 111.613 117.963 112.12C117.296 112.64 116.409 112.9 115.303 112.9ZM121.749 106.22V104.02H139.349V106.22H121.749ZM126.429 107.02V110.06H138.129V112.34H123.749V107.02H126.429ZM124.469 98.44C124.469 97.7733 124.623 97.1667 124.929 96.62C125.249 96.0733 125.683 95.6067 126.229 95.22C126.776 94.82 127.416 94.5133 128.149 94.3C128.896 94.0867 129.696 93.98 130.549 93.98C131.403 93.98 132.196 94.0867 132.929 94.3C133.676 94.5133 134.323 94.82 134.869 95.22C135.416 95.6067 135.843 96.0733 136.149 96.62C136.469 97.1667 136.629 97.7733 136.629 98.44C136.629 99.1067 136.469 99.72 136.149 100.28C135.843 100.827 135.416 101.293 134.869 101.68C134.323 102.067 133.676 102.367 132.929 102.58C132.196 102.793 131.403 102.9 130.549 102.9C129.696 102.9 128.896 102.793 128.149 102.58C127.416 102.367 126.776 102.067 126.229 101.68C125.683 101.293 125.249 100.827 124.929 100.28C124.623 99.72 124.469 99.1067 124.469 98.44ZM130.549 96.22C130.083 96.22 129.643 96.2733 129.229 96.38C128.816 96.4867 128.456 96.64 128.149 96.84C127.843 97.04 127.596 97.28 127.409 97.56C127.236 97.8267 127.149 98.12 127.149 98.44C127.149 98.76 127.236 99.06 127.409 99.34C127.596 99.6067 127.843 99.84 128.149 100.04C128.456 100.24 128.816 100.393 129.229 100.5C129.643 100.607 130.083 100.66 130.549 100.66C131.016 100.66 131.456 100.607 131.869 100.5C132.283 100.393 132.643 100.24 132.949 100.04C133.256 99.84 133.496 99.6067 133.669 99.34C133.856 99.06 133.949 98.76 133.949 98.44C133.949 98.12 133.856 97.8267 133.669 97.56C133.496 97.28 133.256 97.04 132.949 96.84C132.643 96.64 132.283 96.4867 131.869 96.38C131.456 96.2733 131.016 96.22 130.549 96.22ZM157.899 109.58C156.645 108.647 155.512 107.553 154.499 106.3C153.952 105.62 153.459 104.92 153.019 104.2C151.885 106.4 150.252 108.333 148.119 110L146.319 108.14C147.385 107.353 148.299 106.487 149.059 105.54C149.819 104.593 150.439 103.573 150.919 102.48C151.399 101.387 151.745 100.227 151.959 99C152.185 97.7733 152.299 96.4867 152.299 95.14H155.019C155.019 97.4067 154.712 99.5267 154.099 101.5C154.659 102.62 155.312 103.633 156.059 104.54C157.005 105.687 158.172 106.727 159.559 107.66L157.899 109.58ZM160.179 112.54V94.62H162.859V101H165.399V103.32H162.859V112.54H160.179ZM166.885 104.68V98.62H174.125V97.28H166.885V95.08H176.805V100.78H169.565V102.28L178.485 101.98V104.14L166.885 104.68ZM179.285 104.88V94.62H181.965V98.48H184.085V100.8H181.965V104.88H179.285ZM181.925 105.68V112.42H168.405V105.68H181.925ZM171.085 110.18H179.245V107.88H171.085V110.18ZM199.072 112.54V94.62H201.752V112.54H199.072ZM185.272 110.02V107.74L198.472 107.58V109.82L185.272 110.02ZM191.732 95.02C192.559 95.02 193.312 95.1667 193.992 95.46C194.672 95.7533 195.259 96.14 195.752 96.62C196.245 97.1 196.625 97.66 196.892 98.3C197.159 98.9267 197.292 99.58 197.292 100.26C197.292 100.94 197.159 101.6 196.892 102.24C196.625 102.867 196.245 103.42 195.752 103.9C195.259 104.38 194.672 104.767 193.992 105.06C193.312 105.353 192.559 105.5 191.732 105.5C190.905 105.5 190.152 105.353 189.472 105.06C188.792 104.767 188.205 104.38 187.712 103.9C187.219 103.42 186.839 102.867 186.572 102.24C186.305 101.6 186.172 100.94 186.172 100.26C186.172 99.58 186.305 98.9267 186.572 98.3C186.839 97.66 187.219 97.1 187.712 96.62C188.205 96.14 188.792 95.7533 189.472 95.46C190.152 95.1667 190.905 95.02 191.732 95.02ZM191.732 103.22C192.172 103.22 192.565 103.14 192.912 102.98C193.272 102.807 193.579 102.587 193.832 102.32C194.085 102.04 194.279 101.727 194.412 101.38C194.545 101.02 194.612 100.647 194.612 100.26C194.612 99.8867 194.545 99.52 194.412 99.16C194.279 98.8 194.085 98.4867 193.832 98.22C193.579 97.94 193.272 97.72 192.912 97.56C192.565 97.3867 192.172 97.3 191.732 97.3C191.292 97.3 190.892 97.3867 190.532 97.56C190.185 97.72 189.885 97.94 189.632 98.22C189.379 98.4867 189.185 98.8 189.052 99.16C188.919 99.52 188.852 99.8867 188.852 100.26C188.852 100.647 188.919 101.02 189.052 101.38C189.185 101.727 189.379 102.04 189.632 102.32C189.885 102.587 190.185 102.807 190.532 102.98C190.892 103.14 191.292 103.22 191.732 103.22ZM215.921 94.44C216.668 94.44 217.368 94.5667 218.021 94.82C218.675 95.0733 219.241 95.4267 219.721 95.88C220.201 96.3333 220.581 96.88 220.861 97.52C221.141 98.1467 221.281 98.8333 221.281 99.58C221.281 100.327 221.141 101.02 220.861 101.66C220.581 102.287 220.201 102.827 219.721 103.28C219.241 103.733 218.675 104.087 218.021 104.34C217.368 104.593 216.668 104.72 215.921 104.72C215.175 104.72 214.475 104.593 213.821 104.34C213.168 104.087 212.601 103.733 212.121 103.28C211.641 102.827 211.261 102.287 210.981 101.66C210.701 101.02 210.561 100.327 210.561 99.58C210.561 98.8333 210.701 98.1467 210.981 97.52C211.261 96.88 211.641 96.3333 212.121 95.88C212.601 95.4267 213.168 95.0733 213.821 94.82C214.475 94.5667 215.175 94.44 215.921 94.44ZM215.921 102.44C216.748 102.44 217.401 102.18 217.881 101.66C218.361 101.127 218.601 100.433 218.601 99.58C218.601 98.7267 218.361 98.04 217.881 97.52C217.401 96.9867 216.748 96.72 215.921 96.72C215.095 96.72 214.441 96.9867 213.961 97.52C213.481 98.04 213.241 98.7267 213.241 99.58C213.241 100.433 213.481 101.127 213.961 101.66C214.441 102.18 215.095 102.44 215.921 102.44ZM223.621 107.76V94.62H226.301V98.78H228.421V101.1H226.301V107.76H223.621ZM215.521 106.22V110.06H226.881V112.34H212.841V106.22H215.521ZM239.708 104.42C240.548 104.42 241.321 104.527 242.028 104.74C242.735 104.953 243.341 105.253 243.848 105.64C244.368 106.013 244.768 106.467 245.048 107C245.341 107.52 245.488 108.1 245.488 108.74C245.488 109.38 245.341 109.967 245.048 110.5C244.768 111.02 244.368 111.467 243.848 111.84C243.341 112.227 242.735 112.527 242.028 112.74C241.321 112.953 240.548 113.06 239.708 113.06C238.868 113.06 238.095 112.953 237.388 112.74C236.681 112.527 236.068 112.227 235.548 111.84C235.041 111.467 234.641 111.02 234.348 110.5C234.068 109.967 233.928 109.38 233.928 108.74C233.928 108.1 234.068 107.52 234.348 107C234.641 106.467 235.041 106.013 235.548 105.64C236.068 105.253 236.681 104.953 237.388 104.74C238.095 104.527 238.868 104.42 239.708 104.42ZM238.228 95.4H243.148V94.62H245.828V104.6H243.148V100.52H238.228V98.4H243.148V97.52H238.228V95.4ZM233.108 95V101.52L241.748 101.22V103.42L230.428 103.96V95H233.108ZM239.708 110.86C240.708 110.86 241.475 110.667 242.008 110.28C242.541 109.893 242.808 109.38 242.808 108.74C242.808 108.1 242.541 107.587 242.008 107.2C241.475 106.813 240.708 106.62 239.708 106.62C238.708 106.62 237.941 106.813 237.408 107.2C236.875 107.587 236.608 108.1 236.608 108.74C236.608 109.38 236.875 109.893 237.408 110.28C237.941 110.667 238.708 110.86 239.708 110.86ZM261.375 112.54V94.62H264.055V101.4H266.275V103.72H264.055V112.54H261.375ZM256.255 106.1C256.375 105.34 256.475 104.567 256.555 103.78C256.635 102.98 256.701 102.207 256.755 101.46C256.808 100.713 256.848 100.02 256.875 99.38C256.901 98.7267 256.915 98.1667 256.915 97.7H248.695V95.42H259.635C259.635 97.3933 259.568 99.2867 259.435 101.1C259.315 102.9 259.121 104.567 258.855 106.1H256.255ZM247.975 110.02V107.74L251.635 107.7V101.92H254.355V107.66L260.775 107.58V109.82L247.975 110.02ZM50.44 145.1C51.28 145.1 52.0533 145.2 52.76 145.4C53.4667 145.587 54.0733 145.86 54.58 146.22C55.1 146.567 55.5 146.987 55.78 147.48C56.0733 147.96 56.22 148.493 56.22 149.08C56.22 149.667 56.0733 150.207 55.78 150.7C55.5 151.193 55.1 151.613 54.58 151.96C54.0733 152.307 53.4667 152.573 52.76 152.76C52.0533 152.96 51.28 153.06 50.44 153.06C49.6 153.06 48.8267 152.96 48.12 152.76C47.4133 152.573 46.8 152.307 46.28 151.96C45.7733 151.613 45.3733 151.193 45.08 150.7C44.8 150.207 44.66 149.667 44.66 149.08C44.66 148.493 44.8 147.96 45.08 147.48C45.3733 146.987 45.7733 146.567 46.28 146.22C46.8 145.86 47.4133 145.587 48.12 145.4C48.8267 145.2 49.6 145.1 50.44 145.1ZM50.24 134.8H52.84V138.96H54.08V134.62H56.72V145.34H54.08V141.24H52.84V144.54H50.24V134.8ZM44.76 138.92C45.4133 138.92 46.0067 138.993 46.54 139.14C47.0733 139.287 47.5267 139.5 47.9 139.78C48.2733 140.047 48.56 140.367 48.76 140.74C48.96 141.113 49.06 141.527 49.06 141.98C49.06 142.433 48.96 142.847 48.76 143.22C48.56 143.593 48.2733 143.92 47.9 144.2C47.5267 144.467 47.0733 144.673 46.54 144.82C46.0067 144.967 45.4133 145.04 44.76 145.04C44.1067 145.04 43.5133 144.967 42.98 144.82C42.4467 144.673 41.9933 144.467 41.62 144.2C41.2467 143.92 40.96 143.593 40.76 143.22C40.56 142.847 40.46 142.433 40.46 141.98C40.46 141.527 40.56 141.113 40.76 140.74C40.96 140.367 41.2467 140.047 41.62 139.78C41.9933 139.5 42.4467 139.287 42.98 139.14C43.5133 138.993 44.1067 138.92 44.76 138.92ZM39.76 138.6V136.64H49.56V138.6H39.76ZM50.44 150.94C51.44 150.94 52.2067 150.773 52.74 150.44C53.2733 150.093 53.54 149.64 53.54 149.08C53.54 148.52 53.2733 148.073 52.74 147.74C52.2067 147.393 51.44 147.22 50.44 147.22C49.44 147.22 48.6733 147.393 48.14 147.74C47.6067 148.073 47.34 148.52 47.34 149.08C47.34 149.64 47.6067 150.093 48.14 150.44C48.6733 150.773 49.44 150.94 50.44 150.94ZM42.06 136.24V134.28H47.46V136.24H42.06ZM44.76 143.16C45.3333 143.16 45.7667 143.053 46.06 142.84C46.3533 142.627 46.5 142.34 46.5 141.98C46.5 141.62 46.3533 141.333 46.06 141.12C45.7667 140.907 45.3333 140.8 44.76 140.8C44.1867 140.8 43.7533 140.907 43.46 141.12C43.1667 141.333 43.02 141.62 43.02 141.98C43.02 142.34 43.1667 142.627 43.46 142.84C43.7533 143.053 44.1867 143.16 44.76 143.16ZM74.2067 134.7V142.22H68.6867V143.58H76.1267V145.78H58.5267V143.58H65.9667V142.22H60.4467V134.7H63.1267V136.42H71.5267V134.7H74.2067ZM71.6067 152.62V149.06H59.9267V146.78H74.2867V152.62H71.6067ZM71.5267 140.02V138.5H63.1267V140.02H71.5267ZM89.3934 141.54C89.3934 142.433 89.2468 143.26 88.9534 144.02C88.6601 144.767 88.2534 145.413 87.7334 145.96C87.2134 146.493 86.6001 146.913 85.8934 147.22C85.1868 147.513 84.4201 147.66 83.5934 147.66C82.7668 147.66 82.0001 147.513 81.2934 147.22C80.5868 146.913 79.9734 146.493 79.4534 145.96C78.9334 145.413 78.5268 144.767 78.2334 144.02C77.9401 143.26 77.7934 142.433 77.7934 141.54C77.7934 140.647 77.9401 139.827 78.2334 139.08C78.5268 138.32 78.9334 137.673 79.4534 137.14C79.9734 136.593 80.5868 136.173 81.2934 135.88C82.0001 135.573 82.7668 135.42 83.5934 135.42C84.4201 135.42 85.1868 135.573 85.8934 135.88C86.6001 136.173 87.2134 136.593 87.7334 137.14C88.2534 137.673 88.6601 138.32 88.9534 139.08C89.2468 139.827 89.3934 140.647 89.3934 141.54ZM86.7134 141.54C86.7134 140.967 86.6334 140.447 86.4734 139.98C86.3268 139.5 86.1134 139.093 85.8334 138.76C85.5668 138.413 85.2401 138.153 84.8534 137.98C84.4668 137.793 84.0468 137.7 83.5934 137.7C83.1268 137.7 82.7001 137.793 82.3134 137.98C81.9401 138.153 81.6134 138.413 81.3334 138.76C81.0668 139.093 80.8534 139.5 80.6934 139.98C80.5468 140.447 80.4734 140.967 80.4734 141.54C80.4734 142.127 80.5468 142.653 80.6934 143.12C80.8534 143.587 81.0668 143.993 81.3334 144.34C81.6134 144.673 81.9401 144.933 82.3134 145.12C82.7001 145.293 83.1268 145.38 83.5934 145.38C84.0468 145.38 84.4668 145.293 84.8534 145.12C85.2401 144.933 85.5668 144.673 85.8334 144.34C86.1134 143.993 86.3268 143.587 86.4734 143.12C86.6334 142.653 86.7134 142.127 86.7134 141.54ZM91.3934 152.54V134.62H94.0734V152.54H91.3934ZM97.1002 149.7V141.1H103.82V137.48H97.1002V135.2H106.5V143.36H99.7802V147.22L108.28 146.84V149.08L97.1002 149.7ZM109.08 152.54V134.62H111.76V141H114.3V143.32H111.76V152.54H109.08ZM131.067 141.5H117.107V134.7H119.787V139.24H131.067V141.5ZM115.187 145.62V143.38H132.787V145.62H115.187ZM119.867 146.62V150.06H131.567V152.34H117.187V146.62H119.867ZM153.416 152.54V134.62H156.096V141.2H158.636V143.52H156.096V152.54H153.416ZM141.516 135.34H151.356C151.369 137.073 151.143 138.687 150.676 140.18C150.223 141.673 149.589 143.04 148.776 144.28C147.976 145.507 147.023 146.6 145.916 147.56C144.823 148.507 143.656 149.313 142.416 149.98L140.696 148.08C141.856 147.52 142.896 146.853 143.816 146.08C144.749 145.307 145.549 144.467 146.216 143.56C146.883 142.64 147.409 141.68 147.796 140.68C148.183 139.667 148.423 138.647 148.516 137.62H141.516V135.34ZM159.203 148.38C160.123 147.86 160.943 147.273 161.663 146.62C162.383 145.967 162.989 145.233 163.483 144.42C163.989 143.607 164.376 142.713 164.643 141.74C164.749 141.353 164.836 140.947 164.903 140.52H160.523V138.24H171.563V140.52H167.643C167.563 141.173 167.429 141.8 167.243 142.4C167.176 142.653 167.096 142.907 167.003 143.16C167.469 144.067 168.036 144.847 168.703 145.5C169.676 146.46 170.869 147.247 172.283 147.86L170.703 149.86C170.103 149.58 169.503 149.227 168.903 148.8C168.316 148.36 167.763 147.867 167.243 147.32C166.723 146.773 166.256 146.187 165.843 145.56L165.803 145.62C165.189 146.593 164.463 147.467 163.623 148.24C162.796 149.013 161.909 149.693 160.963 150.28L159.203 148.38ZM173.703 152.54V134.62H176.383V152.54H173.703ZM162.883 136.86V134.58H169.303V136.86H162.883ZM180.21 152.42V148.02H191.49V147.34H180.21V145.42H194.17V149.78H182.89V150.48H194.59V152.42H180.21ZM180.31 141.86V137.44H191.41V136.74H180.31V134.82H194.09V139.2H182.99V139.92H194.39V141.86H180.31ZM178.41 144.56V142.64H196.01V144.56H178.41ZM204.119 142.06C205.119 141.953 206.079 141.827 206.999 141.68C207.919 141.533 208.739 141.32 209.459 141.04C210.179 140.747 210.765 140.367 211.219 139.9L211.239 139.88H205.499V137.64H219.819V139.88H214.319L214.279 139.96L214.139 140.22C214.365 140.42 214.612 140.6 214.879 140.76C215.399 141.053 215.979 141.287 216.619 141.46C217.259 141.62 217.945 141.74 218.679 141.82C219.425 141.9 220.192 141.967 220.979 142.02L219.619 144.14C218.912 144.127 218.192 144.067 217.459 143.96C216.725 143.853 216.025 143.687 215.359 143.46C214.692 143.233 214.072 142.947 213.499 142.6C213.165 142.4 212.865 142.173 212.599 141.92C212.292 142.16 211.945 142.38 211.559 142.58C210.959 142.9 210.319 143.173 209.639 143.4C208.959 143.613 208.265 143.787 207.559 143.92C206.852 144.053 206.165 144.147 205.499 144.2L204.119 142.06ZM211.299 152.54V147.42H203.859V145.18H221.459V147.42H214.019V152.54H211.299ZM216.739 134.42V136.66H208.579V134.42H216.739ZM229.985 152.54V145.38H222.745V143.1H235.085C235.152 142.847 235.205 142.587 235.245 142.32C235.365 141.72 235.465 141.127 235.545 140.54C235.639 139.953 235.705 139.393 235.745 138.86C235.799 138.313 235.839 137.82 235.865 137.38H224.365V135.14H238.625C238.585 136.967 238.459 138.647 238.245 140.18C238.099 141.273 237.932 142.247 237.745 143.1H240.345V145.38H232.705V152.54H229.985ZM244.592 136.86V134.58H250.792V136.86H244.592ZM241.912 140.08V137.8H253.392V140.08H241.912ZM247.652 140.58C248.452 140.58 249.166 140.707 249.792 140.96C250.419 141.2 250.946 141.54 251.372 141.98C251.812 142.407 252.146 142.913 252.372 143.5C252.612 144.073 252.732 144.693 252.732 145.36C252.732 146.027 252.612 146.653 252.372 147.24C252.146 147.813 251.812 148.32 251.372 148.76C250.946 149.187 250.419 149.527 249.792 149.78C249.166 150.02 248.452 150.14 247.652 150.14C246.852 150.14 246.139 150.02 245.512 149.78C244.886 149.527 244.352 149.187 243.912 148.76C243.486 148.32 243.152 147.813 242.912 147.24C242.686 146.653 242.572 146.027 242.572 145.36C242.572 144.693 242.686 144.073 242.912 143.5C243.152 142.913 243.486 142.407 243.912 141.98C244.352 141.54 244.886 141.2 245.512 140.96C246.139 140.707 246.852 140.58 247.652 140.58ZM247.652 147.9C248.466 147.9 249.066 147.667 249.452 147.2C249.852 146.72 250.052 146.107 250.052 145.36C250.052 144.613 249.852 144.007 249.452 143.54C249.066 143.06 248.466 142.82 247.652 142.82C246.839 142.82 246.232 143.06 245.832 143.54C245.446 144.007 245.252 144.613 245.252 145.36C245.252 146.107 245.446 146.72 245.832 147.2C246.232 147.667 246.839 147.9 247.652 147.9ZM254.612 152.54V134.62H257.292V141.8H259.832V144.12H257.292V152.54H254.612ZM261.719 149.18V135.34H271.419V137.82H274.299V134.62H276.979V152.54H274.299V146.06H271.419V149.18H261.719ZM264.399 146.9H268.739V137.62H264.399V146.9ZM271.419 143.82H274.299V140.06H271.419V143.82ZM48.52 184.86C49.4 184.86 50.2 184.967 50.92 185.18C51.6533 185.38 52.2867 185.667 52.82 186.04C53.3533 186.413 53.7667 186.867 54.06 187.4C54.3533 187.92 54.5 188.507 54.5 189.16C54.5 189.813 54.3533 190.407 54.06 190.94C53.7667 191.46 53.3533 191.907 52.82 192.28C52.2867 192.653 51.6533 192.94 50.92 193.14C50.2 193.353 49.4 193.46 48.52 193.46C47.64 193.46 46.8333 193.353 46.1 193.14C45.38 192.94 44.7533 192.653 44.22 192.28C43.6867 191.907 43.2733 191.46 42.98 190.94C42.6867 190.407 42.54 189.813 42.54 189.16C42.54 188.507 42.6867 187.92 42.98 187.4C43.2733 186.867 43.6867 186.413 44.22 186.04C44.7533 185.667 45.38 185.38 46.1 185.18C46.8333 184.967 47.64 184.86 48.52 184.86ZM39.64 184.12V181.92H46.26V178.62H48.98V181.92H57.24V184.12H39.64ZM52.32 180.98C52.4133 180.633 52.4933 180.267 52.56 179.88C52.6267 179.48 52.68 179.1 52.72 178.74C52.76 178.367 52.7867 178.033 52.8 177.74C52.8267 177.447 52.84 177.22 52.84 177.06H41.26V174.9H55.6C55.6 175.5 55.5867 176.087 55.56 176.66C55.5333 177.233 55.4933 177.787 55.44 178.32C55.3867 178.84 55.32 179.327 55.24 179.78C55.16 180.233 55.0667 180.633 54.96 180.98H52.32ZM48.52 191.26C49.6 191.26 50.42 191.073 50.98 190.7C51.54 190.313 51.82 189.8 51.82 189.16C51.82 188.52 51.54 188.013 50.98 187.64C50.42 187.253 49.6 187.06 48.52 187.06C47.44 187.06 46.62 187.253 46.06 187.64C45.5 188.013 45.22 188.52 45.22 189.16C45.22 189.8 45.5 190.313 46.06 190.7C46.62 191.073 47.44 191.26 48.52 191.26ZM64.3467 174.44C65.0934 174.44 65.7934 174.567 66.4467 174.82C67.1001 175.06 67.6667 175.407 68.1467 175.86C68.6267 176.3 69.0067 176.833 69.2867 177.46C69.5667 178.073 69.7067 178.747 69.7067 179.48C69.7067 180.213 69.5667 180.893 69.2867 181.52C69.0067 182.133 68.6267 182.667 68.1467 183.12C67.6667 183.56 67.1001 183.907 66.4467 184.16C65.7934 184.4 65.0934 184.52 64.3467 184.52C63.6001 184.52 62.9001 184.4 62.2467 184.16C61.5934 183.907 61.0267 183.56 60.5467 183.12C60.0667 182.667 59.6867 182.133 59.4067 181.52C59.1267 180.893 58.9867 180.213 58.9867 179.48C58.9867 178.747 59.1267 178.073 59.4067 177.46C59.6867 176.833 60.0667 176.3 60.5467 175.86C61.0267 175.407 61.5934 175.06 62.2467 174.82C62.9001 174.567 63.6001 174.44 64.3467 174.44ZM64.3467 182.24C65.1734 182.24 65.8267 181.987 66.3067 181.48C66.7867 180.973 67.0267 180.307 67.0267 179.48C67.0267 178.653 66.7867 177.987 66.3067 177.48C65.8267 176.973 65.1734 176.72 64.3467 176.72C63.5201 176.72 62.8667 176.973 62.3867 177.48C61.9067 177.987 61.6667 178.653 61.6667 179.48C61.6667 180.307 61.9067 180.973 62.3867 181.48C62.8667 181.987 63.5201 182.24 64.3467 182.24ZM72.3667 185.08V174.62H75.0467V185.08H72.3667ZM72.3267 192.62V188.16H60.6867V185.88H75.0067V192.62H72.3267ZM80.1334 177.72C80.1334 177.133 80.2868 176.607 80.5934 176.14C80.9134 175.66 81.3468 175.253 81.8934 174.92C82.4401 174.573 83.0801 174.313 83.8134 174.14C84.5601 173.953 85.3601 173.86 86.2134 173.86C87.0668 173.86 87.8601 173.953 88.5934 174.14C89.3401 174.313 89.9868 174.573 90.5334 174.92C91.0801 175.253 91.5068 175.66 91.8134 176.14C92.1334 176.607 92.2934 177.133 92.2934 177.72C92.2934 178.307 92.1334 178.84 91.8134 179.32C91.5068 179.787 91.0801 180.193 90.5334 180.54C89.9868 180.873 89.3401 181.133 88.5934 181.32C87.8601 181.493 87.0668 181.58 86.2134 181.58C85.3601 181.58 84.5601 181.493 83.8134 181.32C83.0801 181.133 82.4401 180.873 81.8934 180.54C81.3468 180.193 80.9134 179.787 80.5934 179.32C80.2868 178.84 80.1334 178.307 80.1334 177.72ZM86.2134 175.94C85.7468 175.94 85.3068 175.987 84.8934 176.08C84.4801 176.16 84.1201 176.28 83.8134 176.44C83.5068 176.587 83.2601 176.773 83.0734 177C82.9001 177.213 82.8134 177.453 82.8134 177.72C82.8134 177.987 82.9001 178.233 83.0734 178.46C83.2601 178.673 83.5068 178.86 83.8134 179.02C84.1201 179.167 84.4801 179.287 84.8934 179.38C85.3068 179.46 85.7468 179.5 86.2134 179.5C86.6801 179.5 87.1201 179.46 87.5334 179.38C87.9468 179.287 88.3068 179.167 88.6134 179.02C88.9201 178.86 89.1601 178.673 89.3334 178.46C89.5201 178.233 89.6134 177.987 89.6134 177.72C89.6134 177.453 89.5201 177.213 89.3334 177C89.1601 176.773 88.9201 176.587 88.6134 176.44C88.3068 176.28 87.9468 176.16 87.5334 176.08C87.1201 175.987 86.6801 175.94 86.2134 175.94ZM77.4134 184.32V182.24H95.0134V184.32H77.4134ZM79.2134 192.42V187.9H90.4934V187.18H79.2134V185.22H93.1734V189.7H81.8934V190.44H93.5934V192.42H79.2134ZM111.743 185.26C112.623 185.26 113.423 185.36 114.143 185.56C114.876 185.747 115.509 186.02 116.043 186.38C116.576 186.74 116.989 187.173 117.283 187.68C117.576 188.187 117.723 188.747 117.723 189.36C117.723 189.987 117.576 190.547 117.283 191.04C116.989 191.547 116.576 191.98 116.043 192.34C115.509 192.7 114.876 192.973 114.143 193.16C113.423 193.36 112.623 193.46 111.743 193.46C110.863 193.46 110.056 193.36 109.323 193.16C108.603 192.973 107.976 192.7 107.443 192.34C106.909 191.98 106.496 191.547 106.203 191.04C105.909 190.547 105.763 189.987 105.763 189.36C105.763 188.747 105.909 188.187 106.203 187.68C106.496 187.173 106.909 186.74 107.443 186.38C107.976 186.02 108.603 185.747 109.323 185.56C110.056 185.36 110.863 185.26 111.743 185.26ZM118.723 181.4C118.016 181.4 117.296 181.347 116.563 181.24C115.843 181.12 115.149 180.947 114.483 180.72C113.816 180.48 113.183 180.18 112.583 179.82C112.249 179.62 111.936 179.4 111.643 179.16C111.269 179.467 110.856 179.74 110.403 179.98C109.803 180.3 109.169 180.573 108.503 180.8C107.849 181.013 107.176 181.18 106.483 181.3C105.789 181.42 105.129 181.5 104.503 181.54L103.383 179.48C104.369 179.4 105.303 179.28 106.183 179.12C107.076 178.947 107.856 178.707 108.523 178.4C109.203 178.093 109.749 177.7 110.163 177.22L110.243 177.1H104.683V174.9H118.643V177.1H113.223C113.196 177.167 113.163 177.24 113.123 177.32C113.083 177.4 113.043 177.473 113.003 177.54C113.229 177.727 113.463 177.893 113.703 178.04C114.236 178.347 114.829 178.6 115.483 178.8C116.136 178.987 116.836 179.127 117.583 179.22C118.329 179.313 119.109 179.373 119.923 179.4L118.723 181.4ZM102.863 184.52V182.32H120.463V184.52H102.863ZM111.743 191.3C112.823 191.3 113.643 191.127 114.203 190.78C114.763 190.42 115.043 189.947 115.043 189.36C115.043 188.773 114.763 188.307 114.203 187.96C113.643 187.6 112.823 187.42 111.743 187.42C110.663 187.42 109.843 187.6 109.283 187.96C108.723 188.307 108.443 188.773 108.443 189.36C108.443 189.947 108.723 190.42 109.283 190.78C109.843 191.127 110.663 191.3 111.743 191.3ZM133.049 185.12C132.463 184.947 131.883 184.713 131.309 184.42C130.736 184.113 130.189 183.753 129.669 183.34C129.149 182.927 128.669 182.473 128.229 181.98L127.989 181.7C127.923 181.807 127.849 181.907 127.769 182C127.116 182.813 126.369 183.52 125.529 184.12C124.703 184.707 123.843 185.187 122.949 185.56L121.309 183.6C123.189 182.84 124.623 181.833 125.609 180.58C126.303 179.713 126.783 178.673 127.049 177.46H122.449V175.22H133.829V177.46H129.829C129.723 178.087 129.563 178.673 129.349 179.22C129.296 179.367 129.243 179.507 129.189 179.64C129.336 179.867 129.503 180.08 129.689 180.28C130.089 180.72 130.536 181.113 131.029 181.46C131.536 181.807 132.083 182.113 132.669 182.38C133.256 182.633 133.869 182.853 134.509 183.04L133.049 185.12ZM127.409 186.22V190.06H138.969V192.34H124.729V186.22H127.409ZM135.789 187.76V174.62H138.469V187.76H135.789ZM143.596 176.86V174.58H149.796V176.86H143.596ZM140.916 180.08V177.8H152.396V180.08H140.916ZM146.656 180.58C147.456 180.58 148.169 180.707 148.796 180.96C149.423 181.2 149.949 181.54 150.376 181.98C150.816 182.407 151.149 182.913 151.376 183.5C151.616 184.073 151.736 184.693 151.736 185.36C151.736 186.027 151.616 186.653 151.376 187.24C151.149 187.813 150.816 188.32 150.376 188.76C149.949 189.187 149.423 189.527 148.796 189.78C148.169 190.02 147.456 190.14 146.656 190.14C145.856 190.14 145.143 190.02 144.516 189.78C143.889 189.527 143.356 189.187 142.916 188.76C142.489 188.32 142.156 187.813 141.916 187.24C141.689 186.653 141.576 186.027 141.576 185.36C141.576 184.693 141.689 184.073 141.916 183.5C142.156 182.913 142.489 182.407 142.916 181.98C143.356 181.54 143.889 181.2 144.516 180.96C145.143 180.707 145.856 180.58 146.656 180.58ZM146.656 187.9C147.469 187.9 148.069 187.667 148.456 187.2C148.856 186.72 149.056 186.107 149.056 185.36C149.056 184.613 148.856 184.007 148.456 183.54C148.069 183.06 147.469 182.82 146.656 182.82C145.843 182.82 145.236 183.06 144.836 183.54C144.449 184.007 144.256 184.613 144.256 185.36C144.256 186.107 144.449 186.72 144.836 187.2C145.236 187.667 145.843 187.9 146.656 187.9ZM153.616 192.54V174.62H156.296V181.8H158.836V184.12H156.296V192.54H153.616ZM159.523 191.22V188.94H165.703V182.2H168.423V188.94H177.123V191.22H159.523ZM171.783 187.1C171.956 186.3 172.103 185.46 172.223 184.58C172.356 183.687 172.463 182.82 172.543 181.98C172.623 181.127 172.676 180.333 172.703 179.6C172.743 178.853 172.763 178.22 172.763 177.7H161.143V175.42H175.483C175.483 177.607 175.389 179.693 175.203 181.68C175.029 183.653 174.756 185.46 174.383 187.1H171.783ZM195.672 189.58C194.419 188.647 193.285 187.553 192.272 186.3C191.725 185.62 191.232 184.92 190.792 184.2C189.659 186.4 188.025 188.333 185.892 190L184.092 188.14C185.159 187.353 186.072 186.487 186.832 185.54C187.592 184.593 188.212 183.573 188.692 182.48C189.172 181.387 189.519 180.227 189.732 179C189.959 177.773 190.072 176.487 190.072 175.14H192.792C192.792 177.407 192.485 179.527 191.872 181.5C192.432 182.62 193.085 183.633 193.832 184.54C194.779 185.687 195.945 186.727 197.332 187.66L195.672 189.58ZM197.952 192.54V174.62H200.632V181H203.172V183.32H200.632V192.54H197.952ZM210.879 180.26C211.572 180.26 212.219 180.333 212.819 180.48C213.419 180.627 213.939 180.84 214.379 181.12C214.819 181.4 215.165 181.747 215.419 182.16C215.672 182.56 215.799 183.013 215.799 183.52C215.799 184.027 215.672 184.487 215.419 184.9C215.165 185.3 214.819 185.64 214.379 185.92C213.939 186.2 213.419 186.413 212.819 186.56C212.632 186.613 212.445 186.653 212.259 186.68V187.84L217.359 187.78V190.02L204.159 190.22V187.94L209.539 187.88V186.7C209.325 186.66 209.119 186.613 208.919 186.56C208.319 186.413 207.799 186.2 207.359 185.92C206.919 185.64 206.572 185.3 206.319 184.9C206.079 184.487 205.959 184.027 205.959 183.52C205.959 183.013 206.079 182.56 206.319 182.16C206.572 181.747 206.919 181.4 207.359 181.12C207.799 180.84 208.319 180.627 208.919 180.48C209.519 180.333 210.172 180.26 210.879 180.26ZM217.959 192.54V174.62H220.639V192.54H217.959ZM204.759 179.78V177.54H216.999V179.78H204.759ZM214.339 174.7V176.94H207.419V174.7H214.339ZM210.879 184.78C211.532 184.78 212.072 184.68 212.499 184.48C212.939 184.267 213.159 183.947 213.159 183.52C213.159 183.093 212.939 182.78 212.499 182.58C212.072 182.367 211.532 182.26 210.879 182.26C210.225 182.26 209.679 182.367 209.239 182.58C208.812 182.78 208.599 183.093 208.599 183.52C208.599 183.947 208.812 184.267 209.239 184.48C209.679 184.68 210.225 184.78 210.879 184.78ZM233.885 184.64C233.312 184.467 232.739 184.24 232.165 183.96C231.605 183.667 231.065 183.327 230.545 182.94C230.039 182.54 229.565 182.1 229.125 181.62L228.925 181.4L228.685 181.72C228.045 182.507 227.312 183.193 226.485 183.78C225.659 184.353 224.812 184.813 223.945 185.16L222.305 183.2C224.132 182.493 225.539 181.54 226.525 180.34C227.205 179.527 227.672 178.567 227.925 177.46H223.445V175.22H234.625V177.46H230.725C230.619 178.007 230.465 178.533 230.265 179.04C230.212 179.147 230.165 179.253 230.125 179.36C230.272 179.56 230.425 179.753 230.585 179.94C230.985 180.353 231.432 180.727 231.925 181.06C232.419 181.38 232.952 181.667 233.525 181.92C234.112 182.16 234.719 182.373 235.345 182.56L233.885 184.64ZM236.745 192.62V188.16H225.105V185.88H239.425V192.62H236.745ZM233.665 178.54H236.785V174.62H239.465V185.08H236.785V180.78H233.665V178.54ZM261.355 192.62V188.16H249.915V185.88H264.035V192.62H261.355ZM261.395 185.08V174.62H264.075V176.4H266.195V178.68H264.075V180.6H266.195V182.88H264.075V185.08H261.395ZM253.695 174.44C254.441 174.44 255.141 174.567 255.795 174.82C256.448 175.06 257.015 175.407 257.495 175.86C257.975 176.3 258.355 176.833 258.635 177.46C258.915 178.073 259.055 178.747 259.055 179.48C259.055 180.213 258.915 180.893 258.635 181.52C258.355 182.133 257.975 182.667 257.495 183.12C257.015 183.56 256.448 183.907 255.795 184.16C255.141 184.4 254.441 184.52 253.695 184.52C252.948 184.52 252.248 184.4 251.595 184.16C250.941 183.907 250.375 183.56 249.895 183.12C249.415 182.667 249.035 182.133 248.755 181.52C248.475 180.893 248.335 180.213 248.335 179.48C248.335 178.747 248.475 178.073 248.755 177.46C249.035 176.833 249.415 176.3 249.895 175.86C250.375 175.407 250.941 175.06 251.595 174.82C252.248 174.567 252.948 174.44 253.695 174.44ZM253.695 182.24C254.521 182.24 255.175 181.987 255.655 181.48C256.135 180.973 256.375 180.307 256.375 179.48C256.375 178.653 256.135 177.987 255.655 177.48C255.175 176.973 254.521 176.72 253.695 176.72C252.868 176.72 252.215 176.973 251.735 177.48C251.255 177.987 251.015 178.653 251.015 179.48C251.015 180.307 251.255 180.973 251.735 181.48C252.215 181.987 252.868 182.24 253.695 182.24ZM266.201 188.22C267.215 187.553 268.095 186.773 268.841 185.88C269.601 184.987 270.221 184.007 270.701 182.94C271.195 181.86 271.561 180.7 271.801 179.46C271.921 178.86 272.015 178.247 272.081 177.62H267.401V175.34H278.861V177.62H274.821C274.741 178.433 274.615 179.22 274.441 179.98C274.308 180.593 274.148 181.187 273.961 181.76C275.108 184.307 276.935 186.287 279.441 187.7L277.821 189.66C277.221 189.273 276.628 188.82 276.041 188.3C275.455 187.767 274.901 187.193 274.381 186.58C273.861 185.953 273.388 185.3 272.961 184.62C272.921 184.54 272.881 184.467 272.841 184.4C272.295 185.44 271.648 186.407 270.901 187.3C270.048 188.34 269.081 189.267 268.001 190.08L266.201 188.22ZM280.061 192.54V174.62H282.741V181H285.281V183.32H282.741V192.54H280.061ZM287.768 192.42V188.02H299.048V187.34H287.768V185.42H301.728V189.78H290.448V190.48H302.148V192.42H287.768ZM287.868 181.86V177.44H298.968V176.74H287.868V174.82H301.648V179.2H290.548V179.92H301.948V181.86H287.868ZM285.968 184.56V182.64H303.568V184.56H285.968ZM55.32 215.14V225.9H49.8V228.94H57.24V231.22H39.64V228.94H47.08V225.9H41.56V215.14H44.24V218.28H52.64V215.14H55.32ZM52.64 223.6V220.52H44.24V223.6H52.64ZM67.3267 220.46C68.1667 220.46 68.9467 220.54 69.6667 220.7C70.4001 220.86 71.0334 221.093 71.5667 221.4C72.1001 221.707 72.5201 222.08 72.8267 222.52C73.1334 222.96 73.2867 223.46 73.2867 224.02C73.2867 224.58 73.1334 225.08 72.8267 225.52C72.5201 225.96 72.1001 226.333 71.5667 226.64C71.0334 226.947 70.4001 227.18 69.6667 227.34C69.3467 227.42 69.0201 227.48 68.6867 227.52V228.94H76.1267V231.22H58.5267V228.94H65.9667V227.52C65.6201 227.48 65.2867 227.42 64.9667 227.34C64.2467 227.18 63.6201 226.947 63.0867 226.64C62.5534 226.333 62.1334 225.96 61.8267 225.52C61.5201 225.08 61.3667 224.58 61.3667 224.02C61.3667 223.46 61.5201 222.96 61.8267 222.52C62.1334 222.08 62.5534 221.707 63.0867 221.4C63.6201 221.093 64.2467 220.86 64.9667 220.7C65.7001 220.54 66.4867 220.46 67.3267 220.46ZM59.6467 220.02V217.78H75.0067V220.02H59.6467ZM71.8067 214.82V217.06H62.8467V214.82H71.8067ZM67.3267 225.58C67.7934 225.58 68.2267 225.547 68.6267 225.48C69.0401 225.413 69.3934 225.32 69.6867 225.2C69.9934 225.067 70.2267 224.907 70.3867 224.72C70.5601 224.52 70.6467 224.287 70.6467 224.02C70.6467 223.767 70.5601 223.54 70.3867 223.34C70.2267 223.14 69.9934 222.98 69.6867 222.86C69.3934 222.727 69.0401 222.627 68.6267 222.56C68.2267 222.493 67.7934 222.46 67.3267 222.46C66.8601 222.46 66.4201 222.493 66.0067 222.56C65.6067 222.627 65.2534 222.727 64.9467 222.86C64.6534 222.98 64.4201 223.14 64.2467 223.34C64.0867 223.54 64.0067 223.767 64.0067 224.02C64.0067 224.287 64.0867 224.52 64.2467 224.72C64.4201 224.907 64.6534 225.067 64.9467 225.2C65.2534 225.32 65.6067 225.413 66.0067 225.48C66.4201 225.547 66.8601 225.58 67.3267 225.58ZM88.1134 214.82H90.7134V221.52H92.0734V214.62H94.7134V232.52H92.0734V223.84H90.7134V232.08H88.1134V214.82ZM82.5934 230.14C81.9134 230.14 81.2934 230.02 80.7334 229.78C80.1868 229.54 79.7201 229.207 79.3334 228.78C78.9601 228.34 78.6668 227.833 78.4534 227.26C78.2534 226.673 78.1534 226.04 78.1534 225.36C78.1534 224.68 78.2534 224.053 78.4534 223.48C78.6668 222.893 78.9601 222.387 79.3334 221.96C79.7201 221.52 80.1868 221.18 80.7334 220.94C81.2934 220.7 81.9134 220.58 82.5934 220.58C83.2734 220.58 83.8868 220.7 84.4334 220.94C84.9934 221.18 85.4601 221.52 85.8334 221.96C86.2201 222.387 86.5134 222.893 86.7134 223.48C86.9268 224.053 87.0334 224.68 87.0334 225.36C87.0334 226.04 86.9268 226.673 86.7134 227.26C86.5134 227.833 86.2201 228.34 85.8334 228.78C85.4601 229.207 84.9934 229.54 84.4334 229.78C83.8868 230.02 83.2734 230.14 82.5934 230.14ZM77.4934 220.12V217.84H87.4934V220.12H77.4934ZM82.5934 227.9C83.1934 227.9 83.6468 227.673 83.9534 227.22C84.2734 226.753 84.4334 226.133 84.4334 225.36C84.4334 224.587 84.2734 223.973 83.9534 223.52C83.6468 223.053 83.1934 222.82 82.5934 222.82C81.9934 222.82 81.5334 223.053 81.2134 223.52C80.9068 223.973 80.7534 224.587 80.7534 225.36C80.7534 226.133 80.9068 226.753 81.2134 227.22C81.5334 227.673 81.9934 227.9 82.5934 227.9ZM79.7934 216.94V214.66H85.3934V216.94H79.7934ZM109.28 232.54V214.62H111.96V217.78H114.5V220.06H111.96V223.98H114.5V226.26H111.96V232.54H109.28ZM107.88 221.54C107.88 222.433 107.733 223.26 107.44 224.02C107.147 224.767 106.74 225.413 106.22 225.96C105.7 226.493 105.087 226.913 104.38 227.22C103.673 227.513 102.907 227.66 102.08 227.66C101.253 227.66 100.487 227.513 99.7802 227.22C99.0735 226.913 98.4602 226.493 97.9402 225.96C97.4202 225.413 97.0135 224.767 96.7202 224.02C96.4268 223.26 96.2802 222.433 96.2802 221.54C96.2802 220.647 96.4268 219.827 96.7202 219.08C97.0135 218.32 97.4202 217.673 97.9402 217.14C98.4602 216.593 99.0735 216.173 99.7802 215.88C100.487 215.573 101.253 215.42 102.08 215.42C102.907 215.42 103.673 215.573 104.38 215.88C105.087 216.173 105.7 216.593 106.22 217.14C106.74 217.673 107.147 218.32 107.44 219.08C107.733 219.827 107.88 220.647 107.88 221.54ZM105.2 221.54C105.2 220.967 105.12 220.447 104.96 219.98C104.813 219.5 104.6 219.093 104.32 218.76C104.053 218.413 103.727 218.153 103.34 217.98C102.953 217.793 102.533 217.7 102.08 217.7C101.613 217.7 101.187 217.793 100.8 217.98C100.427 218.153 100.1 218.413 99.8202 218.76C99.5535 219.093 99.3402 219.5 99.1802 219.98C99.0335 220.447 98.9602 220.967 98.9602 221.54C98.9602 222.127 99.0335 222.653 99.1802 223.12C99.3402 223.587 99.5535 223.993 99.8202 224.34C100.1 224.673 100.427 224.933 100.8 225.12C101.187 225.293 101.613 225.38 102.08 225.38C102.533 225.38 102.953 225.293 103.34 225.12C103.727 224.933 104.053 224.673 104.32 224.34C104.6 223.993 104.813 223.587 104.96 223.12C105.12 222.653 105.2 222.127 105.2 221.54ZM124.429 216.24V214.2H131.429V216.24H124.429ZM121.829 218.96V216.92H134.029V218.96H121.829ZM128.089 219.38C128.876 219.38 129.583 219.46 130.209 219.62C130.836 219.78 131.369 220.007 131.809 220.3C132.249 220.593 132.583 220.947 132.809 221.36C133.049 221.76 133.169 222.207 133.169 222.7C133.169 223.193 133.049 223.647 132.809 224.06C132.583 224.46 132.249 224.807 131.809 225.1C131.369 225.393 130.836 225.62 130.209 225.78C129.583 225.94 128.876 226.02 128.089 226.02C127.303 226.02 126.596 225.94 125.969 225.78C125.343 225.62 124.809 225.393 124.369 225.1C123.929 224.807 123.589 224.46 123.349 224.06C123.123 223.647 123.009 223.193 123.009 222.7C123.009 222.207 123.123 221.76 123.349 221.36C123.589 220.947 123.929 220.593 124.369 220.3C124.809 220.007 125.343 219.78 125.969 219.62C126.596 219.46 127.303 219.38 128.089 219.38ZM128.089 224.06C128.916 224.06 129.529 223.94 129.929 223.7C130.329 223.447 130.529 223.113 130.529 222.7C130.529 222.287 130.329 221.96 129.929 221.72C129.529 221.467 128.916 221.34 128.089 221.34C127.263 221.34 126.649 221.467 126.249 221.72C125.849 221.96 125.649 222.287 125.649 222.7C125.649 223.113 125.849 223.447 126.249 223.7C126.649 223.94 127.263 224.06 128.089 224.06ZM135.149 228.12V214.62H137.829V219.78H139.949V222.1H137.829V228.12H135.149ZM127.049 226.98V230.06H138.409V232.34H124.369V226.98H127.049ZM153.416 232.54V214.62H156.096V220.6H158.636V222.92H156.096V232.54H153.416ZM151.216 215.34V217.58H144.216V226.92L152.616 226.54V228.78L141.536 229.4V215.34H151.216ZM159.463 229.64H162.263V232.44H159.463V229.64Z" fill="#5C1C2C"/>
<g filter="url(#filter1_i_1033_7)">
<rect x="32" width="279" height="65" rx="15" fill="#008F80"/>
</g>
<path d="M99.845 44.515C97.6517 42.8817 95.6683 40.9683 93.895 38.775C92.9383 37.585 92.075 36.36 91.305 35.1C89.3217 38.95 86.4633 42.3333 82.73 45.25L79.58 41.995C81.4467 40.6183 83.045 39.1017 84.375 37.445C85.705 35.7883 86.79 34.0033 87.63 32.09C88.47 30.1767 89.0767 28.1467 89.45 26C89.8467 23.8533 90.045 21.6017 90.045 19.245H94.805C94.805 23.2117 94.2683 26.9217 93.195 30.375C94.175 32.335 95.3183 34.1083 96.625 35.695C98.2817 37.7017 100.323 39.5217 102.75 41.155L99.845 44.515ZM103.835 49.695V18.335H108.525V29.5H112.97V33.56H108.525V49.695H103.835ZM126.457 28.205C127.67 28.205 128.802 28.3333 129.852 28.59C130.902 28.8467 131.812 29.22 132.582 29.71C133.352 30.2 133.958 30.8067 134.402 31.53C134.845 32.23 135.067 33.0233 135.067 33.91C135.067 34.7967 134.845 35.6017 134.402 36.325C133.958 37.025 133.352 37.62 132.582 38.11C131.812 38.6 130.902 38.9733 129.852 39.23C129.525 39.3233 129.198 39.3933 128.872 39.44V41.47L137.797 41.365V45.285L114.697 45.635V41.645L124.112 41.54V39.475C123.738 39.405 123.377 39.3233 123.027 39.23C121.977 38.9733 121.067 38.6 120.297 38.11C119.527 37.62 118.92 37.025 118.477 36.325C118.057 35.6017 117.847 34.7967 117.847 33.91C117.847 33.0233 118.057 32.23 118.477 31.53C118.92 30.8067 119.527 30.2 120.297 29.71C121.067 29.22 121.977 28.8467 123.027 28.59C124.077 28.3333 125.22 28.205 126.457 28.205ZM138.847 49.695V18.335H143.537V49.695H138.847ZM115.747 27.365V23.445H137.167V27.365H115.747ZM132.512 18.475V22.395H120.402V18.475H132.512ZM126.457 36.115C127.6 36.115 128.545 35.94 129.292 35.59C130.062 35.2167 130.447 34.6567 130.447 33.91C130.447 33.1633 130.062 32.615 129.292 32.265C128.545 31.8917 127.6 31.705 126.457 31.705C125.313 31.705 124.357 31.8917 123.587 32.265C122.84 32.615 122.467 33.1633 122.467 33.91C122.467 34.6567 122.84 35.2167 123.587 35.59C124.357 35.94 125.313 36.115 126.457 36.115ZM174.248 36.255C175.788 36.255 177.188 36.4417 178.448 36.815C179.731 37.165 180.84 37.6667 181.773 38.32C182.706 38.9733 183.43 39.7667 183.943 40.7C184.456 41.61 184.713 42.6367 184.713 43.78C184.713 44.9233 184.456 45.9617 183.943 46.895C183.43 47.805 182.706 48.5867 181.773 49.24C180.84 49.8933 179.731 50.395 178.448 50.745C177.188 51.1183 175.788 51.305 174.248 51.305C172.708 51.305 171.296 51.1183 170.013 50.745C168.753 50.395 167.656 49.8933 166.723 49.24C165.79 48.5867 165.066 47.805 164.553 46.895C164.04 45.9617 163.783 44.9233 163.783 43.78C163.783 42.6367 164.04 41.61 164.553 40.7C165.066 39.7667 165.79 38.9733 166.723 38.32C167.656 37.6667 168.753 37.165 170.013 36.815C171.296 36.4417 172.708 36.255 174.248 36.255ZM158.708 34.96V31.11H170.293V25.335H175.053V31.11H189.508V34.96H158.708ZM180.898 29.465C181.061 28.8583 181.201 28.2167 181.318 27.54C181.435 26.84 181.528 26.175 181.598 25.545C181.668 24.8917 181.715 24.3083 181.738 23.795C181.785 23.2817 181.808 22.885 181.808 22.605H161.543V18.825H186.638C186.638 19.875 186.615 20.9017 186.568 21.905C186.521 22.9083 186.451 23.8767 186.358 24.81C186.265 25.72 186.148 26.5717 186.008 27.365C185.868 28.1583 185.705 28.8583 185.518 29.465H180.898ZM174.248 47.455C176.138 47.455 177.573 47.1283 178.553 46.475C179.533 45.7983 180.023 44.9 180.023 43.78C180.023 42.66 179.533 41.7733 178.553 41.12C177.573 40.4433 176.138 40.105 174.248 40.105C172.358 40.105 170.923 40.4433 169.943 41.12C168.963 41.7733 168.473 42.66 168.473 43.78C168.473 44.9 168.963 45.7983 169.943 46.475C170.923 47.1283 172.358 47.455 174.248 47.455ZM207.3 36.255C208.84 36.255 210.24 36.4417 211.5 36.815C212.783 37.165 213.891 37.6667 214.825 38.32C215.758 38.9733 216.481 39.7667 216.995 40.7C217.508 41.61 217.765 42.6367 217.765 43.78C217.765 44.9233 217.508 45.9617 216.995 46.895C216.481 47.805 215.758 48.5867 214.825 49.24C213.891 49.8933 212.783 50.395 211.5 50.745C210.24 51.1183 208.84 51.305 207.3 51.305C205.76 51.305 204.348 51.1183 203.065 50.745C201.805 50.395 200.708 49.8933 199.775 49.24C198.841 48.5867 198.118 47.805 197.605 46.895C197.091 45.9617 196.835 44.9233 196.835 43.78C196.835 42.6367 197.091 41.61 197.605 40.7C198.118 39.7667 198.841 38.9733 199.775 38.32C200.708 37.6667 201.805 37.165 203.065 36.815C204.348 36.4417 205.76 36.255 207.3 36.255ZM191.76 34.96V31.11H203.345V25.335H208.105V31.11H222.56V34.96H191.76ZM213.95 29.465C214.113 28.8583 214.253 28.2167 214.37 27.54C214.486 26.84 214.58 26.175 214.65 25.545C214.72 24.8917 214.766 24.3083 214.79 23.795C214.836 23.2817 214.86 22.885 214.86 22.605H194.595V18.825H219.69C219.69 19.875 219.666 20.9017 219.62 21.905C219.573 22.9083 219.503 23.8767 219.41 24.81C219.316 25.72 219.2 26.5717 219.06 27.365C218.92 28.1583 218.756 28.8583 218.57 29.465H213.95ZM207.3 47.455C209.19 47.455 210.625 47.1283 211.605 46.475C212.585 45.7983 213.075 44.9 213.075 43.78C213.075 42.66 212.585 41.7733 211.605 41.12C210.625 40.4433 209.19 40.105 207.3 40.105C205.41 40.105 203.975 40.4433 202.995 41.12C202.015 41.7733 201.525 42.66 201.525 43.78C201.525 44.9 202.015 45.7983 202.995 46.475C203.975 47.1283 205.41 47.455 207.3 47.455ZM244.166 36.43C243.116 35.9867 242.09 35.4267 241.086 34.75C240.083 34.0733 239.126 33.3033 238.216 32.44C237.33 31.5533 236.513 30.5967 235.766 29.57L235.416 30.06C234.343 31.6467 233.083 33.0583 231.636 34.295C230.19 35.5317 228.638 36.5467 226.981 37.34L224.041 33.98C225.721 33.2567 227.18 32.37 228.416 31.32C229.676 30.27 230.726 29.1033 231.566 27.82C232.406 26.5133 233.048 25.1017 233.491 23.585C233.958 22.0683 234.226 20.4817 234.296 18.825H239.056C239.01 20.925 238.66 22.9317 238.006 24.845C237.913 25.125 237.82 25.3933 237.726 25.65C238.52 27.0967 239.523 28.3217 240.736 29.325C242.51 30.795 244.528 31.9733 246.791 32.86L244.166 36.43ZM242.871 24.145H249.381V18.335H254.071V41.33H249.381V28.065H242.871V24.145ZM234.716 38.635V45.355H254.946V49.345H230.026V38.635H234.716Z" fill="white"/>
<defs>
<filter id="filter0_di_1033_7" x="0" y="45" width="346" height="245" filterUnits="userSpaceOnUse" color-interpolation-filters="sRGB">
<feFlood flood-opacity="0" result="BackgroundImageFix"/>
<feColorMatrix in="SourceAlpha" type="matrix" values="0 0 0 0 0 0 0 0 0 0 0 0 0 0 0 0 0 0 127 0" result="hardAlpha"/>
<feOffset dx="1" dy="3"/>
<feGaussianBlur stdDeviation="6"/>
<feComposite in2="hardAlpha" operator="out"/>
<feColorMatrix type="matrix" values="0 0 0 0 0.360784 0 0 0 0 0.109804 0 0 0 0 0.172549 0 0 0 0.51 0"/>
<feBlend mode="normal" in2="BackgroundImageFix" result="effect1_dropShadow_1033_7"/>
<feBlend mode="normal" in="SourceGraphic" in2="effect1_dropShadow_1033_7" result="shape"/>
<feColorMatrix in="SourceAlpha" type="matrix" values="0 0 0 0 0 0 0 0 0 0 0 0 0 0 0 0 0 0 127 0" result="hardAlpha"/>
<feOffset dx="-9" dy="9"/>
<feGaussianBlur stdDeviation="4"/>
<feComposite in2="hardAlpha" operator="arithmetic" k2="-1" k3="1"/>
<feColorMatrix type="matrix" values="0 0 0 0 1 0 0 0 0 1 0 0 0 0 1 0 0 0 0.25 0"/>
<feBlend mode="normal" in2="shape" result="effect2_innerShadow_1033_7"/>
</filter>
<filter id="filter1_i_1033_7" x="24" y="0" width="287" height="73" filterUnits="userSpaceOnUse" color-interpolation-filters="sRGB">
<feFlood flood-opacity="0" result="BackgroundImageFix"/>
<feBlend mode="normal" in="SourceGraphic" in2="BackgroundImageFix" result="shape"/>
<feColorMatrix in="SourceAlpha" type="matrix" values="0 0 0 0 0 0 0 0 0 0 0 0 0 0 0 0 0 0 127 0" result="hardAlpha"/>
<feOffset dx="-9" dy="9"/>
<feGaussianBlur stdDeviation="4"/>
<feComposite in2="hardAlpha" operator="arithmetic" k2="-1" k3="1"/>
<feColorMatrix type="matrix" values="0 0 0 0 1 0 0 0 0 1 0 0 0 0 1 0 0 0 0.25 0"/>
<feBlend mode="normal" in2="shape" result="effect1_innerShadow_1033_7"/>
</filter>
</defs>
</svg>
