<svg width="346" height="290" viewBox="0 0 346 290" fill="none" xmlns="http://www.w3.org/2000/svg">
<g filter="url(#filter0_di_1033_8)">
<rect x="11" y="54" width="322" height="221" rx="15" fill="white"/>
</g>
<path d="M51.42 112.54V94.62H54.1V112.54H51.42ZM38.92 95.34H48.76C48.7733 97.0733 48.5467 98.6867 48.08 100.18C47.6267 101.673 46.9933 103.04 46.18 104.28C45.38 105.507 44.4267 106.6 43.32 107.56C42.2267 108.507 41.06 109.313 39.82 109.98L38.1 108.08C39.26 107.52 40.3 106.853 41.22 106.08C42.1533 105.307 42.9533 104.467 43.62 103.56C44.2867 102.64 44.8133 101.68 45.2 100.68C45.5867 99.6667 45.8267 98.6467 45.92 97.62H38.92V95.34ZM58.3267 112.42V107.78H69.6067V107.02H58.3267V105.02H63.9667V103.9H56.5267V101.78H74.1267V103.9H66.6867V105.02H72.2867V109.62H61.0067V110.4H72.7067V112.42H58.3267ZM57.0467 99.16C58.0334 99.0667 58.9667 98.9067 59.8467 98.68C60.7401 98.4533 61.5201 98.16 62.1867 97.8C62.8667 97.4267 63.4134 96.98 63.8267 96.46C64.2401 95.9267 64.4667 95.3067 64.5067 94.6H67.2667C67.2401 95.3067 67.0801 95.9533 66.7867 96.54C66.7467 96.62 66.7067 96.7067 66.6667 96.8C66.8801 96.9867 67.1067 97.16 67.3467 97.32C67.8801 97.6533 68.4667 97.94 69.1067 98.18C69.7601 98.42 70.4601 98.6133 71.2067 98.76C71.9667 98.8933 72.7601 98.9867 73.5867 99.04L72.3867 101.04C71.6801 101.013 70.9601 100.92 70.2267 100.76C69.5067 100.6 68.8067 100.387 68.1267 100.12C67.4601 99.84 66.8267 99.5133 66.2267 99.14C65.8934 98.9267 65.5867 98.7 65.3067 98.46C64.9334 98.78 64.5267 99.0733 64.0867 99.34C63.4867 99.7 62.8534 100.007 62.1867 100.26C61.5334 100.513 60.8601 100.72 60.1667 100.88C59.4867 101.027 58.8334 101.127 58.2067 101.18L57.0467 99.16ZM87.3934 101.54C87.3934 102.433 87.2468 103.26 86.9534 104.02C86.6601 104.767 86.2534 105.413 85.7334 105.96C85.2134 106.493 84.6001 106.913 83.8934 107.22C83.1868 107.513 82.4201 107.66 81.5934 107.66C80.7668 107.66 80.0001 107.513 79.2934 107.22C78.5868 106.913 77.9734 106.493 77.4534 105.96C76.9334 105.413 76.5268 104.767 76.2334 104.02C75.9401 103.26 75.7934 102.433 75.7934 101.54C75.7934 100.647 75.9401 99.8267 76.2334 99.08C76.5268 98.32 76.9334 97.6733 77.4534 97.14C77.9734 96.5933 78.5868 96.1733 79.2934 95.88C80.0001 95.5733 80.7668 95.42 81.5934 95.42C82.4201 95.42 83.1868 95.5733 83.8934 95.88C84.6001 96.1733 85.2134 96.5933 85.7334 97.14C86.2534 97.6733 86.6601 98.32 86.9534 99.08C87.2468 99.8267 87.3934 100.647 87.3934 101.54ZM84.7134 101.54C84.7134 100.967 84.6334 100.447 84.4734 99.98C84.3268 99.5 84.1134 99.0933 83.8334 98.76C83.5668 98.4133 83.2401 98.1533 82.8534 97.98C82.4668 97.7933 82.0468 97.7 81.5934 97.7C81.1268 97.7 80.7001 97.7933 80.3134 97.98C79.9401 98.1533 79.6134 98.4133 79.3334 98.76C79.0668 99.0933 78.8534 99.5 78.6934 99.98C78.5468 100.447 78.4734 100.967 78.4734 101.54C78.4734 102.127 78.5468 102.653 78.6934 103.12C78.8534 103.587 79.0668 103.993 79.3334 104.34C79.6134 104.673 79.9401 104.933 80.3134 105.12C80.7001 105.293 81.1268 105.38 81.5934 105.38C82.0468 105.38 82.4668 105.293 82.8534 105.12C83.2401 104.933 83.5668 104.673 83.8334 104.34C84.1134 103.993 84.3268 103.587 84.4734 103.12C84.6334 102.653 84.7134 102.127 84.7134 101.54ZM89.3934 112.54V94.62H92.0734V112.54H89.3934ZM106.683 94.44C107.429 94.44 108.129 94.5667 108.783 94.82C109.436 95.0733 110.003 95.4267 110.483 95.88C110.963 96.3333 111.343 96.88 111.623 97.52C111.903 98.1467 112.043 98.8333 112.043 99.58C112.043 100.327 111.903 101.02 111.623 101.66C111.343 102.287 110.963 102.827 110.483 103.28C110.003 103.733 109.436 104.087 108.783 104.34C108.129 104.593 107.429 104.72 106.683 104.72C105.936 104.72 105.236 104.593 104.583 104.34C103.929 104.087 103.363 103.733 102.883 103.28C102.403 102.827 102.023 102.287 101.743 101.66C101.463 101.02 101.323 100.327 101.323 99.58C101.323 98.8333 101.463 98.1467 101.743 97.52C102.023 96.88 102.403 96.3333 102.883 95.88C103.363 95.4267 103.929 95.0733 104.583 94.82C105.236 94.5667 105.936 94.44 106.683 94.44ZM106.683 102.44C107.509 102.44 108.163 102.18 108.643 101.66C109.123 101.127 109.363 100.433 109.363 99.58C109.363 98.7267 109.123 98.04 108.643 97.52C108.163 96.9867 107.509 96.72 106.683 96.72C105.856 96.72 105.203 96.9867 104.723 97.52C104.243 98.04 104.003 98.7267 104.003 99.58C104.003 100.433 104.243 101.127 104.723 101.66C105.203 102.18 105.856 102.44 106.683 102.44ZM114.703 107.76V94.62H117.383V107.76H114.703ZM106.323 106.22V110.06H117.883V112.34H103.643V106.22H106.323ZM132.949 107.76V94.62H135.629V99.18H137.749V101.5H135.629V107.76H132.949ZM124.849 106.22V110.06H136.209V112.34H122.169V106.22H124.849ZM120.709 95.2H130.429C130.443 96.6667 130.183 97.9867 129.649 99.16C129.116 100.32 128.396 101.333 127.489 102.2C126.596 103.067 125.563 103.787 124.389 104.36C123.229 104.933 122.029 105.353 120.789 105.62L119.529 103.54C120.649 103.313 121.669 103 122.589 102.6C123.509 102.2 124.309 101.733 124.989 101.2C125.669 100.667 126.223 100.087 126.649 99.46C127.076 98.82 127.363 98.1467 127.509 97.44H120.709V95.2ZM141.356 97.72C141.356 97.1333 141.509 96.6067 141.816 96.14C142.136 95.66 142.569 95.2533 143.116 94.92C143.663 94.5733 144.303 94.3133 145.036 94.14C145.783 93.9533 146.583 93.86 147.436 93.86C148.289 93.86 149.083 93.9533 149.816 94.14C150.563 94.3133 151.209 94.5733 151.756 94.92C152.303 95.2533 152.729 95.66 153.036 96.14C153.356 96.6067 153.516 97.1333 153.516 97.72C153.516 98.3067 153.356 98.84 153.036 99.32C152.729 99.7867 152.303 100.193 151.756 100.54C151.209 100.873 150.563 101.133 149.816 101.32C149.083 101.493 148.289 101.58 147.436 101.58C146.583 101.58 145.783 101.493 145.036 101.32C144.303 101.133 143.663 100.873 143.116 100.54C142.569 100.193 142.136 99.7867 141.816 99.32C141.509 98.84 141.356 98.3067 141.356 97.72ZM147.436 95.94C146.969 95.94 146.529 95.9867 146.116 96.08C145.703 96.16 145.343 96.28 145.036 96.44C144.729 96.5867 144.483 96.7733 144.296 97C144.123 97.2133 144.036 97.4533 144.036 97.72C144.036 97.9867 144.123 98.2333 144.296 98.46C144.483 98.6733 144.729 98.86 145.036 99.02C145.343 99.1667 145.703 99.2867 146.116 99.38C146.529 99.46 146.969 99.5 147.436 99.5C147.903 99.5 148.343 99.46 148.756 99.38C149.169 99.2867 149.529 99.1667 149.836 99.02C150.143 98.86 150.383 98.6733 150.556 98.46C150.743 98.2333 150.836 97.9867 150.836 97.72C150.836 97.4533 150.743 97.2133 150.556 97C150.383 96.7733 150.143 96.5867 149.836 96.44C149.529 96.28 149.169 96.16 148.756 96.08C148.343 95.9867 147.903 95.94 147.436 95.94ZM138.636 104.32V102.24H156.236V104.32H138.636ZM140.436 112.42V107.9H151.716V107.18H140.436V105.22H154.396V109.7H143.116V110.44H154.816V112.42H140.436ZM175.605 97.48H174.425L174.285 102.62L176.725 102.54V104.74L164.245 105.24V102.92L166.585 102.86L166.425 97.48H164.785V95.24H175.965V96.7H177.925V94.62H180.605V107.92H177.925V101.96H175.605V99.76H177.925V98.9H175.605V97.48ZM169.625 106.38V110.06H181.185V112.34H166.945V106.38H169.625ZM169.245 102.78L171.605 102.7L171.745 97.48H169.105L169.245 102.78ZM184.172 109.7V101.1H190.892V97.48H184.172V95.2H193.572V103.36H186.852V107.22L195.952 106.84V109.08L184.172 109.7ZM196.752 112.54V94.62H199.432V112.54H196.752ZM204.819 96.86V94.58H211.019V96.86H204.819ZM202.139 100.08V97.8H213.619V100.08H202.139ZM207.879 100.58C208.679 100.58 209.392 100.707 210.019 100.96C210.645 101.2 211.172 101.54 211.599 101.98C212.039 102.407 212.372 102.913 212.599 103.5C212.839 104.073 212.959 104.693 212.959 105.36C212.959 106.027 212.839 106.653 212.599 107.24C212.372 107.813 212.039 108.32 211.599 108.76C211.172 109.187 210.645 109.527 210.019 109.78C209.392 110.02 208.679 110.14 207.879 110.14C207.079 110.14 206.365 110.02 205.739 109.78C205.112 109.527 204.579 109.187 204.139 108.76C203.712 108.32 203.379 107.813 203.139 107.24C202.912 106.653 202.799 106.027 202.799 105.36C202.799 104.693 202.912 104.073 203.139 103.5C203.379 102.913 203.712 102.407 204.139 101.98C204.579 101.54 205.112 101.2 205.739 100.96C206.365 100.707 207.079 100.58 207.879 100.58ZM207.879 107.9C208.692 107.9 209.292 107.667 209.679 107.2C210.079 106.72 210.279 106.107 210.279 105.36C210.279 104.613 210.079 104.007 209.679 103.54C209.292 103.06 208.692 102.82 207.879 102.82C207.065 102.82 206.459 103.06 206.059 103.54C205.672 104.007 205.479 104.613 205.479 105.36C205.479 106.107 205.672 106.72 206.059 107.2C206.459 107.667 207.065 107.9 207.879 107.9ZM214.839 112.54V94.62H217.519V101.8H220.059V104.12H217.519V112.54H214.839ZM221.545 95.44H229.405C229.405 97.08 229.225 98.6133 228.865 100.04C228.505 101.467 228.005 102.793 227.365 104.02C226.739 105.233 225.992 106.34 225.125 107.34C224.272 108.34 223.359 109.233 222.385 110.02L220.485 108.28C221.405 107.6 222.232 106.847 222.965 106.02C223.712 105.18 224.345 104.307 224.865 103.4C225.385 102.48 225.792 101.54 226.085 100.58C226.379 99.62 226.552 98.6667 226.605 97.72H221.545V95.44ZM228.905 101.56H231.245V94.82H233.845V112.08H231.245V103.88H228.905V101.56ZM235.005 112.52V94.62H237.645V112.52H235.005ZM248.875 96.24V94.2H255.875V96.24H248.875ZM246.275 98.96V96.92H258.475V98.96H246.275ZM252.535 99.38C253.321 99.38 254.028 99.46 254.655 99.62C255.281 99.78 255.815 100.007 256.255 100.3C256.695 100.593 257.028 100.947 257.255 101.36C257.495 101.76 257.615 102.207 257.615 102.7C257.615 103.193 257.495 103.647 257.255 104.06C257.028 104.46 256.695 104.807 256.255 105.1C255.815 105.393 255.281 105.62 254.655 105.78C254.028 105.94 253.321 106.02 252.535 106.02C251.748 106.02 251.041 105.94 250.415 105.78C249.788 105.62 249.255 105.393 248.815 105.1C248.375 104.807 248.035 104.46 247.795 104.06C247.568 103.647 247.455 103.193 247.455 102.7C247.455 102.207 247.568 101.76 247.795 101.36C248.035 100.947 248.375 100.593 248.815 100.3C249.255 100.007 249.788 99.78 250.415 99.62C251.041 99.46 251.748 99.38 252.535 99.38ZM252.535 104.06C253.361 104.06 253.975 103.94 254.375 103.7C254.775 103.447 254.975 103.113 254.975 102.7C254.975 102.287 254.775 101.96 254.375 101.72C253.975 101.467 253.361 101.34 252.535 101.34C251.708 101.34 251.095 101.467 250.695 101.72C250.295 101.96 250.095 102.287 250.095 102.7C250.095 103.113 250.295 103.447 250.695 103.7C251.095 103.94 251.708 104.06 252.535 104.06ZM259.595 108.12V94.62H262.275V99.78H264.395V102.1H262.275V108.12H259.595ZM251.495 106.98V110.06H262.855V112.34H248.815V106.98H251.495ZM277.861 112.54V94.62H280.541V100.6H283.081V102.92H280.541V112.54H277.861ZM275.661 95.34V97.58H268.661V106.92L277.061 106.54V108.78L265.981 109.4V95.34H275.661ZM299.848 101.5H285.888V94.7H288.568V99.24H299.848V101.5ZM283.968 105.62V103.38H301.568V105.62H283.968ZM288.648 106.62V110.06H300.348V112.34H285.968V106.62H288.648ZM37.64 145.38V143.14H45.08V141.62H39.56V134.9H53.32V141.62H47.8V143.14H55.24V145.38H37.64ZM50.72 152.62V148.86H39.04V146.58H53.4V152.62H50.72ZM42.24 139.38H50.64V137.14H42.24V139.38ZM67.6667 144.64C67.0934 144.467 66.5201 144.24 65.9467 143.96C65.3867 143.667 64.8467 143.327 64.3267 142.94C63.8201 142.54 63.3467 142.1 62.9067 141.62L62.7067 141.4L62.4667 141.72C61.8267 142.507 61.0934 143.193 60.2667 143.78C59.4401 144.353 58.5934 144.813 57.7267 145.16L56.0867 143.2C57.9134 142.493 59.3201 141.54 60.3067 140.34C60.9867 139.527 61.4534 138.567 61.7067 137.46H57.2267V135.22H68.4067V137.46H64.5067C64.4001 138.007 64.2467 138.533 64.0467 139.04C63.9934 139.147 63.9467 139.253 63.9067 139.36C64.0534 139.56 64.2067 139.753 64.3667 139.94C64.7667 140.353 65.2134 140.727 65.7067 141.06C66.2001 141.38 66.7334 141.667 67.3067 141.92C67.8934 142.16 68.5001 142.373 69.1267 142.56L67.6667 144.64ZM70.5267 152.62V148.16H58.8867V145.88H73.2067V152.62H70.5267ZM67.4467 138.54H70.5667V134.62H73.2467V145.08H70.5667V140.78H67.4467V138.54ZM87.3934 141.54C87.3934 142.433 87.2468 143.26 86.9534 144.02C86.6601 144.767 86.2534 145.413 85.7334 145.96C85.2134 146.493 84.6001 146.913 83.8934 147.22C83.1868 147.513 82.4201 147.66 81.5934 147.66C80.7668 147.66 80.0001 147.513 79.2934 147.22C78.5868 146.913 77.9734 146.493 77.4534 145.96C76.9334 145.413 76.5268 144.767 76.2334 144.02C75.9401 143.26 75.7934 142.433 75.7934 141.54C75.7934 140.647 75.9401 139.827 76.2334 139.08C76.5268 138.32 76.9334 137.673 77.4534 137.14C77.9734 136.593 78.5868 136.173 79.2934 135.88C80.0001 135.573 80.7668 135.42 81.5934 135.42C82.4201 135.42 83.1868 135.573 83.8934 135.88C84.6001 136.173 85.2134 136.593 85.7334 137.14C86.2534 137.673 86.6601 138.32 86.9534 139.08C87.2468 139.827 87.3934 140.647 87.3934 141.54ZM84.7134 141.54C84.7134 140.967 84.6334 140.447 84.4734 139.98C84.3268 139.5 84.1134 139.093 83.8334 138.76C83.5668 138.413 83.2401 138.153 82.8534 137.98C82.4668 137.793 82.0468 137.7 81.5934 137.7C81.1268 137.7 80.7001 137.793 80.3134 137.98C79.9401 138.153 79.6134 138.413 79.3334 138.76C79.0668 139.093 78.8534 139.5 78.6934 139.98C78.5468 140.447 78.4734 140.967 78.4734 141.54C78.4734 142.127 78.5468 142.653 78.6934 143.12C78.8534 143.587 79.0668 143.993 79.3334 144.34C79.6134 144.673 79.9401 144.933 80.3134 145.12C80.7001 145.293 81.1268 145.38 81.5934 145.38C82.0468 145.38 82.4668 145.293 82.8534 145.12C83.2401 144.933 83.5668 144.673 83.8334 144.34C84.1134 143.993 84.3268 143.587 84.4734 143.12C84.6334 142.653 84.7134 142.127 84.7134 141.54ZM89.3934 152.54V134.62H92.0734V152.54H89.3934ZM109.663 140.46C110.503 140.46 111.283 140.54 112.003 140.7C112.736 140.86 113.369 141.093 113.903 141.4C114.436 141.707 114.856 142.08 115.163 142.52C115.469 142.96 115.623 143.46 115.623 144.02C115.623 144.58 115.469 145.08 115.163 145.52C114.963 145.813 114.709 146.08 114.403 146.32V148.94H118.463V151.22H100.863V148.94H104.923V146.32C104.616 146.08 104.363 145.813 104.163 145.52C103.856 145.08 103.703 144.58 103.703 144.02C103.703 143.46 103.856 142.96 104.163 142.52C104.469 142.08 104.889 141.707 105.423 141.4C105.956 141.093 106.583 140.86 107.303 140.7C108.036 140.54 108.823 140.46 109.663 140.46ZM101.983 140.02V137.78H117.343V140.02H101.983ZM114.143 134.82V137.06H105.183V134.82H114.143ZM109.663 145.58C110.129 145.58 110.563 145.547 110.963 145.48C111.376 145.413 111.729 145.32 112.023 145.2C112.329 145.067 112.563 144.907 112.723 144.72C112.896 144.52 112.983 144.287 112.983 144.02C112.983 143.767 112.896 143.54 112.723 143.34C112.563 143.14 112.329 142.98 112.023 142.86C111.729 142.727 111.376 142.627 110.963 142.56C110.563 142.493 110.129 142.46 109.663 142.46C109.196 142.46 108.756 142.493 108.343 142.56C107.943 142.627 107.589 142.727 107.283 142.86C106.989 142.98 106.756 143.14 106.583 143.34C106.423 143.54 106.343 143.767 106.343 144.02C106.343 144.287 106.423 144.52 106.583 144.72C106.756 144.907 106.989 145.067 107.283 145.2C107.589 145.32 107.943 145.413 108.343 145.48C108.756 145.547 109.196 145.58 109.663 145.58ZM109.663 147.58C108.929 147.58 108.243 147.52 107.603 147.4V148.94H111.723V147.4C111.069 147.52 110.383 147.58 109.663 147.58ZM121.549 152.42V147.9H132.829V147.18H121.549V145.22H123.809V144.2H119.749V142.12H137.349V144.2H133.289V145.22H135.509V149.7H124.229V150.44H135.929V152.42H121.549ZM122.469 137.72C122.469 137.133 122.623 136.607 122.929 136.14C123.249 135.66 123.683 135.253 124.229 134.92C124.776 134.573 125.416 134.313 126.149 134.14C126.896 133.953 127.696 133.86 128.549 133.86C129.403 133.86 130.196 133.953 130.929 134.14C131.676 134.313 132.323 134.573 132.869 134.92C133.416 135.253 133.843 135.66 134.149 136.14C134.469 136.607 134.629 137.133 134.629 137.72C134.629 138.307 134.469 138.84 134.149 139.32C133.843 139.787 133.416 140.193 132.869 140.54C132.323 140.873 131.676 141.133 130.929 141.32C130.196 141.493 129.403 141.58 128.549 141.58C127.696 141.58 126.896 141.493 126.149 141.32C125.416 141.133 124.776 140.873 124.229 140.54C123.683 140.193 123.249 139.787 122.929 139.32C122.623 138.84 122.469 138.307 122.469 137.72ZM128.549 135.94C128.083 135.94 127.643 135.987 127.229 136.08C126.816 136.16 126.456 136.28 126.149 136.44C125.843 136.587 125.596 136.773 125.409 137C125.236 137.213 125.149 137.453 125.149 137.72C125.149 137.987 125.236 138.233 125.409 138.46C125.596 138.673 125.843 138.86 126.149 139.02C126.456 139.167 126.816 139.287 127.229 139.38C127.643 139.46 128.083 139.5 128.549 139.5C129.016 139.5 129.456 139.46 129.869 139.38C130.283 139.287 130.643 139.167 130.949 139.02C131.256 138.86 131.496 138.673 131.669 138.46C131.856 138.233 131.949 137.987 131.949 137.72C131.949 137.453 131.856 137.213 131.669 137C131.496 136.773 131.256 136.587 130.949 136.44C130.643 136.28 130.283 136.16 129.869 136.08C129.456 135.987 129.016 135.94 128.549 135.94ZM126.489 145.22H130.609V144.2H126.489V145.22ZM149.776 144.64C149.203 144.467 148.629 144.24 148.056 143.96C147.496 143.667 146.956 143.327 146.436 142.94C145.929 142.54 145.456 142.1 145.016 141.62L144.816 141.4L144.576 141.72C143.936 142.507 143.203 143.193 142.376 143.78C141.549 144.353 140.703 144.813 139.836 145.16L138.196 143.2C140.023 142.493 141.429 141.54 142.416 140.34C143.096 139.527 143.563 138.567 143.816 137.46H139.336V135.22H150.516V137.46H146.616C146.509 138.007 146.356 138.533 146.156 139.04C146.103 139.147 146.056 139.253 146.016 139.36C146.163 139.56 146.316 139.753 146.476 139.94C146.876 140.353 147.323 140.727 147.816 141.06C148.309 141.38 148.843 141.667 149.416 141.92C150.003 142.16 150.609 142.373 151.236 142.56L149.776 144.64ZM152.636 152.62V148.16H140.996V145.88H155.316V152.62H152.636ZM149.556 138.54H152.676V134.62H155.356V145.08H152.676V140.78H149.556V138.54ZM160.023 151.82C160.023 152.393 159.869 152.927 159.563 153.42C159.256 153.927 158.843 154.373 158.323 154.76L157.443 153.9C157.763 153.687 157.983 153.44 158.103 153.16C158.236 152.893 158.316 152.607 158.343 152.3H157.223V149.5H160.023V151.82ZM176.811 140.46C177.651 140.46 178.431 140.54 179.151 140.7C179.884 140.86 180.518 141.093 181.051 141.4C181.584 141.707 182.004 142.08 182.311 142.52C182.618 142.96 182.771 143.46 182.771 144.02C182.771 144.58 182.618 145.08 182.311 145.52C182.111 145.813 181.858 146.08 181.551 146.32V148.94H185.611V151.22H168.011V148.94H172.071V146.32C171.764 146.08 171.511 145.813 171.311 145.52C171.004 145.08 170.851 144.58 170.851 144.02C170.851 143.46 171.004 142.96 171.311 142.52C171.618 142.08 172.038 141.707 172.571 141.4C173.104 141.093 173.731 140.86 174.451 140.7C175.184 140.54 175.971 140.46 176.811 140.46ZM169.131 140.02V137.78H184.491V140.02H169.131ZM181.291 134.82V137.06H172.331V134.82H181.291ZM176.811 145.58C177.278 145.58 177.711 145.547 178.111 145.48C178.524 145.413 178.878 145.32 179.171 145.2C179.478 145.067 179.711 144.907 179.871 144.72C180.044 144.52 180.131 144.287 180.131 144.02C180.131 143.767 180.044 143.54 179.871 143.34C179.711 143.14 179.478 142.98 179.171 142.86C178.878 142.727 178.524 142.627 178.111 142.56C177.711 142.493 177.278 142.46 176.811 142.46C176.344 142.46 175.904 142.493 175.491 142.56C175.091 142.627 174.738 142.727 174.431 142.86C174.138 142.98 173.904 143.14 173.731 143.34C173.571 143.54 173.491 143.767 173.491 144.02C173.491 144.287 173.571 144.52 173.731 144.72C173.904 144.907 174.138 145.067 174.431 145.2C174.738 145.32 175.091 145.413 175.491 145.48C175.904 145.547 176.344 145.58 176.811 145.58ZM176.811 147.58C176.078 147.58 175.391 147.52 174.751 147.4V148.94H178.871V147.4C178.218 147.52 177.531 147.58 176.811 147.58ZM200.078 152.54V134.62H202.758V141.4H204.978V143.72H202.758V152.54H200.078ZM194.958 146.1C195.078 145.34 195.178 144.567 195.258 143.78C195.338 142.98 195.404 142.207 195.458 141.46C195.511 140.713 195.551 140.02 195.578 139.38C195.604 138.727 195.618 138.167 195.618 137.7H187.398V135.42H198.338C198.338 137.393 198.271 139.287 198.138 141.1C198.018 142.9 197.824 144.567 197.558 146.1H194.958ZM186.678 150.02V147.74L190.338 147.7V141.92H193.058V147.66L199.478 147.58V149.82L186.678 150.02ZM216.925 144.64C216.351 144.467 215.778 144.24 215.205 143.96C214.645 143.667 214.105 143.327 213.585 142.94C213.078 142.54 212.605 142.1 212.165 141.62L211.965 141.4L211.725 141.72C211.085 142.507 210.351 143.193 209.525 143.78C208.698 144.353 207.851 144.813 206.985 145.16L205.345 143.2C207.171 142.493 208.578 141.54 209.565 140.34C210.245 139.527 210.711 138.567 210.965 137.46H206.485V135.22H217.665V137.46H213.765C213.658 138.007 213.505 138.533 213.305 139.04C213.251 139.147 213.205 139.253 213.165 139.36C213.311 139.56 213.465 139.753 213.625 139.94C214.025 140.353 214.471 140.727 214.965 141.06C215.458 141.38 215.991 141.667 216.565 141.92C217.151 142.16 217.758 142.373 218.385 142.56L216.925 144.64ZM219.785 152.62V148.16H208.145V145.88H222.465V152.62H219.785ZM216.705 138.54H219.825V134.62H222.505V145.08H219.825V140.78H216.705V138.54ZM224.671 151.02V148.74H242.271V151.02H224.671ZM233.431 134.54C234.431 134.54 235.338 134.693 236.151 135C236.978 135.307 237.678 135.72 238.251 136.24C238.838 136.76 239.291 137.367 239.611 138.06C239.931 138.74 240.091 139.453 240.091 140.2C240.091 140.947 239.931 141.667 239.611 142.36C239.291 143.04 238.838 143.64 238.251 144.16C237.678 144.68 236.978 145.093 236.151 145.4C235.338 145.707 234.431 145.86 233.431 145.86C232.445 145.86 231.545 145.707 230.731 145.4C229.918 145.093 229.218 144.68 228.631 144.16C228.058 143.64 227.611 143.04 227.291 142.36C226.971 141.667 226.811 140.947 226.811 140.2C226.811 139.453 226.971 138.74 227.291 138.06C227.611 137.367 228.058 136.76 228.631 136.24C229.218 135.72 229.918 135.307 230.731 135C231.545 134.693 232.445 134.54 233.431 134.54ZM233.451 143.58C234.065 143.58 234.618 143.493 235.111 143.32C235.605 143.133 236.018 142.887 236.351 142.58C236.698 142.26 236.958 141.9 237.131 141.5C237.318 141.087 237.411 140.653 237.411 140.2C237.411 139.747 237.318 139.32 237.131 138.92C236.958 138.507 236.698 138.147 236.351 137.84C236.018 137.533 235.605 137.287 235.111 137.1C234.618 136.913 234.065 136.82 233.451 136.82C232.838 136.82 232.285 136.913 231.791 137.1C231.298 137.287 230.878 137.533 230.531 137.84C230.198 138.147 229.938 138.507 229.751 138.92C229.578 139.32 229.491 139.747 229.491 140.2C229.491 140.653 229.578 141.087 229.751 141.5C229.938 141.9 230.198 142.26 230.531 142.58C230.878 142.887 231.298 143.133 231.791 143.32C232.285 143.493 232.838 143.58 233.451 143.58ZM243.558 151.22V148.94H251.098V146.16H245.458V139.54H256.578V137.58H245.458V135.3H259.238V141.82H248.138V143.86H259.538V146.16H253.818V148.94H261.158V151.22H243.558ZM50.84 183.64V174.62H53.52V177.68H55.64V179.96H53.52V183.64H50.84ZM39.96 192.42V187.28H50.8V186.4H39.96V184.24H53.48V189.32H42.64V190.24H53.88V192.42H39.96ZM41.12 177.36V180.98L50.04 180.68V182.84L38.44 183.38V175.2H48.36V177.36H41.12ZM67.1267 184.22C67.9667 184.22 68.7401 184.333 69.4467 184.56C70.1534 184.773 70.7601 185.073 71.2667 185.46C71.7867 185.847 72.1867 186.313 72.4667 186.86C72.7601 187.393 72.9067 187.987 72.9067 188.64C72.9067 189.293 72.7601 189.893 72.4667 190.44C72.1867 190.973 71.7867 191.433 71.2667 191.82C70.7601 192.22 70.1534 192.527 69.4467 192.74C68.7401 192.953 67.9667 193.06 67.1267 193.06C66.2867 193.06 65.5134 192.953 64.8067 192.74C64.1001 192.527 63.4867 192.22 62.9667 191.82C62.4601 191.433 62.0601 190.973 61.7667 190.44C61.4867 189.893 61.3467 189.293 61.3467 188.64C61.3467 187.987 61.4867 187.393 61.7667 186.86C62.0601 186.313 62.4601 185.847 62.9667 185.46C63.4867 185.073 64.1001 184.773 64.8067 184.56C65.5134 184.333 66.2867 184.22 67.1267 184.22ZM67.6267 183.56C67.0534 183.387 66.4801 183.153 65.9067 182.86C65.3334 182.553 64.7867 182.193 64.2667 181.78C63.7467 181.353 63.2667 180.88 62.8267 180.36L62.8067 180.32C62.6734 180.507 62.5401 180.68 62.4067 180.84C61.7534 181.64 61.0134 182.327 60.1867 182.9C59.3734 183.473 58.5534 183.913 57.7267 184.22L56.0867 182.26C57.8334 181.66 59.2201 180.74 60.2467 179.5C61.2867 178.26 61.8534 176.727 61.9467 174.9H64.6667C64.6401 176.06 64.4201 177.14 64.0067 178.14C63.9934 178.18 63.9801 178.213 63.9667 178.24L64.3267 178.72C64.7267 179.187 65.1734 179.593 65.6667 179.94C66.1734 180.287 66.7134 180.587 67.2867 180.84C67.8601 181.093 68.4601 181.307 69.0867 181.48L67.6267 183.56ZM66.8467 177.28H70.5667V174.62H73.2467V184.4H70.5667V179.44H66.8467V177.28ZM67.1267 190.86C68.1267 190.86 68.8934 190.66 69.4267 190.26C69.9601 189.847 70.2267 189.307 70.2267 188.64C70.2267 187.973 69.9601 187.44 69.4267 187.04C68.8934 186.627 68.1267 186.42 67.1267 186.42C66.1267 186.42 65.3601 186.627 64.8267 187.04C64.2934 187.44 64.0267 187.973 64.0267 188.64C64.0267 189.307 64.2934 189.847 64.8267 190.26C65.3601 190.66 66.1267 190.86 67.1267 190.86ZM75.7134 190.02V187.74L81.3134 187.68V184.5H76.9134V175.34H87.7934V177.62H79.5934V182.2H88.1934V184.5H84.0334V187.64L88.9134 187.58V189.82L75.7134 190.02ZM89.5134 192.54V174.62H92.1934V192.54H89.5134ZM110.38 185.3H104.56V188.94H111.9V191.22H94.3002V188.94H101.84V185.3H96.2202V175.34H109.98V177.62H98.9002V183H110.38V185.3ZM123.447 182.9V184H130.787V186.12H113.187V184H120.727V182.9H115.087V177.84H126.187V176.94H115.087V174.82H128.867V179.84H117.767V180.76H129.167V182.9H123.447ZM126.267 192.62V189.18H114.587V186.98H128.947V192.62H126.267ZM149.336 174.82H151.936V181.52H153.296V174.62H155.936V192.52H153.296V183.84H151.936V192.08H149.336V174.82ZM143.816 190.14C143.136 190.14 142.516 190.02 141.956 189.78C141.409 189.54 140.943 189.207 140.556 188.78C140.183 188.34 139.889 187.833 139.676 187.26C139.476 186.673 139.376 186.04 139.376 185.36C139.376 184.68 139.476 184.053 139.676 183.48C139.889 182.893 140.183 182.387 140.556 181.96C140.943 181.52 141.409 181.18 141.956 180.94C142.516 180.7 143.136 180.58 143.816 180.58C144.496 180.58 145.109 180.7 145.656 180.94C146.216 181.18 146.683 181.52 147.056 181.96C147.443 182.387 147.736 182.893 147.936 183.48C148.149 184.053 148.256 184.68 148.256 185.36C148.256 186.04 148.149 186.673 147.936 187.26C147.736 187.833 147.443 188.34 147.056 188.78C146.683 189.207 146.216 189.54 145.656 189.78C145.109 190.02 144.496 190.14 143.816 190.14ZM138.716 180.12V177.84H148.716V180.12H138.716ZM143.816 187.9C144.416 187.9 144.869 187.673 145.176 187.22C145.496 186.753 145.656 186.133 145.656 185.36C145.656 184.587 145.496 183.973 145.176 183.52C144.869 183.053 144.416 182.82 143.816 182.82C143.216 182.82 142.756 183.053 142.436 183.52C142.129 183.973 141.976 184.587 141.976 185.36C141.976 186.133 142.129 186.753 142.436 187.22C142.756 187.673 143.216 187.9 143.816 187.9ZM141.016 176.94V174.66H146.616V176.94H141.016ZM170.503 192.54V174.62H173.183V177.78H175.723V180.06H173.183V183.98H175.723V186.26H173.183V192.54H170.503ZM169.103 181.54C169.103 182.433 168.956 183.26 168.663 184.02C168.369 184.767 167.963 185.413 167.443 185.96C166.923 186.493 166.309 186.913 165.603 187.22C164.896 187.513 164.129 187.66 163.303 187.66C162.476 187.66 161.709 187.513 161.003 187.22C160.296 186.913 159.683 186.493 159.163 185.96C158.643 185.413 158.236 184.767 157.943 184.02C157.649 183.26 157.503 182.433 157.503 181.54C157.503 180.647 157.649 179.827 157.943 179.08C158.236 178.32 158.643 177.673 159.163 177.14C159.683 176.593 160.296 176.173 161.003 175.88C161.709 175.573 162.476 175.42 163.303 175.42C164.129 175.42 164.896 175.573 165.603 175.88C166.309 176.173 166.923 176.593 167.443 177.14C167.963 177.673 168.369 178.32 168.663 179.08C168.956 179.827 169.103 180.647 169.103 181.54ZM166.423 181.54C166.423 180.967 166.343 180.447 166.183 179.98C166.036 179.5 165.823 179.093 165.543 178.76C165.276 178.413 164.949 178.153 164.563 177.98C164.176 177.793 163.756 177.7 163.303 177.7C162.836 177.7 162.409 177.793 162.023 177.98C161.649 178.153 161.323 178.413 161.043 178.76C160.776 179.093 160.563 179.5 160.403 179.98C160.256 180.447 160.183 180.967 160.183 181.54C160.183 182.127 160.256 182.653 160.403 183.12C160.563 183.587 160.776 183.993 161.043 184.34C161.323 184.673 161.649 184.933 162.023 185.12C162.409 185.293 162.836 185.38 163.303 185.38C163.756 185.38 164.176 185.293 164.563 185.12C164.949 184.933 165.276 184.673 165.543 184.34C165.823 183.993 166.036 183.587 166.183 183.12C166.343 182.653 166.423 182.127 166.423 181.54ZM185.652 176.24V174.2H192.652V176.24H185.652ZM183.052 178.96V176.92H195.252V178.96H183.052ZM189.312 179.38C190.099 179.38 190.805 179.46 191.432 179.62C192.059 179.78 192.592 180.007 193.032 180.3C193.472 180.593 193.805 180.947 194.032 181.36C194.272 181.76 194.392 182.207 194.392 182.7C194.392 183.193 194.272 183.647 194.032 184.06C193.805 184.46 193.472 184.807 193.032 185.1C192.592 185.393 192.059 185.62 191.432 185.78C190.805 185.94 190.099 186.02 189.312 186.02C188.525 186.02 187.819 185.94 187.192 185.78C186.565 185.62 186.032 185.393 185.592 185.1C185.152 184.807 184.812 184.46 184.572 184.06C184.345 183.647 184.232 183.193 184.232 182.7C184.232 182.207 184.345 181.76 184.572 181.36C184.812 180.947 185.152 180.593 185.592 180.3C186.032 180.007 186.565 179.78 187.192 179.62C187.819 179.46 188.525 179.38 189.312 179.38ZM189.312 184.06C190.139 184.06 190.752 183.94 191.152 183.7C191.552 183.447 191.752 183.113 191.752 182.7C191.752 182.287 191.552 181.96 191.152 181.72C190.752 181.467 190.139 181.34 189.312 181.34C188.485 181.34 187.872 181.467 187.472 181.72C187.072 181.96 186.872 182.287 186.872 182.7C186.872 183.113 187.072 183.447 187.472 183.7C187.872 183.94 188.485 184.06 189.312 184.06ZM196.372 188.12V174.62H199.052V179.78H201.172V182.1H199.052V188.12H196.372ZM188.272 186.98V190.06H199.632V192.34H185.592V186.98H188.272ZM214.639 192.54V174.62H217.319V180.6H219.859V182.92H217.319V192.54H214.639ZM212.439 175.34V177.58H205.439V186.92L213.839 186.54V188.78L202.759 189.4V175.34H212.439ZM220.685 189.64H223.485V192.44H220.685V189.64Z" fill="#5C1C2C"/>
<g filter="url(#filter1_i_1033_8)">
<rect x="32" width="279" height="65" rx="15" fill="#6049A3"/>
</g>
<path d="M92.235 49.695V18.335H96.925V49.695H92.235ZM70.36 19.595H87.58C87.6033 22.6283 87.2067 25.4517 86.39 28.065C85.5967 30.6783 84.4883 33.07 83.065 35.24C81.665 37.3867 79.9967 39.3 78.06 40.98C76.1467 42.6367 74.105 44.0483 71.935 45.215L68.925 41.89C70.955 40.91 72.775 39.7433 74.385 38.39C76.0183 37.0367 77.4183 35.5667 78.585 33.98C79.7517 32.37 80.6733 30.69 81.35 28.94C82.0267 27.1667 82.4467 25.3817 82.61 23.585H70.36V19.595ZM104.322 49.485V41.365H124.062V40.035H104.322V36.535H114.192V34.575H101.172V30.865H131.972V34.575H118.952V36.535H128.752V44.585H109.012V45.95H129.487V49.485H104.322ZM102.082 26.28C103.808 26.1167 105.442 25.8367 106.982 25.44C108.545 25.0433 109.91 24.53 111.077 23.9C112.267 23.2467 113.223 22.465 113.947 21.555C114.67 20.6217 115.067 19.5367 115.137 18.3H119.967C119.92 19.5367 119.64 20.6683 119.127 21.695C119.057 21.835 118.987 21.9867 118.917 22.15C119.29 22.4767 119.687 22.78 120.107 23.06C121.04 23.6433 122.067 24.145 123.187 24.565C124.33 24.985 125.555 25.3233 126.862 25.58C128.192 25.8133 129.58 25.9767 131.027 26.07L128.927 29.57C127.69 29.5233 126.43 29.36 125.147 29.08C123.887 28.8 122.662 28.4267 121.472 27.96C120.305 27.47 119.197 26.8983 118.147 26.245C117.563 25.8717 117.027 25.475 116.537 25.055C115.883 25.615 115.172 26.1283 114.402 26.595C113.352 27.225 112.243 27.7617 111.077 28.205C109.933 28.6483 108.755 29.01 107.542 29.29C106.352 29.5467 105.208 29.7217 104.112 29.815L102.082 26.28ZM169.158 36.325V18.335H173.848V25.44H177.558V29.43H173.848V36.325H169.158ZM169.088 43.5H154.808V45.775H169.088V43.5ZM150.118 49.485V37.375H154.808V40H169.088V37.375H173.778V49.485H150.118ZM150.398 21.03V17.6H162.648V21.03H150.398ZM145.848 25.3V21.87H167.198V25.3H145.848ZM156.803 25.93C158.18 25.93 159.416 26.0583 160.513 26.315C161.61 26.5483 162.543 26.8983 163.313 27.365C164.083 27.8083 164.666 28.345 165.063 28.975C165.483 29.605 165.693 30.305 165.693 31.075C165.693 31.845 165.483 32.545 165.063 33.175C164.666 33.805 164.083 34.3533 163.313 34.82C162.543 35.2633 161.61 35.6133 160.513 35.87C159.416 36.1033 158.18 36.22 156.803 36.22C155.426 36.22 154.19 36.1033 153.093 35.87C151.996 35.6133 151.063 35.2633 150.293 34.82C149.523 34.3533 148.928 33.805 148.508 33.175C148.111 32.545 147.913 31.845 147.913 31.075C147.913 30.305 148.111 29.605 148.508 28.975C148.928 28.345 149.523 27.8083 150.293 27.365C151.063 26.8983 151.996 26.5483 153.093 26.315C154.19 26.0583 155.426 25.93 156.803 25.93ZM156.803 32.93C158.25 32.93 159.323 32.7667 160.023 32.44C160.723 32.1133 161.073 31.6583 161.073 31.075C161.073 30.4917 160.723 30.0367 160.023 29.71C159.323 29.3833 158.25 29.22 156.803 29.22C155.356 29.22 154.283 29.3833 153.583 29.71C152.883 30.0367 152.533 30.4917 152.533 31.075C152.533 31.6583 152.883 32.1133 153.583 32.44C154.283 32.7667 155.356 32.93 156.803 32.93ZM178.76 37.165V33.245H191.78V30.585H182.12V18.825H206.2V30.585H196.54V33.245H209.56V37.165H178.76ZM201.65 49.835V43.255H181.21V39.265H206.34V49.835H201.65ZM186.81 26.665H201.51V22.745H186.81V26.665ZM231.306 35.87C230.303 35.5667 229.3 35.17 228.296 34.68C227.316 34.1667 226.371 33.5717 225.461 32.895C224.575 32.195 223.746 31.425 222.976 30.585L222.626 30.2L222.206 30.76C221.086 32.1367 219.803 33.3383 218.356 34.365C216.91 35.3683 215.428 36.1733 213.911 36.78L211.041 33.35C214.238 32.1133 216.7 30.445 218.426 28.345C219.616 26.9217 220.433 25.2417 220.876 23.305H213.036V19.385H232.601V23.305H225.776C225.59 24.2617 225.321 25.1833 224.971 26.07C224.878 26.2567 224.796 26.4433 224.726 26.63C224.983 26.98 225.251 27.3183 225.531 27.645C226.231 28.3683 227.013 29.0217 227.876 29.605C228.74 30.165 229.673 30.6667 230.676 31.11C231.703 31.53 232.765 31.9033 233.861 32.23L231.306 35.87ZM236.311 49.835V42.03H215.941V38.04H241.001V49.835H236.311ZM230.921 25.195H236.381V18.335H241.071V36.64H236.381V29.115H230.921V25.195ZM263.413 35.135C264.883 35.135 266.236 35.3333 267.473 35.73C268.71 36.1033 269.771 36.6283 270.658 37.305C271.568 37.9817 272.268 38.7983 272.758 39.755C273.271 40.6883 273.528 41.7267 273.528 42.87C273.528 44.0133 273.271 45.0633 272.758 46.02C272.268 46.9533 271.568 47.7583 270.658 48.435C269.771 49.135 268.71 49.6717 267.473 50.045C266.236 50.4183 264.883 50.605 263.413 50.605C261.943 50.605 260.59 50.4183 259.353 50.045C258.116 49.6717 257.043 49.135 256.133 48.435C255.246 47.7583 254.546 46.9533 254.033 46.02C253.543 45.0633 253.298 44.0133 253.298 42.87C253.298 41.7267 253.543 40.6883 254.033 39.755C254.546 38.7983 255.246 37.9817 256.133 37.305C257.043 36.6283 258.116 36.1033 259.353 35.73C260.59 35.3333 261.943 35.135 263.413 35.135ZM264.288 33.98C263.285 33.6767 262.281 33.2683 261.278 32.755C260.275 32.2183 259.318 31.5883 258.408 30.865C257.498 30.1183 256.658 29.29 255.888 28.38L255.853 28.31C255.62 28.6367 255.386 28.94 255.153 29.22C254.01 30.62 252.715 31.8217 251.268 32.825C249.845 33.8283 248.41 34.5983 246.963 35.135L244.093 31.705C247.15 30.655 249.576 29.045 251.373 26.875C253.193 24.705 254.185 22.0217 254.348 18.825H259.108C259.061 20.855 258.676 22.745 257.953 24.495C257.93 24.565 257.906 24.6233 257.883 24.67L258.513 25.51C259.213 26.3267 259.995 27.0383 260.858 27.645C261.745 28.2517 262.69 28.7767 263.693 29.22C264.696 29.6633 265.746 30.0367 266.843 30.34L264.288 33.98ZM262.923 22.99H269.433V18.335H274.123V35.45H269.433V26.77H262.923V22.99ZM263.413 46.755C265.163 46.755 266.505 46.405 267.438 45.705C268.371 44.9817 268.838 44.0367 268.838 42.87C268.838 41.7033 268.371 40.77 267.438 40.07C266.505 39.3467 265.163 38.985 263.413 38.985C261.663 38.985 260.321 39.3467 259.388 40.07C258.455 40.77 257.988 41.7033 257.988 42.87C257.988 44.0367 258.455 44.9817 259.388 45.705C260.321 46.405 261.663 46.755 263.413 46.755Z" fill="white"/>
<defs>
<filter id="filter0_di_1033_8" x="0" y="45" width="346" height="245" filterUnits="userSpaceOnUse" color-interpolation-filters="sRGB">
<feFlood flood-opacity="0" result="BackgroundImageFix"/>
<feColorMatrix in="SourceAlpha" type="matrix" values="0 0 0 0 0 0 0 0 0 0 0 0 0 0 0 0 0 0 127 0" result="hardAlpha"/>
<feOffset dx="1" dy="3"/>
<feGaussianBlur stdDeviation="6"/>
<feComposite in2="hardAlpha" operator="out"/>
<feColorMatrix type="matrix" values="0 0 0 0 0.360784 0 0 0 0 0.109804 0 0 0 0 0.172549 0 0 0 0.51 0"/>
<feBlend mode="normal" in2="BackgroundImageFix" result="effect1_dropShadow_1033_8"/>
<feBlend mode="normal" in="SourceGraphic" in2="effect1_dropShadow_1033_8" result="shape"/>
<feColorMatrix in="SourceAlpha" type="matrix" values="0 0 0 0 0 0 0 0 0 0 0 0 0 0 0 0 0 0 127 0" result="hardAlpha"/>
<feOffset dx="-9" dy="9"/>
<feGaussianBlur stdDeviation="4"/>
<feComposite in2="hardAlpha" operator="arithmetic" k2="-1" k3="1"/>
<feColorMatrix type="matrix" values="0 0 0 0 1 0 0 0 0 1 0 0 0 0 1 0 0 0 0.25 0"/>
<feBlend mode="normal" in2="shape" result="effect2_innerShadow_1033_8"/>
</filter>
<filter id="filter1_i_1033_8" x="24" y="0" width="287" height="73" filterUnits="userSpaceOnUse" color-interpolation-filters="sRGB">
<feFlood flood-opacity="0" result="BackgroundImageFix"/>
<feBlend mode="normal" in="SourceGraphic" in2="BackgroundImageFix" result="shape"/>
<feColorMatrix in="SourceAlpha" type="matrix" values="0 0 0 0 0 0 0 0 0 0 0 0 0 0 0 0 0 0 127 0" result="hardAlpha"/>
<feOffset dx="-9" dy="9"/>
<feGaussianBlur stdDeviation="4"/>
<feComposite in2="hardAlpha" operator="arithmetic" k2="-1" k3="1"/>
<feColorMatrix type="matrix" values="0 0 0 0 1 0 0 0 0 1 0 0 0 0 1 0 0 0 0.25 0"/>
<feBlend mode="normal" in2="shape" result="effect1_innerShadow_1033_8"/>
</filter>
</defs>
</svg>
