<svg width="884" height="242" viewBox="0 0 884 242" fill="none" xmlns="http://www.w3.org/2000/svg">
<g filter="url(#filter0_di_1033_11)">
<rect x="11" y="9" width="860" height="218" rx="15" fill="white"/>
</g>
<path d="M191.851 79.18H185.851L184.291 83H181.571L187.951 67.8H189.751L196.131 83H193.411L191.851 79.18ZM186.771 76.94H190.931L188.851 71.86L186.771 76.94ZM199.772 83H197.132V67.8H199.772V83ZM217.71 77.3H211.89V80.94H219.23V83.22H201.63V80.94H209.17V77.3H203.55V67.34H217.31V69.62H206.23V75H217.71V77.3ZM231.537 81.58C230.284 80.6467 229.15 79.5533 228.137 78.3C227.59 77.62 227.097 76.92 226.657 76.2C225.524 78.4 223.89 80.3333 221.757 82L219.957 80.14C221.024 79.3533 221.937 78.4867 222.697 77.54C223.457 76.5933 224.077 75.5733 224.557 74.48C225.037 73.3867 225.384 72.2267 225.597 71C225.824 69.7733 225.937 68.4867 225.937 67.14H228.657C228.657 69.4067 228.35 71.5267 227.737 73.5C228.297 74.62 228.95 75.6333 229.697 76.54C230.644 77.6867 231.81 78.7267 233.197 79.66L231.537 81.58ZM234.697 84.54V66.62H237.377V84.54H234.697ZM241.204 84.42V80.02H252.484V79.34H241.204V77.42H255.164V81.78H243.884V82.48H255.584V84.42H241.204ZM241.304 73.86V69.44H252.404V68.74H241.304V66.82H255.084V71.2H243.984V71.92H255.384V73.86H241.304ZM239.404 76.56V74.64H257.004V76.56H239.404ZM280.533 66.94V75.5H266.773V66.94H269.453V69.08H277.853V66.94H280.533ZM272.293 84.54V79.22H264.853V76.94H282.453V79.22H275.013V84.54H272.293ZM277.853 73.2V71.32H269.453V73.2H277.853ZM296.94 77.48V66.62H299.62V70.78H301.74V73.1H299.62V77.48H296.94ZM296.9 84.62V80.48H285.46V78.28H299.58V84.62H296.9ZM294.66 73.1H287.22V74.84L296.14 74.54V76.74L284.54 77.28V67.08H294.86V69.32H287.22V70.9H294.66V73.1ZM313.326 66.82H315.926V73.52H317.286V66.62H319.926V84.52H317.286V75.84H315.926V84.08H313.326V66.82ZM307.806 82.14C307.126 82.14 306.506 82.02 305.946 81.78C305.4 81.54 304.933 81.2067 304.546 80.78C304.173 80.34 303.88 79.8333 303.666 79.26C303.466 78.6733 303.366 78.04 303.366 77.36C303.366 76.68 303.466 76.0533 303.666 75.48C303.88 74.8933 304.173 74.3867 304.546 73.96C304.933 73.52 305.4 73.18 305.946 72.94C306.506 72.7 307.126 72.58 307.806 72.58C308.486 72.58 309.1 72.7 309.646 72.94C310.206 73.18 310.673 73.52 311.046 73.96C311.433 74.3867 311.726 74.8933 311.926 75.48C312.14 76.0533 312.246 76.68 312.246 77.36C312.246 78.04 312.14 78.6733 311.926 79.26C311.726 79.8333 311.433 80.34 311.046 80.78C310.673 81.2067 310.206 81.54 309.646 81.78C309.1 82.02 308.486 82.14 307.806 82.14ZM302.706 72.12V69.84H312.706V72.12H302.706ZM307.806 79.9C308.406 79.9 308.86 79.6733 309.166 79.22C309.486 78.7533 309.646 78.1333 309.646 77.36C309.646 76.5867 309.486 75.9733 309.166 75.52C308.86 75.0533 308.406 74.82 307.806 74.82C307.206 74.82 306.746 75.0533 306.426 75.52C306.12 75.9733 305.966 76.5867 305.966 77.36C305.966 78.1333 306.12 78.7533 306.426 79.22C306.746 79.6733 307.206 79.9 307.806 79.9ZM305.006 68.94V66.66H310.606V68.94H305.006Z" fill="#CB6100"/>
<path d="M335.613 84.54V66.62H338.293V84.54H335.613ZM321.813 82.02V79.74L335.013 79.58V81.82L321.813 82.02ZM328.273 67.02C329.1 67.02 329.853 67.1667 330.533 67.46C331.213 67.7533 331.8 68.14 332.293 68.62C332.786 69.1 333.166 69.66 333.433 70.3C333.7 70.9267 333.833 71.58 333.833 72.26C333.833 72.94 333.7 73.6 333.433 74.24C333.166 74.8667 332.786 75.42 332.293 75.9C331.8 76.38 331.213 76.7667 330.533 77.06C329.853 77.3533 329.1 77.5 328.273 77.5C327.446 77.5 326.693 77.3533 326.013 77.06C325.333 76.7667 324.746 76.38 324.253 75.9C323.76 75.42 323.38 74.8667 323.113 74.24C322.846 73.6 322.713 72.94 322.713 72.26C322.713 71.58 322.846 70.9267 323.113 70.3C323.38 69.66 323.76 69.1 324.253 68.62C324.746 68.14 325.333 67.7533 326.013 67.46C326.693 67.1667 327.446 67.02 328.273 67.02ZM328.273 75.22C328.713 75.22 329.106 75.14 329.453 74.98C329.813 74.8067 330.12 74.5867 330.373 74.32C330.626 74.04 330.82 73.7267 330.953 73.38C331.086 73.02 331.153 72.6467 331.153 72.26C331.153 71.8867 331.086 71.52 330.953 71.16C330.82 70.8 330.626 70.4867 330.373 70.22C330.12 69.94 329.813 69.72 329.453 69.56C329.106 69.3867 328.713 69.3 328.273 69.3C327.833 69.3 327.433 69.3867 327.073 69.56C326.726 69.72 326.426 69.94 326.173 70.22C325.92 70.4867 325.726 70.8 325.593 71.16C325.46 71.52 325.393 71.8867 325.393 72.26C325.393 72.6467 325.46 73.02 325.593 73.38C325.726 73.7267 325.92 74.04 326.173 74.32C326.426 74.5867 326.726 74.8067 327.073 74.98C327.433 75.14 327.833 75.22 328.273 75.22ZM359.742 84.54V66.62H362.422V72.6H364.962V74.92H362.422V84.54H359.742ZM357.542 67.34V69.58H350.542V78.92L358.942 78.54V80.78L347.862 81.4V67.34H357.542ZM371.349 66.36C372.082 66.36 372.769 66.48 373.409 66.72C374.062 66.96 374.622 67.2933 375.089 67.72C375.569 68.1333 375.942 68.64 376.209 69.24C376.489 69.8267 376.629 70.4667 376.629 71.16C376.629 71.8667 376.489 72.5133 376.209 73.1C375.942 73.6867 375.569 74.1933 375.089 74.62C374.622 75.0333 374.062 75.36 373.409 75.6C372.769 75.84 372.082 75.96 371.349 75.96C370.602 75.96 369.909 75.84 369.269 75.6C368.629 75.36 368.069 75.0333 367.589 74.62C367.122 74.1933 366.749 73.6867 366.469 73.1C366.202 72.5133 366.069 71.8667 366.069 71.16C366.069 70.4667 366.202 69.8267 366.469 69.24C366.749 68.64 367.122 68.1333 367.589 67.72C368.069 67.2933 368.629 66.96 369.269 66.72C369.909 66.48 370.602 66.36 371.349 66.36ZM371.349 73.76C372.149 73.76 372.782 73.52 373.249 73.04C373.716 72.56 373.949 71.9333 373.949 71.16C373.949 70.3867 373.716 69.76 373.249 69.28C372.782 68.8 372.149 68.56 371.349 68.56C370.549 68.56 369.916 68.8 369.449 69.28C368.982 69.76 368.749 70.3867 368.749 71.16C368.749 71.9333 368.982 72.56 369.449 73.04C369.916 73.52 370.549 73.76 371.349 73.76ZM375.889 76.42C376.729 76.42 377.502 76.5267 378.209 76.74C378.916 76.9533 379.522 77.2533 380.029 77.64C380.549 78.0133 380.949 78.4667 381.229 79C381.522 79.52 381.669 80.1 381.669 80.74C381.669 81.38 381.522 81.9667 381.229 82.5C380.949 83.02 380.549 83.4667 380.029 83.84C379.522 84.2267 378.916 84.5267 378.209 84.74C377.502 84.9533 376.729 85.06 375.889 85.06C375.049 85.06 374.276 84.9533 373.569 84.74C372.862 84.5267 372.249 84.2267 371.729 83.84C371.222 83.4667 370.822 83.02 370.529 82.5C370.249 81.9667 370.109 81.38 370.109 80.74C370.109 80.1 370.249 79.52 370.529 79C370.822 78.4667 371.222 78.0133 371.729 77.64C372.249 77.2533 372.862 76.9533 373.569 76.74C374.276 76.5267 375.049 76.42 375.889 76.42ZM375.889 82.86C376.889 82.86 377.656 82.6667 378.189 82.28C378.722 81.8933 378.989 81.38 378.989 80.74C378.989 80.1 378.722 79.5867 378.189 79.2C377.656 78.8133 376.889 78.62 375.889 78.62C374.889 78.62 374.122 78.8133 373.589 79.2C373.056 79.5867 372.789 80.1 372.789 80.74C372.789 81.38 373.056 81.8933 373.589 82.28C374.122 82.6667 374.889 82.86 375.889 82.86ZM379.049 76.6V66.62H381.729V68.14H383.849V70.38H381.729V71.84H383.849V74.08H381.729V76.6H379.049ZM387.416 68.24V66.2H394.416V68.24H387.416ZM384.816 70.96V68.92H397.016V70.96H384.816ZM391.076 71.38C391.862 71.38 392.569 71.46 393.196 71.62C393.822 71.78 394.356 72.0067 394.796 72.3C395.236 72.5933 395.569 72.9467 395.796 73.36C396.036 73.76 396.156 74.2067 396.156 74.7C396.156 75.1933 396.036 75.6467 395.796 76.06C395.569 76.46 395.236 76.8067 394.796 77.1C394.356 77.3933 393.822 77.62 393.196 77.78C392.569 77.94 391.862 78.02 391.076 78.02C390.289 78.02 389.582 77.94 388.956 77.78C388.329 77.62 387.796 77.3933 387.356 77.1C386.916 76.8067 386.576 76.46 386.336 76.06C386.109 75.6467 385.996 75.1933 385.996 74.7C385.996 74.2067 386.109 73.76 386.336 73.36C386.576 72.9467 386.916 72.5933 387.356 72.3C387.796 72.0067 388.329 71.78 388.956 71.62C389.582 71.46 390.289 71.38 391.076 71.38ZM391.076 76.06C391.902 76.06 392.516 75.94 392.916 75.7C393.316 75.4467 393.516 75.1133 393.516 74.7C393.516 74.2867 393.316 73.96 392.916 73.72C392.516 73.4667 391.902 73.34 391.076 73.34C390.249 73.34 389.636 73.4667 389.236 73.72C388.836 73.96 388.636 74.2867 388.636 74.7C388.636 75.1133 388.836 75.4467 389.236 75.7C389.636 75.94 390.249 76.06 391.076 76.06ZM398.136 80.12V66.62H400.816V71.78H402.936V74.1H400.816V80.12H398.136ZM390.036 78.98V82.06H401.396V84.34H387.356V78.98H390.036ZM416.005 66.44C416.752 66.44 417.452 66.5667 418.105 66.82C418.758 67.0733 419.325 67.4267 419.805 67.88C420.285 68.3333 420.665 68.88 420.945 69.52C421.225 70.1467 421.365 70.8333 421.365 71.58C421.365 72.3267 421.225 73.02 420.945 73.66C420.665 74.2867 420.285 74.8267 419.805 75.28C419.325 75.7333 418.758 76.0867 418.105 76.34C417.452 76.5933 416.752 76.72 416.005 76.72C415.258 76.72 414.558 76.5933 413.905 76.34C413.252 76.0867 412.685 75.7333 412.205 75.28C411.725 74.8267 411.345 74.2867 411.065 73.66C410.785 73.02 410.645 72.3267 410.645 71.58C410.645 70.8333 410.785 70.1467 411.065 69.52C411.345 68.88 411.725 68.3333 412.205 67.88C412.685 67.4267 413.252 67.0733 413.905 66.82C414.558 66.5667 415.258 66.44 416.005 66.44ZM416.005 74.44C416.832 74.44 417.485 74.18 417.965 73.66C418.445 73.1267 418.685 72.4333 418.685 71.58C418.685 70.7267 418.445 70.04 417.965 69.52C417.485 68.9867 416.832 68.72 416.005 68.72C415.178 68.72 414.525 68.9867 414.045 69.52C413.565 70.04 413.325 70.7267 413.325 71.58C413.325 72.4333 413.565 73.1267 414.045 73.66C414.525 74.18 415.178 74.44 416.005 74.44ZM424.025 79.76V66.62H426.705V79.76H424.025ZM415.645 78.22V82.06H427.205V84.34H412.965V78.22H415.645ZM437.952 76.86C438.832 76.86 439.632 76.9667 440.352 77.18C441.085 77.38 441.718 77.6667 442.252 78.04C442.785 78.4133 443.198 78.8667 443.492 79.4C443.785 79.92 443.932 80.5067 443.932 81.16C443.932 81.8133 443.785 82.4067 443.492 82.94C443.198 83.46 442.785 83.9067 442.252 84.28C441.718 84.6533 441.085 84.94 440.352 85.14C439.632 85.3533 438.832 85.46 437.952 85.46C437.072 85.46 436.265 85.3533 435.532 85.14C434.812 84.94 434.185 84.6533 433.652 84.28C433.118 83.9067 432.705 83.46 432.412 82.94C432.118 82.4067 431.972 81.8133 431.972 81.16C431.972 80.5067 432.118 79.92 432.412 79.4C432.705 78.8667 433.118 78.4133 433.652 78.04C434.185 77.6667 434.812 77.38 435.532 77.18C436.265 76.9667 437.072 76.86 437.952 76.86ZM429.072 76.12V73.92H435.692V70.62H438.412V73.92H446.672V76.12H429.072ZM441.752 72.98C441.845 72.6333 441.925 72.2667 441.992 71.88C442.058 71.48 442.112 71.1 442.152 70.74C442.192 70.3667 442.218 70.0333 442.232 69.74C442.258 69.4467 442.272 69.22 442.272 69.06H430.692V66.9H445.032C445.032 67.5 445.018 68.0867 444.992 68.66C444.965 69.2333 444.925 69.7867 444.872 70.32C444.818 70.84 444.752 71.3267 444.672 71.78C444.592 72.2333 444.498 72.6333 444.392 72.98H441.752ZM437.952 83.26C439.032 83.26 439.852 83.0733 440.412 82.7C440.972 82.3133 441.252 81.8 441.252 81.16C441.252 80.52 440.972 80.0133 440.412 79.64C439.852 79.2533 439.032 79.06 437.952 79.06C436.872 79.06 436.052 79.2533 435.492 79.64C434.932 80.0133 434.652 80.52 434.652 81.16C434.652 81.8 434.932 82.3133 435.492 82.7C436.052 83.0733 436.872 83.26 437.952 83.26ZM447.478 80.22C448.492 79.5533 449.372 78.7733 450.118 77.88C450.878 76.9867 451.498 76.0067 451.978 74.94C452.472 73.86 452.838 72.7 453.078 71.46C453.198 70.86 453.292 70.2467 453.358 69.62H448.678V67.34H460.138V69.62H456.098C456.018 70.4333 455.892 71.22 455.718 71.98C455.585 72.5933 455.425 73.1867 455.238 73.76C456.385 76.3067 458.212 78.2867 460.718 79.7L459.098 81.66C458.498 81.2733 457.905 80.82 457.318 80.3C456.732 79.7667 456.178 79.1933 455.658 78.58C455.138 77.9533 454.665 77.3 454.238 76.62C454.198 76.54 454.158 76.4667 454.118 76.4C453.572 77.44 452.925 78.4067 452.178 79.3C451.325 80.34 450.358 81.2667 449.278 82.08L447.478 80.22ZM462.138 84.54V66.62H464.818V84.54H462.138ZM466.845 76.2V74H484.445V76.2H466.845ZM475.725 77.06C476.605 77.06 477.405 77.16 478.125 77.36C478.858 77.56 479.492 77.8467 480.025 78.22C480.558 78.58 480.972 79.02 481.265 79.54C481.558 80.0467 481.705 80.62 481.705 81.26C481.705 81.9 481.558 82.48 481.265 83C480.972 83.5067 480.558 83.94 480.025 84.3C479.492 84.6733 478.858 84.96 478.125 85.16C477.405 85.36 476.605 85.46 475.725 85.46C474.845 85.46 474.038 85.36 473.305 85.16C472.585 84.96 471.958 84.6733 471.425 84.3C470.892 83.94 470.478 83.5067 470.185 83C469.892 82.48 469.745 81.9 469.745 81.26C469.745 80.62 469.892 80.0467 470.185 79.54C470.478 79.02 470.892 78.58 471.425 78.22C471.958 77.8467 472.585 77.56 473.305 77.36C474.038 77.16 474.845 77.06 475.725 77.06ZM475.725 83.3C476.805 83.3 477.625 83.1133 478.185 82.74C478.745 82.3667 479.025 81.8733 479.025 81.26C479.025 80.6467 478.745 80.1533 478.185 79.78C477.625 79.4067 476.805 79.22 475.725 79.22C474.645 79.22 473.825 79.4067 473.265 79.78C472.705 80.1533 472.425 80.6467 472.425 81.26C472.425 81.8733 472.705 82.3667 473.265 82.74C473.825 83.1133 474.645 83.3 475.725 83.3ZM482.725 72.7H468.765V66.7H471.445V70.48H482.725V72.7ZM495.014 70.44C495.014 69.7733 495.168 69.1667 495.474 68.62C495.794 68.0733 496.228 67.6067 496.774 67.22C497.321 66.82 497.961 66.5133 498.694 66.3C499.441 66.0867 500.241 65.98 501.094 65.98C501.948 65.98 502.741 66.0867 503.474 66.3C504.221 66.5133 504.868 66.82 505.414 67.22C505.961 67.6067 506.388 68.0733 506.694 68.62C507.014 69.1667 507.174 69.7733 507.174 70.44C507.174 71.1067 507.014 71.72 506.694 72.28C506.388 72.8267 505.961 73.2933 505.414 73.68C504.868 74.0667 504.221 74.3667 503.474 74.58C502.741 74.7933 501.948 74.9 501.094 74.9C500.241 74.9 499.441 74.7933 498.694 74.58C497.961 74.3667 497.321 74.0667 496.774 73.68C496.228 73.2933 495.794 72.8267 495.474 72.28C495.168 71.72 495.014 71.1067 495.014 70.44ZM497.954 80.9V78.06H492.294V75.82H509.894V78.06H505.834V80.9H503.154V78.06H500.634V80.9H497.954ZM496.974 79.02V82.06H508.674V84.34H494.294V79.02H496.974ZM501.094 68.18C500.628 68.18 500.188 68.24 499.774 68.36C499.361 68.4667 499.001 68.62 498.694 68.82C498.388 69.02 498.141 69.26 497.954 69.54C497.781 69.8067 497.694 70.1067 497.694 70.44C497.694 70.7733 497.781 71.08 497.954 71.36C498.141 71.6267 498.388 71.86 498.694 72.06C499.001 72.26 499.361 72.42 499.774 72.54C500.188 72.6467 500.628 72.7 501.094 72.7C501.561 72.7 502.001 72.6467 502.414 72.54C502.828 72.42 503.188 72.26 503.494 72.06C503.801 71.86 504.041 71.6267 504.214 71.36C504.401 71.08 504.494 70.7733 504.494 70.44C504.494 70.1067 504.401 69.8067 504.214 69.54C504.041 69.26 503.801 69.02 503.494 68.82C503.188 68.62 502.828 68.4667 502.414 68.36C502.001 68.24 501.561 68.18 501.094 68.18ZM512.381 81.7V73.1H519.101V69.48H512.381V67.2H521.781V75.36H515.061V79.22L524.161 78.84V81.08L512.381 81.7ZM524.961 84.54V66.62H527.641V84.54H524.961ZM540.43 69.36V72.98L549.67 72.68V74.84L537.75 75.38V67.2H547.67V69.36H540.43ZM550.47 75.64V66.62H553.15V75.64H550.47ZM539.39 84.42V79.28H550.43V78.4H539.39V76.24H553.11V81.32H542.07V82.24H553.51V84.42H539.39ZM556.597 81.74V73.14H560.957V69.52H556.577V67.24H563.597V75.4H559.237V79.26L565.117 79.02V81.26L556.597 81.74ZM566.017 75.24H564.237V72.92H566.017V66.82H568.617V84.08H566.017V75.24ZM569.777 84.52V66.62H572.417V84.52H569.777ZM587.184 84.54V66.62H589.864V72.6H592.404V74.92H589.864V84.54H587.184ZM575.204 81.18V67.34H584.904V81.18H575.204ZM577.884 78.9H582.224V69.62H577.884V78.9ZM610.093 76.22C610.933 76.22 611.706 76.3333 612.413 76.56C613.12 76.7733 613.726 77.0733 614.233 77.46C614.753 77.8467 615.153 78.3133 615.433 78.86C615.726 79.3933 615.873 79.9867 615.873 80.64C615.873 81.2933 615.726 81.8933 615.433 82.44C615.153 82.9733 614.753 83.4333 614.233 83.82C613.726 84.22 613.12 84.5267 612.413 84.74C611.706 84.9533 610.933 85.06 610.093 85.06C609.253 85.06 608.48 84.9533 607.773 84.74C607.066 84.5267 606.453 84.22 605.933 83.82C605.426 83.4333 605.026 82.9733 604.733 82.44C604.453 81.8933 604.313 81.2933 604.313 80.64C604.313 79.9867 604.453 79.3933 604.733 78.86C605.026 78.3133 605.426 77.8467 605.933 77.46C606.453 77.0733 607.066 76.7733 607.773 76.56C608.48 76.3333 609.253 76.22 610.093 76.22ZM610.753 75.56C610.18 75.3867 609.606 75.1533 609.033 74.86C608.46 74.5533 607.913 74.1933 607.393 73.78C606.873 73.3533 606.393 72.88 605.953 72.36L605.933 72.32C605.8 72.5067 605.666 72.68 605.533 72.84C604.88 73.64 604.14 74.3267 603.313 74.9C602.5 75.4733 601.68 75.9133 600.853 76.22L599.213 74.26C600.96 73.66 602.346 72.74 603.373 71.5C604.413 70.26 604.98 68.7267 605.073 66.9H607.793C607.766 68.06 607.546 69.14 607.133 70.14C607.12 70.18 607.106 70.2133 607.093 70.24L607.453 70.72C607.853 71.1867 608.3 71.5933 608.793 71.94C609.3 72.2867 609.84 72.5867 610.413 72.84C610.986 73.0933 611.586 73.3067 612.213 73.48L610.753 75.56ZM613.253 76.4V66.62H615.933V70.08H618.053V72.36H615.933V76.4H613.253ZM610.093 82.86C611.093 82.86 611.86 82.66 612.393 82.26C612.926 81.8467 613.193 81.3067 613.193 80.64C613.193 79.9733 612.926 79.44 612.393 79.04C611.86 78.6267 611.093 78.42 610.093 78.42C609.093 78.42 608.326 78.6267 607.793 79.04C607.26 79.44 606.993 79.9733 606.993 80.64C606.993 81.3067 607.26 81.8467 607.793 82.26C608.326 82.66 609.093 82.86 610.093 82.86ZM618.52 77.8V75.84L623.64 75.78V74.9C623.453 74.8733 623.266 74.84 623.08 74.8C622.506 74.68 622 74.5067 621.56 74.28C621.12 74.04 620.773 73.74 620.52 73.38C620.266 73.02 620.14 72.6 620.14 72.12C620.14 71.76 620.233 71.4467 620.42 71.18C620.62 70.9133 620.873 70.7133 621.18 70.58H618.86V68.66H631.02V70.58H628.7C629.006 70.7133 629.253 70.9133 629.44 71.18C629.64 71.4467 629.74 71.76 629.74 72.12C629.74 72.6 629.613 73.02 629.36 73.38C629.106 73.74 628.76 74.04 628.32 74.28C627.88 74.5067 627.366 74.68 626.78 74.8C626.646 74.8267 626.506 74.8533 626.36 74.88V75.74L631.32 75.68V77.6L618.52 77.8ZM628.46 78.18C629.313 78.18 630.1 78.2667 630.82 78.44C631.54 78.6133 632.16 78.86 632.68 79.18C633.2 79.5 633.606 79.8867 633.9 80.34C634.193 80.78 634.34 81.2733 634.34 81.82C634.34 82.3667 634.193 82.86 633.9 83.3C633.606 83.7533 633.2 84.14 632.68 84.46C632.16 84.78 631.54 85.0267 630.82 85.2C630.1 85.3733 629.313 85.46 628.46 85.46C627.593 85.46 626.8 85.3733 626.08 85.2C625.36 85.0267 624.74 84.78 624.22 84.46C623.7 84.14 623.293 83.7533 623 83.3C622.72 82.86 622.58 82.3667 622.58 81.82C622.58 81.2733 622.72 80.78 623 80.34C623.293 79.8867 623.7 79.5 624.22 79.18C624.74 78.86 625.36 78.6133 626.08 78.44C626.8 78.2667 627.593 78.18 628.46 78.18ZM634.72 71.22H636.72V73.54H634.72V78.42H632.04V66.62H634.72V71.22ZM628.46 83.42C629.513 83.42 630.306 83.2733 630.84 82.98C631.386 82.6733 631.66 82.2867 631.66 81.82C631.66 81.3533 631.386 80.9733 630.84 80.68C630.306 80.3733 629.513 80.22 628.46 80.22C627.406 80.22 626.606 80.3733 626.06 80.68C625.526 80.9733 625.26 81.3533 625.26 81.82C625.26 82.2867 625.526 82.6733 626.06 82.98C626.606 83.2733 627.406 83.42 628.46 83.42ZM628.4 66.22V68.14H621.48V66.22H628.4ZM624.94 70.58C624.26 70.58 623.733 70.6933 623.36 70.92C623 71.1333 622.82 71.4333 622.82 71.82C622.82 72.2067 623 72.5133 623.36 72.74C623.733 72.9533 624.26 73.06 624.94 73.06C625.62 73.06 626.14 72.9533 626.5 72.74C626.873 72.5133 627.06 72.2067 627.06 71.82C627.06 71.4333 626.873 71.1333 626.5 70.92C626.14 70.6933 625.62 70.58 624.94 70.58ZM642.346 67.54C643.093 67.54 643.773 67.6933 644.386 68C645.013 68.2933 645.546 68.7067 645.986 69.24C646.426 69.7733 646.766 70.4067 647.006 71.14C647.126 71.54 647.22 71.9533 647.286 72.38H648.626V66.82H651.226V84.08H648.626V74.7H647.286C647.22 75.14 647.126 75.5533 647.006 75.94C646.766 76.6733 646.426 77.3067 645.986 77.84C645.546 78.3733 645.013 78.7933 644.386 79.1C643.773 79.3933 643.093 79.54 642.346 79.54C641.6 79.54 640.913 79.3933 640.286 79.1C639.673 78.7933 639.146 78.3733 638.706 77.84C638.266 77.3067 637.926 76.6733 637.686 75.94C637.446 75.2067 637.326 74.4067 637.326 73.54C637.326 72.6733 637.446 71.8733 637.686 71.14C637.926 70.4067 638.266 69.7733 638.706 69.24C639.146 68.7067 639.673 68.2933 640.286 68C640.913 67.6933 641.6 67.54 642.346 67.54ZM652.086 84.52V66.62H654.726V84.52H652.086ZM642.346 77.26C643.12 77.26 643.706 76.9267 644.106 76.26C644.52 75.58 644.726 74.6733 644.726 73.54C644.726 72.4067 644.52 71.5067 644.106 70.84C643.706 70.16 643.12 69.82 642.346 69.82C641.573 69.82 640.98 70.16 640.566 70.84C640.166 71.5067 639.966 72.4067 639.966 73.54C639.966 74.6733 640.166 75.58 640.566 76.26C640.98 76.9267 641.573 77.26 642.346 77.26ZM673.176 66.82H675.776V72.92H677.336V66.62H679.976V84.52H677.336V75.24H675.776V84.08H673.176V66.82ZM671.636 67.46V69.74H666.796V78.9L672.376 78.66V80.9L664.156 81.38V67.46H671.636ZM692.662 66.82H695.262V73.52H696.622V66.62H699.262V84.52H696.622V75.84H695.262V84.08H692.662V66.82ZM687.142 82.14C686.462 82.14 685.842 82.02 685.282 81.78C684.736 81.54 684.269 81.2067 683.882 80.78C683.509 80.34 683.216 79.8333 683.002 79.26C682.802 78.6733 682.702 78.04 682.702 77.36C682.702 76.68 682.802 76.0533 683.002 75.48C683.216 74.8933 683.509 74.3867 683.882 73.96C684.269 73.52 684.736 73.18 685.282 72.94C685.842 72.7 686.462 72.58 687.142 72.58C687.822 72.58 688.436 72.7 688.982 72.94C689.542 73.18 690.009 73.52 690.382 73.96C690.769 74.3867 691.062 74.8933 691.262 75.48C691.476 76.0533 691.582 76.68 691.582 77.36C691.582 78.04 691.476 78.6733 691.262 79.26C691.062 79.8333 690.769 80.34 690.382 80.78C690.009 81.2067 689.542 81.54 688.982 81.78C688.436 82.02 687.822 82.14 687.142 82.14ZM682.042 72.12V69.84H692.042V72.12H682.042ZM687.142 79.9C687.742 79.9 688.196 79.6733 688.502 79.22C688.822 78.7533 688.982 78.1333 688.982 77.36C688.982 76.5867 688.822 75.9733 688.502 75.52C688.196 75.0533 687.742 74.82 687.142 74.82C686.542 74.82 686.082 75.0533 685.762 75.52C685.456 75.9733 685.302 76.5867 685.302 77.36C685.302 78.1333 685.456 78.7533 685.762 79.22C686.082 79.6733 686.542 79.9 687.142 79.9ZM684.342 68.94V66.66H689.942V68.94H684.342ZM157.855 109.2V107.2H164.855V109.2H157.855ZM155.255 111.76V109.76H167.455V111.76H155.255ZM161.515 112.14C162.302 112.14 163.008 112.22 163.635 112.38C164.262 112.527 164.795 112.74 165.235 113.02C165.675 113.287 166.008 113.613 166.235 114C166.475 114.387 166.595 114.813 166.595 115.28C166.595 115.747 166.475 116.173 166.235 116.56C166.008 116.947 165.675 117.28 165.235 117.56C164.795 117.827 164.262 118.04 163.635 118.2C163.008 118.347 162.302 118.42 161.515 118.42C160.728 118.42 160.022 118.347 159.395 118.2C158.768 118.04 158.235 117.827 157.795 117.56C157.355 117.28 157.015 116.947 156.775 116.56C156.548 116.173 156.435 115.747 156.435 115.28C156.435 114.813 156.548 114.387 156.775 114C157.015 113.613 157.355 113.287 157.795 113.02C158.235 112.74 158.768 112.527 159.395 112.38C160.022 112.22 160.728 112.14 161.515 112.14ZM168.575 118.48V107.62H171.255V112.08H173.375V114.4H171.255V118.48H168.575ZM171.215 119.28V125.42H157.695V119.28H171.215ZM160.375 123.22H168.535V121.44H160.375V123.22ZM161.515 116.5C162.342 116.5 162.955 116.393 163.355 116.18C163.755 115.953 163.955 115.653 163.955 115.28C163.955 114.907 163.755 114.613 163.355 114.4C162.955 114.173 162.342 114.06 161.515 114.06C160.688 114.06 160.075 114.173 159.675 114.4C159.275 114.613 159.075 114.907 159.075 115.28C159.075 115.653 159.275 115.953 159.675 116.18C160.075 116.393 160.688 116.5 161.515 116.5ZM185.422 116.24H183.522C183.482 116.413 183.442 116.58 183.402 116.74C182.829 119.18 181.855 121.36 180.482 123.28L178.402 122.02C179.015 121.193 179.522 120.32 179.922 119.4C180.335 118.48 180.662 117.533 180.902 116.56C181.155 115.587 181.335 114.6 181.442 113.6C181.562 112.6 181.635 111.607 181.662 110.62H179.962V108.34H184.222C184.249 110.34 184.149 112.2 183.922 113.92H185.422V107.82H187.982V125.08H185.422V116.24ZM188.762 125.52V107.62H191.362V125.52H188.762ZM174.942 108.34H179.482C179.482 109.807 179.409 111.18 179.262 112.46C179.129 113.727 178.915 114.92 178.622 116.04C178.342 117.16 177.969 118.213 177.502 119.2C177.035 120.187 176.475 121.12 175.822 122L173.782 120.78C174.355 120.02 174.829 119.24 175.202 118.44C175.589 117.64 175.902 116.82 176.142 115.98C176.382 115.127 176.562 114.253 176.682 113.36C176.802 112.467 176.882 111.553 176.922 110.62H174.942V108.34ZM199.511 124.22V121.94H205.691V115.2H208.411V121.94H217.111V124.22H199.511ZM211.771 120.1C211.944 119.3 212.091 118.46 212.211 117.58C212.344 116.687 212.451 115.82 212.531 114.98C212.611 114.127 212.664 113.333 212.691 112.6C212.731 111.853 212.751 111.22 212.751 110.7H201.131V108.42H215.471C215.471 110.607 215.378 112.693 215.191 114.68C215.018 116.653 214.744 118.46 214.371 120.1H211.771ZM232.238 120.76V107.62H234.918V120.76H232.238ZM219.418 117.54V108.2H229.438V117.54H219.418ZM222.098 115.3H226.758V110.44H222.098V115.3ZM223.858 119.22V123.06H235.418V125.34H221.178V119.22H223.858ZM240.245 109.86V107.58H246.445V109.86H240.245ZM237.565 113.08V110.8H249.045V113.08H237.565ZM243.305 113.58C244.105 113.58 244.818 113.707 245.445 113.96C246.071 114.2 246.598 114.54 247.025 114.98C247.465 115.407 247.798 115.913 248.025 116.5C248.265 117.073 248.385 117.693 248.385 118.36C248.385 119.027 248.265 119.653 248.025 120.24C247.798 120.813 247.465 121.32 247.025 121.76C246.598 122.187 246.071 122.527 245.445 122.78C244.818 123.02 244.105 123.14 243.305 123.14C242.505 123.14 241.791 123.02 241.165 122.78C240.538 122.527 240.005 122.187 239.565 121.76C239.138 121.32 238.805 120.813 238.565 120.24C238.338 119.653 238.225 119.027 238.225 118.36C238.225 117.693 238.338 117.073 238.565 116.5C238.805 115.913 239.138 115.407 239.565 114.98C240.005 114.54 240.538 114.2 241.165 113.96C241.791 113.707 242.505 113.58 243.305 113.58ZM243.305 120.9C244.118 120.9 244.718 120.667 245.105 120.2C245.505 119.72 245.705 119.107 245.705 118.36C245.705 117.613 245.505 117.007 245.105 116.54C244.718 116.06 244.118 115.82 243.305 115.82C242.491 115.82 241.885 116.06 241.485 116.54C241.098 117.007 240.905 117.613 240.905 118.36C240.905 119.107 241.098 119.72 241.485 120.2C241.885 120.667 242.491 120.9 243.305 120.9ZM250.265 125.54V107.62H252.945V114.8H255.485V117.12H252.945V125.54H250.265ZM256.171 124.22V121.94H262.351V115.2H265.071V121.94H273.771V124.22H256.171ZM268.431 120.1C268.605 119.3 268.751 118.46 268.871 117.58C269.005 116.687 269.111 115.82 269.191 114.98C269.271 114.127 269.325 113.333 269.351 112.6C269.391 111.853 269.411 111.22 269.411 110.7H257.791V108.42H272.131C272.131 110.607 272.038 112.693 271.851 114.68C271.678 116.653 271.405 118.46 271.031 120.1H268.431ZM281.62 118.66V116.42H289.16V114.42H283.54V107.7H286.22V112.16H297.5V114.42H291.88V116.42H299.22V118.66H281.62ZM286.3 119.62V123.06H298V125.34H283.62V119.62H286.3ZM314.607 125.54V107.62H317.287V125.54H314.607ZM300.807 123.02V120.74L314.007 120.58V122.82L300.807 123.02ZM307.267 108.02C308.094 108.02 308.847 108.167 309.527 108.46C310.207 108.753 310.794 109.14 311.287 109.62C311.781 110.1 312.161 110.66 312.427 111.3C312.694 111.927 312.827 112.58 312.827 113.26C312.827 113.94 312.694 114.6 312.427 115.24C312.161 115.867 311.781 116.42 311.287 116.9C310.794 117.38 310.207 117.767 309.527 118.06C308.847 118.353 308.094 118.5 307.267 118.5C306.441 118.5 305.687 118.353 305.007 118.06C304.327 117.767 303.741 117.38 303.247 116.9C302.754 116.42 302.374 115.867 302.107 115.24C301.841 114.6 301.707 113.94 301.707 113.26C301.707 112.58 301.841 111.927 302.107 111.3C302.374 110.66 302.754 110.1 303.247 109.62C303.741 109.14 304.327 108.753 305.007 108.46C305.687 108.167 306.441 108.02 307.267 108.02ZM307.267 116.22C307.707 116.22 308.101 116.14 308.447 115.98C308.807 115.807 309.114 115.587 309.367 115.32C309.621 115.04 309.814 114.727 309.947 114.38C310.081 114.02 310.147 113.647 310.147 113.26C310.147 112.887 310.081 112.52 309.947 112.16C309.814 111.8 309.621 111.487 309.367 111.22C309.114 110.94 308.807 110.72 308.447 110.56C308.101 110.387 307.707 110.3 307.267 110.3C306.827 110.3 306.427 110.387 306.067 110.56C305.721 110.72 305.421 110.94 305.167 111.22C304.914 111.487 304.721 111.8 304.587 112.16C304.454 112.52 304.387 112.887 304.387 113.26C304.387 113.647 304.454 114.02 304.587 114.38C304.721 114.727 304.914 115.04 305.167 115.32C305.421 115.587 305.721 115.807 306.067 115.98C306.427 116.14 306.827 116.22 307.267 116.22ZM322.354 109.86V107.58H328.554V109.86H322.354ZM319.674 113.08V110.8H331.154V113.08H319.674ZM325.414 113.58C326.214 113.58 326.927 113.707 327.554 113.96C328.181 114.2 328.707 114.54 329.134 114.98C329.574 115.407 329.907 115.913 330.134 116.5C330.374 117.073 330.494 117.693 330.494 118.36C330.494 119.027 330.374 119.653 330.134 120.24C329.907 120.813 329.574 121.32 329.134 121.76C328.707 122.187 328.181 122.527 327.554 122.78C326.927 123.02 326.214 123.14 325.414 123.14C324.614 123.14 323.901 123.02 323.274 122.78C322.647 122.527 322.114 122.187 321.674 121.76C321.247 121.32 320.914 120.813 320.674 120.24C320.447 119.653 320.334 119.027 320.334 118.36C320.334 117.693 320.447 117.073 320.674 116.5C320.914 115.913 321.247 115.407 321.674 114.98C322.114 114.54 322.647 114.2 323.274 113.96C323.901 113.707 324.614 113.58 325.414 113.58ZM325.414 120.9C326.227 120.9 326.827 120.667 327.214 120.2C327.614 119.72 327.814 119.107 327.814 118.36C327.814 117.613 327.614 117.007 327.214 116.54C326.827 116.06 326.227 115.82 325.414 115.82C324.601 115.82 323.994 116.06 323.594 116.54C323.207 117.007 323.014 117.613 323.014 118.36C323.014 119.107 323.207 119.72 323.594 120.2C323.994 120.667 324.601 120.9 325.414 120.9ZM332.374 125.54V107.62H335.054V114.8H337.594V117.12H335.054V125.54H332.374ZM354.161 114.5H340.201V107.7H342.881V112.24H354.161V114.5ZM338.281 118.62V116.38H355.881V118.62H338.281ZM342.961 119.62V123.06H354.661V125.34H340.281V119.62H342.961ZM376.91 125.54V107.62H379.59V114.4H381.81V116.72H379.59V125.54H376.91ZM371.79 119.1C371.91 118.34 372.01 117.567 372.09 116.78C372.17 115.98 372.237 115.207 372.29 114.46C372.343 113.713 372.383 113.02 372.41 112.38C372.437 111.727 372.45 111.167 372.45 110.7H364.23V108.42H375.17C375.17 110.393 375.103 112.287 374.97 114.1C374.85 115.9 374.657 117.567 374.39 119.1H371.79ZM363.51 123.02V120.74L367.17 120.7V114.92H369.89V120.66L376.31 120.58V122.82L363.51 123.02ZM393.217 117.22C394.057 117.22 394.83 117.333 395.537 117.56C396.243 117.773 396.85 118.073 397.357 118.46C397.877 118.847 398.277 119.313 398.557 119.86C398.85 120.393 398.997 120.987 398.997 121.64C398.997 122.293 398.85 122.893 398.557 123.44C398.277 123.973 397.877 124.433 397.357 124.82C396.85 125.22 396.243 125.527 395.537 125.74C394.83 125.953 394.057 126.06 393.217 126.06C392.377 126.06 391.603 125.953 390.897 125.74C390.19 125.527 389.577 125.22 389.057 124.82C388.55 124.433 388.15 123.973 387.857 123.44C387.577 122.893 387.437 122.293 387.437 121.64C387.437 120.987 387.577 120.393 387.857 119.86C388.15 119.313 388.55 118.847 389.057 118.46C389.577 118.073 390.19 117.773 390.897 117.56C391.603 117.333 392.377 117.22 393.217 117.22ZM393.837 116.56C392.623 116.333 391.483 115.88 390.417 115.2C389.83 114.813 389.303 114.373 388.837 113.88L388.477 114.28C388.023 114.76 387.53 115.2 386.997 115.6C386.477 115.987 385.937 116.327 385.377 116.62C384.817 116.913 384.27 117.147 383.737 117.32L382.177 115.32C383.923 114.813 385.323 114 386.377 112.88C387.07 112.147 387.563 111.307 387.857 110.36H383.317V108.2H394.497V110.36H390.657C390.617 110.52 390.57 110.68 390.517 110.84C390.397 111.227 390.257 111.593 390.097 111.94C390.203 112.087 390.317 112.22 390.437 112.34C390.823 112.713 391.257 113.04 391.737 113.32C392.23 113.587 392.763 113.813 393.337 114C393.923 114.173 394.55 114.32 395.217 114.44L393.837 116.56ZM393.537 111.16H396.657V107.62H399.337V117.4H396.657V113.32H393.537V111.16ZM393.217 123.86C394.217 123.86 394.983 123.66 395.517 123.26C396.05 122.847 396.317 122.307 396.317 121.64C396.317 120.973 396.05 120.44 395.517 120.04C394.983 119.627 394.217 119.42 393.217 119.42C392.217 119.42 391.45 119.627 390.917 120.04C390.383 120.44 390.117 120.973 390.117 121.64C390.117 122.307 390.383 122.847 390.917 123.26C391.45 123.66 392.217 123.86 393.217 123.86ZM404.223 110.72C404.223 110.133 404.377 109.607 404.683 109.14C405.003 108.66 405.437 108.253 405.983 107.92C406.53 107.573 407.17 107.313 407.903 107.14C408.65 106.953 409.45 106.86 410.303 106.86C411.157 106.86 411.95 106.953 412.683 107.14C413.43 107.313 414.077 107.573 414.623 107.92C415.17 108.253 415.597 108.66 415.903 109.14C416.223 109.607 416.383 110.133 416.383 110.72C416.383 111.307 416.223 111.84 415.903 112.32C415.597 112.787 415.17 113.193 414.623 113.54C414.077 113.873 413.43 114.133 412.683 114.32C411.95 114.493 411.157 114.58 410.303 114.58C409.45 114.58 408.65 114.493 407.903 114.32C407.17 114.133 406.53 113.873 405.983 113.54C405.437 113.193 405.003 112.787 404.683 112.32C404.377 111.84 404.223 111.307 404.223 110.72ZM410.303 108.94C409.837 108.94 409.397 108.987 408.983 109.08C408.57 109.16 408.21 109.28 407.903 109.44C407.597 109.587 407.35 109.773 407.163 110C406.99 110.213 406.903 110.453 406.903 110.72C406.903 110.987 406.99 111.233 407.163 111.46C407.35 111.673 407.597 111.86 407.903 112.02C408.21 112.167 408.57 112.287 408.983 112.38C409.397 112.46 409.837 112.5 410.303 112.5C410.77 112.5 411.21 112.46 411.623 112.38C412.037 112.287 412.397 112.167 412.703 112.02C413.01 111.86 413.25 111.673 413.423 111.46C413.61 111.233 413.703 110.987 413.703 110.72C413.703 110.453 413.61 110.213 413.423 110C413.25 109.773 413.01 109.587 412.703 109.44C412.397 109.28 412.037 109.16 411.623 109.08C411.21 108.987 410.77 108.94 410.303 108.94ZM401.503 117.32V115.24H419.103V117.32H401.503ZM403.303 125.42V120.9H414.583V120.18H403.303V118.22H417.263V122.7H405.983V123.44H417.683V125.42H403.303ZM426.953 118.36V116.32H434.493V115.26H428.853V107.82H442.633V109.86H431.533V110.58H442.433V112.46H431.533V113.2H442.933V115.26H437.213V116.32H444.553V118.36H426.953ZM435.833 118.86C436.713 118.86 437.513 118.953 438.233 119.14C438.966 119.313 439.599 119.567 440.133 119.9C440.666 120.233 441.079 120.633 441.373 121.1C441.666 121.567 441.813 122.087 441.813 122.66C441.813 123.233 441.666 123.753 441.373 124.22C441.079 124.687 440.666 125.087 440.133 125.42C439.599 125.753 438.966 126.007 438.233 126.18C437.513 126.367 436.713 126.46 435.833 126.46C434.953 126.46 434.146 126.367 433.413 126.18C432.693 126.007 432.066 125.753 431.533 125.42C430.999 125.087 430.586 124.687 430.293 124.22C429.999 123.753 429.853 123.233 429.853 122.66C429.853 122.087 429.999 121.567 430.293 121.1C430.586 120.633 430.999 120.233 431.533 119.9C432.066 119.567 432.693 119.313 433.413 119.14C434.146 118.953 434.953 118.86 435.833 118.86ZM435.833 124.38C436.913 124.38 437.733 124.22 438.293 123.9C438.853 123.58 439.133 123.167 439.133 122.66C439.133 122.153 438.853 121.74 438.293 121.42C437.733 121.1 436.913 120.94 435.833 120.94C434.753 120.94 433.933 121.1 433.373 121.42C432.813 121.74 432.533 122.153 432.533 122.66C432.533 123.167 432.813 123.58 433.373 123.9C433.933 124.22 434.753 124.38 435.833 124.38ZM456.539 107.82H459.139V114.52H460.499V107.62H463.139V125.52H460.499V116.84H459.139V125.08H456.539V107.82ZM451.019 123.14C450.339 123.14 449.719 123.02 449.159 122.78C448.613 122.54 448.146 122.207 447.759 121.78C447.386 121.34 447.093 120.833 446.879 120.26C446.679 119.673 446.579 119.04 446.579 118.36C446.579 117.68 446.679 117.053 446.879 116.48C447.093 115.893 447.386 115.387 447.759 114.96C448.146 114.52 448.613 114.18 449.159 113.94C449.719 113.7 450.339 113.58 451.019 113.58C451.699 113.58 452.313 113.7 452.859 113.94C453.419 114.18 453.886 114.52 454.259 114.96C454.646 115.387 454.939 115.893 455.139 116.48C455.353 117.053 455.459 117.68 455.459 118.36C455.459 119.04 455.353 119.673 455.139 120.26C454.939 120.833 454.646 121.34 454.259 121.78C453.886 122.207 453.419 122.54 452.859 122.78C452.313 123.02 451.699 123.14 451.019 123.14ZM445.919 113.12V110.84H455.919V113.12H445.919ZM451.019 120.9C451.619 120.9 452.073 120.673 452.379 120.22C452.699 119.753 452.859 119.133 452.859 118.36C452.859 117.587 452.699 116.973 452.379 116.52C452.073 116.053 451.619 115.82 451.019 115.82C450.419 115.82 449.959 116.053 449.639 116.52C449.333 116.973 449.179 117.587 449.179 118.36C449.179 119.133 449.333 119.753 449.639 120.22C449.959 120.673 450.419 120.9 451.019 120.9ZM448.219 109.94V107.66H453.819V109.94H448.219ZM473.208 115.02V107.9H486.968V115.02H473.208ZM478.928 121.9V118.78H471.288V116.54H488.888V118.78H481.648V121.9H478.928ZM475.968 119.82V123.06H487.668V125.34H473.288V119.82H475.968ZM475.888 112.78H484.288V110.14H475.888V112.78ZM498.735 122.58C497.655 121.58 496.722 120.44 495.935 119.16C495.642 118.693 495.375 118.213 495.135 117.72C494.668 118.72 494.142 119.64 493.555 120.48C492.902 121.427 492.202 122.28 491.455 123.04L489.515 121.46C490.222 120.807 490.868 120.047 491.455 119.18C492.055 118.313 492.568 117.353 492.995 116.3C493.422 115.247 493.755 114.113 493.995 112.9C494.142 112.193 494.248 111.46 494.315 110.7H490.695V108.42H499.955V110.7H496.975C496.882 111.687 496.728 112.627 496.515 113.52C496.422 113.947 496.315 114.367 496.195 114.78C496.595 115.847 497.082 116.82 497.655 117.7C498.415 118.82 499.348 119.847 500.455 120.78L498.735 122.58ZM498.595 113.54H501.175V107.82H503.775V125.08H501.175V115.82H498.595V113.54ZM504.835 125.52V107.62H507.475V125.52H504.835ZM525.864 117.22C526.704 117.22 527.478 117.333 528.184 117.56C528.891 117.773 529.498 118.073 530.004 118.46C530.524 118.847 530.924 119.313 531.204 119.86C531.498 120.393 531.644 120.987 531.644 121.64C531.644 122.293 531.498 122.893 531.204 123.44C530.924 123.973 530.524 124.433 530.004 124.82C529.498 125.22 528.891 125.527 528.184 125.74C527.478 125.953 526.704 126.06 525.864 126.06C525.024 126.06 524.251 125.953 523.544 125.74C522.838 125.527 522.224 125.22 521.704 124.82C521.198 124.433 520.798 123.973 520.504 123.44C520.224 122.893 520.084 122.293 520.084 121.64C520.084 120.987 520.224 120.393 520.504 119.86C520.798 119.313 521.198 118.847 521.704 118.46C522.224 118.073 522.838 117.773 523.544 117.56C524.251 117.333 525.024 117.22 525.864 117.22ZM526.524 116.56C525.951 116.387 525.378 116.153 524.804 115.86C524.231 115.553 523.684 115.193 523.164 114.78C522.644 114.353 522.164 113.88 521.724 113.36L521.704 113.32C521.571 113.507 521.438 113.68 521.304 113.84C520.651 114.64 519.911 115.327 519.084 115.9C518.271 116.473 517.451 116.913 516.624 117.22L514.984 115.26C516.731 114.66 518.118 113.74 519.144 112.5C520.184 111.26 520.751 109.727 520.844 107.9H523.564C523.538 109.06 523.318 110.14 522.904 111.14C522.891 111.18 522.878 111.213 522.864 111.24L523.224 111.72C523.624 112.187 524.071 112.593 524.564 112.94C525.071 113.287 525.611 113.587 526.184 113.84C526.758 114.093 527.358 114.307 527.984 114.48L526.524 116.56ZM529.024 117.4V107.62H531.704V111.08H533.824V113.36H531.704V117.4H529.024ZM525.864 123.86C526.864 123.86 527.631 123.66 528.164 123.26C528.698 122.847 528.964 122.307 528.964 121.64C528.964 120.973 528.698 120.44 528.164 120.04C527.631 119.627 526.864 119.42 525.864 119.42C524.864 119.42 524.098 119.627 523.564 120.04C523.031 120.44 522.764 120.973 522.764 121.64C522.764 122.307 523.031 122.847 523.564 123.26C524.098 123.66 524.864 123.86 525.864 123.86ZM534.291 118.8V116.84L539.411 116.78V115.9C539.224 115.873 539.038 115.84 538.851 115.8C538.278 115.68 537.771 115.507 537.331 115.28C536.891 115.04 536.544 114.74 536.291 114.38C536.038 114.02 535.911 113.6 535.911 113.12C535.911 112.76 536.004 112.447 536.191 112.18C536.391 111.913 536.644 111.713 536.951 111.58H534.631V109.66H546.791V111.58H544.471C544.778 111.713 545.024 111.913 545.211 112.18C545.411 112.447 545.511 112.76 545.511 113.12C545.511 113.6 545.384 114.02 545.131 114.38C544.878 114.74 544.531 115.04 544.091 115.28C543.651 115.507 543.138 115.68 542.551 115.8C542.418 115.827 542.278 115.853 542.131 115.88V116.74L547.091 116.68V118.6L534.291 118.8ZM544.231 119.18C545.084 119.18 545.871 119.267 546.591 119.44C547.311 119.613 547.931 119.86 548.451 120.18C548.971 120.5 549.378 120.887 549.671 121.34C549.964 121.78 550.111 122.273 550.111 122.82C550.111 123.367 549.964 123.86 549.671 124.3C549.378 124.753 548.971 125.14 548.451 125.46C547.931 125.78 547.311 126.027 546.591 126.2C545.871 126.373 545.084 126.46 544.231 126.46C543.364 126.46 542.571 126.373 541.851 126.2C541.131 126.027 540.511 125.78 539.991 125.46C539.471 125.14 539.064 124.753 538.771 124.3C538.491 123.86 538.351 123.367 538.351 122.82C538.351 122.273 538.491 121.78 538.771 121.34C539.064 120.887 539.471 120.5 539.991 120.18C540.511 119.86 541.131 119.613 541.851 119.44C542.571 119.267 543.364 119.18 544.231 119.18ZM550.491 112.22H552.491V114.54H550.491V119.42H547.811V107.62H550.491V112.22ZM544.231 124.42C545.284 124.42 546.078 124.273 546.611 123.98C547.158 123.673 547.431 123.287 547.431 122.82C547.431 122.353 547.158 121.973 546.611 121.68C546.078 121.373 545.284 121.22 544.231 121.22C543.178 121.22 542.378 121.373 541.831 121.68C541.298 121.973 541.031 122.353 541.031 122.82C541.031 123.287 541.298 123.673 541.831 123.98C542.378 124.273 543.178 124.42 544.231 124.42ZM544.171 107.22V109.14H537.251V107.22H544.171ZM540.711 111.58C540.031 111.58 539.504 111.693 539.131 111.92C538.771 112.133 538.591 112.433 538.591 112.82C538.591 113.207 538.771 113.513 539.131 113.74C539.504 113.953 540.031 114.06 540.711 114.06C541.391 114.06 541.911 113.953 542.271 113.74C542.644 113.513 542.831 113.207 542.831 112.82C542.831 112.433 542.644 112.133 542.271 111.92C541.911 111.693 541.391 111.58 540.711 111.58ZM556.118 110.72C556.118 110.133 556.271 109.607 556.578 109.14C556.898 108.66 557.331 108.253 557.878 107.92C558.424 107.573 559.064 107.313 559.798 107.14C560.544 106.953 561.344 106.86 562.198 106.86C563.051 106.86 563.844 106.953 564.578 107.14C565.324 107.313 565.971 107.573 566.518 107.92C567.064 108.253 567.491 108.66 567.798 109.14C568.118 109.607 568.278 110.133 568.278 110.72C568.278 111.307 568.118 111.84 567.798 112.32C567.491 112.787 567.064 113.193 566.518 113.54C565.971 113.873 565.324 114.133 564.578 114.32C563.844 114.493 563.051 114.58 562.198 114.58C561.344 114.58 560.544 114.493 559.798 114.32C559.064 114.133 558.424 113.873 557.878 113.54C557.331 113.193 556.898 112.787 556.578 112.32C556.271 111.84 556.118 111.307 556.118 110.72ZM562.198 108.94C561.731 108.94 561.291 108.987 560.878 109.08C560.464 109.16 560.104 109.28 559.798 109.44C559.491 109.587 559.244 109.773 559.058 110C558.884 110.213 558.798 110.453 558.798 110.72C558.798 110.987 558.884 111.233 559.058 111.46C559.244 111.673 559.491 111.86 559.798 112.02C560.104 112.167 560.464 112.287 560.878 112.38C561.291 112.46 561.731 112.5 562.198 112.5C562.664 112.5 563.104 112.46 563.518 112.38C563.931 112.287 564.291 112.167 564.598 112.02C564.904 111.86 565.144 111.673 565.318 111.46C565.504 111.233 565.598 110.987 565.598 110.72C565.598 110.453 565.504 110.213 565.318 110C565.144 109.773 564.904 109.587 564.598 109.44C564.291 109.28 563.931 109.16 563.518 109.08C563.104 108.987 562.664 108.94 562.198 108.94ZM553.398 117.32V115.24H570.998V117.32H553.398ZM555.198 125.42V120.9H566.478V120.18H555.198V118.22H569.158V122.7H557.878V123.44H569.578V125.42H555.198ZM589.347 108.14V122.26H579.647V108.14H582.327V112.9H586.667V108.14H589.347ZM591.627 125.54V107.62H594.307V113.8H596.847V116.12H594.307V125.54H591.627ZM586.667 119.98V115.14H582.327V119.98H586.667ZM599.634 119.16V112.54H610.754V110.58H599.634V108.3H613.414V114.82H602.314V116.86H613.714V119.16H599.634ZM597.734 124.02V121.74H615.334V124.02H597.734ZM617.42 108.44H625.28C625.28 110.08 625.1 111.613 624.74 113.04C624.38 114.467 623.88 115.793 623.24 117.02C622.614 118.233 621.867 119.34 621 120.34C620.147 121.34 619.234 122.233 618.26 123.02L616.36 121.28C617.28 120.6 618.107 119.847 618.84 119.02C619.587 118.18 620.22 117.307 620.74 116.4C621.26 115.48 621.667 114.54 621.96 113.58C622.254 112.62 622.427 111.667 622.48 110.72H617.42V108.44ZM624.78 114.56H627.12V107.82H629.72V125.08H627.12V116.88H624.78V114.56ZM630.88 125.52V107.62H633.52V125.52H630.88ZM642.07 120.08L644.19 120L644.01 111.62H646.69L646.85 119.88L649.43 119.78L649.61 111.62H652.29L652.09 119.66L654.05 119.58V121.82L642.07 122.44V120.08ZM654.85 125.54V107.62H657.53V113.8H660.07V116.12H657.53V125.54H654.85ZM653.37 110.62H642.47V108.34H653.37V110.62ZM674.156 118.08V107.62H676.836V111.58H678.956V113.9H676.836V118.08H674.156ZM674.116 125.62V121.16H662.676V118.88H676.796V125.62H674.116ZM666.456 107.44C667.203 107.44 667.903 107.567 668.556 107.82C669.21 108.06 669.776 108.407 670.256 108.86C670.736 109.3 671.116 109.833 671.396 110.46C671.676 111.073 671.816 111.747 671.816 112.48C671.816 113.213 671.676 113.893 671.396 114.52C671.116 115.133 670.736 115.667 670.256 116.12C669.776 116.56 669.21 116.907 668.556 117.16C667.903 117.4 667.203 117.52 666.456 117.52C665.71 117.52 665.01 117.4 664.356 117.16C663.703 116.907 663.136 116.56 662.656 116.12C662.176 115.667 661.796 115.133 661.516 114.52C661.236 113.893 661.096 113.213 661.096 112.48C661.096 111.747 661.236 111.073 661.516 110.46C661.796 109.833 662.176 109.3 662.656 108.86C663.136 108.407 663.703 108.06 664.356 107.82C665.01 107.567 665.71 107.44 666.456 107.44ZM666.456 115.24C667.283 115.24 667.936 114.987 668.416 114.48C668.896 113.973 669.136 113.307 669.136 112.48C669.136 111.653 668.896 110.987 668.416 110.48C667.936 109.973 667.283 109.72 666.456 109.72C665.63 109.72 664.976 109.973 664.496 110.48C664.016 110.987 663.776 111.653 663.776 112.48C663.776 113.307 664.016 113.973 664.496 114.48C664.976 114.987 665.63 115.24 666.456 115.24ZM682.803 109.86V107.58H689.003V109.86H682.803ZM680.123 113.08V110.8H691.603V113.08H680.123ZM685.863 113.58C686.663 113.58 687.376 113.707 688.003 113.96C688.63 114.2 689.156 114.54 689.583 114.98C690.023 115.407 690.356 115.913 690.583 116.5C690.823 117.073 690.943 117.693 690.943 118.36C690.943 119.027 690.823 119.653 690.583 120.24C690.356 120.813 690.023 121.32 689.583 121.76C689.156 122.187 688.63 122.527 688.003 122.78C687.376 123.02 686.663 123.14 685.863 123.14C685.063 123.14 684.35 123.02 683.723 122.78C683.096 122.527 682.563 122.187 682.123 121.76C681.696 121.32 681.363 120.813 681.123 120.24C680.896 119.653 680.783 119.027 680.783 118.36C680.783 117.693 680.896 117.073 681.123 116.5C681.363 115.913 681.696 115.407 682.123 114.98C682.563 114.54 683.096 114.2 683.723 113.96C684.35 113.707 685.063 113.58 685.863 113.58ZM685.863 120.9C686.676 120.9 687.276 120.667 687.663 120.2C688.063 119.72 688.263 119.107 688.263 118.36C688.263 117.613 688.063 117.007 687.663 116.54C687.276 116.06 686.676 115.82 685.863 115.82C685.05 115.82 684.443 116.06 684.043 116.54C683.656 117.007 683.463 117.613 683.463 118.36C683.463 119.107 683.656 119.72 684.043 120.2C684.443 120.667 685.05 120.9 685.863 120.9ZM692.823 125.54V107.62H695.503V114.8H698.043V117.12H695.503V125.54H692.823ZM698.73 124.22V121.94H704.91V115.2H707.63V121.94H716.33V124.22H698.73ZM710.99 120.1C711.163 119.3 711.31 118.46 711.43 117.58C711.563 116.687 711.67 115.82 711.75 114.98C711.83 114.127 711.883 113.333 711.91 112.6C711.95 111.853 711.97 111.22 711.97 110.7H700.35V108.42H714.69C714.69 110.607 714.597 112.693 714.41 114.68C714.237 116.653 713.963 118.46 713.59 120.1H710.99ZM720.117 124.82C720.117 125.393 719.963 125.927 719.657 126.42C719.35 126.927 718.937 127.373 718.417 127.76L717.537 126.9C717.857 126.687 718.077 126.44 718.197 126.16C718.33 125.893 718.41 125.607 718.437 125.3H717.317V122.5H720.117V124.82ZM163.034 158.64C162.461 158.467 161.887 158.24 161.314 157.96C160.754 157.667 160.214 157.327 159.694 156.94C159.187 156.54 158.714 156.1 158.274 155.62L158.074 155.4L157.834 155.72C157.194 156.507 156.461 157.193 155.634 157.78C154.807 158.353 153.961 158.813 153.094 159.16L151.454 157.2C153.281 156.493 154.687 155.54 155.674 154.34C156.354 153.527 156.821 152.567 157.074 151.46H152.594V149.22H163.774V151.46H159.874C159.767 152.007 159.614 152.533 159.414 153.04C159.361 153.147 159.314 153.253 159.274 153.36C159.421 153.56 159.574 153.753 159.734 153.94C160.134 154.353 160.581 154.727 161.074 155.06C161.567 155.38 162.101 155.667 162.674 155.92C163.261 156.16 163.867 156.373 164.494 156.56L163.034 158.64ZM165.894 166.62V162.16H154.254V159.88H168.574V166.62H165.894ZM162.814 152.54H165.934V148.62H168.614V159.08H165.934V154.78H162.814V152.54ZM173.741 166.42V161.28H184.781V160.4H173.741V158.24H187.461V163.32H176.421V164.24H187.861V166.42H173.741ZM182.001 157.44C181.401 157.333 180.814 157.167 180.241 156.94C179.667 156.713 179.121 156.44 178.601 156.12C178.094 155.787 177.621 155.413 177.181 155C177.087 154.907 177.001 154.813 176.921 154.72C176.827 154.827 176.727 154.933 176.621 155.04C175.941 155.733 175.181 156.333 174.341 156.84C173.514 157.333 172.701 157.707 171.901 157.96L170.341 155.96C171.194 155.707 171.974 155.387 172.681 155C173.401 154.613 174.021 154.16 174.541 153.64C175.061 153.12 175.467 152.54 175.761 151.9C175.841 151.727 175.914 151.547 175.981 151.36H171.481V149.2H182.661V151.36H178.801C178.681 151.813 178.521 152.247 178.321 152.66C178.281 152.727 178.247 152.793 178.221 152.86C178.674 153.42 179.241 153.873 179.921 154.22C180.921 154.713 182.074 155.08 183.381 155.32L182.001 157.44ZM181.701 152.06H184.821V148.62H187.501V157.64H184.821V154.22H181.701V152.06ZM192.347 150.24V148.2H199.347V150.24H192.347ZM189.747 152.96V150.92H201.947V152.96H189.747ZM196.007 153.38C196.794 153.38 197.501 153.46 198.127 153.62C198.754 153.78 199.287 154.007 199.727 154.3C200.167 154.593 200.501 154.947 200.727 155.36C200.967 155.76 201.087 156.207 201.087 156.7C201.087 157.193 200.967 157.647 200.727 158.06C200.501 158.46 200.167 158.807 199.727 159.1C199.287 159.393 198.754 159.62 198.127 159.78C197.501 159.94 196.794 160.02 196.007 160.02C195.221 160.02 194.514 159.94 193.887 159.78C193.261 159.62 192.727 159.393 192.287 159.1C191.847 158.807 191.507 158.46 191.267 158.06C191.041 157.647 190.927 157.193 190.927 156.7C190.927 156.207 191.041 155.76 191.267 155.36C191.507 154.947 191.847 154.593 192.287 154.3C192.727 154.007 193.261 153.78 193.887 153.62C194.514 153.46 195.221 153.38 196.007 153.38ZM196.007 158.06C196.834 158.06 197.447 157.94 197.847 157.7C198.247 157.447 198.447 157.113 198.447 156.7C198.447 156.287 198.247 155.96 197.847 155.72C197.447 155.467 196.834 155.34 196.007 155.34C195.181 155.34 194.567 155.467 194.167 155.72C193.767 155.96 193.567 156.287 193.567 156.7C193.567 157.113 193.767 157.447 194.167 157.7C194.567 157.94 195.181 158.06 196.007 158.06ZM203.067 162.12V148.62H205.747V153.78H207.867V156.1H205.747V162.12H203.067ZM194.967 160.98V164.06H206.327V166.34H192.287V160.98H194.967ZM217.837 152.44C217.837 151.773 217.99 151.167 218.297 150.62C218.617 150.073 219.05 149.607 219.597 149.22C220.143 148.82 220.783 148.513 221.517 148.3C222.263 148.087 223.063 147.98 223.917 147.98C224.77 147.98 225.563 148.087 226.297 148.3C227.043 148.513 227.69 148.82 228.237 149.22C228.783 149.607 229.21 150.073 229.517 150.62C229.837 151.167 229.997 151.773 229.997 152.44C229.997 153.107 229.837 153.72 229.517 154.28C229.21 154.827 228.783 155.293 228.237 155.68C227.69 156.067 227.043 156.367 226.297 156.58C225.563 156.793 224.77 156.9 223.917 156.9C223.063 156.9 222.263 156.793 221.517 156.58C220.783 156.367 220.143 156.067 219.597 155.68C219.05 155.293 218.617 154.827 218.297 154.28C217.99 153.72 217.837 153.107 217.837 152.44ZM220.777 162.9V160.06H215.117V157.82H232.717V160.06H228.657V162.9H225.977V160.06H223.457V162.9H220.777ZM219.797 161.02V164.06H231.497V166.34H217.117V161.02H219.797ZM223.917 150.18C223.45 150.18 223.01 150.24 222.597 150.36C222.183 150.467 221.823 150.62 221.517 150.82C221.21 151.02 220.963 151.26 220.777 151.54C220.603 151.807 220.517 152.107 220.517 152.44C220.517 152.773 220.603 153.08 220.777 153.36C220.963 153.627 221.21 153.86 221.517 154.06C221.823 154.26 222.183 154.42 222.597 154.54C223.01 154.647 223.45 154.7 223.917 154.7C224.383 154.7 224.823 154.647 225.237 154.54C225.65 154.42 226.01 154.26 226.317 154.06C226.623 153.86 226.863 153.627 227.037 153.36C227.223 153.08 227.317 152.773 227.317 152.44C227.317 152.107 227.223 151.807 227.037 151.54C226.863 151.26 226.623 151.02 226.317 150.82C226.01 150.62 225.65 150.467 225.237 150.36C224.823 150.24 224.383 150.18 223.917 150.18ZM235.203 163.7V155.1H241.923V151.48H235.203V149.2H244.603V157.36H237.883V161.22L246.983 160.84V163.08L235.203 163.7ZM247.783 166.54V148.62H250.463V166.54H247.783ZM264.03 158.64C263.457 158.467 262.883 158.24 262.31 157.96C261.75 157.667 261.21 157.327 260.69 156.94C260.183 156.54 259.71 156.1 259.27 155.62L259.07 155.4L258.83 155.72C258.19 156.507 257.457 157.193 256.63 157.78C255.803 158.353 254.957 158.813 254.09 159.16L252.45 157.2C254.277 156.493 255.683 155.54 256.67 154.34C257.35 153.527 257.817 152.567 258.07 151.46H253.59V149.22H264.77V151.46H260.87C260.763 152.007 260.61 152.533 260.41 153.04C260.357 153.147 260.31 153.253 260.27 153.36C260.417 153.56 260.57 153.753 260.73 153.94C261.13 154.353 261.577 154.727 262.07 155.06C262.563 155.38 263.097 155.667 263.67 155.92C264.257 156.16 264.863 156.373 265.49 156.56L264.03 158.64ZM266.89 166.62V162.16H255.25V159.88H269.57V166.62H266.89ZM263.81 152.54H266.93V148.62H269.61V159.08H266.93V154.78H263.81V152.54ZM290.219 151.48H288.679L288.519 156.42L290.739 156.34V158.54L278.299 159.04V156.72L280.639 156.66L280.479 151.48H278.839V149.24H290.219V151.48ZM283.439 160.38V164.06H294.799V166.34H280.759V160.38H283.439ZM291.539 161.92V148.62H294.219V152.68H296.339V155H294.219V161.92H291.539ZM283.299 156.58L285.859 156.5L285.999 151.48H283.159L283.299 156.58ZM300.706 151.44V156.14L309.626 155.84V158.08L298.026 158.62V149.2H307.946V151.44H300.706ZM310.426 161.76V148.62H313.106V152.58H315.226V154.9H313.106V161.76H310.426ZM302.326 160.22V164.06H313.686V166.34H299.646V160.22H302.326ZM318.833 151.72C318.833 151.133 318.986 150.607 319.293 150.14C319.613 149.66 320.046 149.253 320.593 148.92C321.139 148.573 321.779 148.313 322.513 148.14C323.259 147.953 324.059 147.86 324.913 147.86C325.766 147.86 326.559 147.953 327.293 148.14C328.039 148.313 328.686 148.573 329.233 148.92C329.779 149.253 330.206 149.66 330.513 150.14C330.833 150.607 330.993 151.133 330.993 151.72C330.993 152.307 330.833 152.84 330.513 153.32C330.206 153.787 329.779 154.193 329.233 154.54C328.686 154.873 328.039 155.133 327.293 155.32C326.559 155.493 325.766 155.58 324.913 155.58C324.059 155.58 323.259 155.493 322.513 155.32C321.779 155.133 321.139 154.873 320.593 154.54C320.046 154.193 319.613 153.787 319.293 153.32C318.986 152.84 318.833 152.307 318.833 151.72ZM324.913 149.94C324.446 149.94 324.006 149.987 323.593 150.08C323.179 150.16 322.819 150.28 322.513 150.44C322.206 150.587 321.959 150.773 321.773 151C321.599 151.213 321.513 151.453 321.513 151.72C321.513 151.987 321.599 152.233 321.773 152.46C321.959 152.673 322.206 152.86 322.513 153.02C322.819 153.167 323.179 153.287 323.593 153.38C324.006 153.46 324.446 153.5 324.913 153.5C325.379 153.5 325.819 153.46 326.233 153.38C326.646 153.287 327.006 153.167 327.313 153.02C327.619 152.86 327.859 152.673 328.033 152.46C328.219 152.233 328.313 151.987 328.313 151.72C328.313 151.453 328.219 151.213 328.033 151C327.859 150.773 327.619 150.587 327.313 150.44C327.006 150.28 326.646 150.16 326.233 150.08C325.819 149.987 325.379 149.94 324.913 149.94ZM316.113 158.32V156.24H333.713V158.32H316.113ZM317.913 166.42V161.9H329.193V161.18H317.913V159.22H331.873V163.7H320.593V164.44H332.293V166.42H317.913ZM351.462 148.82H354.062V154.92H355.822V148.62H358.462V166.52H355.822V157.24H354.062V166.08H351.462V148.82ZM345.282 149.26V160.8L350.662 160.56V162.8L342.642 163.28V149.26H345.282ZM374.289 158.04V148.62H376.969V158.04H374.289ZM363.209 166.42V161.52H374.249V160.76H363.209V158.64H376.929V163.48H365.889V164.28H377.329V166.42H363.209ZM361.569 157.8V152.22H368.809V151.24H361.569V149.08H371.489V154.3H364.249V155.44L373.489 155.18V157.3L361.569 157.8ZM393.338 166.54V160.66H385.898V158.38H403.498V160.66H396.058V166.54H393.338ZM401.658 156.96C400.871 156.867 400.091 156.687 399.318 156.42C398.544 156.153 397.811 155.82 397.118 155.42C396.424 155.02 395.791 154.56 395.218 154.04C395.031 153.867 394.851 153.693 394.678 153.52C394.358 153.867 394.011 154.187 393.638 154.48C392.771 155.147 391.804 155.693 390.738 156.12C389.684 156.533 388.631 156.827 387.578 157L386.158 154.9C387.198 154.727 388.178 154.487 389.098 154.18C390.018 153.86 390.818 153.46 391.498 152.98C392.191 152.5 392.751 151.927 393.178 151.26C393.604 150.58 393.851 149.787 393.918 148.88H396.678C396.638 149.88 396.424 150.78 396.038 151.58C396.238 151.807 396.451 152.02 396.678 152.22C397.198 152.687 397.784 153.093 398.438 153.44C399.104 153.773 399.818 154.053 400.578 154.28C401.351 154.507 402.164 154.693 403.018 154.84L401.658 156.96ZM417.167 148.44C417.914 148.44 418.614 148.567 419.267 148.82C419.92 149.06 420.487 149.4 420.967 149.84C421.447 150.267 421.827 150.787 422.107 151.4C422.387 152 422.527 152.66 422.527 153.38C422.527 154.1 422.387 154.767 422.107 155.38C421.827 155.98 421.447 156.5 420.967 156.94C420.487 157.367 419.92 157.707 419.267 157.96C418.614 158.2 417.914 158.32 417.167 158.32C416.42 158.32 415.72 158.2 415.067 157.96C414.414 157.707 413.847 157.367 413.367 156.94C412.887 156.5 412.507 155.98 412.227 155.38C411.947 154.767 411.807 154.1 411.807 153.38C411.807 152.66 411.947 152 412.227 151.4C412.507 150.787 412.887 150.267 413.367 149.84C413.847 149.4 414.414 149.06 415.067 148.82C415.72 148.567 416.42 148.44 417.167 148.44ZM428.167 166.78C427.7 166.593 427.24 166.36 426.787 166.08C426.334 165.8 425.9 165.48 425.487 165.12C425.074 164.76 424.687 164.367 424.327 163.94L424.307 163.92C424.24 164 424.174 164.087 424.107 164.18C423.587 164.807 423.007 165.36 422.367 165.84C421.74 166.32 421.114 166.707 420.487 167L418.747 165.44C419.267 165.2 419.747 164.94 420.187 164.66C419.907 164.487 419.64 164.3 419.387 164.1C419.054 163.833 418.734 163.547 418.427 163.24C418.267 163.453 418.094 163.66 417.907 163.86C417.36 164.46 416.76 164.973 416.107 165.4C415.454 165.84 414.807 166.187 414.167 166.44L412.567 164.72C414.02 164.24 415.127 163.547 415.887 162.64C416.66 161.72 417.134 160.667 417.307 159.48H419.987C419.92 160.16 419.76 160.8 419.507 161.4C419.6 161.507 419.7 161.613 419.807 161.72C420.1 161.987 420.42 162.233 420.767 162.46C421.127 162.673 421.5 162.86 421.887 163.02C421.914 163.02 421.94 163.027 421.967 163.04C422.34 162.573 422.647 162.047 422.887 161.46C423.14 160.86 423.3 160.2 423.367 159.48H426.047C425.98 160.4 425.774 161.247 425.427 162.02C425.507 162.127 425.587 162.227 425.667 162.32C426 162.693 426.374 163.033 426.787 163.34C427.2 163.647 427.647 163.92 428.127 164.16C428.607 164.387 429.107 164.593 429.627 164.78L428.167 166.78ZM425.187 158.68V148.62H427.867V158.68H425.187ZM417.167 156.04C417.994 156.04 418.647 155.8 419.127 155.32C419.607 154.827 419.847 154.18 419.847 153.38C419.847 152.58 419.607 151.94 419.127 151.46C418.647 150.967 417.994 150.72 417.167 150.72C416.34 150.72 415.687 150.967 415.207 151.46C414.727 151.94 414.487 152.58 414.487 153.38C414.487 154.18 414.727 154.827 415.207 155.32C415.687 155.8 416.34 156.04 417.167 156.04ZM446.114 155.5H432.154V148.7H434.834V153.24H446.114V155.5ZM430.234 159.62V157.38H447.834V159.62H430.234ZM434.914 160.62V164.06H446.614V166.34H432.234V160.62H434.914ZM461.423 148.44C462.17 148.44 462.87 148.567 463.523 148.82C464.19 149.06 464.763 149.407 465.243 149.86C465.363 149.967 465.476 150.073 465.583 150.18H469.523V148.62H472.203V159.08H469.523V156.94H465.423L465.243 157.12C464.763 157.56 464.19 157.907 463.523 158.16C462.87 158.4 462.17 158.52 461.423 158.52C460.676 158.52 459.976 158.4 459.323 158.16C458.683 157.907 458.123 157.56 457.643 157.12C457.176 156.667 456.81 156.133 456.543 155.52C456.276 154.893 456.143 154.213 456.143 153.48C456.143 152.747 456.276 152.073 456.543 151.46C456.81 150.833 457.176 150.3 457.643 149.86C458.123 149.407 458.683 149.06 459.323 148.82C459.976 148.567 460.676 148.44 461.423 148.44ZM469.483 166.62V162.16H457.843V159.88H472.163V166.62H469.483ZM461.423 156.24C462.25 156.24 462.91 155.987 463.403 155.48C463.896 154.973 464.143 154.307 464.143 153.48C464.143 152.653 463.896 151.987 463.403 151.48C462.91 150.973 462.25 150.72 461.423 150.72C460.596 150.72 459.956 150.973 459.503 151.48C459.05 151.987 458.823 152.653 458.823 153.48C458.823 154.307 459.05 154.973 459.503 155.48C459.956 155.987 460.596 156.24 461.423 156.24ZM466.823 153.48C466.823 153.893 466.776 154.287 466.683 154.66H469.523V152.46H466.723C466.79 152.793 466.823 153.133 466.823 153.48ZM484.61 158.62C485.45 158.62 486.223 158.727 486.93 158.94C487.636 159.14 488.243 159.427 488.75 159.8C489.27 160.16 489.67 160.6 489.95 161.12C490.243 161.64 490.39 162.213 490.39 162.84C490.39 163.467 490.243 164.04 489.95 164.56C489.67 165.08 489.27 165.52 488.75 165.88C488.243 166.253 487.636 166.54 486.93 166.74C486.223 166.953 485.45 167.06 484.61 167.06C483.77 167.06 482.996 166.953 482.29 166.74C481.583 166.54 480.97 166.253 480.45 165.88C479.943 165.52 479.543 165.08 479.25 164.56C478.97 164.04 478.83 163.467 478.83 162.84C478.83 162.213 478.97 161.64 479.25 161.12C479.543 160.6 479.943 160.16 480.45 159.8C480.97 159.427 481.583 159.14 482.29 158.94C482.996 158.727 483.77 158.62 484.61 158.62ZM475.37 158.24V152.44H482.61V151.24H475.37V149.08H485.29V154.52H478.05V155.88L486.97 155.58V157.7L475.37 158.24ZM490.45 150.44H492.57V152.68H490.45V154.24H492.57V156.48H490.45V158.8H487.77V148.62H490.45V150.44ZM484.61 164.9C485.61 164.9 486.376 164.713 486.91 164.34C487.443 163.967 487.71 163.467 487.71 162.84C487.71 162.213 487.443 161.713 486.91 161.34C486.376 160.967 485.61 160.78 484.61 160.78C483.61 160.78 482.843 160.967 482.31 161.34C481.776 161.713 481.51 162.213 481.51 162.84C481.51 163.467 481.776 163.967 482.31 164.34C482.843 164.713 483.61 164.9 484.61 164.9ZM496.176 151.72C496.176 151.133 496.33 150.607 496.636 150.14C496.956 149.66 497.39 149.253 497.936 148.92C498.483 148.573 499.123 148.313 499.856 148.14C500.603 147.953 501.403 147.86 502.256 147.86C503.11 147.86 503.903 147.953 504.636 148.14C505.383 148.313 506.03 148.573 506.576 148.92C507.123 149.253 507.55 149.66 507.856 150.14C508.176 150.607 508.336 151.133 508.336 151.72C508.336 152.307 508.176 152.84 507.856 153.32C507.55 153.787 507.123 154.193 506.576 154.54C506.03 154.873 505.383 155.133 504.636 155.32C503.903 155.493 503.11 155.58 502.256 155.58C501.403 155.58 500.603 155.493 499.856 155.32C499.123 155.133 498.483 154.873 497.936 154.54C497.39 154.193 496.956 153.787 496.636 153.32C496.33 152.84 496.176 152.307 496.176 151.72ZM502.256 149.94C501.79 149.94 501.35 149.987 500.936 150.08C500.523 150.16 500.163 150.28 499.856 150.44C499.55 150.587 499.303 150.773 499.116 151C498.943 151.213 498.856 151.453 498.856 151.72C498.856 151.987 498.943 152.233 499.116 152.46C499.303 152.673 499.55 152.86 499.856 153.02C500.163 153.167 500.523 153.287 500.936 153.38C501.35 153.46 501.79 153.5 502.256 153.5C502.723 153.5 503.163 153.46 503.576 153.38C503.99 153.287 504.35 153.167 504.656 153.02C504.963 152.86 505.203 152.673 505.376 152.46C505.563 152.233 505.656 151.987 505.656 151.72C505.656 151.453 505.563 151.213 505.376 151C505.203 150.773 504.963 150.587 504.656 150.44C504.35 150.28 503.99 150.16 503.576 150.08C503.163 149.987 502.723 149.94 502.256 149.94ZM493.456 158.32V156.24H511.056V158.32H493.456ZM495.256 166.42V161.9H506.536V161.18H495.256V159.22H509.216V163.7H497.936V164.44H509.636V166.42H495.256ZM532.686 166.54V148.62H535.366V166.54H532.686ZM520.186 149.34H530.026C530.039 151.073 529.812 152.687 529.346 154.18C528.892 155.673 528.259 157.04 527.446 158.28C526.646 159.507 525.692 160.6 524.586 161.56C523.492 162.507 522.326 163.313 521.086 163.98L519.366 162.08C520.526 161.52 521.566 160.853 522.486 160.08C523.419 159.307 524.219 158.467 524.886 157.56C525.552 156.64 526.079 155.68 526.466 154.68C526.852 153.667 527.092 152.647 527.186 151.62H520.186V149.34ZM539.592 166.42V162.02H550.872V161.34H539.592V159.42H553.552V163.78H542.272V164.48H553.972V166.42H539.592ZM539.692 155.86V151.44H550.792V150.74H539.692V148.82H553.472V153.2H542.372V153.92H553.772V155.86H539.692ZM537.792 158.56V156.64H555.392V158.56H537.792ZM570.682 166.54V160.66H563.242V158.38H580.842V160.66H573.402V166.54H570.682ZM579.002 156.96C578.215 156.867 577.435 156.687 576.662 156.42C575.888 156.153 575.155 155.82 574.462 155.42C573.768 155.02 573.135 154.56 572.562 154.04C572.375 153.867 572.195 153.693 572.022 153.52C571.702 153.867 571.355 154.187 570.982 154.48C570.115 155.147 569.148 155.693 568.082 156.12C567.028 156.533 565.975 156.827 564.922 157L563.502 154.9C564.542 154.727 565.522 154.487 566.442 154.18C567.362 153.86 568.162 153.46 568.842 152.98C569.535 152.5 570.095 151.927 570.522 151.26C570.948 150.58 571.195 149.787 571.262 148.88H574.022C573.982 149.88 573.768 150.78 573.382 151.58C573.582 151.807 573.795 152.02 574.022 152.22C574.542 152.687 575.128 153.093 575.782 153.44C576.448 153.773 577.162 154.053 577.922 154.28C578.695 154.507 579.508 154.693 580.362 154.84L579.002 156.96ZM594.511 148.44C595.257 148.44 595.957 148.567 596.611 148.82C597.264 149.06 597.831 149.4 598.311 149.84C598.791 150.267 599.171 150.787 599.451 151.4C599.731 152 599.871 152.66 599.871 153.38C599.871 154.1 599.731 154.767 599.451 155.38C599.171 155.98 598.791 156.5 598.311 156.94C597.831 157.367 597.264 157.707 596.611 157.96C595.957 158.2 595.257 158.32 594.511 158.32C593.764 158.32 593.064 158.2 592.411 157.96C591.757 157.707 591.191 157.367 590.711 156.94C590.231 156.5 589.851 155.98 589.571 155.38C589.291 154.767 589.151 154.1 589.151 153.38C589.151 152.66 589.291 152 589.571 151.4C589.851 150.787 590.231 150.267 590.711 149.84C591.191 149.4 591.757 149.06 592.411 148.82C593.064 148.567 593.764 148.44 594.511 148.44ZM605.511 166.78C605.044 166.593 604.584 166.36 604.131 166.08C603.677 165.8 603.244 165.48 602.831 165.12C602.417 164.76 602.031 164.367 601.671 163.94L601.651 163.92C601.584 164 601.517 164.087 601.451 164.18C600.931 164.807 600.351 165.36 599.711 165.84C599.084 166.32 598.457 166.707 597.831 167L596.091 165.44C596.611 165.2 597.091 164.94 597.531 164.66C597.251 164.487 596.984 164.3 596.731 164.1C596.397 163.833 596.077 163.547 595.771 163.24C595.611 163.453 595.437 163.66 595.251 163.86C594.704 164.46 594.104 164.973 593.451 165.4C592.797 165.84 592.151 166.187 591.511 166.44L589.911 164.72C591.364 164.24 592.471 163.547 593.231 162.64C594.004 161.72 594.477 160.667 594.651 159.48H597.331C597.264 160.16 597.104 160.8 596.851 161.4C596.944 161.507 597.044 161.613 597.151 161.72C597.444 161.987 597.764 162.233 598.111 162.46C598.471 162.673 598.844 162.86 599.231 163.02C599.257 163.02 599.284 163.027 599.311 163.04C599.684 162.573 599.991 162.047 600.231 161.46C600.484 160.86 600.644 160.2 600.711 159.48H603.391C603.324 160.4 603.117 161.247 602.771 162.02C602.851 162.127 602.931 162.227 603.011 162.32C603.344 162.693 603.717 163.033 604.131 163.34C604.544 163.647 604.991 163.92 605.471 164.16C605.951 164.387 606.451 164.593 606.971 164.78L605.511 166.78ZM602.531 158.68V148.62H605.211V158.68H602.531ZM594.511 156.04C595.337 156.04 595.991 155.8 596.471 155.32C596.951 154.827 597.191 154.18 597.191 153.38C597.191 152.58 596.951 151.94 596.471 151.46C595.991 150.967 595.337 150.72 594.511 150.72C593.684 150.72 593.031 150.967 592.551 151.46C592.071 151.94 591.831 152.58 591.831 153.38C591.831 154.18 592.071 154.827 592.551 155.32C593.031 155.8 593.684 156.04 594.511 156.04ZM621.418 157.84V148.62H624.098V157.84H621.418ZM608.858 149.2H618.578C618.578 150.133 618.438 150.987 618.158 151.76C617.891 152.52 617.511 153.207 617.018 153.82C616.538 154.433 615.971 154.98 615.318 155.46C614.678 155.927 613.991 156.333 613.258 156.68C612.524 157.027 611.771 157.313 610.998 157.54C610.238 157.767 609.491 157.933 608.758 158.04L607.678 156C608.718 155.827 609.678 155.6 610.558 155.32C611.451 155.027 612.238 154.687 612.918 154.3C613.611 153.9 614.184 153.46 614.638 152.98C615.104 152.487 615.431 151.96 615.618 151.4H608.858V149.2ZM610.338 166.42V161.4H621.378V160.56H610.338V158.44H624.058V163.4H613.018V164.28H624.458V166.42H610.338ZM646.807 166.54V148.62H649.487V166.54H646.807ZM634.307 149.34H644.147C644.16 151.073 643.933 152.687 643.467 154.18C643.013 155.673 642.38 157.04 641.567 158.28C640.767 159.507 639.813 160.6 638.707 161.56C637.613 162.507 636.447 163.313 635.207 163.98L633.487 162.08C634.647 161.52 635.687 160.853 636.607 160.08C637.54 159.307 638.34 158.467 639.007 157.56C639.673 156.64 640.2 155.68 640.587 154.68C640.973 153.667 641.213 152.647 641.307 151.62H634.307V149.34ZM662.013 148.82H664.613V154.92H666.173V148.62H668.813V166.52H666.173V157.24H664.613V166.08H662.013V148.82ZM660.473 149.46V151.74H655.633V160.9L661.213 160.66V162.9L652.993 163.38V149.46H660.473ZM684.2 158.9V148.62H686.88V152.68H689V154.96H686.88V158.9H684.2ZM684.16 163H676V164.3H684.16V163ZM673.32 166.42V159.5H676V161H684.16V159.5H686.84V166.42H673.32ZM673.48 150.16V148.2H680.48V150.16H673.48ZM670.88 152.6V150.64H683.08V152.6H670.88ZM677.14 152.96C677.927 152.96 678.633 153.033 679.26 153.18C679.887 153.313 680.42 153.513 680.86 153.78C681.3 154.033 681.633 154.34 681.86 154.7C682.1 155.06 682.22 155.46 682.22 155.9C682.22 156.34 682.1 156.74 681.86 157.1C681.633 157.46 681.3 157.773 680.86 158.04C680.42 158.293 679.887 158.493 679.26 158.64C678.633 158.773 677.927 158.84 677.14 158.84C676.353 158.84 675.647 158.773 675.02 158.64C674.393 158.493 673.86 158.293 673.42 158.04C672.98 157.773 672.64 157.46 672.4 157.1C672.173 156.74 672.06 156.34 672.06 155.9C672.06 155.46 672.173 155.06 672.4 154.7C672.64 154.34 672.98 154.033 673.42 153.78C673.86 153.513 674.393 153.313 675.02 153.18C675.647 153.033 676.353 152.96 677.14 152.96ZM677.14 156.96C677.967 156.96 678.58 156.867 678.98 156.68C679.38 156.493 679.58 156.233 679.58 155.9C679.58 155.567 679.38 155.307 678.98 155.12C678.58 154.933 677.967 154.84 677.14 154.84C676.313 154.84 675.7 154.933 675.3 155.12C674.9 155.307 674.7 155.567 674.7 155.9C674.7 156.233 674.9 156.493 675.3 156.68C675.7 156.867 676.313 156.96 677.14 156.96ZM703.467 166.54V148.62H706.147V166.54H703.467ZM693.667 149.14V160.8L702.667 160.42V162.66L690.987 163.28V149.14H693.667ZM721.354 166.54V148.62H724.034V154.6H726.574V156.92H724.034V166.54H721.354ZM719.154 149.34V151.58H712.154V160.92L720.554 160.54V162.78L709.474 163.4V149.34H719.154ZM727.4 163.64H730.2V166.44H727.4V163.64Z" fill="#5C1C2C"/>
<defs>
<filter id="filter0_di_1033_11" x="0" y="0" width="884" height="242" filterUnits="userSpaceOnUse" color-interpolation-filters="sRGB">
<feFlood flood-opacity="0" result="BackgroundImageFix"/>
<feColorMatrix in="SourceAlpha" type="matrix" values="0 0 0 0 0 0 0 0 0 0 0 0 0 0 0 0 0 0 127 0" result="hardAlpha"/>
<feOffset dx="1" dy="3"/>
<feGaussianBlur stdDeviation="6"/>
<feComposite in2="hardAlpha" operator="out"/>
<feColorMatrix type="matrix" values="0 0 0 0 0.360784 0 0 0 0 0.109804 0 0 0 0 0.172549 0 0 0 0.16 0"/>
<feBlend mode="normal" in2="BackgroundImageFix" result="effect1_dropShadow_1033_11"/>
<feBlend mode="normal" in="SourceGraphic" in2="effect1_dropShadow_1033_11" result="shape"/>
<feColorMatrix in="SourceAlpha" type="matrix" values="0 0 0 0 0 0 0 0 0 0 0 0 0 0 0 0 0 0 127 0" result="hardAlpha"/>
<feOffset dx="-9" dy="9"/>
<feGaussianBlur stdDeviation="4"/>
<feComposite in2="hardAlpha" operator="arithmetic" k2="-1" k3="1"/>
<feColorMatrix type="matrix" values="0 0 0 0 1 0 0 0 0 1 0 0 0 0 1 0 0 0 0.25 0"/>
<feBlend mode="normal" in2="shape" result="effect2_innerShadow_1033_11"/>
</filter>
</defs>
</svg>
