<svg width="332" height="490" viewBox="0 0 332 490" fill="none" xmlns="http://www.w3.org/2000/svg">
<g filter="url(#filter0_f_360_554)">
<ellipse cx="124" cy="447.5" rx="80" ry="22.5" fill="#E8D096"/>
</g>
<g clip-path="url(#clip0_360_554)">
<path d="M123.624 66.998C123.624 66.998 104.33 70.8604 84.0868 84.3046C63.8438 97.7488 72.9049 123.701 72.9049 123.701C72.9049 123.701 68.1296 88.5533 72.7566 55.0245C77.3836 21.4958 81.8029 16.4747 75.2629 14.8257C75.2629 14.8257 71.1401 15.6279 69.494 19.5201C69.494 19.5201 74.1655 1.88666 66.9877 0.519956C59.81 -0.846744 55.0792 10.8148 55.0792 10.8148C55.0792 10.8148 33.4867 59.9417 53.6704 151.421C53.6704 151.421 59.0537 175.264 66.3649 196.285C66.3649 196.285 47.2638 212.552 44.6982 234.805C44.6982 234.805 34.3617 285.105 72.2969 313.643C72.2969 313.643 38.692 336.045 50.4671 360.215C50.4671 360.215 52.9289 374.803 102.773 367.211C102.773 367.211 92.5102 394.159 104.938 395.08C104.938 395.08 110.662 395.036 122.304 371.282C122.304 371.282 128.903 360.779 117.899 353.322C106.895 345.864 77.7395 347.929 77.7395 347.929C77.7395 347.929 90.4488 328.944 99.421 325.527C99.421 325.527 107.978 329.598 117.395 328.78C117.395 328.78 126.619 347.038 121.948 428.951L121.251 445.41L165.163 445.277C165.163 445.277 176.819 444.935 168.173 439.275C159.527 433.615 141.079 433.303 141.079 433.303C141.079 433.303 160.432 371.638 149.68 325.824C149.68 325.824 207.487 308.948 204.655 258.499C202.193 214.706 178.346 198.469 178.346 198.469C178.346 198.469 226.989 185.515 269.433 186.332C311.861 187.149 321.634 189.466 320.7 180.434C320.7 180.434 335.975 181.103 330.236 171.996C324.496 162.875 307.027 153.947 250.598 163.261C194.17 172.576 162.3 182.781 162.3 182.781C162.3 182.781 176.597 175.458 184.62 157.676C192.227 140.8 194.437 110.108 172.741 84.6463C172.741 84.6463 151.445 59.9714 123.594 66.998H123.624Z" fill="#59DCC3"/>
<path d="M121.814 68.0528C121.814 68.0528 125.922 110.198 73.602 123.048C73.602 123.048 66.1277 93.7081 85.733 82.8191C106.287 71.4101 121.814 68.0379 121.814 68.0379V68.0528Z" fill="#26A38B"/>
<path d="M121.918 67.31C121.918 67.31 139.254 89.2663 171.851 84.468C171.851 84.468 154.411 61.3678 121.918 67.31Z" fill="#26A38B"/>
<path d="M84.7093 175.621C84.7093 175.621 73.9426 140.384 72.9639 123.077C72.9639 123.077 78.5251 123.731 90.3892 117.403C90.3892 117.403 75.574 127.95 84.7093 175.621Z" fill="#26A38B"/>
<path d="M291.633 182.662C305.01 184.43 312.276 185.708 315.761 184.341C321.426 182.128 319.558 179.379 318.609 178.384C316.8 177.508 313.418 176.839 307.071 177.463C307.071 177.463 316.458 173.17 323.992 174.18C330.547 175.056 328.812 168.594 321.471 164.227C326.558 167.005 334.774 172.68 330.325 178.607C330.325 178.607 328.604 180.865 321.338 180.687C322.183 182.113 322.257 184.044 319.573 186.317C317.393 188.159 309.548 187.654 303.749 187.565C272.843 187.134 258.162 181.816 179.132 198.825L175.425 195.498C175.425 195.498 252.155 177.418 291.633 182.648V182.662Z" fill="#26A38B"/>
<path d="M318.446 162.712C318.253 162.622 318.06 162.533 317.853 162.444C317.853 162.444 318.075 162.533 318.446 162.712Z" fill="#26A38B"/>
<path d="M321.456 164.227C320.166 163.514 319.068 163.009 318.445 162.712C319.528 163.172 320.551 163.677 321.456 164.227Z" fill="#26A38B"/>
<path d="M66.3653 195.928C23.8921 74.0098 57.0075 7.54658 57.0075 7.54658C63.6662 -2.30258 68.0411 1.18845 68.0411 1.18845C53.3149 1.30729 47.6053 61.1598 51.6539 107.182C55.0203 145.524 69.0792 188.902 70.8736 197.756C72.7719 207.085 71.6596 208.184 71.6596 208.184C39.4933 252.334 52.4399 287.883 54.3233 292.266C27.2585 233.156 63.2362 198.766 66.3653 195.928Z" fill="#26A38B"/>
<path d="M54.3232 292.266C54.3974 292.414 54.4567 292.563 54.5309 292.711C54.5309 292.711 54.4567 292.563 54.3232 292.266Z" fill="#26A38B"/>
<path d="M100.889 373.273C100.889 373.273 100.534 382.587 104.404 383.404C108.275 384.221 125.982 366.974 120.954 356.471C120.954 356.471 129.526 361.864 117.914 380.76C106.302 399.656 101.32 393.61 101.32 393.61C101.32 393.61 96.8853 392.005 100.904 373.273H100.889Z" fill="#26A38B"/>
<path d="M127.094 327.785C127.094 327.785 132.996 350.306 130.698 393.075C128.399 435.844 127.465 436.423 131.513 439.231C135.562 442.038 162.553 445.381 162.553 445.381H121.266C121.266 445.381 126.308 353.351 118.226 328.884L127.094 327.785Z" fill="#26A38B"/>
<path d="M53.1508 335.302C53.1508 335.302 46.329 354.109 59.9727 358.907C73.6163 363.706 99.3019 366.29 108.378 366.008C108.378 366.008 60.5065 374.758 51.3119 361.968C42.1173 349.177 53.1657 335.302 53.1657 335.302H53.1508Z" fill="#26A38B"/>
<path d="M148.656 145.999C146.803 146.059 144.667 146.46 143.792 147.693C143.095 148.673 143.525 149.906 144.578 150.634C145.631 151.362 147.159 151.615 148.642 151.54C150.125 151.466 151.563 151.095 152.957 150.679C154.01 150.367 155.078 150.01 155.982 149.505C156.887 149 157.673 148.302 157.97 147.5C158.266 146.697 157.999 145.791 157.154 145.271C155.968 144.543 154.944 145.108 153.758 145.509C152.141 146.059 150.347 145.955 148.656 145.999Z" fill="#26A38B"/>
<path d="M154.099 118.19C153.58 117.878 152.883 117.952 152.335 118.234C151.786 118.517 151.356 118.977 150.941 119.423C149.932 120.507 148.909 121.592 147.9 122.691C146.951 123.716 145.928 125.023 146.328 126.345C146.699 127.564 148.212 128.143 149.428 127.831C150.644 127.519 151.608 126.539 152.305 125.484C153.076 124.325 155.642 119.126 154.07 118.175L154.099 118.19Z" fill="#26A38B"/>
<path d="M133.352 110.45C133.99 112.961 134.39 116.11 134.612 118.13C134.879 120.478 134.479 122.557 133.648 124.31C132.818 126.063 130.697 127.489 128.844 128.024C126.856 128.589 124.172 128.306 122.585 126.999C119.263 124.236 118.285 118.338 117.617 113.763" stroke="black" stroke-linecap="round" stroke-linejoin="round"/>
<path d="M172.814 105.429C173.288 107.969 173.511 111.148 173.6 113.169C173.718 115.531 173.199 117.581 172.265 119.274C171.331 120.968 169.121 122.26 167.238 122.676C165.221 123.122 162.551 122.676 161.054 121.265C157.895 118.309 157.302 112.352 156.916 107.746" stroke="black" stroke-linecap="round" stroke-linejoin="round"/>
<path d="M72.1184 313.88C54.7821 300.763 45.4243 280.04 44.0896 258.173C42.7252 235.815 45.884 215.255 66.1715 196.508" stroke="black" stroke-linecap="round" stroke-linejoin="round"/>
<path d="M127.805 328.186C118.922 329.33 109.549 329.092 99.3311 326.478" stroke="black" stroke-linecap="round" stroke-linejoin="round"/>
<path d="M149.517 326.047C157.629 323.893 164.569 320.966 171.673 316.287C203.275 295.475 207.205 271.023 202.979 245.293C199.108 221.717 187.348 205.287 174.312 195.304" stroke="black" stroke-linecap="round" stroke-linejoin="round"/>
<path d="M124.558 66.4929C137.771 64.2646 157.095 69.9245 166.66 78.7784C185.094 95.8324 188.875 111.549 189.75 131.069C190.67 151.882 177.961 178.681 157.095 184.311" stroke="black" stroke-linecap="round" stroke-linejoin="round"/>
<path d="M84.6941 176.275C70.1755 128.173 65.2667 83.6361 76.4338 30.1862C77.2939 26.0713 80.3934 17.7968 76.7007 15.7913C73.4529 14.0235 70.9021 16.9649 69.5823 20.4262C68.7814 22.506 68.4404 24.7046 67.7285 29.2949" stroke="black" stroke-linecap="round" stroke-linejoin="round"/>
<path d="M68.7369 23.5161C69.167 17.7374 70.0717 15.5091 70.5017 9.7303C70.6945 7.19002 71.0356 3.87726 68.3069 1.69351C65.3705 -0.653648 61.2774 1.84207 59.483 3.75842C57.6886 5.67477 55.6569 8.15562 52.2311 18.6138C37.6829 62.8979 44.4453 145.791 71.0208 208.154" stroke="black" stroke-linecap="round" stroke-linejoin="round"/>
<path d="M158.859 183.791C205.826 170.065 250.049 160.32 298.974 160.335C304.12 160.335 313.21 160.483 320.907 163.93C325.608 166.039 333.083 173.229 330.858 177.879C329.509 180.716 324.259 180.731 321.055 180.642" stroke="black" stroke-linecap="round" stroke-linejoin="round"/>
<path d="M179.102 198.602C222.183 190.372 249.01 184.668 292.077 187.431C295.503 187.654 307.604 187.743 311.682 187.386C315.108 187.089 320.699 187.461 321.292 183.405C321.574 181.415 319.646 177.626 313.788 177.79C310.688 177.879 307.678 177.864 305.795 178.117" stroke="black" stroke-linecap="round" stroke-linejoin="round"/>
<path d="M154.321 56.2575C154.321 56.2575 86.3257 77.174 71.2139 92.4602" stroke="black" stroke-linecap="round" stroke-linejoin="round"/>
<path d="M81.4615 84.1709L71.9258 65.5273L73.127 50.2411L76.3155 33.6327L115.348 16.5638L126.144 65.453L81.4615 84.1709Z" fill="black"/>
<path d="M188.994 77.6791C148.537 100.616 121.917 67.8151 121.917 67.8151C121.917 67.8151 127.494 110.643 72.7559 123.3" stroke="black" stroke-linecap="round" stroke-linejoin="round"/>
<path d="M81.6839 84.8988C81.6839 84.8988 71.3771 93.9012 71.2881 109.321" stroke="black" stroke-linecap="round" stroke-linejoin="round"/>
<path d="M165.207 136.462C165.207 136.462 147.01 143.325 130.86 140.146" stroke="black" stroke-linecap="round" stroke-linejoin="round"/>
<path d="M50.3477 139.582C50.3477 139.582 18.2407 141.795 10.0545 156.933C3.11402 169.768 23.5943 170.214 18.2703 176.141C10.7663 184.505 0.741211 180.211 0.741211 180.211C0.741211 180.211 16.0161 197.577 33.3525 179.602C41.2272 171.432 29.8526 164.375 34.702 157.007C39.5514 149.639 51.5193 146.787 51.5193 146.787" fill="#26A38B"/>
<path d="M50.3477 139.582C50.3477 139.582 18.2407 141.795 10.0545 156.933C3.11402 169.768 23.5943 170.214 18.2703 176.141C10.7663 184.505 0.741211 180.211 0.741211 180.211C0.741211 180.211 16.0161 197.577 33.3525 179.602C41.2272 171.432 29.8526 164.375 34.702 157.007C39.5514 149.639 51.5193 146.787 51.5193 146.787" stroke="black" stroke-linecap="round" stroke-linejoin="round"/>
<path d="M121.918 356.887C121.132 348.999 119.753 338.659 118.032 329.122" stroke="black" stroke-linecap="round" stroke-linejoin="round"/>
<path d="M149.545 326.418C157.924 376.407 145.2 413.144 140.914 433.541C152.259 432.917 160.327 436.052 169.343 440.137C171.939 441.31 171.242 445.202 168.409 445.455C152.007 446.97 138.749 445.945 121.087 445.648C120.968 417.512 123.904 396.506 122.762 369.841" stroke="black" stroke-linecap="round" stroke-linejoin="round"/>
<path d="M107.132 321.1C107.132 321.1 85.9697 330.221 76.8789 351.851" stroke="black" stroke-linecap="round" stroke-linejoin="round"/>
<path d="M78.8506 348.761C78.8506 348.761 114.28 344.988 122.317 357.823C127.701 366.424 116.474 385.201 107.858 393.416C104.536 396.581 99.0343 394.248 99.0491 389.643C99.0788 384.459 99.1084 373.406 102.816 368.623" stroke="black" stroke-linecap="round" stroke-linejoin="round"/>
<path d="M108.511 367.033C108.511 367.033 66.7349 372.455 56.0573 365.964C46.3436 360.066 38.0981 342.745 72.1182 313.866" stroke="black" stroke-linecap="round" stroke-linejoin="round"/>
<path d="M149.428 113.377C149.428 113.377 159.468 114.729 151.548 127.772" stroke="black" stroke-linecap="round" stroke-linejoin="round"/>
<path d="M75.2033 15.9547C75.2033 15.9547 69.5827 14.9446 68.4111 29.384C68.4111 29.384 70.0721 20.7976 75.2033 15.9547Z" fill="#26A38B"/>
</g>
<defs>
<filter id="filter0_f_360_554" x="24" y="405" width="200" height="85" filterUnits="userSpaceOnUse" color-interpolation-filters="sRGB">
<feFlood flood-opacity="0" result="BackgroundImageFix"/>
<feBlend mode="normal" in="SourceGraphic" in2="BackgroundImageFix" result="shape"/>
<feGaussianBlur stdDeviation="10" result="effect1_foregroundBlur_360_554"/>
</filter>
<clipPath id="clip0_360_554">
<rect width="332" height="447" fill="white"/>
</clipPath>
</defs>
</svg>
