<svg width="250" height="473" viewBox="0 0 250 473" fill="none" xmlns="http://www.w3.org/2000/svg">
<g filter="url(#filter0_f_360_616)">
<ellipse cx="124" cy="430.5" rx="104" ry="22.5" fill="#E8D096"/>
</g>
<g clip-path="url(#clip0_360_616)">
<path d="M143.696 161.167C142.857 160.74 142.018 160.222 141.087 160.039C140.157 159.856 139.058 160.084 138.54 160.877C137.914 161.823 138.356 163.165 139.226 163.913C140.096 164.66 141.24 164.919 142.354 165.163C145.847 165.941 149.051 167.756 152.575 167.146C154.299 166.856 156.145 165.834 157.549 164.767C158.433 164.096 161.012 161.274 160.417 160.039C155.016 162.753 149.432 164.05 143.711 161.152L143.696 161.167Z" fill="#7565EA"/>
<path d="M132.712 348.995C132.239 372.132 131.293 387.72 130.271 410.613C130.073 415.112 129.935 420.45 133.612 423.058C135.977 424.736 139.12 424.645 142.018 424.492C161.18 423.455 180.341 422.418 199.503 421.381C202.783 421.198 206.414 420.877 208.656 418.468C212.348 414.502 209.434 407.501 204.598 405.076C199.762 402.651 194.041 403.322 188.656 403.719C183.27 404.115 177.305 404.009 173.201 400.47C169.677 397.435 170.089 396.169 170.41 391.517C170.73 386.866 172.027 380.063 172.759 375.457C175.581 357.978 177.092 352.564 178.968 340.759" fill="#A593FF"/>
<path d="M178.984 340.759C186.291 338.334 193.141 334.841 200.113 329.64C214.85 318.613 219.992 301.47 222.356 283.198C224.721 264.926 223.073 253.762 221.319 235.414L228.855 220.528C233.249 206.71 230.64 188.407 218.313 180.812C217.246 155.555 216.559 132.356 217.566 109.204C217.902 101.258 218.344 93.1741 216.391 85.4566C214.438 77.7392 209.633 70.3267 202.279 67.3221C197.108 65.2021 191.326 65.4766 185.757 65.7664C173.644 66.4222 171.493 65.4461 157.945 66.0714L70.8948 70.3877C58.2018 71.0741 50.1314 71.0435 37.7893 75.2683C14.9053 83.0773 21.4043 111.827 21.9841 122.748C25.2946 184.869 32.1751 199.434 22.6858 260.915C20.2144 276.93 15.9885 317.774 32.9531 338.319C41.9999 349.285 57.2559 352.549 71.4593 352.305C76.8751 352.213 82.3978 352.015 87.9968 351.725C89.8275 362.31 90.6055 364.765 91.7192 374.694C92.2379 379.27 93.611 386.286 93.8398 390.892C94.0686 395.498 92.7719 400.409 89.3698 403.505C85.6473 406.891 78.3397 407.532 73.3205 407.822C68.3013 408.112 62.9464 408.371 58.812 411.253C54.6777 414.136 52.7707 420.786 56.4321 424.263C58.8426 426.551 62.5345 426.582 65.8451 426.475C84.5489 425.91 103.268 425.346 121.972 424.782C127.495 424.614 130.195 417.751 129.661 412.23" fill="#A593FF"/>
<path d="M225.103 187.507C225.103 187.507 236.697 208.814 226.003 228.855C216.407 246.853 187.695 264.011 136.282 260.488C136.282 260.488 186.291 259.512 213.127 233.37C223.104 223.654 234.378 210.096 225.103 187.507Z" fill="#7565EA"/>
<path d="M131.309 220.711C131.309 220.711 195.948 237.656 218.558 196.979C218.558 196.979 221.273 215.51 181.486 229.511C181.486 229.511 150.516 237.427 131.309 220.696V220.711Z" fill="#7565EA"/>
<path d="M49.0482 72.7213C49.0482 72.7213 33.2278 78.1509 34.5856 105.711C35.9433 133.271 35.4857 203.781 66.6842 213.71C66.6842 213.71 58.095 239.013 129.524 259.359C129.524 259.359 91.5514 262.516 53.5793 231.341C53.5793 231.341 29.3375 304.551 46.9734 327.596C64.6094 350.642 94.4348 340.82 94.4348 340.82C94.4348 340.82 104.092 402.163 86.3034 406.571C86.3034 406.571 92.5888 401.706 93.9314 395.224C94.9535 390.312 92.9702 371.4 88.012 351.984C88.012 351.984 68.4996 353.815 52.6792 350.657C36.8587 347.5 21.1755 328.695 20.3517 297.779C20.0161 285.013 21.4959 268.327 23.0673 258.124C26.9728 232.699 29.5358 213.558 23.7385 148.645C18.9939 95.4314 15.6071 78.5933 49.0482 72.7213Z" fill="#7565EA"/>
<path d="M221.319 236.314C223.058 254.662 224.721 265.826 222.356 284.098C219.992 302.37 214.85 319.528 200.113 330.54C193.156 335.741 186.306 339.234 178.983 341.659" stroke="black" stroke-linecap="round" stroke-linejoin="round"/>
<path d="M157.93 66.9865C171.493 66.3612 173.629 67.3373 185.742 66.6815C191.31 66.3764 197.108 66.1172 202.264 68.2372C209.617 71.2418 214.408 78.6695 216.376 86.3717C218.344 94.074 217.902 102.173 217.551 110.119C216.544 133.287 217.23 156.485 218.298 181.727" stroke="black" stroke-linecap="round" stroke-linejoin="round"/>
<path d="M87.9963 352.655C82.3973 352.93 76.8746 353.128 71.4588 353.235C57.2554 353.479 42.0147 350.215 32.9526 339.249C15.988 318.705 20.2139 277.86 22.6854 261.845C32.1593 200.365 25.2789 185.799 21.9836 123.678C21.4038 112.758 14.9201 84.0077 37.7888 76.1987C50.1309 71.9892 58.2013 72.0044 70.8943 71.3181" stroke="black" stroke-linecap="round" stroke-linejoin="round"/>
<path d="M132.712 349.91C132.239 373.047 131.293 388.635 130.271 411.528C130.072 416.027 129.935 421.365 133.612 423.973C135.976 425.651 139.119 425.56 142.018 425.407C161.179 424.37 180.341 423.333 199.502 422.296C202.782 422.113 206.413 421.792 208.656 419.383C212.348 415.417 209.434 408.417 204.598 405.991C199.762 403.566 194.041 404.237 188.655 404.634C183.27 405.031 177.305 404.924 173.201 401.385C169.677 398.35 170.089 397.084 170.409 392.432C170.73 387.781 172.026 380.978 172.759 376.372C175.581 358.893 177.091 353.479 178.968 341.674" stroke="black" stroke-linecap="round" stroke-linejoin="round"/>
<path d="M87.9967 352.655C89.8274 363.24 91.0784 365.498 92.1921 375.427C92.7108 380.002 94.0838 387.018 94.3127 391.624C94.5415 396.23 93.2448 401.141 89.8427 404.238C86.1202 407.623 78.8126 408.264 73.7934 408.554C68.7741 408.844 63.4193 409.103 59.2849 411.985C55.1505 414.868 53.2435 421.518 56.905 424.995C59.3154 427.283 63.0074 427.314 66.3179 427.207C85.0218 426.643 103.741 426.078 122.445 425.514C127.967 425.346 130.668 418.483 130.134 412.962" stroke="black" stroke-linecap="round" stroke-linejoin="round"/>
<path d="M218.313 181.727C230.64 189.307 233.249 207.609 228.855 221.443C224.462 235.261 218.954 242.704 194.926 254.036C181.836 260.213 157.686 263.584 139.791 261.601C110.103 258.292 90.7886 247.722 76.6462 234.743C73.0306 231.418 69.5827 227.711 67.63 223.197C65.6619 218.682 65.3721 213.207 67.8893 208.982C71.4745 202.958 79.7737 201.173 86.5321 203.034C93.2905 204.879 98.8742 209.531 104.244 214.046C103.359 210.919 103.009 207.121 103.512 203.918C104.015 200.716 106.365 197.543 109.599 197.192C114.832 196.628 117.776 202.82 119.943 207.625C126.716 222.648 144.505 235.627 176.085 230.899C192.363 228.459 211.036 217.966 218.024 203.034" stroke="black" stroke-linecap="round" stroke-linejoin="round"/>
<path d="M127.891 218.606C144.52 217.294 162.248 210.263 174.635 199.068C179.67 194.523 187.283 185.464 192.348 190.497C195.765 193.883 192.912 199.389 189.144 202.393C194.026 198.946 197.123 196.048 201.623 192.129C204.369 189.734 209.572 187.08 214.972 190.802C218.954 193.547 218.557 200.136 218.069 202.759" stroke="black" stroke-linecap="round" stroke-linejoin="round"/>
<path d="M67.9195 208.57C65.2345 207.213 61.5578 204.071 57.6675 199.129" stroke="black" stroke-linecap="round" stroke-linejoin="round"/>
<path d="M138.311 261.495C103.969 261.922 55.1959 242.094 36.4463 212.582" stroke="black" stroke-linecap="round" stroke-linejoin="round"/>
<path d="M119.378 174.284C122.612 183.206 131.72 189.643 141.194 189.688C150.668 189.734 159.837 183.374 163.147 174.482" stroke="black" stroke-linecap="round" stroke-linejoin="round"/>
<path d="M165.818 130.389C165.695 134.171 166.092 138.793 166.413 141.721C166.763 145.137 167.984 147.99 169.708 150.216C171.432 152.443 174.91 153.816 177.717 153.999C180.723 154.197 184.46 152.946 186.322 150.567C190.197 145.595 189.739 136.871 189.266 130.145" stroke="black" stroke-linecap="round" stroke-linejoin="round"/>
<path d="M99.0112 130.084C98.6756 133.851 98.8129 138.488 98.9502 141.431C99.1028 144.863 100.155 147.776 101.757 150.11C103.359 152.443 106.731 153.999 109.538 154.35C112.528 154.716 116.327 153.694 118.325 151.437C122.49 146.693 122.536 137.954 122.444 131.212" stroke="black" stroke-linecap="round" stroke-linejoin="round"/>
<path d="M43.1743 60.0774C62.107 71.1808 86.6539 77.6171 118.463 75.8479C147.129 74.2465 167.572 64.0582 184.552 50.1636" stroke="black" stroke-linecap="round" stroke-linejoin="round"/>
<path d="M157.93 66.9865C156.694 50.2551 155.214 44.6729 159.455 10.7374C159.852 7.61072 160.31 3.98076 158.037 1.81498C156.252 0.0762598 153.506 0 151.034 0C129.889 0.0762597 113.153 7.47345 90.1779 6.40582C84.8993 6.16178 73.5641 0.732093 67.5533 6.40582C61.5424 12.0795 65.1733 24.2353 65.7836 30.4886C67.2481 45.2678 69.4145 56.5084 70.8638 71.3028C70.8638 71.3028 96.4786 78.3645 119.759 75.6496C143.04 72.9348 157.899 66.9865 157.899 66.9865H157.93Z" fill="black"/>
<path d="M161.439 66.2544C158.22 67.7644 153.582 69.8539 152.285 75.2531C151.507 78.4712 152.072 83.1231 154.253 85.6244C157.701 89.5746 162.339 90.9473 167.404 88.8731C171.005 87.4089 173.873 83.6111 175.261 81.9182C173.476 84.206 171.783 86.3565 170.928 89.7272C169.586 94.9586 172.988 100.19 177.488 102.707C180.524 104.4 185.742 105.254 190.242 103.332C194.743 101.41 197.108 97.887 198.74 93.7384C196.345 99.6714 195.765 102.874 196.055 105.925C196.421 109.661 198.572 112.742 202.127 114.405C206.459 116.433 208.778 116.342 211.28 116.357C216.864 116.418 222.051 108.945 222.799 101.746C223.18 107.907 224.339 115.533 229.115 117.898C234.408 120.506 243.425 118.797 246.72 113.901C249.954 109.112 250.641 102.707 245.423 96.2702" stroke="black" stroke-linecap="round" stroke-linejoin="round"/>
<path d="M93.3666 76.1987C95.9296 81.2623 95.5787 89.1934 90.8951 92.137C86.2116 95.0959 76.8444 95.4619 73.7932 90.7033C78.4157 95.7974 78.1869 104.872 73.2897 109.677C68.4078 114.496 59.7577 114.161 55.2266 108.99C57.4998 116.403 52.5721 125.295 45.3255 126.896C38.0789 128.498 30.161 122.443 29.383 114.71C30.4204 121.68 26.164 129.108 19.8022 131.411C13.4405 133.714 5.73618 130.602 2.4714 124.425C-0.793387 118.248 0.777981 109.738 5.99553 105.284" stroke="black" stroke-linecap="round" stroke-linejoin="round"/>
<path d="M147.129 145.702C147.129 145.702 166.107 148.859 161.149 160.618C156.191 172.377 140.355 164.69 140.355 164.69" stroke="black" stroke-linecap="round" stroke-linejoin="round"/>
<path d="M148.792 193.12C149.173 193.105 149.57 193.09 149.921 193.227C150.79 193.578 151.05 194.783 150.638 195.621C150.226 196.46 149.371 196.994 148.502 197.36C145.374 198.672 141.637 198.367 138.769 196.567C138.189 196.201 136.45 194.874 136.816 193.989C137.121 193.242 139.547 193.532 140.203 193.501C143.071 193.364 145.939 193.242 148.807 193.105L148.792 193.12Z" fill="#7565EA"/>
</g>
<defs>
<filter id="filter0_f_360_616" x="0" y="388" width="248" height="85" filterUnits="userSpaceOnUse" color-interpolation-filters="sRGB">
<feFlood flood-opacity="0" result="BackgroundImageFix"/>
<feBlend mode="normal" in="SourceGraphic" in2="BackgroundImageFix" result="shape"/>
<feGaussianBlur stdDeviation="10" result="effect1_foregroundBlur_360_616"/>
</filter>
<clipPath id="clip0_360_616">
<rect width="250" height="428" fill="white"/>
</clipPath>
</defs>
</svg>
