<svg width="346" height="480" viewBox="0 0 346 480" fill="none" xmlns="http://www.w3.org/2000/svg">
<g filter="url(#filter0_f_360_587)">
<ellipse cx="173" cy="433" rx="153" ry="27" fill="#E8D096"/>
</g>
<g clip-path="url(#clip0_360_587)">
<path d="M324.138 58.9415C320.192 51.0775 313.786 47.2613 305.741 43.6615C296.426 39.49 289.031 44.4495 282.795 52.4989L281.929 52.6688C280.985 52.8233 280.969 52.7924 279.701 53.1014C276.096 53.9512 272.661 55.8361 271.206 60.1929C270.402 62.6031 268.684 70.6989 271.887 73.449C257.838 87.1376 249.065 96.8866 237.585 111.641C231.38 85.7471 212.318 68.7213 195.469 67.8716L166.334 67.3617L132.635 70.2818C109.535 89.1152 105.806 110.544 105.806 110.544L105.636 110.869C105.79 97.1955 107.059 84.6038 109.875 69.432C116.327 67.9643 121.526 61.5216 122.856 55.7279C124.063 50.4595 122.934 47.0296 121.417 43.816C121.062 43.059 121.139 42.4719 120.273 41.5294L120.938 39.799C123.058 36.3382 124.543 30.3128 117.426 24.3954C114.3 21.7998 110.045 20.1621 104.723 19.2043C96.4759 17.7056 89.1265 18.4781 83.3243 19.9304C77.3055 21.429 72.8031 22.2942 70.6214 32.6766C69.9097 36.0601 70.1108 41.3286 70.6214 44.743C71.2558 49.069 74.2265 52.607 77.3984 53.6576C63.3339 92.1898 55.2263 147.284 62.978 195.581L62.8697 195.797C53.1995 240.71 52.7198 292.869 83.1851 330.536C89.0955 337.844 96.2129 345.538 104.228 350.791C95.3155 370.289 93.8611 388.226 93.8146 409.655C86.8056 406.998 80.3381 407.43 74.2265 410.134C68.1149 412.838 62.5448 417.488 60.2858 423.776C59.4039 426.233 59.2492 429.416 61.3225 431.007C62.7305 432.088 64.6645 432.042 66.4284 431.934C87.4864 430.791 99.5394 428.427 125.255 430.899C125.982 409.161 128.488 390.914 146.266 366.642C150.784 367.477 155.41 368.713 160.083 369.084C172.399 370.041 182.472 370.227 195.778 367.569L197.836 368.945C215.614 393.216 216.186 409.176 216.913 430.914C242.629 428.458 254.682 430.806 275.74 431.949C277.504 432.042 279.438 432.088 280.846 431.022C282.919 429.431 282.764 426.248 281.882 423.792C279.623 417.504 274.069 412.838 267.942 410.15C261.83 407.446 255.363 407.013 248.354 409.671C248.307 388.242 246.559 369.609 237.647 350.126C244.099 344.904 249.653 337.04 253.924 329.099C269.442 300.161 268.669 268.118 252.469 239.273C247.642 230.668 243.077 222 239.906 212.514C251.634 159.011 269.705 131.371 304.209 83.3215L306.251 82.858C310.878 84.6038 313.353 82.7499 318.861 78.9646C326.118 73.9743 328.485 67.6553 324.138 58.9724V58.9415Z" fill="#E17878"/>
<path d="M103.392 350.003C103.392 350.003 38.4076 314.128 63.3337 198.949C63.3337 198.949 50.7855 119.814 77.3672 53.6576C77.3672 53.6576 79.0846 54.6928 82.1172 54.5383C82.1172 54.5383 61.0902 116.029 76.9185 199.119C76.9185 199.119 53.1992 296.453 103.392 350.018V350.003Z" fill="#BC4242"/>
<path d="M159.789 67.9643C159.789 67.9643 113.48 75.5193 112.335 181.49C112.335 181.49 103.16 121.066 105.914 109.386C105.914 109.386 116.915 79.8607 134.569 70.2509L159.789 67.9643Z" fill="#BC4242"/>
<path d="M297.664 78.4857C297.664 78.4857 290.052 85.0519 289.99 85.1291C287.112 87.9256 257.266 119.119 236.811 158.949L235.666 170.057L235.202 193.866C235.202 193.866 237.275 207.802 239.906 212.514C239.906 212.514 243.681 162.054 304.596 82.688L299.892 80.6023" fill="#BC4242"/>
<path d="M245.739 428.921C245.739 428.921 231.752 431.44 228.085 415.65C224.418 399.86 221.664 379.481 208.373 365.067L195.763 367.585C195.763 367.585 216.944 386.681 216.898 430.914L245.739 428.921Z" fill="#BC4242"/>
<path d="M146.266 366.658C146.266 366.658 123.057 395.132 125.254 430.914L109.813 429.601C109.813 429.601 119.901 382.448 146.266 366.658Z" fill="#BC4242"/>
<path d="M112.459 183.87C105.574 142.572 102.092 110.513 109.643 69.6638C116.095 68.196 121.294 63.1284 122.624 57.3347C123.831 52.0663 122.686 47.6476 121.17 44.4186C120.195 42.3637 116.899 39.1656 113.913 37.5433C108.591 34.6388 105.295 34.3607 99.2763 34.0362C96.8007 33.8972 93.1492 34.3916 90.8128 35.2413C88.4765 36.0911 86.2639 37.2344 85.4903 39.5827C84.1597 43.6306 86.0937 45.8554 89.8381 46.9524C93.9383 48.142 99.0132 48.0184 103.253 47.6785" stroke="black" stroke-linecap="round" stroke-linejoin="round"/>
<path d="M120.675 41.3904C122.795 37.9296 124.28 30.5291 117.163 24.6117C114.037 22.0162 109.782 20.3785 104.46 19.4206C96.2129 17.9219 88.8635 18.6944 83.0613 20.1467C77.2591 21.599 72.54 23.8856 70.3584 34.268C69.6467 37.6515 69.8478 42.9199 70.3584 46.3344C71.3332 52.8542 76.7795 53.7194 81.8854 54.7546C86.9913 55.7897 92.2829 55.1099 97.4507 54.4301C100.019 54.0902 101.814 50.305 100.684 47.9875" stroke="black" stroke-linecap="round" stroke-linejoin="round"/>
<path d="M76.8104 54.1057C61.2142 96.5003 53.447 160.2 65.531 211.402" stroke="black" stroke-linecap="round" stroke-linejoin="round"/>
<path d="M109.303 75.6583C153.306 64.7198 197.434 64.9515 238.544 75.7665" stroke="black" stroke-linecap="round" stroke-linejoin="round"/>
<path d="M187.655 66.991C187.655 66.991 191.276 20.3785 196.846 7.33874C196.846 7.33874 150.165 -11.2475 118.246 14.1058C118.246 14.1058 133.238 35.3495 132.279 70.8534" fill="black"/>
<path d="M187.655 66.991C187.655 66.991 191.276 20.3785 196.846 7.33874C196.846 7.33874 150.165 -11.2475 118.246 14.1058C118.246 14.1058 133.238 35.3495 132.279 70.8534" stroke="black" stroke-linecap="round" stroke-linejoin="round"/>
<path d="M154.172 70.1273C154.172 70.1273 133.13 95.1253 132.047 129.888" stroke="black" stroke-linecap="round" stroke-linejoin="round"/>
<path d="M142.924 70.1273C142.924 70.1273 121.882 83.8932 114.625 113.588" stroke="black" stroke-linecap="round" stroke-linejoin="round"/>
<path d="M229.988 125.191C229.988 125.191 227.187 92.0198 194.215 69.1848" stroke="black" stroke-linecap="round" stroke-linejoin="round"/>
<path d="M245.058 101.939C245.058 101.939 236.858 79.1964 210.183 71.6414" stroke="black" stroke-linecap="round" stroke-linejoin="round"/>
<path d="M103.996 351.023C95.981 345.754 88.8637 339.435 82.9532 332.143C52.4724 294.46 52.9676 242.301 62.6379 197.388" stroke="black" stroke-linecap="round" stroke-linejoin="round"/>
<path d="M209.007 364.819C192.792 369.64 175.231 370.52 159.851 369.331C155.179 368.96 150.568 368.357 146.05 367.523" stroke="black" stroke-linecap="round" stroke-linejoin="round"/>
<path d="M202.044 69.4011C216.558 71.2088 242.675 96.9329 238.683 140.038C237.43 153.619 235.016 173.333 235.295 189.184C235.651 209.594 243.495 225.322 252.222 240.865C268.421 269.725 269.179 301.753 253.676 330.69C249.421 338.632 243.851 345.121 237.399 350.343" stroke="black" stroke-linecap="round" stroke-linejoin="round"/>
<path d="M105.558 112.151C105.558 112.151 109.179 89.6869 132.279 70.8534" stroke="black" stroke-linecap="round" stroke-linejoin="round"/>
<path d="M237.6 111.78C249.576 96.2068 257.544 87.5085 272.057 73.3872C268.854 70.6371 270.17 64.21 270.974 61.7998C272.429 57.4583 276.436 54.322 280.041 53.4723C286.926 51.8346 288.21 52.5607 292.017 53.4723C295.483 54.2911 298.453 56.933 301.084 59.4514C305.431 63.6229 306.437 66.8519 304.534 69.9573C301.625 74.6696 292.837 70.7762 288.489 68.4123" stroke="black" stroke-linecap="round" stroke-linejoin="round"/>
<path d="M283.182 52.4989C289.418 44.434 296.597 39.6291 305.911 43.8006C313.957 47.4004 320.347 51.8654 324.292 59.7449C328.64 68.4432 325.267 74.546 318.011 79.5517C310.708 84.573 306.329 85.4845 299.15 80.2779C293.827 76.4154 289.712 72.7847 291.893 71.1006" stroke="black" stroke-linecap="round" stroke-linejoin="round"/>
<path d="M303.977 83.5378C269.473 131.587 251.494 160.03 239.782 213.534" stroke="black" stroke-linecap="round" stroke-linejoin="round"/>
<path d="M103.995 351.023C95.0833 370.52 93.6289 388.458 93.5825 409.887C86.5735 407.229 80.106 407.662 73.9944 410.366C67.8828 413.07 62.3127 417.72 60.0537 424.008C59.1718 426.465 59.017 429.647 61.0904 431.239C62.4983 432.32 64.4324 432.274 66.1963 432.166C87.2543 431.022 99.3073 428.659 125.023 431.131C125.75 409.392 128.272 391.764 146.05 367.508" stroke="black" stroke-linecap="round" stroke-linejoin="round"/>
<path d="M237.415 350.343C246.327 369.841 248.075 388.458 248.122 409.887C255.131 407.229 261.598 407.662 267.71 410.366C273.821 413.07 279.391 417.72 281.65 424.008C282.532 426.465 282.687 429.647 280.614 431.239C279.206 432.32 277.272 432.274 275.508 432.166C254.45 431.022 242.397 428.659 216.682 431.131C215.954 409.392 214.392 392.135 196.614 367.863" stroke="black" stroke-linecap="round" stroke-linejoin="round"/>
<path d="M202.571 179.652C206.841 180.208 211.637 181.645 213.417 185.554C214.778 188.551 213.85 192.228 211.777 194.793C209.703 197.358 204.737 200.71 201.689 201.977C191.198 206.318 180.228 206.102 169.398 202.703C158.567 199.304 149.748 194.87 143.636 185.322C141.625 182.17 139.644 176.716 139.288 173.008C138.932 169.3 140.541 163.445 143.342 160.973C148.324 156.601 156.37 155.967 162.497 158.516C176.035 164.156 187.934 177.736 202.555 179.652H202.571Z" fill="#631500" stroke="black" stroke-linecap="round" stroke-linejoin="round"/>
<path d="M173.389 141.846C173.389 141.846 171.935 131.34 159.604 125.902" stroke="black" stroke-linecap="round" stroke-linejoin="round"/>
<path d="M209.843 147.083C209.843 147.083 214.392 138.231 223.459 137.504" stroke="black" stroke-linecap="round" stroke-linejoin="round"/>
<path d="M208.589 181.398C208.589 181.398 208.203 184.225 207.46 185.6C206.717 186.975 201.116 186.836 198.919 186.465C173.297 182 158.691 168.095 156.463 165.345C154.235 162.595 156.292 157.28 156.292 157.28C156.292 157.28 160.269 157.219 167.231 161.174C174.194 165.129 185.118 174.167 194.912 177.767C202.323 180.502 204.536 179.25 208.589 181.398Z" fill="white" stroke="black" stroke-linecap="round" stroke-linejoin="round"/>
<path d="M200.958 152.42C201.327 150.301 198.691 148.074 195.071 147.446C191.451 146.818 188.217 148.026 187.848 150.144C187.48 152.263 190.115 154.49 193.736 155.118C197.356 155.746 200.589 154.538 200.958 152.42Z" fill="#725858" stroke="black" stroke-linecap="round" stroke-linejoin="round"/>
<path d="M173.606 208.852C175.339 209.053 177.149 209.115 178.758 209.609C180.368 210.104 181.76 211.154 181.42 212.189C181.219 212.807 180.445 213.286 179.532 213.549C178.619 213.812 177.598 213.92 176.561 213.982C172.786 214.213 168.763 214.059 165.328 212.916C161.893 211.772 159.217 209.409 159.665 207.106C159.82 206.303 160.594 205.222 162.187 205.283C163.363 205.314 163.843 206.04 164.679 206.473C167.108 207.74 170.558 208.512 173.591 208.852H173.606Z" fill="#BC4242"/>
</g>
<defs>
<filter id="filter0_f_360_587" x="0" y="386" width="346" height="94" filterUnits="userSpaceOnUse" color-interpolation-filters="sRGB">
<feFlood flood-opacity="0" result="BackgroundImageFix"/>
<feBlend mode="normal" in="SourceGraphic" in2="BackgroundImageFix" result="shape"/>
<feGaussianBlur stdDeviation="10" result="effect1_foregroundBlur_360_587"/>
</filter>
<clipPath id="clip0_360_587">
<rect width="271" height="433" fill="white" transform="translate(56)"/>
</clipPath>
</defs>
</svg>
