<?xml version="1.0" encoding="utf-8"?>
<!-- Generator: Adobe Illustrator 23.0.1, SVG Export Plug-In . SVG Version: 6.00 Build 0)  -->
<svg version="1.1" id="Layer_1" xmlns="http://www.w3.org/2000/svg" xmlns:xlink="http://www.w3.org/1999/xlink" x="0px" y="0px"
	 viewBox="0 0 1352 544" style="enable-background:new 0 0 1352 544;" xml:space="preserve">
<style type="text/css">
	.st0{fill-rule:evenodd;clip-rule:evenodd;fill:#FDB7AE;}
	.st1{fill:none;stroke:#FDB7AE;stroke-width:5;stroke-miterlimit:10;}
	.st2{fill-rule:evenodd;clip-rule:evenodd;fill:#4AC3B6;}
	.st3{fill:none;stroke:#4AC3B6;stroke-width:5;stroke-miterlimit:10;}
	.st4{fill:url(#SVGID_1_);}
	.st5{fill:#6B4A4A;}
	.st6{fill-rule:evenodd;clip-rule:evenodd;fill:url(#SVGID_2_);}
	.st7{fill:#4E3434;}
	.st8{enable-background:new    ;}
	.st9{fill:#FFFFFF;stroke:#FFFFFF;stroke-miterlimit:10;}
</style>
<path class="st0" d="M1208.1,88.5c-0.2-0.9-0.5-1.9-0.7-2.9c-12.4-46.4-60.2-74-106.6-61.6c-46.3,12.4-73.8,59.9-61.7,106.2l0,0
	l22.7,84.7l168.2-45L1208.1,88.5z"/>
<path class="st1" d="M1086.9,34.4l-3.2-12.1c-1.6-6,1.9-12.3,8.1-13.9l8.8-2.4c6-1.6,12.3,1.9,14,8.1l3.2,12.1"/>
<path class="st2" d="M313.8,261.5c-0.4-1.5-0.7-3.1-1.1-4.6c-19.9-74.3-96.3-118.4-170.6-98.5c-74.1,19.9-118.2,95.9-98.7,170h-0.1
	L79.6,464l269.2-72.1L313.8,261.5z"/>
<path class="st3" d="M120,174.3l-7.2-27c-1.4-5.3,1.7-10.8,7.1-12.2l29.9-8c5.3-1.4,10.8,1.7,12.2,7.1l7.2,27"/>
<linearGradient id="SVGID_1_" gradientUnits="userSpaceOnUse" x1="1053.2827" y1="827.0365" x2="337.0484" y2="1018.9505" gradientTransform="matrix(1 0 0 1 0 -558)">
	<stop  offset="0" style="stop-color:#6B4A4A"/>
	<stop  offset="0.4882" style="stop-color:#4A3232"/>
	<stop  offset="1" style="stop-color:#6B4A4A"/>
</linearGradient>
<path class="st4" d="M218.6,484.4l966.9-259.1l1.6,5.8c1.4,5.3-1.7,10.8-7.1,12.2l-947.6,254c-5.3,1.4-10.8-1.7-12.2-7.1
	L218.6,484.4z"/>
<g>
	
		<rect x="1142.9" y="220.9" transform="matrix(0.9659 -0.2588 0.2588 0.9659 -18.8087 308.9138)" class="st5" width="42" height="10"/>
	<g>
		<path class="st5" d="M1166.7,222.2c-104.5,29.3-168.1,15.9-186.8,5.5l349.8-93.7C1318.9,151.1,1271.1,192.8,1166.7,222.2z"/>
	</g>
</g>
<path class="st5" d="M972.1,217.3l353.5-94.7c3.2-0.9,6.5,1,7.3,4.2l0,0c0.9,3.2-1,6.5-4.2,7.3l-353.5,94.7c-3.2,0.9-6.5-1-7.3-4.2
	l0,0C967,221.4,968.9,218.1,972.1,217.3z"/>
<g>
	
		<rect x="216.6" y="469.1" transform="matrix(0.9659 -0.2588 0.2588 0.9659 -114.602 77.6435)" class="st5" width="42" height="10"/>
	<g>
		<path class="st5" d="M240.3,470.4c-104.5,29.3-168.1,15.9-186.8,5.5l349.8-93.7C392.5,399.3,344.8,441.1,240.3,470.4z"/>
	</g>
</g>
<path class="st5" d="M45.8,465.5l353.5-94.7c3.2-0.9,6.5,1,7.3,4.2l0,0c0.9,3.2-1,6.5-4.2,7.3L48.9,477.1c-3.2,0.9-6.5-1-7.3-4.2
	l0,0C40.7,469.6,42.6,466.3,45.8,465.5z"/>
<linearGradient id="SVGID_2_" gradientUnits="userSpaceOnUse" x1="695.414" y1="868.7" x2="695.414" y2="1056.5" gradientTransform="matrix(1 0 0 1 0 -558)">
	<stop  offset="0.8728" style="stop-color:#6B4A4A"/>
	<stop  offset="1" style="stop-color:#4D3434"/>
</linearGradient>
<path class="st6" d="M773.7,475.4c-1.2,0-2.3-0.7-2.7-1.8l-72.2-161.1c-1.1-2.4-4.4-2.4-5.5,0l-72.2,161.1c-0.5,1.1-1.6,1.8-2.7,1.8
	h-67.7c-4.9,0-9.1,3.6-9.9,8.5L539,495c-0.3,1.8,1.1,3.5,3,3.5h306.9c1.9,0,3.3-1.7,2.9-3.6l-2.2-11.3c-0.9-4.7-5-8.1-9.8-8.1h-66.1
	L773.7,475.4L773.7,475.4z"/>
<circle class="st7" cx="695" cy="369.7" r="14"/>
<path class="st5" d="M524,499.7c0-2.2,1.8-4,4-4h335c2.2,0,4,1.8,4,4v9c0,5.5-4.5,10-10,10H534c-5.5,0-10-4.5-10-10V499.7z"/>
<g class="st8">
	<path class="st9" d="M118.6,338.8c-1.2-0.4-2.4-1-3.7-1.7c-1.3-0.7-2.5-1.4-3.7-2.2c-1.2-0.8-2.4-1.7-3.5-2.7
		c-0.6-0.5-1.2-1.1-1.7-1.6c-0.1,0.7-0.2,1.3-0.3,2c-0.4,2.4-1.1,4.6-2.1,6.7c-1,2.1-2.1,4-3.5,5.8l-2.3-1.3
		c2.7-3.3,4.4-7.1,5.2-11.6c0.8-4.5,0.4-9.5-1.1-15l2.7-0.8c0.9,3,1.4,5.8,1.6,8.5c0,0.8,0.1,1.6,0.1,2.4c1.7,1.9,3.7,3.6,5.9,5.2
		c2.4,1.6,5,2.9,7.7,3.7L118.6,338.8z M124.4,343l-8.9-30.9l2.6-0.8l3.4,11.8l5-1.4l0.7,2.4l-5,1.4l4.8,16.7L124.4,343z"/>
	<path class="st9" d="M128.6,316.1l-0.7-2.3l20.6-5.9l0.7,2.3L128.6,316.1z M142.7,304.8l0.7,2.3l-11.4,3.3l-0.7-2.3L142.7,304.8z
		 M132.7,335.6l-0.7-2.3l10.3-3.1l-1-3.5c-0.6,0.1-1.3,0.2-1.9,0.2c-1.1,0-2.1-0.2-3-0.5c-0.9-0.3-1.7-0.8-2.3-1.4
		c-0.7-0.6-1.1-1.4-1.4-2.3c-0.3-0.9-0.3-1.8,0-2.7s0.7-1.7,1.2-2.4c0.6-0.8,1.3-1.4,2.3-2c0.9-0.6,1.9-1,3-1.3
		c1.1-0.3,2.2-0.5,3.3-0.5c1.1,0,2.1,0.2,3,0.5c0.9,0.3,1.7,0.8,2.4,1.4s1.1,1.4,1.4,2.3c0.3,0.9,0.3,1.8,0,2.7s-0.7,1.7-1.2,2.4
		c-0.6,0.8-1.3,1.4-2.3,2c-0.5,0.3-1.1,0.6-1.7,0.9l1,3.5l10.5-3.2l0.6,2.2L132.7,335.6z M142.1,324.3c0.8-0.2,1.6-0.6,2.2-1
		c0.6-0.4,1.2-0.8,1.6-1.3c0.4-0.5,0.7-1,0.8-1.5s0.1-1.1,0-1.7c-0.2-0.6-0.4-1-0.8-1.4c-0.4-0.4-0.9-0.7-1.5-0.9
		c-0.6-0.2-1.3-0.3-2-0.3c-0.7,0-1.5,0.1-2.4,0.4c-0.8,0.2-1.6,0.6-2.2,0.9c-0.6,0.4-1.2,0.8-1.6,1.3c-0.4,0.5-0.7,1-0.8,1.5
		c-0.1,0.5-0.1,1.1,0,1.7c0.2,0.6,0.4,1,0.8,1.4c0.4,0.4,0.9,0.7,1.5,0.9c0.6,0.2,1.3,0.3,2,0.3
		C140.5,324.6,141.3,324.5,142.1,324.3z M159,333.1l-8.9-30.9l2.6-0.8l8.9,30.9L159,333.1z"/>
	<path class="st9" d="M184,304.5c0-0.7-0.1-1.4-0.2-2.1s-0.2-1.5-0.3-2.3c-0.1-0.8-0.3-1.5-0.4-2.3s-0.3-1.4-0.5-2l-21.7,6.2
		l-0.6-2.1l24.4-7c0.6,2,1,4,1.4,5.9c0.3,1.9,0.5,3.6,0.6,4.9L184,304.5z M173.7,309.8l-1.8-6.3l2.7-0.8l1.8,6.3l14.9-4.3l0.6,2.2
		l-30.3,8.7l-0.6-2.2L173.7,309.8z M177.6,313.8c1.4-0.4,2.8-0.6,4.2-0.6c1.3,0,2.6,0.1,3.6,0.5c1.1,0.4,2,0.9,2.8,1.6
		c0.8,0.7,1.3,1.6,1.6,2.7c0.3,1.1,0.3,2.1,0.1,3.2c-0.3,1-0.8,2-1.5,2.8c-0.7,0.9-1.7,1.7-2.8,2.3c-1.1,0.7-2.4,1.2-3.9,1.7
		c-1.4,0.4-2.8,0.6-4.2,0.6c-1.3,0-2.6-0.1-3.6-0.5c-1.1-0.4-2-0.9-2.8-1.6s-1.3-1.6-1.6-2.7c-0.3-1.1-0.3-2.1-0.1-3.2
		c0.3-1,0.8-2,1.5-2.8c0.7-0.9,1.7-1.7,2.8-2.3C174.9,314.8,176.2,314.3,177.6,313.8z M181.1,325.8c1.1-0.3,2-0.7,2.9-1.2
		c0.8-0.5,1.6-1,2.1-1.7c0.6-0.6,0.9-1.3,1.2-2c0.2-0.7,0.2-1.4,0-2.2c-0.2-0.8-0.6-1.4-1.2-1.9c-0.6-0.5-1.2-0.8-2.1-1.1
		c-0.8-0.2-1.7-0.3-2.7-0.3c-1,0-2,0.2-3.1,0.5c-1.1,0.3-2,0.7-2.9,1.2c-0.8,0.5-1.6,1-2.1,1.7c-0.6,0.6-0.9,1.3-1.2,2
		c-0.2,0.7-0.2,1.4,0,2.2c0.2,0.8,0.6,1.4,1.2,1.9c0.6,0.5,1.2,0.8,2.1,1.1c0.8,0.2,1.7,0.3,2.7,0.3
		C179,326.3,180,326.1,181.1,325.8z"/>
	<path class="st9" d="M216.7,295.2c0-0.7-0.1-1.4-0.2-2.1c-0.1-0.8-0.2-1.5-0.3-2.3c-0.1-0.8-0.3-1.5-0.4-2.3
		c-0.2-0.7-0.3-1.4-0.5-2l-21.7,6.2l-0.6-2.1l24.4-7c0.6,2,1,4,1.4,5.9c0.3,1.9,0.5,3.6,0.6,4.9L216.7,295.2z M206.3,300.4l-1.8-6.3
		l2.7-0.8l1.8,6.3l14.9-4.3l0.6,2.2l-30.3,8.7l-0.6-2.2L206.3,300.4z M210.3,304.5c1.4-0.4,2.8-0.6,4.2-0.6c1.3,0,2.6,0.1,3.6,0.5
		c1.1,0.4,2,0.9,2.8,1.6c0.8,0.7,1.3,1.6,1.6,2.7c0.3,1.1,0.3,2.1,0.1,3.2c-0.3,1-0.8,2-1.5,2.8c-0.7,0.9-1.7,1.7-2.8,2.3
		s-2.4,1.2-3.9,1.7c-1.4,0.4-2.8,0.6-4.2,0.6s-2.6-0.1-3.6-0.5c-1.1-0.4-2-0.9-2.8-1.6c-0.8-0.7-1.3-1.6-1.6-2.7
		c-0.3-1.1-0.3-2.1-0.1-3.2c0.3-1,0.8-2,1.5-2.8c0.7-0.9,1.7-1.7,2.8-2.3C207.6,305.4,208.9,304.9,210.3,304.5z M213.7,316.4
		c1.1-0.3,2-0.7,2.9-1.2s1.6-1,2.1-1.7c0.6-0.6,0.9-1.3,1.2-2c0.2-0.7,0.2-1.4,0-2.2c-0.2-0.8-0.6-1.4-1.2-1.9
		c-0.6-0.5-1.2-0.8-2.1-1.1c-0.8-0.2-1.7-0.3-2.7-0.3c-1,0-2,0.2-3.1,0.5c-1.1,0.3-2,0.7-2.9,1.2c-0.8,0.5-1.6,1-2.1,1.7
		c-0.6,0.6-0.9,1.3-1.2,2c-0.2,0.7-0.2,1.4,0,2.2c0.2,0.8,0.6,1.4,1.2,1.9c0.6,0.5,1.2,0.8,2.1,1.1c0.8,0.2,1.7,0.3,2.7,0.3
		C211.7,316.9,212.7,316.8,213.7,316.4z"/>
	<path class="st9" d="M247.4,293.3c-1.1-0.2-2.3-0.5-3.5-0.9c-1.2-0.4-2.4-0.9-3.5-1.5c-1.1-0.6-2.2-1.3-3.3-2.1
		c-0.4-0.3-0.8-0.6-1.2-1c-0.2,0.7-0.3,1.4-0.6,2c-0.6,1.8-1.4,3.6-2.5,5.2c-1.1,1.6-2.3,3.1-3.8,4.4l-2.2-1.4
		c1.4-1.2,2.6-2.6,3.6-4.1c1-1.5,1.7-3.1,2.2-4.7c0.5-1.7,0.8-3.4,0.8-5.1s-0.1-3.5-0.5-5.3l2.7-0.8c0.5,2,0.7,4,0.7,6
		c0,0.4,0,0.7-0.1,1c0.5,0.5,1.1,1.1,1.7,1.5c1,0.7,2,1.4,3.2,1.9c1.1,0.5,2.3,1,3.5,1.3c1.2,0.3,2.5,0.6,3.8,0.7L247.4,293.3z
		 M236.6,310.5l-2.9-10.2l2.6-0.8l2.3,7.9l21.1-6.1l0.7,2.3L236.6,310.5z M242.1,282.8l7.8-2.2l-1.8-6.4l2.6-0.8l6.5,22.8l-2.6,0.8
		l-4-14l-7.8,2.2L242.1,282.8z"/>
</g>
<g>
	<g>
		<path class="st9" d="M1068.9,110.1c1-0.3,1.9-0.3,2.8-0.2c0.9,0.1,1.7,0.4,2.5,0.8c0.8,0.4,1.4,1,2,1.7c0.6,0.7,1,1.5,1.2,2.4
			c0.2,0.9,0.3,1.8,0.2,2.7c-0.1,0.9-0.4,1.7-0.9,2.4c-0.5,0.7-1.1,1.4-1.8,1.9c-0.7,0.5-1.6,0.9-2.5,1.2c-1,0.3-1.9,0.3-2.8,0.2
			c-0.9-0.1-1.7-0.4-2.5-0.8c-0.8-0.4-1.4-1-2-1.7c-0.6-0.7-1-1.5-1.2-2.4c-0.2-0.9-0.3-1.8-0.2-2.7c0.1-0.9,0.4-1.7,0.9-2.4
			c0.5-0.7,1-1.4,1.8-1.9C1067.1,110.7,1067.9,110.4,1068.9,110.1z M1071.9,121.3c0.7-0.2,1.4-0.5,1.9-0.9c0.5-0.4,0.9-0.8,1.2-1.4
			c0.3-0.5,0.5-1.1,0.6-1.7c0.1-0.6,0-1.3-0.2-2c-0.2-0.7-0.5-1.3-0.8-1.8c-0.4-0.5-0.8-0.9-1.4-1.2c-0.5-0.3-1.1-0.5-1.8-0.6
			c-0.7-0.1-1.3,0-2.1,0.2s-1.4,0.5-1.9,0.9c-0.5,0.4-0.9,0.8-1.2,1.4c-0.3,0.5-0.5,1.1-0.6,1.7c-0.1,0.6,0,1.3,0.2,2
			c0.2,0.7,0.5,1.3,0.8,1.8c0.4,0.5,0.8,0.9,1.4,1.2c0.5,0.3,1.1,0.5,1.8,0.6C1070.4,121.5,1071.1,121.5,1071.9,121.3z
			 M1071.3,134.1l-2-7.6l2-0.5l1.6,5.9l15.8-4.2l0.5,1.7L1071.3,134.1z M1084.9,124.2l-4.5-17.1l2-0.5l4.5,17.1L1084.9,124.2z"/>
		<path class="st9" d="M1087.5,106.1l11.9-3.2c0.5,1.8,0.6,3.5,0.3,5.1c-0.3,1.6-0.8,3.2-1.7,4.6c-0.8,1.4-1.9,2.7-3.1,3.9
			c-1.3,1.1-2.7,2.1-4.2,2.9l-1.4-1.3c1.5-0.7,2.8-1.6,3.9-2.6c1.1-1,2-2.1,2.8-3.2c0.7-1.1,1.2-2.3,1.5-3.5
			c0.3-1.2,0.4-2.4,0.2-3.5l-9.8,2.6L1087.5,106.1z M1095.3,127.7l-2-7.6l2-0.5l1.6,5.9l15.6-4.1l0.5,1.7L1095.3,127.7z
			 M1108.6,117.9l-4.5-17.1l2-0.5l1.7,6.5l3.2-0.8l0.5,1.8l-3.2,0.8l2.3,8.8L1108.6,117.9z"/>
		<path class="st9" d="M1133.9,103.6c-0.9,0.1-1.8,0.1-2.8,0.1c-1,0-1.9-0.2-2.9-0.3c-1-0.2-1.9-0.4-2.8-0.7c-0.8-0.3-1.5-0.6-2.2-1
			c-0.5,0.9-1,1.8-1.7,2.6c-0.8,1-1.8,1.9-2.9,2.6c-1.1,0.8-2.2,1.4-3.3,2l-1.3-1.3c1.2-0.5,2.2-1.1,3.2-1.8c1-0.7,1.8-1.4,2.5-2.2
			c0.7-0.8,1.2-1.7,1.6-2.6c0.3-0.8,0.5-1.6,0.5-2.5l-8.1,2.1l-0.4-1.7l17.6-4.7l0.4,1.7l-7.4,2c0.1,0.7,0,1.5-0.2,2.2
			c1.3,0.8,2.9,1.4,4.6,1.6c1.9,0.3,3.9,0.4,6,0.2L1133.9,103.6z M1124.2,108.8l-1-3.8l2-0.5l1,3.8l10.4-2.7l0.5,1.7l-22.8,6
			l-0.5-1.7L1124.2,108.8z M1119.1,121.4l-1.8-6.9l2-0.5l1.4,5.1l16.5-4.4l0.5,1.7L1119.1,121.4z"/>
		<path class="st9" d="M1142.4,90.6c1-0.3,1.9-0.3,2.8-0.2c0.9,0.1,1.7,0.3,2.5,0.7c0.7,0.4,1.4,0.9,1.9,1.6c0.4,0.5,0.7,1,0.9,1.5
			l4.9-1.3l-1.4-5.2l2-0.5l3.5,13l-2,0.5l-1.6-6.1l-4.9,1.3c0.1,0.6,0.1,1.2,0,1.8c-0.1,0.9-0.4,1.6-0.9,2.3c-0.5,0.7-1,1.3-1.8,1.8
			c-0.7,0.5-1.6,0.9-2.5,1.2c-1,0.3-1.9,0.3-2.8,0.2c-0.9-0.1-1.7-0.3-2.5-0.7c-0.7-0.4-1.4-0.9-1.9-1.6s-0.9-1.5-1.2-2.4
			c-0.2-0.9-0.3-1.8-0.1-2.6c0.1-0.9,0.4-1.6,0.9-2.3c0.5-0.7,1-1.3,1.8-1.8C1140.6,91.2,1141.4,90.8,1142.4,90.6z M1145.2,101.2
			c0.7-0.2,1.4-0.5,1.9-0.9c0.5-0.4,0.9-0.8,1.3-1.3c0.3-0.5,0.5-1.1,0.6-1.7c0.1-0.6,0-1.2-0.2-1.9c-0.2-0.6-0.4-1.2-0.8-1.7
			c-0.4-0.5-0.8-0.9-1.3-1.2c-0.5-0.3-1.1-0.5-1.7-0.5c-0.6-0.1-1.3,0-2,0.2c-0.7,0.2-1.4,0.5-1.9,0.9c-0.5,0.4-0.9,0.8-1.2,1.3
			c-0.3,0.5-0.5,1.1-0.6,1.7c-0.1,0.6,0,1.2,0.2,1.9c0.2,0.7,0.4,1.2,0.8,1.7c0.4,0.5,0.8,0.9,1.3,1.2c0.5,0.3,1.1,0.5,1.7,0.5
			C1143.8,101.5,1144.5,101.4,1145.2,101.2z M1159.6,101.4l2.3,8.7l-17.1,4.5l-2.3-8.7L1159.6,101.4z M1146.3,112.4l13.2-3.5
			l-1.4-5.3l-13.2,3.5L1146.3,112.4z"/>
		<path class="st9" d="M1177.5,93.5c-0.8-0.1-1.7-0.2-2.5-0.5c-0.9-0.3-1.7-0.6-2.5-1c-0.8-0.4-1.6-0.8-2.4-1.3
			c-0.3-0.2-0.7-0.5-1-0.7c-0.2,0.6-0.4,1.2-0.7,1.8c-0.5,1.2-1.2,2.4-2.1,3.5c-0.8,1.1-1.8,2-2.8,2.8L1162,97
			c1-0.8,1.9-1.6,2.7-2.6c0.8-1,1.4-2,1.8-3.1c0.5-1.1,0.8-2.2,0.9-3.4s0.1-2.3-0.1-3.5l2-0.5c0.3,1.3,0.3,2.7,0.1,4
			c0,0.1,0,0.2,0,0.3c1,0.9,2.2,1.6,3.5,2.2c1.7,0.7,3.4,1.1,5.2,1.2L1177.5,93.5z M1176.6,95.2c1.1-0.3,2.1-0.4,3.1-0.4
			c1,0,1.8,0.2,2.6,0.5c0.8,0.3,1.4,0.8,2,1.3c0.5,0.6,0.9,1.3,1.1,2c0.2,0.8,0.2,1.6,0,2.3c-0.2,0.8-0.5,1.5-1.1,2.1
			c-0.5,0.7-1.2,1.2-2,1.8c-0.8,0.5-1.8,0.9-2.9,1.2c-1.1,0.3-2.1,0.4-3.1,0.4c-1,0-1.9-0.2-2.6-0.5c-0.8-0.3-1.4-0.8-2-1.3
			c-0.5-0.6-0.9-1.3-1.1-2.1c-0.2-0.8-0.2-1.6,0-2.3c0.2-0.8,0.5-1.5,1-2.1c0.5-0.7,1.2-1.2,2-1.8
			C1174.6,95.9,1175.5,95.5,1176.6,95.2z M1179.1,104.4c1.7-0.5,2.9-1.2,3.7-2.1c0.8-1,1-2,0.7-3.1c-0.3-1.1-1-1.9-2.1-2.3
			c-1.1-0.5-2.6-0.5-4.3,0c-1.7,0.5-2.9,1.2-3.7,2.1s-1,2-0.7,3.1c0.3,1.1,1,1.9,2.1,2.3C1175.9,104.9,1177.4,104.9,1179.1,104.4z
			 M1173.9,86.5l5.8-1.5l-1-3.9l2-0.5l3.4,12.9l-2,0.5l-1.9-7.3l-5.8,1.5L1173.9,86.5z"/>
	</g>
</g>
</svg>
