<?xml version="1.0" encoding="utf-8"?>
<!-- Generator: Adobe Illustrator 23.0.1, SVG Export Plug-In . SVG Version: 6.00 Build 0)  -->
<svg version="1.1" id="Layer_1" xmlns="http://www.w3.org/2000/svg" xmlns:xlink="http://www.w3.org/1999/xlink" x="0px" y="0px"
	 viewBox="0 0 1340 555" style="enable-background:new 0 0 1340 555;" xml:space="preserve">
<style type="text/css">
	.st0{fill-rule:evenodd;clip-rule:evenodd;fill:#FDB7AE;}
	.st1{fill:none;stroke:#FDB7AE;stroke-width:5;stroke-miterlimit:10;}
	.st2{fill:url(#SVGID_1_);}
	.st3{fill:#6B4A4A;}
	.st4{fill-rule:evenodd;clip-rule:evenodd;fill:#4AC3B6;}
	.st5{fill:none;stroke:#4AC3B6;stroke-width:5;stroke-miterlimit:10;}
	.st6{fill-rule:evenodd;clip-rule:evenodd;fill:url(#SVGID_2_);}
	.st7{fill:#4E3434;}
	.st8{enable-background:new    ;}
	.st9{fill:#FFFFFF;stroke:#FFFFFF;stroke-miterlimit:10;}
</style>
<path class="st0" d="M1296.2,339.6c0.5-1.5,0.9-3,1.3-4.5c19.9-74.3-24.2-150.7-98.5-170.6c-74.1-19.9-150.3,23.9-170.5,97.9h-0.1
	l-36.3,135.5l269.2,72.1L1296.2,339.6z"/>
<path class="st1" d="M1170.9,167.2l7.3-27c1.4-5.3,6.9-8.5,12.2-7.1l30,8c5.3,1.4,8.5,6.9,7.1,12.2l-7.3,27"/>
<linearGradient id="SVGID_1_" gradientUnits="userSpaceOnUse" x1="996.9711" y1="995.3734" x2="280.7371" y2="803.4584" gradientTransform="matrix(1 0 0 1 0 -528)">
	<stop  offset="0" style="stop-color:#6B4A4A"/>
	<stop  offset="0.4882" style="stop-color:#4A3232"/>
	<stop  offset="1" style="stop-color:#6B4A4A"/>
</linearGradient>
<path class="st2" d="M166.4,236.5l966.9,259.1l-1.6,5.8c-1.4,5.3-6.9,8.5-12.3,7.1L171.9,254.6c-5.3-1.4-8.5-6.9-7.1-12.2
	L166.4,236.5z"/>
<g>
	
		<rect x="1109.2" y="464.5" transform="matrix(0.2588 -0.9659 0.9659 0.2588 356.8763 1436.026)" class="st3" width="10" height="42"/>
	<g>
		<path class="st3" d="M1118.6,483.5c-105.1-26.8-153.5-70.3-164.5-88.7l349.8,93.7C1285.9,498,1223.7,510.3,1118.6,483.5z"/>
	</g>
</g>
<path class="st3" d="M952.6,382l353.5,94.7c3.2,0.9,5.1,4.1,4.2,7.3l0,0c-0.9,3.2-4.1,5.1-7.3,4.2l-353.5-94.7
	c-3.2-0.9-5.1-4.1-4.2-7.3l0,0C946.1,383,949.4,381.1,952.6,382z"/>
<g>
	<path class="st4" d="M307.3,133.6c0.4-0.9,0.6-1.8,0.8-2.9c12.7-46.5-15.5-94.3-63-106.8c-47.4-12.3-96.1,15-108.9,61.2l0,0
		L112.8,170l172.1,45.1L307.3,133.6z"/>
	<path class="st5" d="M227.5,25.9l3.3-12.1c1.6-6.1,8.1-9.7,14.2-8.1l9,2.4c6.2,1.6,9.9,7.9,8.3,13.9L259,34.1"/>
	<g>
		
			<rect x="182.9" y="216.2" transform="matrix(0.2588 -0.9659 0.9659 0.2588 -89.7953 357.3329)" class="st3" width="10" height="42"/>
		<g>
			<path class="st3" d="M192.3,235.3C87.2,208.4,38.8,165,27.7,146.6l349.8,93.7C359.6,249.8,297.4,262.1,192.3,235.3z"/>
		</g>
	</g>
	<path class="st3" d="M26.2,133.7l353.5,94.7c3.2,0.9,5.1,4.1,4.2,7.3l0,0c-0.9,3.2-4.1,5.1-7.3,4.2L23.1,145.3
		c-3.2-0.9-5.1-4.1-4.2-7.3l0,0C19.8,134.8,23,132.9,26.2,133.7z"/>
</g>
<linearGradient id="SVGID_2_" gradientUnits="userSpaceOnUse" x1="655.514" y1="849" x2="655.514" y2="1036.8" gradientTransform="matrix(1 0 0 1 0 -528)">
	<stop  offset="0.8728" style="stop-color:#6B4A4A"/>
	<stop  offset="1" style="stop-color:#4D3434"/>
</linearGradient>
<path class="st6" d="M733.7,485.7c-1.2,0-2.3-0.7-2.7-1.8l-72.2-161.1c-1.1-2.4-4.4-2.4-5.5,0l-72.2,161.1c-0.5,1.1-1.6,1.8-2.7,1.8
	h-67.7c-4.9,0-9.1,3.6-9.9,8.5l-1.7,11.1c-0.3,1.8,1.1,3.5,3,3.5H809c1.9,0,3.3-1.7,2.9-3.6l-2.2-11.3c-0.9-4.7-5-8.1-9.8-8.1h-66.2
	V485.7z"/>
<circle class="st7" cx="655" cy="380" r="14"/>
<path class="st3" d="M484,510c0-2.2,1.8-4,4-4h335c2.2,0,4,1.8,4,4v9c0,5.5-4.5,10-10,10H494c-5.5,0-10-4.5-10-10V510z"/>
<g class="st8">
	<path class="st9" d="M172.3,112.9c-0.6-0.7-1.2-1.5-1.7-2.4c-0.5-0.9-1-1.8-1.5-2.7c-0.5-1-0.8-1.9-1.2-2.9
		c-0.2-0.5-0.4-1.1-0.5-1.6c-0.3,0.4-0.6,0.7-0.9,1.1c-1.1,1.3-2.4,2.5-3.7,3.4c-1.4,1-2.8,1.7-4.3,2.4l-0.9-1.7
		c2.9-1.1,5.3-2.8,7.4-5.3c2.1-2.5,3.7-5.7,4.7-9.7l2,0.5c-0.6,2.2-1.3,4.1-2.1,5.9c-0.3,0.5-0.6,1-0.8,1.5c0.3,1.8,1,3.6,1.8,5.4
		c0.9,1.9,2.1,3.6,3.5,5.1L172.3,112.9z M174.4,117.7l5.7-22.4l1.9,0.5l-2.2,8.5l3.6,0.9l-0.4,1.7l-3.6-0.9l-3.1,12.1L174.4,117.7z"
		/>
	<path class="st9" d="M186.7,102.5l0.4-1.7l15,3.8l-0.4,1.7L186.7,102.5z M199.6,100.6l-0.4,1.7l-8.3-2.1l0.4-1.7L199.6,100.6z
		 M182.2,116.1l0.4-1.7l7.5,1.8l0.6-2.5c-0.4-0.2-0.9-0.4-1.2-0.6c-0.7-0.4-1.2-0.9-1.7-1.4c-0.4-0.5-0.8-1.1-1-1.7
		c-0.2-0.6-0.2-1.3,0-1.9c0.2-0.7,0.5-1.2,0.9-1.7c0.5-0.5,1-0.8,1.7-1.1c0.6-0.3,1.4-0.4,2.1-0.4c0.8,0,1.6,0.1,2.4,0.3
		c0.8,0.2,1.5,0.5,2.2,0.9c0.7,0.4,1.2,0.9,1.7,1.4c0.4,0.5,0.8,1.1,1,1.7c0.2,0.6,0.2,1.3,0,1.9c-0.2,0.7-0.5,1.2-0.9,1.7
		s-1,0.8-1.7,1.1c-0.6,0.3-1.4,0.4-2.1,0.4c-0.4,0-0.9,0-1.4-0.1l-0.6,2.5l7.7,1.8l-0.4,1.6L182.2,116.1z M192.2,112.4
		c0.6,0.2,1.2,0.2,1.7,0.2c0.5,0,1-0.1,1.4-0.2c0.4-0.2,0.8-0.4,1.1-0.7c0.3-0.3,0.5-0.6,0.6-1c0.1-0.4,0.1-0.8,0-1.2
		c-0.1-0.4-0.3-0.8-0.6-1.1c-0.3-0.3-0.7-0.6-1.1-0.9c-0.5-0.3-1-0.5-1.6-0.6c-0.6-0.2-1.2-0.2-1.7-0.2c-0.5,0-1,0.1-1.4,0.2
		c-0.4,0.2-0.8,0.4-1.1,0.7c-0.3,0.3-0.5,0.6-0.6,1c-0.1,0.4-0.1,0.8,0,1.2c0.1,0.4,0.3,0.8,0.6,1.1c0.3,0.3,0.7,0.6,1.1,0.9
		C191,112,191.6,112.3,192.2,112.4z M199.5,124l5.7-22.4l1.9,0.5l-5.7,22.4L199.5,124z"/>
	<path class="st9" d="M225.4,115.3c0.2-0.4,0.4-0.9,0.6-1.4c0.2-0.5,0.4-1,0.6-1.5c0.2-0.5,0.4-1,0.6-1.6c0.2-0.5,0.3-1,0.4-1.4
		l-15.7-4l0.4-1.6l17.7,4.5c-0.4,1.5-0.8,2.9-1.3,4.2c-0.5,1.3-1,2.4-1.4,3.2L225.4,115.3z M217,114.9l1.2-4.6l2,0.5l-1.2,4.6
		l10.8,2.7l-0.4,1.6l-22-5.6l0.4-1.6L217,114.9z M218,118.8c1,0.3,2,0.6,2.8,1.1c0.8,0.5,1.5,1,2.1,1.6c0.5,0.6,0.9,1.3,1.1,2
		c0.2,0.7,0.2,1.5,0,2.3c-0.2,0.8-0.6,1.4-1.1,2c-0.5,0.5-1.2,0.9-2,1.2c-0.8,0.3-1.6,0.4-2.6,0.4c-1,0-2-0.1-3-0.4
		c-1-0.3-2-0.6-2.8-1.1c-0.8-0.5-1.5-1-2.1-1.6c-0.5-0.6-0.9-1.3-1.1-2c-0.2-0.7-0.2-1.5,0-2.3c0.2-0.8,0.6-1.4,1.1-2
		c0.5-0.5,1.2-0.9,2-1.2c0.8-0.3,1.6-0.4,2.6-0.4C216,118.4,217,118.5,218,118.8z M215.8,127.5c0.8,0.2,1.5,0.3,2.2,0.3
		c0.7,0,1.3-0.1,1.9-0.3c0.6-0.2,1.1-0.5,1.4-0.8c0.4-0.4,0.7-0.8,0.8-1.4c0.1-0.6,0.1-1.1-0.1-1.6c-0.2-0.5-0.5-1-0.9-1.4
		c-0.4-0.4-0.9-0.8-1.6-1.1c-0.6-0.3-1.3-0.6-2.1-0.8c-0.8-0.2-1.5-0.3-2.2-0.3c-0.7,0-1.3,0.1-1.9,0.3c-0.6,0.2-1.1,0.5-1.5,0.8
		c-0.4,0.4-0.7,0.8-0.8,1.4c-0.1,0.6-0.1,1.1,0.1,1.6c0.2,0.5,0.5,1,0.9,1.4c0.4,0.4,0.9,0.8,1.6,1.1
		C214.4,127,215.1,127.3,215.8,127.5z"/>
	<path class="st9" d="M249.1,121.3c0.2-0.4,0.4-0.9,0.6-1.4c0.2-0.5,0.4-1,0.6-1.5c0.2-0.5,0.4-1,0.6-1.6c0.2-0.5,0.3-1,0.4-1.4
		l-15.7-4l0.4-1.6l17.7,4.5c-0.4,1.5-0.8,2.9-1.3,4.2c-0.5,1.3-1,2.4-1.4,3.2L249.1,121.3z M240.7,120.9l1.2-4.6l2,0.5l-1.2,4.6
		l10.8,2.7l-0.4,1.6l-22-5.6l0.4-1.6L240.7,120.9z M241.7,124.8c1,0.3,2,0.6,2.8,1.1c0.8,0.5,1.5,1,2.1,1.6c0.5,0.6,0.9,1.3,1.1,2
		c0.2,0.7,0.2,1.5,0,2.3c-0.2,0.8-0.6,1.4-1.1,2c-0.5,0.5-1.2,0.9-2,1.2c-0.8,0.3-1.6,0.4-2.6,0.4c-1,0-2-0.1-3-0.4
		c-1-0.3-2-0.6-2.8-1.1c-0.8-0.5-1.5-1-2.1-1.6c-0.5-0.6-0.9-1.3-1.1-2c-0.2-0.7-0.2-1.5,0-2.3c0.2-0.8,0.6-1.4,1.1-2
		c0.5-0.5,1.2-0.9,2-1.2c0.8-0.3,1.6-0.4,2.6-0.4C239.7,124.4,240.7,124.6,241.7,124.8z M239.5,133.5c0.8,0.2,1.5,0.3,2.2,0.3
		s1.3-0.1,1.9-0.3c0.6-0.2,1.1-0.5,1.5-0.8c0.4-0.4,0.7-0.8,0.8-1.4c0.1-0.6,0.1-1.1-0.1-1.6c-0.2-0.5-0.5-1-0.9-1.4
		c-0.4-0.4-0.9-0.8-1.6-1.1c-0.6-0.3-1.3-0.6-2.1-0.8c-0.8-0.2-1.5-0.3-2.2-0.3c-0.7,0-1.3,0.1-1.9,0.3c-0.6,0.2-1.1,0.5-1.5,0.8
		c-0.4,0.4-0.7,0.8-0.8,1.4c-0.1,0.6-0.1,1.1,0.1,1.6c0.2,0.5,0.5,1,0.9,1.4c0.4,0.4,0.9,0.8,1.6,1.1
		C238.1,133,238.8,133.3,239.5,133.5z"/>
	<path class="st9" d="M268.8,131.3c-0.7-0.5-1.3-1.1-1.9-1.8c-0.6-0.7-1.2-1.4-1.7-2.2c-0.5-0.8-0.9-1.6-1.3-2.5
		c-0.2-0.3-0.3-0.7-0.4-1c-0.3,0.4-0.7,0.7-1.1,1.1c-1,0.9-2.2,1.7-3.4,2.3c-1.3,0.6-2.6,1.1-3.9,1.4l-0.9-1.6
		c1.3-0.2,2.6-0.7,3.7-1.2c1.1-0.6,2.2-1.3,3.1-2.1c0.9-0.9,1.7-1.8,2.4-2.9c0.7-1.1,1.2-2.2,1.6-3.5l2,0.5c-0.4,1.4-1,2.7-1.7,3.9
		c-0.1,0.2-0.3,0.4-0.4,0.6c0.1,0.5,0.3,1.1,0.5,1.6c0.3,0.8,0.8,1.6,1.3,2.4c0.5,0.8,1.1,1.5,1.7,2.1c0.6,0.7,1.3,1.3,2.1,1.8
		L268.8,131.3z M255.9,138.1l1.9-7.4l1.9,0.5l-1.5,5.7l15.3,3.9l-0.4,1.7L255.9,138.1z M269.3,122.9l5.6,1.4l1.2-4.7l1.9,0.5
		l-4.2,16.5l-1.9-0.5l2.6-10.2l-5.6-1.4L269.3,122.9z"/>
</g>
<g>
	<g>
		<path class="st9" d="M1095.7,279.1c1.3,0.3,2.5,0.9,3.6,1.6c1,0.7,1.9,1.6,2.5,2.7c0.6,1,1.1,2.1,1.3,3.4c0.2,1.2,0.1,2.5-0.2,3.8
			c-0.3,1.3-0.9,2.5-1.7,3.4c-0.8,1-1.7,1.8-2.7,2.3c-1.1,0.6-2.2,0.9-3.5,1.1c-1.3,0.2-2.6,0-3.9-0.3c-1.3-0.3-2.5-0.9-3.6-1.6
			c-1-0.7-1.9-1.6-2.5-2.7c-0.6-1-1.1-2.1-1.3-3.4c-0.2-1.2-0.1-2.5,0.2-3.8c0.3-1.3,0.9-2.5,1.7-3.4c0.8-1,1.7-1.8,2.7-2.3
			c1.1-0.6,2.2-0.9,3.5-1.1C1093.1,278.7,1094.4,278.8,1095.7,279.1z M1091.6,294.8c1,0.3,2,0.3,2.9,0.2c0.9-0.1,1.7-0.4,2.5-0.8
			c0.7-0.4,1.4-1,1.9-1.7c0.5-0.7,0.9-1.6,1.2-2.6c0.3-1,0.3-1.9,0.2-2.8c-0.1-0.9-0.4-1.7-0.8-2.4c-0.4-0.7-1-1.4-1.8-1.9
			c-0.7-0.5-1.6-0.9-2.6-1.2c-1-0.3-2-0.3-2.9-0.2c-0.9,0.1-1.7,0.4-2.5,0.8c-0.7,0.4-1.4,1-1.9,1.7c-0.5,0.7-0.9,1.6-1.2,2.6
			c-0.3,1-0.3,1.9-0.2,2.8c0.1,0.9,0.4,1.7,0.8,2.4c0.4,0.7,1,1.4,1.8,1.9C1089.7,294.1,1090.6,294.5,1091.6,294.8z M1082.1,310
			l2.8-10.7l2.8,0.7l-2.2,8.3l22.2,5.8l-0.6,2.4L1082.1,310z M1105.5,307.4l6.2-24l2.8,0.7l-6.2,24L1105.5,307.4z"/>
		<path class="st9" d="M1121.2,287.1l16.8,4.4c-0.6,2.5-1.7,4.6-3.2,6.4c-1.5,1.8-3.2,3.3-5.2,4.5c-2,1.2-4.2,2-6.5,2.5
			c-2.3,0.5-4.7,0.7-7.1,0.7l-0.8-2.5c2.3,0.1,4.5-0.1,6.5-0.5c2-0.5,3.9-1.1,5.6-2c1.7-0.9,3.1-2,4.3-3.2c1.2-1.3,2.1-2.7,2.7-4.2
			l-13.7-3.6L1121.2,287.1z M1115.8,318.8l2.8-10.7l2.8,0.7l-2.2,8.3l21.8,5.7l-0.6,2.4L1115.8,318.8z M1138.7,316l6.2-24l2.8,0.7
			l-2.4,9.1l4.5,1.2l-0.6,2.5l-4.5-1.2l-3.2,12.4L1138.7,316z"/>
		<path class="st9" d="M1179.4,316c-1.2-0.5-2.3-1.2-3.5-1.9c-1.1-0.7-2.2-1.5-3.3-2.4c-1-0.9-2-1.8-2.9-2.8c-0.8-0.9-1.5-1.8-2-2.8
			c-1.2,0.8-2.5,1.5-3.9,2c-1.7,0.6-3.5,1-5.4,1.2c-1.9,0.2-3.7,0.2-5.4,0.1l-0.7-2.5c1.8,0.2,3.5,0.2,5.2,0c1.7-0.1,3.2-0.5,4.7-1
			c1.4-0.5,2.7-1.2,3.8-2.1c0.9-0.8,1.7-1.7,2.3-2.7l-11.4-3l0.6-2.3l24.7,6.4l-0.6,2.3l-10.3-2.7c-0.4,1-1,1.8-1.7,2.5
			c1.1,1.9,2.6,3.6,4.5,5.2c2.1,1.6,4.5,3.1,7.2,4.4L1179.4,316z M1164,315.6l1.4-5.3l2.8,0.7l-1.4,5.3l14.5,3.8l-0.6,2.4l-31.9-8.3
			l0.6-2.4L1164,315.6z M1149.2,327.4l2.5-9.6l2.8,0.7l-1.9,7.2l23.2,6l-0.6,2.4L1149.2,327.4z"/>
		<path class="st9" d="M1198.8,305.9c1.3,0.3,2.5,0.9,3.5,1.6c1,0.7,1.9,1.6,2.5,2.6c0.6,1,1.1,2.1,1.3,3.3c0.1,0.8,0.1,1.6,0.1,2.4
			l6.8,1.8l1.9-7.3l2.8,0.7l-4.7,18.2l-2.8-0.7l2.2-8.5l-6.8-1.8c-0.3,0.8-0.8,1.5-1.3,2.2c-0.8,0.9-1.7,1.7-2.7,2.2
			c-1,0.5-2.2,0.9-3.4,1c-1.3,0.1-2.5,0-3.9-0.3c-1.3-0.3-2.5-0.9-3.5-1.6c-1-0.7-1.9-1.6-2.5-2.6c-0.6-1-1.1-2.1-1.3-3.3
			s-0.1-2.4,0.2-3.7c0.3-1.3,0.9-2.4,1.6-3.3c0.8-0.9,1.7-1.7,2.7-2.2c1-0.5,2.2-0.9,3.4-1C1196.1,305.5,1197.4,305.6,1198.8,305.9z
			 M1194.9,320.9c1,0.3,2,0.3,2.9,0.2c0.9-0.1,1.7-0.4,2.4-0.7c0.7-0.4,1.3-0.9,1.8-1.6c0.5-0.7,0.9-1.5,1.1-2.4
			c0.2-0.9,0.3-1.8,0.2-2.6c-0.1-0.9-0.4-1.6-0.8-2.3c-0.4-0.7-1-1.3-1.8-1.8c-0.7-0.5-1.6-0.9-2.6-1.2c-1-0.3-2-0.3-2.9-0.2
			c-0.9,0.1-1.7,0.4-2.4,0.7c-0.7,0.4-1.3,0.9-1.8,1.6c-0.5,0.7-0.9,1.5-1.1,2.4c-0.2,0.9-0.3,1.8-0.2,2.6c0.1,0.8,0.4,1.6,0.8,2.3
			c0.4,0.7,1,1.3,1.8,1.8C1193,320.2,1193.9,320.6,1194.9,320.9z M1212.3,331l-3.2,12.2l-24-6.3l3.2-12.2L1212.3,331z M1188.5,335.3
			l18.5,4.8l1.9-7.5l-18.5-4.8L1188.5,335.3z"/>
		<path class="st9" d="M1239.6,333.6c-1-0.7-1.9-1.5-2.8-2.4c-0.9-0.9-1.7-1.9-2.4-2.9c-0.8-1-1.4-2.1-2-3.2c-0.3-0.5-0.5-1-0.7-1.5
			c-0.7,0.6-1.4,1.2-2.1,1.8c-1.5,1.1-3.2,2.1-4.9,2.8c-1.8,0.7-3.5,1.3-5.3,1.5l-1.1-2.4c1.8-0.2,3.5-0.7,5.1-1.3
			c1.6-0.7,3-1.5,4.3-2.5c1.3-1,2.4-2.2,3.4-3.5c1-1.3,1.7-2.8,2.3-4.3l2.8,0.7c-0.6,1.8-1.5,3.5-2.6,5c-0.1,0.1-0.1,0.2-0.2,0.3
			c0.6,1.8,1.5,3.5,2.8,5c1.6,2,3.4,3.6,5.5,5L1239.6,333.6z M1237.3,335.1c1.5,0.4,2.9,1,4,1.7c1.2,0.7,2.1,1.5,2.8,2.5
			c0.7,0.9,1.2,1.9,1.5,3c0.3,1.1,0.3,2.2,0,3.3c-0.3,1.1-0.8,2.1-1.6,2.9c-0.8,0.8-1.7,1.4-2.8,1.9c-1.1,0.4-2.3,0.7-3.7,0.8
			c-1.4,0.1-2.8-0.1-4.3-0.5c-1.5-0.4-2.9-1-4.1-1.7c-1.2-0.7-2.1-1.5-2.9-2.5c-0.7-0.9-1.2-1.9-1.5-3c-0.3-1.1-0.2-2.2,0.1-3.3
			c0.3-1.1,0.8-2.1,1.5-2.9c0.7-0.8,1.7-1.4,2.7-1.9c1.1-0.4,2.3-0.7,3.7-0.8C1234.4,334.5,1235.8,334.7,1237.3,335.1z M1234,348
			c2.4,0.6,4.4,0.6,6,0c1.6-0.7,2.6-1.7,3-3.3c0.4-1.5,0.1-3-1-4.3c-1.1-1.3-2.8-2.3-5.2-2.9c-2.4-0.6-4.4-0.6-6,0
			c-1.6,0.7-2.6,1.7-3,3.3c-0.4,1.5-0.1,3,1,4.3C1229.8,346.4,1231.6,347.4,1234,348z M1240,322.7l8.2,2.1l1.4-5.5l2.8,0.7
			l-4.7,18.1l-2.8-0.7l2.7-10.3l-8.2-2.1L1240,322.7z"/>
	</g>
</g>
</svg>
