<?xml version="1.0" encoding="utf-8"?>
<!-- Generator: Adobe Illustrator 23.0.1, SVG Export Plug-In . SVG Version: 6.00 Build 0)  -->
<svg version="1.1" id="Layer_1" xmlns="http://www.w3.org/2000/svg" xmlns:xlink="http://www.w3.org/1999/xlink" x="0px" y="0px"
	 viewBox="0 0 1352 544" style="enable-background:new 0 0 1352 544;" xml:space="preserve">
<style type="text/css">
	.st0{fill-rule:evenodd;clip-rule:evenodd;fill:#4AC3B6;}
	.st1{fill:none;stroke:#4AC3B6;stroke-width:5;stroke-miterlimit:10;}
	.st2{fill-rule:evenodd;clip-rule:evenodd;fill:#BBB0DC;}
	.st3{fill:none;stroke:#BBB0DC;stroke-width:5;stroke-miterlimit:10;}
	.st4{fill:url(#SVGID_1_);}
	.st5{fill:#6B4A4A;}
	.st6{fill-rule:evenodd;clip-rule:evenodd;fill:url(#SVGID_2_);}
	.st7{fill:#4E3434;}
	.st8{enable-background:new    ;}
	.st9{fill:#FFFFFF;stroke:#FFFFFF;stroke-miterlimit:10;}
</style>
<path class="st0" d="M1208.1,88.5c-0.2-0.9-0.5-1.9-0.7-2.9c-12.4-46.4-60.2-74-106.6-61.6c-46.3,12.4-73.8,59.9-61.7,106.2l0,0
	l22.7,84.7l168.2-45L1208.1,88.5z"/>
<path class="st1" d="M1086.9,34.4l-3.2-12.1c-1.6-6,1.9-12.3,8.1-13.9l8.8-2.4c6-1.6,12.3,1.9,14,8.1l3.2,12.1"/>
<path class="st2" d="M313.8,261.5c-0.4-1.5-0.7-3.1-1.1-4.6c-19.9-74.3-96.3-118.4-170.6-98.5c-74.1,19.9-118.2,95.9-98.7,170h-0.1
	L79.6,464l269.2-72.1L313.8,261.5z"/>
<path class="st3" d="M120,174.3l-7.2-27c-1.4-5.3,1.7-10.8,7.1-12.2l29.9-8c5.3-1.4,10.8,1.7,12.2,7.1l7.2,27"/>
<linearGradient id="SVGID_1_" gradientUnits="userSpaceOnUse" x1="1053.2827" y1="827.0365" x2="337.0484" y2="1018.9505" gradientTransform="matrix(1 0 0 1 0 -558)">
	<stop  offset="0" style="stop-color:#6B4A4A"/>
	<stop  offset="0.4882" style="stop-color:#4A3232"/>
	<stop  offset="1" style="stop-color:#6B4A4A"/>
</linearGradient>
<path class="st4" d="M218.6,484.4l966.9-259.1l1.6,5.8c1.4,5.3-1.7,10.8-7.1,12.2l-947.6,254c-5.3,1.4-10.8-1.7-12.2-7.1
	L218.6,484.4z"/>
<g>
	
		<rect x="1142.9" y="220.9" transform="matrix(0.9659 -0.2588 0.2588 0.9659 -18.8087 308.9138)" class="st5" width="42" height="10"/>
	<g>
		<path class="st5" d="M1166.7,222.2c-104.5,29.3-168.1,15.9-186.8,5.5l349.8-93.7C1318.9,151.1,1271.1,192.8,1166.7,222.2z"/>
	</g>
</g>
<path class="st5" d="M972.1,217.3l353.5-94.7c3.2-0.9,6.5,1,7.3,4.2l0,0c0.9,3.2-1,6.5-4.2,7.3l-353.5,94.7c-3.2,0.9-6.5-1-7.3-4.2
	l0,0C967,221.4,968.9,218.1,972.1,217.3z"/>
<g>
	
		<rect x="216.6" y="469.1" transform="matrix(0.9659 -0.2588 0.2588 0.9659 -114.602 77.6435)" class="st5" width="42" height="10"/>
	<g>
		<path class="st5" d="M240.3,470.4c-104.5,29.3-168.1,15.9-186.8,5.5l349.8-93.7C392.5,399.3,344.8,441.1,240.3,470.4z"/>
	</g>
</g>
<path class="st5" d="M45.8,465.5l353.5-94.7c3.2-0.9,6.5,1,7.3,4.2l0,0c0.9,3.2-1,6.5-4.2,7.3L48.9,477.1c-3.2,0.9-6.5-1-7.3-4.2
	l0,0C40.7,469.6,42.6,466.3,45.8,465.5z"/>
<linearGradient id="SVGID_2_" gradientUnits="userSpaceOnUse" x1="695.414" y1="868.7" x2="695.414" y2="1056.5" gradientTransform="matrix(1 0 0 1 0 -558)">
	<stop  offset="0.8728" style="stop-color:#6B4A4A"/>
	<stop  offset="1" style="stop-color:#4D3434"/>
</linearGradient>
<path class="st6" d="M773.7,475.4c-1.2,0-2.3-0.7-2.7-1.8l-72.2-161.1c-1.1-2.4-4.4-2.4-5.5,0l-72.2,161.1c-0.5,1.1-1.6,1.8-2.7,1.8
	h-67.7c-4.9,0-9.1,3.6-9.9,8.5L539,495c-0.3,1.8,1.1,3.5,3,3.5h306.9c1.9,0,3.3-1.7,2.9-3.6l-2.2-11.3c-0.9-4.7-5-8.1-9.8-8.1h-66.1
	L773.7,475.4L773.7,475.4z"/>
<circle class="st7" cx="695" cy="369.7" r="14"/>
<path class="st5" d="M524,499.7c0-2.2,1.8-4,4-4h335c2.2,0,4,1.8,4,4v9c0,5.5-4.5,10-10,10H534c-5.5,0-10-4.5-10-10V499.7z"/>
<g class="st8">
	<path class="st9" d="M78.4,329.2l16.1-4.6c0.8,2.8,1.2,5.6,1.2,8.3c0,2.7-0.4,5.3-1.2,7.8c-0.8,2.5-1.9,4.9-3.3,7.1s-3.1,4.2-5,6.1
		l-2.3-1.4c1.8-1.7,3.4-3.5,4.7-5.5c1.3-2,2.3-4.1,3-6.2c0.7-2.2,1.1-4.3,1.2-6.5c0.1-2.2-0.1-4.4-0.6-6.5L79,331.5L78.4,329.2z
		 M109.6,352.2l-8.9-30.9l2.6-0.8l8.9,30.9L109.6,352.2z"/>
	<path class="st9" d="M120.4,348.8l-2.1-7.3l21.1-6.1l-0.8-2.9l-21.1,6.1l-0.6-2.1l10.5-3l-0.9-3l-13.8,4l-0.6-2.2l30.3-8.7l0.6,2.2
		l-13.8,4l0.9,3l10.5-3l2,7.1l-21.1,6.1l0.9,3l21.8-6.3l0.6,2.2L120.4,348.8z M139.3,322c-1.2,0.2-2.4,0.3-3.7,0.4
		c-1.3,0-2.5,0-3.8-0.2c-1.3-0.2-2.5-0.4-3.8-0.8c-1.1-0.3-2.2-0.8-3.3-1.3c-0.5,1.1-1.2,2.2-2.1,3.2c-1.2,1.4-2.5,2.6-4,3.7
		c-1.5,1.1-3.1,1.9-4.7,2.5l-1.8-1.7c1.6-0.6,3.1-1.4,4.5-2.4c1.4-1,2.6-2,3.6-3.2c1-1.2,1.7-2.4,2.2-3.6c0.5-1.3,0.6-2.5,0.4-3.7
		l2.8-0.8c0.3,1.2,0.2,2.5-0.1,3.8c0.8,0.5,1.8,0.9,2.8,1.2c1.1,0.3,2.3,0.6,3.6,0.7c1.3,0.2,2.6,0.2,3.9,0.1s2.7-0.2,4.1-0.4
		L139.3,322z"/>
	<path class="st9" d="M142.8,315.2l-0.6-2.1l20.5-5.9l0.6,2.1L142.8,315.2z M146.2,310l-0.6-2.1l11.6-3.3l0.6,2.1L146.2,310z
		 M156.9,324.2c-1.2,0.4-2.4,0.5-3.5,0.6c-1.1,0-2.1-0.1-3-0.3c-0.9-0.3-1.6-0.7-2.2-1.2c-0.6-0.6-1-1.2-1.3-2.1
		c-0.2-0.8-0.2-1.6,0-2.4c0.2-0.8,0.6-1.5,1.2-2.2c0.6-0.7,1.4-1.3,2.3-1.9c0.9-0.6,2-1,3.3-1.4c1.2-0.4,2.4-0.5,3.5-0.6
		s2.1,0.1,3,0.3c0.9,0.3,1.6,0.7,2.2,1.2c0.6,0.5,1,1.2,1.3,2.1s0.2,1.6,0,2.4c-0.2,0.8-0.6,1.5-1.2,2.2c-0.6,0.7-1.4,1.3-2.3,1.9
		C159.2,323.4,158.1,323.8,156.9,324.2z M156.3,322.1c1.7-0.5,3-1.2,3.9-2.1c0.9-0.9,1.2-1.9,0.8-3c-0.3-1.1-1.1-1.8-2.3-2.1
		c-1.2-0.3-2.7-0.2-4.4,0.3s-3,1.2-3.9,2.1c-0.9,0.9-1.2,1.9-0.8,3s1.1,1.8,2.3,2.1C153.1,322.7,154.5,322.6,156.3,322.1z
		 M173.5,321.2l3.3,11.3l-22.5,6.5l-3.3-11.3l2.6-0.8l0.9,3.1l17.2-5l-0.9-3.1L173.5,321.2z M173.5,331.1l-1.1-3.9l-17.2,5l1.1,3.9
		L173.5,331.1z M170.5,320.4l-5.1-17.7l2.6-0.8l2.2,7.8l4.3-1.2l0.7,2.4l-4.3,1.2l2.2,7.6L170.5,320.4z"/>
	<path class="st9" d="M193.5,307.2l1.2,4l13.8-4l0.7,2.3l-30.3,8.7l-0.7-2.3l13.8-4l-1.2-4l-10.4,3l-3.2-11.1l23.4-6.8l3.2,11.1
		L193.5,307.2z M182.4,308l18.2-5.2l-1.9-6.6l-18.2,5.2L182.4,308z M206.9,324.3l-2.2-7.5l-21.8,6.3l-0.7-2.3l24.4-7l2.8,9.8
		L206.9,324.3z"/>
	<path class="st9" d="M228,288.2l-7.6,2.2c0.2,1.3,0.2,2.5,0.1,3.7c0,0.4-0.1,0.8-0.1,1.1c1.5,1.2,3.3,2.2,5.4,2.9
		c2.2,0.7,4.5,1.1,6.8,1.2l-0.9,2.6c-1.1-0.1-2.2-0.3-3.3-0.5c-1.1-0.3-2.3-0.6-3.4-1c-1.1-0.4-2.2-0.9-3.2-1.4
		c-0.7-0.4-1.4-0.8-2-1.2c-0.2,0.6-0.4,1.2-0.7,1.8c-0.7,1.7-1.6,3.3-2.8,4.9s-2.4,2.9-3.8,4l-2.1-1.4c1.4-1.1,2.7-2.4,3.7-3.8
		c1-1.4,1.9-2.8,2.5-4.4c0.6-1.5,1-3.1,1.1-4.8c0.1-1,0.1-1.9-0.1-2.9l-8.9,2.6l-0.7-2.3l19.3-5.6L228,288.2z M240.7,314.5l-2.5-8.6
		l-21.2,6.1l-0.7-2.3l23.9-6.9l3.1,10.9L240.7,314.5z M227.1,292.6l6.7-1.9l-2.1-7.1l2.6-0.8l5.3,18.4l-2.6,0.8l-2.6-9l-6.7,1.9
		L227.1,292.6z"/>
	<path class="st9" d="M263.2,290.8c-1.1-0.1-2.3-0.3-3.4-0.6c-1.2-0.3-2.3-0.7-3.4-1.2c-1.1-0.5-2.2-1-3.2-1.7
		c-0.5-0.3-0.9-0.6-1.3-0.9c-0.2,0.8-0.5,1.7-0.9,2.5c-0.7,1.7-1.6,3.2-2.7,4.7c-1.1,1.5-2.3,2.8-3.6,3.8l-2.1-1.5
		c1.4-1.1,2.5-2.3,3.5-3.6s1.8-2.7,2.3-4.2c0.6-1.5,0.9-3,1.1-4.5c0.2-1.6,0.1-3.1-0.2-4.7l2.7-0.8c0.4,1.8,0.5,3.6,0.3,5.4
		c0,0.1,0,0.2,0,0.3c1.4,1.2,3,2.1,4.8,2.8c2.3,0.8,4.6,1.3,7,1.4L263.2,290.8z M262,293.1c1.5-0.4,2.8-0.6,4.1-0.6
		c1.3,0,2.5,0.2,3.5,0.6c1.1,0.4,1.9,1,2.7,1.7c0.7,0.7,1.3,1.7,1.6,2.7c0.3,1.1,0.3,2.1,0.1,3.1c-0.2,1-0.7,2-1.4,2.9
		c-0.7,0.9-1.6,1.7-2.7,2.4c-1.1,0.7-2.4,1.3-3.8,1.7c-1.5,0.4-2.8,0.6-4.2,0.6c-1.3,0-2.5-0.2-3.6-0.6c-1.1-0.4-1.9-1-2.7-1.7
		c-0.7-0.8-1.2-1.7-1.6-2.7c-0.3-1.1-0.4-2.1-0.1-3.1c0.2-1,0.7-2,1.3-2.9s1.6-1.7,2.7-2.4C259.3,294.1,260.6,293.5,262,293.1z
		 M265.6,305.4c2.3-0.7,3.9-1.6,4.9-2.9c1-1.3,1.3-2.7,0.8-4.1c-0.4-1.5-1.4-2.5-2.9-3.1c-1.5-0.6-3.4-0.5-5.7,0.1
		c-2.3,0.7-3.9,1.6-4.9,3c-1,1.3-1.3,2.7-0.8,4.1c0.4,1.5,1.4,2.5,2.9,3.1C261.4,306.1,263.3,306,265.6,305.4z M258.2,281.5l7.7-2.2
		l-1.5-5.2l2.6-0.8l5,17.2l-2.6,0.8l-2.8-9.8l-7.7,2.2L258.2,281.5z"/>
</g>
<g class="st8">
	<path class="st9" d="M1077.4,132.8c-0.9-0.3-1.8-0.7-2.7-1.2c-0.9-0.5-1.8-1-2.7-1.7c-0.9-0.6-1.7-1.3-2.6-2
		c-0.5-0.4-0.9-0.8-1.3-1.2c-0.1,0.5-0.1,1-0.2,1.4c-0.3,1.7-0.8,3.4-1.5,4.9c-0.7,1.5-1.6,3-2.6,4.3l-1.7-1c2-2.4,3.3-5.3,3.8-8.6
		c0.6-3.3,0.3-7-0.8-11l2-0.6c0.6,2.2,1,4.3,1.1,6.3c0,0.6,0,1.2,0,1.8c1.2,1.4,2.7,2.7,4.4,3.8c1.8,1.2,3.7,2.1,5.7,2.7
		L1077.4,132.8z M1081.7,136l-6.5-22.7l1.9-0.6l2.5,8.7l3.7-1.1l0.5,1.7l-3.7,1.1l3.5,12.3L1081.7,136z"/>
	<path class="st9" d="M1084.7,116.1l-0.5-1.7l15.2-4.4l0.5,1.7L1084.7,116.1z M1095.1,107.8l0.5,1.7l-8.4,2.4l-0.5-1.7L1095.1,107.8
		z M1087.8,130.5l-0.5-1.7l7.6-2.3l-0.7-2.6c-0.5,0.1-0.9,0.1-1.4,0.1c-0.8,0-1.5-0.1-2.2-0.4c-0.7-0.2-1.2-0.6-1.7-1
		c-0.5-0.4-0.8-1-1-1.7c-0.2-0.7-0.2-1.3,0-2c0.2-0.6,0.5-1.2,0.9-1.8c0.4-0.6,1-1,1.7-1.5c0.7-0.4,1.4-0.8,2.2-1
		c0.8-0.2,1.6-0.3,2.4-0.3c0.8,0,1.5,0.1,2.2,0.4c0.7,0.2,1.2,0.6,1.7,1s0.8,1,1,1.7c0.2,0.7,0.2,1.3,0,2c-0.2,0.6-0.5,1.2-0.9,1.8
		c-0.4,0.6-1,1.1-1.7,1.5c-0.4,0.2-0.8,0.5-1.3,0.6l0.7,2.6l7.7-2.3l0.5,1.6L1087.8,130.5z M1094.7,122.1c0.6-0.2,1.2-0.4,1.6-0.7
		c0.5-0.3,0.8-0.6,1.1-1c0.3-0.4,0.5-0.7,0.6-1.1c0.1-0.4,0.1-0.8,0-1.2c-0.1-0.4-0.3-0.8-0.6-1.1c-0.3-0.3-0.7-0.5-1.1-0.7
		c-0.4-0.1-0.9-0.2-1.5-0.2c-0.6,0-1.1,0.1-1.7,0.3c-0.6,0.2-1.2,0.4-1.6,0.7c-0.5,0.3-0.8,0.6-1.1,1c-0.3,0.4-0.5,0.7-0.6,1.1
		c-0.1,0.4-0.1,0.8,0,1.2c0.1,0.4,0.3,0.8,0.6,1.1c0.3,0.3,0.7,0.5,1.1,0.7c0.4,0.1,0.9,0.2,1.5,0.2
		C1093.5,122.4,1094.1,122.3,1094.7,122.1z M1107.1,128.7l-6.5-22.7l1.9-0.6l6.5,22.7L1107.1,128.7z"/>
	<path class="st9" d="M1125.6,107.6c0-0.5-0.1-1-0.1-1.6c-0.1-0.6-0.1-1.1-0.2-1.7c-0.1-0.6-0.2-1.1-0.3-1.7s-0.2-1-0.4-1.4l-16,4.6
		l-0.5-1.6l18-5.2c0.4,1.5,0.8,3,1,4.4c0.2,1.4,0.4,2.6,0.4,3.6L1125.6,107.6z M1118,111.5l-1.3-4.7l2-0.6l1.3,4.7l11-3.2l0.5,1.6
		l-22.3,6.4l-0.5-1.6L1118,111.5z M1120.9,114.4c1.1-0.3,2.1-0.5,3.1-0.5c1,0,1.9,0.1,2.7,0.4c0.8,0.3,1.5,0.7,2.1,1.2
		c0.6,0.5,1,1.2,1.2,2c0.2,0.8,0.2,1.6,0,2.3c-0.2,0.8-0.6,1.5-1.1,2.1c-0.5,0.6-1.2,1.2-2.1,1.7c-0.8,0.5-1.8,0.9-2.9,1.2
		c-1.1,0.3-2.1,0.5-3.1,0.5c-1,0-1.9-0.1-2.7-0.4c-0.8-0.3-1.5-0.7-2.1-1.2s-1-1.2-1.2-2c-0.2-0.8-0.2-1.6,0-2.3
		c0.2-0.8,0.6-1.5,1.1-2.1c0.5-0.6,1.2-1.2,2.1-1.7C1118.9,115.2,1119.8,114.8,1120.9,114.4z M1123.4,123.3c0.8-0.2,1.5-0.5,2.1-0.9
		c0.6-0.4,1.1-0.8,1.6-1.2c0.4-0.5,0.7-0.9,0.9-1.5c0.2-0.5,0.2-1.1,0-1.6c-0.2-0.6-0.4-1-0.9-1.4c-0.4-0.4-0.9-0.6-1.5-0.8
		c-0.6-0.2-1.2-0.2-2-0.2c-0.7,0-1.5,0.2-2.2,0.4c-0.8,0.2-1.5,0.5-2.1,0.9c-0.6,0.4-1.1,0.8-1.6,1.2c-0.4,0.5-0.7,1-0.9,1.5
		c-0.2,0.5-0.2,1.1,0,1.6c0.2,0.6,0.4,1,0.9,1.4c0.4,0.4,0.9,0.6,1.5,0.8c0.6,0.2,1.2,0.2,2,0.2
		C1121.9,123.6,1122.6,123.5,1123.4,123.3z"/>
	<path class="st9" d="M1149.7,100.7c0-0.5-0.1-1-0.1-1.6c-0.1-0.6-0.1-1.1-0.2-1.7c-0.1-0.6-0.2-1.1-0.3-1.7c-0.1-0.5-0.2-1-0.4-1.4
		l-16,4.6l-0.5-1.6l18-5.2c0.4,1.5,0.8,3,1,4.4c0.2,1.4,0.4,2.6,0.4,3.6L1149.7,100.7z M1142,104.6l-1.3-4.7l2-0.6l1.3,4.7l11-3.2
		l0.5,1.6l-22.3,6.4l-0.5-1.6L1142,104.6z M1144.9,107.5c1.1-0.3,2.1-0.5,3.1-0.5c1,0,1.9,0.1,2.7,0.4c0.8,0.3,1.5,0.7,2.1,1.2
		c0.6,0.5,1,1.2,1.2,2c0.2,0.8,0.2,1.6,0,2.3c-0.2,0.8-0.6,1.5-1.1,2.1c-0.5,0.6-1.2,1.2-2.1,1.7c-0.8,0.5-1.8,0.9-2.9,1.2
		c-1.1,0.3-2.1,0.5-3.1,0.5c-1,0-1.9-0.1-2.7-0.4c-0.8-0.3-1.5-0.7-2.1-1.2c-0.6-0.5-1-1.2-1.2-2c-0.2-0.8-0.2-1.6,0-2.3
		c0.2-0.8,0.6-1.5,1.1-2.1c0.5-0.6,1.2-1.2,2.1-1.7C1142.9,108.3,1143.9,107.8,1144.9,107.5z M1147.5,116.4c0.8-0.2,1.5-0.5,2.1-0.9
		c0.6-0.4,1.1-0.8,1.6-1.2c0.4-0.5,0.7-0.9,0.9-1.5c0.2-0.5,0.2-1.1,0-1.6c-0.2-0.6-0.4-1-0.9-1.4c-0.4-0.4-0.9-0.6-1.5-0.8
		c-0.6-0.2-1.2-0.2-2-0.2c-0.7,0-1.5,0.2-2.2,0.4c-0.8,0.2-1.5,0.5-2.1,0.9c-0.6,0.4-1.1,0.8-1.6,1.2c-0.4,0.5-0.7,1-0.9,1.5
		c-0.2,0.5-0.2,1.1,0,1.6c0.2,0.6,0.4,1,0.9,1.4c0.4,0.4,0.9,0.6,1.5,0.8c0.6,0.2,1.2,0.2,2,0.2
		C1145.9,116.7,1146.7,116.6,1147.5,116.4z"/>
	<path class="st9" d="M1172.3,99.3c-0.8-0.1-1.7-0.3-2.6-0.6c-0.9-0.3-1.8-0.7-2.6-1.1c-0.8-0.4-1.7-0.9-2.4-1.5
		c-0.3-0.2-0.6-0.5-0.9-0.7c-0.1,0.5-0.3,1-0.4,1.5c-0.4,1.4-1,2.6-1.8,3.9c-0.8,1.2-1.7,2.3-2.8,3.3l-1.6-1c1.1-0.9,2-1.9,2.7-3
		c0.7-1.1,1.3-2.3,1.6-3.5c0.4-1.2,0.6-2.5,0.6-3.8c0-1.3-0.1-2.6-0.4-3.9l2-0.6c0.4,1.5,0.5,2.9,0.5,4.4c0,0.3,0,0.5-0.1,0.8
		c0.4,0.4,0.8,0.8,1.3,1.1c0.7,0.5,1.5,1,2.3,1.4c0.8,0.4,1.7,0.7,2.6,1c0.9,0.3,1.8,0.4,2.8,0.5L1172.3,99.3z M1164.3,112l-2.2-7.5
		l1.9-0.6l1.7,5.8l15.6-4.5l0.5,1.7L1164.3,112z M1168.4,91.6l5.7-1.6l-1.4-4.7l1.9-0.6l4.8,16.8l-1.9,0.6l-3-10.4l-5.7,1.6
		L1168.4,91.6z"/>
</g>
</svg>
