<?xml version="1.0" encoding="utf-8"?>
<!-- Generator: Adobe Illustrator 23.0.1, SVG Export Plug-In . SVG Version: 6.00 Build 0)  -->
<svg version="1.1" id="Layer_1" xmlns="http://www.w3.org/2000/svg" xmlns:xlink="http://www.w3.org/1999/xlink" x="0px" y="0px"
	 viewBox="0 0 1340 555" style="enable-background:new 0 0 1340 555;" xml:space="preserve">
<style type="text/css">
	.st0{fill-rule:evenodd;clip-rule:evenodd;fill:#4AC3B6;}
	.st1{fill:none;stroke:#4AC3B6;stroke-width:5;stroke-miterlimit:10;}
	.st2{fill:url(#SVGID_1_);}
	.st3{fill:#6B4A4A;}
	.st4{fill-rule:evenodd;clip-rule:evenodd;fill:#BBB0DC;}
	.st5{fill:none;stroke:#BBB0DC;stroke-width:5;stroke-miterlimit:10;}
	.st6{fill-rule:evenodd;clip-rule:evenodd;fill:url(#SVGID_2_);}
	.st7{fill:#4E3434;}
	.st8{enable-background:new    ;}
	.st9{fill:#FFFFFF;stroke:#FFFFFF;stroke-width:0.5;stroke-miterlimit:10;}
	.st10{fill:#FFFFFF;stroke:#FFFFFF;stroke-miterlimit:10;}
</style>
<path class="st0" d="M1295.1,339.6c0.5-1.5,0.9-3,1.3-4.5c19.9-74.3-24.2-150.7-98.5-170.6c-74.1-19.9-150.3,23.9-170.5,97.9h-0.1
	L991,397.9l269.2,72.1L1295.1,339.6z"/>
<path class="st1" d="M1170.9,167.2l7.3-27c1.4-5.3,6.9-8.5,12.2-7.1l30,8c5.3,1.4,8.5,6.9,7.1,12.2l-7.3,27"/>
<linearGradient id="SVGID_1_" gradientUnits="userSpaceOnUse" x1="996.9711" y1="995.3734" x2="280.7371" y2="803.4584" gradientTransform="matrix(1 0 0 1 0 -528)">
	<stop  offset="0" style="stop-color:#6B4A4A"/>
	<stop  offset="0.4882" style="stop-color:#4A3232"/>
	<stop  offset="1" style="stop-color:#6B4A4A"/>
</linearGradient>
<path class="st2" d="M166.4,236.5l966.9,259.1l-1.6,5.8c-1.4,5.3-6.9,8.5-12.3,7.1L171.9,254.6c-5.3-1.4-8.5-6.9-7.1-12.2
	L166.4,236.5z"/>
<g>
	
		<rect x="1109.2" y="464.5" transform="matrix(0.2588 -0.9659 0.9659 0.2588 356.8763 1436.026)" class="st3" width="10" height="42"/>
	<g>
		<path class="st3" d="M1118.6,483.5c-105.1-26.8-153.5-70.3-164.5-88.7l349.8,93.7C1285.9,498,1223.7,510.3,1118.6,483.5z"/>
	</g>
</g>
<path class="st3" d="M952.6,382l353.5,94.7c3.2,0.9,5.1,4.1,4.2,7.3l0,0c-0.9,3.2-4.1,5.1-7.3,4.2l-353.5-94.7
	c-3.2-0.9-5.1-4.1-4.2-7.3l0,0C946.1,383,949.4,381.1,952.6,382z"/>
<path class="st4" d="M307.3,133.6c0.4-0.9,0.6-1.8,0.8-2.9c12.7-46.5-15.5-94.3-63-106.8c-47.4-12.3-96.1,15-108.9,61.2l0,0
	L112.8,170l172.1,45.1L307.3,133.6z"/>
<path class="st5" d="M227.5,25.9l3.3-12.1c1.6-6.1,8.1-9.7,14.2-8.1l9,2.4c6.2,1.6,9.9,7.9,8.3,13.9L259,34.1"/>
<g>
	
		<rect x="182.9" y="216.2" transform="matrix(0.2588 -0.9659 0.9659 0.2588 -89.7953 357.3329)" class="st3" width="10" height="42"/>
	<g>
		<path class="st3" d="M192.3,235.3C87.2,208.4,38.8,165,27.7,146.6l349.8,93.7C359.6,249.8,297.4,262.1,192.3,235.3z"/>
	</g>
</g>
<path class="st3" d="M26.2,133.7l353.5,94.7c3.2,0.9,5.1,4.1,4.2,7.3l0,0c-0.9,3.2-4.1,5.1-7.3,4.2L23.1,145.3
	c-3.2-0.9-5.1-4.1-4.2-7.3l0,0C19.8,134.8,23,132.9,26.2,133.7z"/>
<linearGradient id="SVGID_2_" gradientUnits="userSpaceOnUse" x1="655.514" y1="849" x2="655.514" y2="1036.8" gradientTransform="matrix(1 0 0 1 0 -528)">
	<stop  offset="0.8728" style="stop-color:#6B4A4A"/>
	<stop  offset="1" style="stop-color:#4D3434"/>
</linearGradient>
<path class="st6" d="M733.7,485.7c-1.2,0-2.3-0.7-2.7-1.8l-72.2-161.1c-1.1-2.4-4.4-2.4-5.5,0l-72.2,161.1c-0.5,1.1-1.6,1.8-2.7,1.8
	h-67.7c-4.9,0-9.1,3.6-9.9,8.5l-1.7,11.1c-0.3,1.8,1.1,3.5,3,3.5H809c1.9,0,3.3-1.7,2.9-3.6l-2.2-11.3c-0.9-4.7-5-8.1-9.8-8.1h-66.2
	V485.7z"/>
<circle class="st7" cx="655" cy="380" r="14"/>
<path class="st3" d="M484,510c0-2.2,1.8-4,4-4h335c2.2,0,4,1.8,4,4v9c0,5.5-4.5,10-10,10H494c-5.5,0-10-4.5-10-10V510z"/>
<g class="st8">
	<path class="st9" d="M154.8,88.5l10.9,2.8c-0.5,2-1.2,3.8-2.2,5.4c-1,1.6-2.1,3-3.4,4.3c-1.3,1.2-2.8,2.3-4.3,3.1s-3.2,1.5-5,1.9
		l-0.8-1.7c1.6-0.4,3.2-0.9,4.6-1.7s2.7-1.7,3.9-2.7c1.2-1,2.1-2.2,3-3.5c0.8-1.3,1.5-2.6,1.9-4.1l-9-2.3L154.8,88.5z M164.9,113.1
		l5.6-21.6l1.8,0.5l-5.6,21.6L164.9,113.1z"/>
	<path class="st9" d="M172.3,114.9l1.3-5.1l14.3,3.7l0.5-2l-14.3-3.7l0.4-1.5l7.1,1.8l0.5-2.1l-9.3-2.4l0.4-1.6l20.5,5.3l-0.4,1.6
		l-9.4-2.4l-0.5,2.1l7.1,1.8l-1.3,5l-14.3-3.7l-0.6,2.1l14.8,3.8l-0.4,1.5L172.3,114.9z M192.5,105.4c-0.8-0.3-1.5-0.6-2.3-1.1
		c-0.7-0.4-1.5-0.9-2.1-1.4c-0.7-0.5-1.3-1.1-1.9-1.8c-0.5-0.6-1-1.2-1.4-1.9c-0.7,0.5-1.5,0.9-2.3,1.2c-1.1,0.4-2.3,0.7-3.6,0.8
		c-1.3,0.1-2.5,0.1-3.6-0.1l-0.4-1.6c1.1,0.2,2.3,0.2,3.4,0.1c1.1-0.1,2.2-0.3,3.2-0.7s1.8-0.8,2.5-1.4c0.7-0.6,1.2-1.3,1.5-2.1
		l1.9,0.5c-0.3,0.8-0.7,1.6-1.4,2.2c0.3,0.6,0.7,1.2,1.2,1.7c0.5,0.6,1.1,1.1,1.8,1.7c0.7,0.5,1.4,1,2.2,1.4
		c0.8,0.4,1.6,0.8,2.5,1.2L192.5,105.4z"/>
	<path class="st9" d="M212.5,116.8l-2.1,7.9l-15.2-3.9l2.1-7.9l1.8,0.5l-0.6,2.2l11.7,3l0.6-2.2L212.5,116.8z M196.9,102.5l0.4-1.5
		l13.9,3.6l-0.4,1.5L196.9,102.5z M201.9,112.8c-0.8-0.2-1.6-0.5-2.2-0.9c-0.6-0.4-1.2-0.8-1.6-1.2c-0.4-0.5-0.7-1-0.9-1.5
		c-0.2-0.5-0.2-1.1,0-1.7c0.1-0.6,0.4-1.1,0.8-1.5c0.4-0.4,0.9-0.7,1.5-0.9c0.6-0.2,1.2-0.3,2-0.3c0.7,0,1.5,0.1,2.4,0.3
		c0.8,0.2,1.6,0.5,2.2,0.9c0.6,0.4,1.2,0.8,1.6,1.2c0.4,0.5,0.7,1,0.9,1.5c0.2,0.5,0.2,1.1,0,1.7s-0.4,1.1-0.8,1.5
		c-0.4,0.4-0.9,0.7-1.5,0.9c-0.6,0.2-1.2,0.3-2,0.3C203.5,113.1,202.7,113,201.9,112.8z M209.1,122.7l0.7-2.7l-11.7-3l-0.7,2.7
		L209.1,122.7z M202.2,111.3c1.2,0.3,2.2,0.3,3,0.1c0.8-0.2,1.3-0.7,1.5-1.5s0-1.5-0.6-2c-0.6-0.6-1.5-1-2.7-1.3
		c-1.2-0.3-2.2-0.3-3-0.1c-0.8,0.2-1.3,0.7-1.5,1.5s0,1.5,0.6,2C200.2,110.6,201.1,111,202.2,111.3z M200.6,100.6l0.4-1.5l7.8,2
		l-0.4,1.5L200.6,100.6z M211.1,115.2l3.2-12.4l1.8,0.5l-1.4,5.5l2.9,0.7l-0.4,1.6l-2.9-0.7l-1.4,5.3L211.1,115.2z"/>
	<path class="st9" d="M228.9,115.3l-0.7,2.8l9.4,2.4l-0.4,1.6l-20.5-5.3l0.4-1.6l9.4,2.4l0.7-2.8l-7-1.8l2-7.8l15.9,4.1l-2,7.8
		L228.9,115.3z M230.7,130.2l1.4-5.3l-14.8-3.8l0.4-1.6l16.5,4.3l-1.8,6.9L230.7,130.2z M222.2,111.9l12.3,3.2l1.2-4.7l-12.3-3.2
		L222.2,111.9z"/>
	<path class="st9" d="M255.5,116l-5.2-1.3c-0.3,0.8-0.8,1.6-1.3,2.3c-0.2,0.2-0.3,0.4-0.5,0.6c0.5,1.3,1.2,2.5,2.1,3.6
		c1,1.2,2.2,2.2,3.5,3.1l-1.4,1.2c-0.6-0.4-1.2-0.9-1.7-1.5c-0.6-0.6-1.1-1.2-1.6-1.8c-0.5-0.6-0.9-1.3-1.4-2
		c-0.3-0.5-0.5-1-0.7-1.4c-0.3,0.3-0.7,0.6-1,0.9c-1,0.8-2.1,1.4-3.3,2c-1.2,0.5-2.4,0.9-3.6,1.1l-0.7-1.6c1.2-0.2,2.4-0.5,3.4-1
		c1.1-0.5,2.1-1.1,2.9-1.8c0.9-0.7,1.6-1.5,2.3-2.5c0.4-0.6,0.7-1.1,1-1.8l-6-1.6l0.4-1.6l13.1,3.4L255.5,116z M253.6,136.1l1.6-6
		l-14.4-3.7l0.4-1.6l16.2,4.2l-2,7.6L253.6,136.1z M253.4,118.3l4.5,1.2l1.3-5l1.8,0.5l-3.3,12.9l-1.8-0.5l1.6-6.3l-4.5-1.2
		L253.4,118.3z"/>
	<path class="st9" d="M274.9,129.7c-0.6-0.4-1.2-0.9-1.8-1.5c-0.6-0.6-1.1-1.2-1.6-1.9c-0.5-0.7-0.9-1.4-1.3-2.1
		c-0.2-0.3-0.3-0.7-0.4-1c-0.4,0.4-0.9,0.8-1.4,1.2c-1,0.8-2,1.4-3.2,1.9c-1.1,0.5-2.3,0.9-3.4,1l-0.7-1.6c1.2-0.2,2.2-0.5,3.3-0.9
		c1-0.4,2-1,2.8-1.7c0.8-0.7,1.6-1.5,2.2-2.3c0.6-0.9,1.1-1.8,1.5-2.9l1.8,0.5c-0.4,1.2-0.9,2.3-1.7,3.3c0,0.1-0.1,0.1-0.1,0.2
		c0.4,1.2,1,2.3,1.8,3.3c1,1.3,2.2,2.4,3.5,3.3L274.9,129.7z M273.4,130.7c1,0.3,1.8,0.6,2.6,1.1c0.7,0.5,1.4,1,1.8,1.6
		c0.5,0.6,0.8,1.3,1,2c0.2,0.7,0.2,1.4,0,2.2c-0.2,0.7-0.5,1.4-1,1.9c-0.5,0.5-1.1,1-1.8,1.3c-0.7,0.3-1.5,0.5-2.4,0.5
		c-0.9,0-1.8-0.1-2.8-0.3c-1-0.3-1.9-0.6-2.6-1.1c-0.8-0.5-1.4-1-1.8-1.6c-0.5-0.6-0.8-1.3-0.9-2c-0.2-0.7-0.1-1.4,0-2.2
		c0.2-0.7,0.5-1.4,1-1.9c0.5-0.5,1.1-1,1.8-1.3c0.7-0.3,1.5-0.5,2.4-0.5C271.5,130.3,272.4,130.5,273.4,130.7z M271.2,139.3
		c1.5,0.4,2.8,0.4,3.9-0.1c1-0.4,1.7-1.2,1.9-2.2c0.3-1,0.1-2-0.6-2.8c-0.7-0.9-1.8-1.5-3.3-1.9c-1.5-0.4-2.8-0.4-3.9,0.1
		c-1,0.4-1.7,1.2-1.9,2.2c-0.3,1-0.1,2,0.6,2.8C268.5,138.3,269.6,138.9,271.2,139.3z M275.2,122.5l5.2,1.4l0.9-3.7l1.8,0.5l-3.1,12
		l-1.8-0.5l1.8-6.8l-5.2-1.4L275.2,122.5z"/>
</g>
<g class="st8">
	<path class="st10" d="M1090.7,309.8c-0.8-1-1.6-2.1-2.4-3.3c-0.8-1.2-1.5-2.5-2.1-3.8c-0.6-1.3-1.2-2.7-1.7-4.1
		c-0.3-0.8-0.5-1.5-0.7-2.3c-0.4,0.5-0.8,1-1.2,1.5c-1.5,1.8-3.3,3.4-5.2,4.8c-1.9,1.3-3.9,2.4-6,3.3l-1.3-2.3c4-1.5,7.4-4,10.3-7.5
		c2.9-3.5,5.1-8,6.5-13.5l2.7,0.7c-0.8,3-1.7,5.8-2.9,8.2c-0.4,0.7-0.8,1.4-1.2,2.1c0.5,2.5,1.3,5,2.5,7.5c1.3,2.6,2.9,5,4.8,7.1
		L1090.7,309.8z M1093.6,316.4l7.8-31.2l2.7,0.7l-3,11.9l5.1,1.3l-0.6,2.4l-5.1-1.3l-4.2,16.9L1093.6,316.4z"/>
	<path class="st10" d="M1110.7,295.2l0.6-2.3l20.8,5.2l-0.6,2.3L1110.7,295.2z M1128.6,292.5l-0.6,2.3l-11.5-2.9l0.6-2.3
		L1128.6,292.5z M1104.5,314.2l0.6-2.3l10.5,2.5l0.9-3.5c-0.6-0.2-1.2-0.5-1.7-0.8c-0.9-0.6-1.7-1.2-2.3-1.9
		c-0.6-0.7-1.1-1.5-1.3-2.4c-0.3-0.9-0.3-1.7-0.1-2.6c0.2-0.9,0.7-1.7,1.3-2.3c0.6-0.6,1.4-1.1,2.3-1.5c0.9-0.4,1.9-0.6,3-0.6
		c1.1,0,2.2,0.1,3.3,0.4c1.1,0.3,2.1,0.7,3.1,1.2c0.9,0.5,1.7,1.2,2.3,1.9c0.6,0.7,1.1,1.5,1.3,2.4s0.3,1.7,0.1,2.6
		c-0.2,0.9-0.7,1.7-1.3,2.3c-0.6,0.6-1.4,1.1-2.3,1.5c-0.9,0.4-1.9,0.6-3,0.6c-0.6,0-1.3,0-1.9-0.1l-0.9,3.5l10.7,2.5l-0.6,2.2
		L1104.5,314.2z M1118.3,309c0.8,0.2,1.6,0.3,2.4,0.3c0.7,0,1.4-0.1,2-0.4c0.6-0.2,1.1-0.5,1.5-0.9c0.4-0.4,0.7-0.9,0.8-1.5
		c0.1-0.6,0.1-1.1,0-1.7c-0.1-0.5-0.4-1-0.8-1.5c-0.4-0.5-0.9-0.9-1.6-1.3c-0.6-0.4-1.4-0.7-2.2-0.9c-0.8-0.2-1.6-0.3-2.4-0.3
		c-0.7,0-1.4,0.1-2,0.4c-0.6,0.2-1.1,0.5-1.5,0.9c-0.4,0.4-0.7,0.9-0.8,1.5c-0.1,0.6-0.1,1.1,0,1.7c0.1,0.5,0.4,1,0.8,1.5
		c0.4,0.5,0.9,0.9,1.6,1.3C1116.7,308.5,1117.5,308.8,1118.3,309z M1128.5,325.2l7.8-31.2l2.7,0.7l-7.8,31.2L1128.5,325.2z"/>
	<path class="st10" d="M1164.5,313c0.3-0.6,0.6-1.2,0.9-1.9s0.6-1.4,0.9-2.2c0.3-0.7,0.5-1.5,0.8-2.2s0.4-1.4,0.6-1.9l-21.9-5.5
		l0.5-2.2l24.6,6.2c-0.5,2-1.1,4-1.8,5.8c-0.7,1.8-1.3,3.3-1.9,4.5L1164.5,313z M1152.9,312.3l1.6-6.4l2.7,0.7l-1.6,6.4l15.1,3.8
		l-0.6,2.2l-30.6-7.7l0.6-2.2L1152.9,312.3z M1154.3,317.8c1.4,0.4,2.8,0.9,3.9,1.5c1.2,0.7,2.1,1.4,2.9,2.2
		c0.8,0.8,1.3,1.8,1.6,2.8c0.3,1,0.3,2.1,0,3.2c-0.3,1.1-0.8,2-1.5,2.8c-0.7,0.8-1.7,1.3-2.7,1.7c-1.1,0.4-2.3,0.6-3.6,0.6
		c-1.3,0-2.7-0.1-4.2-0.5c-1.4-0.4-2.8-0.9-3.9-1.5c-1.2-0.7-2.1-1.4-2.9-2.2c-0.8-0.8-1.3-1.8-1.6-2.8c-0.3-1-0.3-2.1,0-3.2
		c0.3-1.1,0.8-2,1.5-2.8c0.7-0.8,1.7-1.3,2.7-1.7c1.1-0.4,2.3-0.6,3.6-0.6C1151.5,317.3,1152.9,317.5,1154.3,317.8z M1151.3,329.9
		c1.1,0.3,2.1,0.4,3.1,0.4c1,0,1.9-0.1,2.7-0.4c0.8-0.3,1.5-0.6,2-1.1c0.5-0.5,0.9-1.1,1.1-1.9c0.2-0.8,0.2-1.5-0.1-2.2
		c-0.2-0.7-0.7-1.4-1.2-2c-0.6-0.6-1.3-1.1-2.2-1.6c-0.9-0.5-1.8-0.8-2.9-1.1c-1.1-0.3-2.1-0.4-3.1-0.4c-1,0-1.9,0.1-2.7,0.4
		c-0.8,0.3-1.5,0.6-2,1.1c-0.5,0.5-0.9,1.1-1.1,1.9c-0.2,0.8-0.2,1.5,0.1,2.2c0.2,0.7,0.7,1.4,1.2,2c0.6,0.6,1.3,1.1,2.2,1.6
		C1149.2,329.3,1150.2,329.6,1151.3,329.9z"/>
	<path class="st10" d="M1197.5,321.2c0.3-0.6,0.6-1.2,0.9-1.9c0.3-0.7,0.6-1.4,0.9-2.2c0.3-0.7,0.5-1.5,0.8-2.2
		c0.2-0.7,0.4-1.4,0.6-1.9l-21.9-5.5l0.5-2.2l24.6,6.2c-0.5,2-1.1,4-1.8,5.8c-0.7,1.8-1.3,3.3-1.9,4.5L1197.5,321.2z M1185.9,320.6
		l1.6-6.4l2.7,0.7l-1.6,6.4l15.1,3.8l-0.6,2.2l-30.6-7.7l0.6-2.2L1185.9,320.6z M1187.3,326.1c1.4,0.4,2.8,0.9,3.9,1.5
		c1.2,0.7,2.1,1.4,2.9,2.2c0.8,0.8,1.3,1.8,1.6,2.8c0.3,1,0.3,2.1,0,3.2c-0.3,1.1-0.8,2-1.5,2.8c-0.7,0.8-1.7,1.3-2.7,1.7
		c-1.1,0.4-2.3,0.6-3.6,0.6c-1.3,0-2.7-0.1-4.2-0.5c-1.4-0.4-2.8-0.9-3.9-1.5c-1.2-0.7-2.1-1.4-2.9-2.2c-0.8-0.8-1.3-1.8-1.6-2.8
		c-0.3-1-0.3-2.1,0-3.2c0.3-1.1,0.8-2,1.5-2.8c0.7-0.8,1.7-1.3,2.7-1.7c1.1-0.4,2.3-0.6,3.6-0.6
		C1184.4,325.5,1185.8,325.7,1187.3,326.1z M1184.2,338.2c1.1,0.3,2.1,0.4,3.1,0.4c1,0,1.9-0.1,2.7-0.4c0.8-0.3,1.5-0.6,2-1.1
		c0.5-0.5,0.9-1.1,1.1-1.9c0.2-0.8,0.2-1.5-0.1-2.2c-0.2-0.7-0.7-1.4-1.2-2c-0.6-0.6-1.3-1.1-2.2-1.6c-0.9-0.5-1.8-0.8-2.9-1.1
		c-1.1-0.3-2.1-0.4-3.1-0.4c-1,0-1.9,0.1-2.7,0.4c-0.8,0.3-1.5,0.6-2,1.1c-0.5,0.5-0.9,1.1-1.1,1.9c-0.2,0.8-0.2,1.5,0.1,2.2
		c0.2,0.7,0.7,1.4,1.2,2c0.6,0.6,1.3,1.1,2.2,1.6C1182.2,337.5,1183.2,337.9,1184.2,338.2z"/>
	<path class="st10" d="M1225,335c-0.9-0.7-1.8-1.6-2.6-2.5c-0.9-1-1.6-2-2.3-3.1c-0.7-1.1-1.3-2.2-1.8-3.4c-0.2-0.5-0.4-1-0.6-1.4
		c-0.5,0.5-1,1-1.5,1.5c-1.4,1.3-3,2.4-4.8,3.3c-1.7,0.9-3.6,1.5-5.5,1.9l-1.2-2.3c1.9-0.3,3.6-0.9,5.2-1.7c1.6-0.8,3-1.8,4.3-3
		c1.3-1.2,2.4-2.5,3.3-4c0.9-1.5,1.6-3.1,2.2-4.8l2.7,0.7c-0.5,2-1.4,3.8-2.4,5.5c-0.2,0.3-0.4,0.6-0.6,0.9c0.2,0.7,0.4,1.5,0.7,2.2
		c0.5,1.1,1.1,2.2,1.8,3.3c0.7,1,1.5,2,2.4,2.9c0.9,0.9,1.8,1.7,2.9,2.5L1225,335z M1207,344.4l2.6-10.3l2.7,0.7l-2,8l21.3,5.3
		l-0.6,2.3L1207,344.4z M1225.7,323.3l7.8,2l1.6-6.5l2.7,0.7l-5.8,23l-2.7-0.7l3.5-14.2l-7.8-2L1225.7,323.3z"/>
</g>
</svg>
