<?xml version="1.0" encoding="utf-8"?>
<!-- Generator: Adobe Illustrator 23.0.1, SVG Export Plug-In . SVG Version: 6.00 Build 0)  -->
<svg version="1.1" xmlns="http://www.w3.org/2000/svg" xmlns:xlink="http://www.w3.org/1999/xlink" x="0px" y="0px"
	 viewBox="0 0 664.71 223.71" style="enable-background:new 0 0 664.71 223.71;" xml:space="preserve">
<style type="text/css">
	.st0{display:none;}
	.st1{display:inline;}
	.st2{fill:#BBB0D7;}
	.st3{fill:#F9B6AE;}
	.st4{fill:#5C1C2C;}
	.st5{fill:#6C4B4B;}
	.st6{fill-rule:evenodd;clip-rule:evenodd;fill:#FAD58C;}
	.st7{fill:#4EC1B5;}
</style>
<g id="Layer_5" class="st0">
	<g class="st1">
		
			<ellipse transform="matrix(0.9857 -0.1685 0.1685 0.9857 -14.1518 23.2106)" class="st2" cx="129.71" cy="95.01" rx="126.95" ry="80.38"/>
		
			<ellipse transform="matrix(0.9857 -0.1685 0.1685 0.9857 -1.9596 99.4605)" class="st3" cx="585.17" cy="61.28" rx="60.62" ry="38.65"/>
		<path class="st4" d="M102.59,189.21l531.7-90.87c0.96-0.16,1.86,0.48,2.03,1.44v0c0.16,0.96-0.48,1.86-1.44,2.03l-531.7,90.87
			c-0.96,0.16-1.86-0.48-2.03-1.44v0C100.99,190.29,101.63,189.38,102.59,189.21z"/>
		<g>
			<g>
				<path class="st5" d="M581.02,104.77l22.51-3.85l0.28,1.61c0.09,0.54-0.27,1.06-0.82,1.15l-20.54,3.51
					c-0.54,0.09-1.06-0.27-1.15-0.82L581.02,104.77z"/>
			</g>
			<g>
				<path class="st5" d="M593.22,103.13c-29.38,5.38-46.48,0.07-51.36-3.25l98.29-16.8C636.75,87.52,622.6,97.75,593.22,103.13z"/>
			</g>
		</g>
		<g>
			<g>
				<path class="st5" d="M131.59,181.58l22.51-3.85l0.27,1.61c0.09,0.54-0.27,1.06-0.82,1.15l-20.54,3.51
					c-0.54,0.09-1.06-0.27-1.15-0.82L131.59,181.58z"/>
			</g>
			<g>
				<path class="st5" d="M143.78,179.94c-29.38,5.38-46.48,0.07-51.36-3.25l98.29-16.8C187.31,164.33,173.17,174.57,143.78,179.94z"
					/>
			</g>
		</g>
		<g>
			<path class="st6" d="M305.38,187.37c-0.71,1.01-1.08,2.21-1.08,3.44v19.11c0,3.31,2.69,6,6,6h41c3.31,0,6-2.69,6-6v-19.08
				c0-1.25-0.39-2.47-1.12-3.49l-22.87-32.02c-0.63-0.89-1.66-1.42-2.75-1.42c-1.1,0-2.14,0.54-2.77,1.44L305.38,187.37z"/>
		</g>
	</g>
</g>
<g id="Layer_3">
	<g>
		<g>
			<path class="st6" d="M305.62,187.42c-0.71,1.01-1.08,2.21-1.08,3.44v19.11c0,3.31,2.69,6,6,6h41c3.31,0,6-2.69,6-6v-19.08
				c0-1.25-0.39-2.47-1.12-3.49l-22.87-32.02c-0.63-0.89-1.66-1.42-2.75-1.42c-1.1,0-2.14,0.54-2.77,1.44L305.62,187.42z"/>
		</g>
		<g>
			
				<ellipse transform="matrix(0.1686 -0.9857 0.9857 0.1686 352.3752 604.705)" class="st7" cx="534.66" cy="93.47" rx="80.38" ry="126.95"/>
			
				<ellipse transform="matrix(0.1686 -0.9857 0.9857 0.1686 3.4292 125.2657)" class="st2" cx="75.97" cy="60.6" rx="38.65" ry="60.62"/>
			<path class="st4" d="M28.56,98.5l531.69,90.96c0.96,0.16,1.6,1.07,1.44,2.03v0c-0.16,0.96-1.07,1.6-2.03,1.44L27.97,101.96
				c-0.96-0.16-1.6-1.07-1.44-2.03l0,0C26.69,98.98,27.6,98.34,28.56,98.5z"/>
			<g>
				<g>
					<path class="st5" d="M507.76,175.82l22.51,3.85l-0.28,1.61c-0.09,0.54-0.61,0.91-1.15,0.82l-20.54-3.51
						c-0.54-0.09-0.91-0.61-0.82-1.15L507.76,175.82z"/>
				</g>
				<g>
					<path class="st5" d="M519.81,178.33c-29.5-4.69-43.86-15.38-47.36-20.13l98.28,16.81
						C566.05,178.07,549.31,183.02,519.81,178.33z"/>
				</g>
			</g>
			<g>
				<g>
					<path class="st5" d="M58.34,98.94l22.51,3.85l-0.28,1.61c-0.09,0.54-0.61,0.91-1.15,0.82l-20.54-3.51
						c-0.54-0.09-0.91-0.61-0.82-1.15L58.34,98.94z"/>
				</g>
				<g>
					<path class="st5" d="M70.39,101.45c-29.5-4.69-43.86-15.38-47.36-20.13l98.28,16.81C116.63,101.19,99.89,106.14,70.39,101.45z"
						/>
				</g>
			</g>
		</g>
	</g>
	<g id="Layer_2">
	</g>
</g>
<g id="Layer_1" class="st0">
	<g class="st1">
		<g>
			<path class="st6" d="M333.61,155.44c-0.64-0.9-1.68-1.43-2.78-1.42c-1.09,0.01-2.11,0.54-2.74,1.44l-22.65,32.18
				c-0.72,1.02-1.1,2.24-1.09,3.5l0.13,19.08c0.02,3.31,2.73,5.98,6.04,5.96l41-0.29c3.31-0.02,5.98-2.73,5.96-6.04l-0.13-19.11
				c-0.01-1.23-0.4-2.43-1.11-3.43L333.61,155.44z"/>
		</g>
		
			<ellipse transform="matrix(0.9852 -0.1713 0.1713 0.9852 -14.2798 23.6446)" class="st3" cx="129.83" cy="94.55" rx="126.95" ry="80.38"/>
		
			<ellipse transform="matrix(0.9852 -0.1713 0.1713 0.9852 -1.2468 101.0727)" class="st7" cx="584.9" cy="57.76" rx="60.62" ry="38.65"/>
		<path class="st4" d="M102.99,188.83l531.43-92.43c0.96-0.17,1.87,0.47,2.03,1.43v0c0.17,0.96-0.47,1.87-1.43,2.03l-531.43,92.42
			c-0.96,0.17-1.87-0.47-2.03-1.43l0,0C101.39,189.91,102.03,189,102.99,188.83z"/>
		<g>
			<g>
				<path class="st5" d="M581.17,102.99l22.5-3.91l0.28,1.61c0.09,0.54-0.27,1.06-0.81,1.16l-20.53,3.57
					c-0.54,0.09-1.06-0.27-1.16-0.81L581.17,102.99z"/>
			</g>
			<g>
				<path class="st5" d="M593.36,101.32c-29.37,5.46-46.48,0.21-51.37-3.1l98.24-17.09C636.85,85.58,622.73,95.85,593.36,101.32z"/>
			</g>
		</g>
		<g>
			<g>
				<path class="st5" d="M131.96,181.12l22.5-3.91l0.28,1.61c0.09,0.54-0.27,1.06-0.81,1.16l-20.53,3.57
					c-0.54,0.09-1.06-0.27-1.16-0.81L131.96,181.12z"/>
			</g>
			<g>
				<path class="st5" d="M144.15,179.44c-29.37,5.46-46.48,0.21-51.37-3.1l98.24-17.09C187.64,163.71,173.52,173.98,144.15,179.44z"
					/>
			</g>
		</g>
	</g>
	<g id="Layer_2_copy" class="st1">
	</g>
</g>
<g id="Layer_6">
</g>
</svg>
