<?xml version="1.0" encoding="utf-8"?>
<!-- Generator: Adobe Illustrator 23.0.1, SVG Export Plug-In . SVG Version: 6.00 Build 0)  -->
<svg version="1.1" xmlns="http://www.w3.org/2000/svg" xmlns:xlink="http://www.w3.org/1999/xlink" x="0px" y="0px"
	 viewBox="0 0 1337 559" style="enable-background:new 0 0 1337 559;" xml:space="preserve">
<style type="text/css">
	.st0{fill:url(#SVGID_1_);}
	.st1{fill:#6B4A4A;}
	.st2{fill-rule:evenodd;clip-rule:evenodd;fill:#4AC3B6;}
	.st3{fill:none;stroke:#4AC3B6;stroke-width:5;stroke-linecap:round;}
	.st4{fill-rule:evenodd;clip-rule:evenodd;fill:#BBB0DC;}
	.st5{fill:none;stroke:#BBB0DC;stroke-width:5;stroke-linecap:round;}
	.st6{fill-rule:evenodd;clip-rule:evenodd;fill:url(#Union_1_);}
	.st7{fill:#4E3434;}
</style>
<g id="Layer_2">
	<g>
		
			<linearGradient id="SVGID_1_" gradientUnits="userSpaceOnUse" x1="1030.0001" y1="1110.9999" x2="288.5001" y2="1111.0001" gradientTransform="matrix(1 0 0 1 0 -712)">
			<stop  offset="0" style="stop-color:#6B4A4A"/>
			<stop  offset="0.4882" style="stop-color:#4A3232"/>
			<stop  offset="1" style="stop-color:#6B4A4A"/>
		</linearGradient>
		<path class="st0" d="M168,391h1001v6c0,5.5-4.5,10-10,10H178c-5.5,0-10-4.5-10-10V391z"/>
		<g>
			<g>
				<rect x="1127" y="381" class="st1" width="42" height="10"/>
				<g>
					<path class="st1" d="M1151.7,383.1c-108.5,1.3-166.5-28.2-181.9-43.1H1332C1317.1,353.8,1260.2,381.8,1151.7,383.1z"/>
				</g>
			</g>
			<path class="st1" d="M965,328h366c3.3,0,6,2.7,6,6l0,0c0,3.3-2.7,6-6,6H965c-3.3,0-6-2.7-6-6l0,0C959,330.7,961.7,328,965,328z"
				/>
		</g>
		<g>
			<g>
				<rect x="168" y="381" class="st1" width="42" height="10"/>
				<g>
					<path class="st1" d="M192.7,383.1C84.2,384.4,26.2,354.9,10.8,340H373C358.1,353.8,301.1,381.8,192.7,383.1z"/>
				</g>
			</g>
			<path class="st1" d="M6,328h366c3.3,0,6,2.7,6,6l0,0c0,3.3-2.7,6-6,6H6c-3.3,0-6-2.7-6-6l0,0C0,330.7,2.7,328,6,328z"/>
		</g>
	</g>
	<g>
		<path class="st2" d="M328.3,193c0.1-1.6,0.1-3.1,0.1-4.7c0-77-62.4-139.3-139.3-139.3c-76.7,0-139,62-139.3,138.6h-0.1V328h278.7
			V193H328.3z"/>
		<path class="st3" d="M163.6,58.6v-28c0-5.5,4.5-10,10-10h31c5.5,0,10,4.5,10,10v28"/>
	</g>
	<g>
		<path class="st4" d="M1242.9,242.9c0-1,0-2,0-3c0-48.6-41.2-87.9-92-87.9c-50.6,0-91.7,39.2-92,87.4l0,0V328h183.9V242.9z"/>
		<path class="st5" d="M1134,158.3v-12.7c0-6.3,5.4-11.5,12.1-11.5h9.6c6.6,0,12.1,5.2,12.1,11.5v12.7"/>
	</g>
</g>
<g id="Layer_1">
	<g>
		
			<linearGradient id="Union_1_" gradientUnits="userSpaceOnUse" x1="668.4139" y1="1055" x2="668.4139" y2="1242.8" gradientTransform="matrix(1 0 0 1 0 -712)">
			<stop  offset="0.8728" style="stop-color:#6B4A4A"/>
			<stop  offset="1" style="stop-color:#4D3434"/>
		</linearGradient>
		<path id="Union_2_" class="st6" d="M746.7,507.7c-1.2,0-2.3-0.7-2.7-1.8l-72.3-161.1c-1.1-2.4-4.4-2.4-5.5,0L594,505.9
			c-0.5,1.1-1.6,1.8-2.7,1.8h-67.7c-4.9,0-9.1,3.6-9.9,8.5l-1.7,11.1c-0.3,1.8,1.1,3.5,3,3.5h306.9c1.9,0,3.3-1.7,2.9-3.6l-2.2-11.3
			c-0.9-4.7-5-8.1-9.8-8.1L746.7,507.7L746.7,507.7z"/>
		<circle class="st7" cx="668" cy="402" r="14"/>
		<path class="st1" d="M497,532c0-2.2,1.8-4,4-4h335c2.2,0,4,1.8,4,4v9c0,5.5-4.5,10-10,10H507c-5.5,0-10-4.5-10-10V532z"/>
	</g>
</g>
</svg>
